<?xml version="1.0" encoding="UTF-8" standalone="no"?>
<!DOCTYPE svg PUBLIC "-//W3C//DTD SVG 1.1//EN"
 "http://www.w3.org/Graphics/SVG/1.1/DTD/svg11.dtd">
<!-- Generated by graphviz version 2.40.1 (20161225.0304)
 -->
<!-- Title: /home/travis/build/AliceO2Group/AliceO2/Utilities/rANS/include/rANS/Decoder.h Pages: 1 -->
<svg width="922pt" height="285pt"
 viewBox="0.00 0.00 922.22 285.00" xmlns="http://www.w3.org/2000/svg" xmlns:xlink="http://www.w3.org/1999/xlink">
<g id="graph0" class="graph" transform="scale(1 1) rotate(0) translate(4 281)">
<title>/home/travis/build/AliceO2Group/AliceO2/Utilities/rANS/include/rANS/Decoder.h</title>
<!-- Node0 -->
<g id="node1" class="node">
<title>Node0</title>
<polygon fill="#bfbfbf" stroke="#000000" points="245.2219,-224.5 245.2219,-276.5 372.2219,-276.5 372.2219,-224.5 245.2219,-224.5"/>
<text text-anchor="start" x="253.2219" y="-264.5" font-family="Helvetica,sans-Serif" font-size="10.00" fill="#000000">/home/travis/build</text>
<text text-anchor="start" x="253.2219" y="-253.5" font-family="Helvetica,sans-Serif" font-size="10.00" fill="#000000">/AliceO2Group/AliceO2</text>
<text text-anchor="start" x="253.2219" y="-242.5" font-family="Helvetica,sans-Serif" font-size="10.00" fill="#000000">/Utilities/rANS/include</text>
<text text-anchor="middle" x="308.7219" y="-231.5" font-family="Helvetica,sans-Serif" font-size="10.00" fill="#000000">/rANS/Decoder.h</text>
</g>
<!-- Node1 -->
<g id="node2" class="node">
<title>Node1</title>
<polygon fill="none" stroke="#bfbfbf" points="186.2219,-.5 186.2219,-19.5 239.2219,-19.5 239.2219,-.5 186.2219,-.5"/>
<text text-anchor="middle" x="212.7219" y="-7.5" font-family="Helvetica,sans-Serif" font-size="10.00" fill="#000000">cstddef</text>
</g>
<!-- Node0&#45;&gt;Node1 -->
<g id="edge1" class="edge">
<title>Node0&#45;&gt;Node1</title>
<path fill="none" stroke="#191970" d="M245.0621,-236.9324C169.3837,-216.8031 47.7901,-170.7222 3.7219,-76 -.0276,-67.9406 -1.8471,-62.9281 3.7219,-56 24.8895,-29.6668 121.4704,-17.5325 175.6258,-12.7132"/>
<polygon fill="#191970" stroke="#191970" points="176.1882,-16.1781 185.8563,-11.8448 175.5961,-9.2032 176.1882,-16.1781"/>
</g>
<!-- Node2 -->
<g id="node3" class="node">
<title>Node2</title>
<polygon fill="none" stroke="#bfbfbf" points="451.2219,-112.5 451.2219,-131.5 520.2219,-131.5 520.2219,-112.5 451.2219,-112.5"/>
<text text-anchor="middle" x="485.7219" y="-119.5" font-family="Helvetica,sans-Serif" font-size="10.00" fill="#000000">type_traits</text>
</g>
<!-- Node0&#45;&gt;Node2 -->
<g id="edge2" class="edge">
<title>Node0&#45;&gt;Node2</title>
<path fill="none" stroke="#191970" d="M372.3987,-240.7437C406.2433,-232.3194 445.8758,-216.7299 470.7219,-188 481.639,-175.3764 485.0595,-156.4445 485.9413,-142.0898"/>
<polygon fill="#191970" stroke="#191970" points="489.4482,-141.8512 486.199,-131.7669 482.4504,-141.6764 489.4482,-141.8512"/>
</g>
<!-- Node3 -->
<g id="node4" class="node">
<title>Node3</title>
<polygon fill="none" stroke="#bfbfbf" points="12.7219,-56.5 12.7219,-75.5 72.7219,-75.5 72.7219,-56.5 12.7219,-56.5"/>
<text text-anchor="middle" x="42.7219" y="-63.5" font-family="Helvetica,sans-Serif" font-size="10.00" fill="#000000">iostream</text>
</g>
<!-- Node0&#45;&gt;Node3 -->
<g id="edge3" class="edge">
<title>Node0&#45;&gt;Node3</title>
<path fill="none" stroke="#191970" d="M245.1029,-228.8729C219.0335,-218.5217 189.2821,-204.7106 164.7219,-188 119.9996,-157.5713 77.6645,-109.364 56.6029,-83.6022"/>
<polygon fill="#191970" stroke="#191970" points="59.3029,-81.3747 50.3031,-75.7842 53.8523,-85.7669 59.3029,-81.3747"/>
</g>
<!-- Node4 -->
<g id="node5" class="node">
<title>Node4</title>
<polygon fill="none" stroke="#bfbfbf" points="90.7219,-56.5 90.7219,-75.5 198.7219,-75.5 198.7219,-56.5 90.7219,-56.5"/>
<text text-anchor="middle" x="144.7219" y="-63.5" font-family="Helvetica,sans-Serif" font-size="10.00" fill="#000000">fairlogger/Logger.h</text>
</g>
<!-- Node0&#45;&gt;Node4 -->
<g id="edge4" class="edge">
<title>Node0&#45;&gt;Node4</title>
<path fill="none" stroke="#191970" d="M245.1002,-227.3323C224.1363,-217.5099 201.8348,-204.4629 184.7219,-188 164.2206,-168.2774 162.6856,-158.9988 153.7219,-132 148.7116,-116.909 146.4871,-98.9889 145.5012,-85.6324"/>
<polygon fill="#191970" stroke="#191970" points="148.9956,-85.4324 144.9304,-75.6485 142.007,-85.832 148.9956,-85.4324"/>
</g>
<!-- Node5 -->
<g id="node6" class="node">
<title>Node5</title>
<g id="a_node6"><a xlink:href="../../d8/dd9/SymbolTable_8h.html" target="_top" xlink:title="Container for information needed to encode/decode a symbol of the alphabet. ">
<polygon fill="none" stroke="#000000" points="193.7219,-168.5 193.7219,-187.5 281.7219,-187.5 281.7219,-168.5 193.7219,-168.5"/>
<text text-anchor="middle" x="237.7219" y="-175.5" font-family="Helvetica,sans-Serif" font-size="10.00" fill="#000000">SymbolTable.h</text>
</a>
</g>
</g>
<!-- Node0&#45;&gt;Node5 -->
<g id="edge5" class="edge">
<title>Node0&#45;&gt;Node5</title>
<path fill="none" stroke="#191970" d="M283.0893,-224.3258C273.4793,-214.5128 262.8214,-203.6298 254.2517,-194.879"/>
<polygon fill="#191970" stroke="#191970" points="256.5561,-192.2297 247.0586,-187.534 251.5548,-197.1275 256.5561,-192.2297"/>
</g>
<!-- Node15 -->
<g id="node16" class="node">
<title>Node15</title>
<g id="a_node16"><a xlink:href="../../d7/d99/DecoderSymbol_8h.html" target="_top" xlink:title="Structure containing all relevant information for decoding a rANS encoded symbol. ...">
<polygon fill="none" stroke="#000000" points="811.2219,-112.5 811.2219,-131.5 914.2219,-131.5 914.2219,-112.5 811.2219,-112.5"/>
<text text-anchor="middle" x="862.7219" y="-119.5" font-family="Helvetica,sans-Serif" font-size="10.00" fill="#000000">DecoderSymbol.h</text>
</a>
</g>
</g>
<!-- Node0&#45;&gt;Node15 -->
<g id="edge21" class="edge">
<title>Node0&#45;&gt;Node15</title>
<path fill="none" stroke="#191970" d="M372.4782,-244.8593C450.8494,-236.8973 587.391,-219.6695 700.7219,-188 748.9645,-174.519 802.2901,-151.0123 834.1231,-135.9948"/>
<polygon fill="#191970" stroke="#191970" points="835.7628,-139.0905 843.2828,-131.6272 832.75,-132.772 835.7628,-139.0905"/>
</g>
<!-- Node17 -->
<g id="node18" class="node">
<title>Node17</title>
<g id="a_node18"><a xlink:href="../../dc/d3b/ReverseSymbolLookupTable_8h.html" target="_top" xlink:title="Maps CDF back to source symbol &#45; needed for the decoder. ">
<polygon fill="none" stroke="#000000" points="299.7219,-168.5 299.7219,-187.5 461.7219,-187.5 461.7219,-168.5 299.7219,-168.5"/>
<text text-anchor="middle" x="380.7219" y="-175.5" font-family="Helvetica,sans-Serif" font-size="10.00" fill="#000000">ReverseSymbolLookupTable.h</text>
</a>
</g>
</g>
<!-- Node0&#45;&gt;Node17 -->
<g id="edge23" class="edge">
<title>Node0&#45;&gt;Node17</title>
<path fill="none" stroke="#191970" d="M334.7156,-224.3258C344.4609,-214.5128 355.2689,-203.6298 363.9593,-194.879"/>
<polygon fill="#191970" stroke="#191970" points="366.6905,-197.0958 371.2537,-187.534 361.7236,-192.1632 366.6905,-197.0958"/>
</g>
<!-- Node18 -->
<g id="node19" class="node">
<title>Node18</title>
<g id="a_node19"><a xlink:href="../../d5/d7a/Coder_8h.html" target="_top" xlink:title="Stateless class for coding and decoding symbols using rANS. ">
<polygon fill="none" stroke="#000000" points="639.2219,-168.5 639.2219,-187.5 692.2219,-187.5 692.2219,-168.5 639.2219,-168.5"/>
<text text-anchor="middle" x="665.7219" y="-175.5" font-family="Helvetica,sans-Serif" font-size="10.00" fill="#000000">Coder.h</text>
</a>
</g>
</g>
<!-- Node0&#45;&gt;Node18 -->
<g id="edge29" class="edge">
<title>Node0&#45;&gt;Node18</title>
<path fill="none" stroke="#191970" d="M372.5463,-237.5385C447.4345,-222.3301 569.0229,-197.6378 629.3643,-185.3835"/>
<polygon fill="#191970" stroke="#191970" points="630.0976,-188.8062 639.201,-183.3859 628.7044,-181.9462 630.0976,-188.8062"/>
</g>
<!-- Node5&#45;&gt;Node4 -->
<g id="edge7" class="edge">
<title>Node5&#45;&gt;Node4</title>
<path fill="none" stroke="#191970" d="M216.6917,-168.4884C201.4782,-160.6469 181.4386,-148.1911 168.7219,-132 158.1445,-118.5326 151.9493,-99.9761 148.5117,-85.9686"/>
<polygon fill="#191970" stroke="#191970" points="151.8651,-84.9189 146.3149,-75.8942 145.0258,-86.4103 151.8651,-84.9189"/>
</g>
<!-- Node6 -->
<g id="node7" class="node">
<title>Node6</title>
<polygon fill="none" stroke="#bfbfbf" points="483.2219,-56.5 483.2219,-75.5 530.2219,-75.5 530.2219,-56.5 483.2219,-56.5"/>
<text text-anchor="middle" x="506.7219" y="-63.5" font-family="Helvetica,sans-Serif" font-size="10.00" fill="#000000">vector</text>
</g>
<!-- Node5&#45;&gt;Node6 -->
<g id="edge6" class="edge">
<title>Node5&#45;&gt;Node6</title>
<path fill="none" stroke="#191970" d="M259.5829,-168.4321C289.3716,-155.44 344.424,-131.5914 391.7219,-112 419.1872,-100.6235 450.5267,-88.119 473.5459,-79.0226"/>
<polygon fill="#191970" stroke="#191970" points="474.8482,-82.2714 482.8663,-75.3461 472.2796,-75.7597 474.8482,-82.2714"/>
</g>
<!-- Node7 -->
<g id="node8" class="node">
<title>Node7</title>
<g id="a_node8"><a xlink:href="../../d0/d51/SymbolStatistics_8h.html" target="_top" xlink:title="Structure to depict the distribution of symbols in the source message. ">
<polygon fill="none" stroke="#000000" points="211.2219,-112.5 211.2219,-131.5 318.2219,-131.5 318.2219,-112.5 211.2219,-112.5"/>
<text text-anchor="middle" x="264.7219" y="-119.5" font-family="Helvetica,sans-Serif" font-size="10.00" fill="#000000">SymbolStatistics.h</text>
</a>
</g>
</g>
<!-- Node5&#45;&gt;Node7 -->
<g id="edge8" class="edge">
<title>Node5&#45;&gt;Node7</title>
<path fill="none" stroke="#191970" d="M242.4249,-168.2455C246.0643,-160.6973 251.2143,-150.0158 255.6481,-140.8197"/>
<polygon fill="#191970" stroke="#191970" points="258.8824,-142.1704 260.0728,-131.6427 252.577,-139.1303 258.8824,-142.1704"/>
</g>
<!-- Node7&#45;&gt;Node3 -->
<g id="edge11" class="edge">
<title>Node7&#45;&gt;Node3</title>
<path fill="none" stroke="#191970" d="M226.5044,-112.4494C191.5709,-103.707 138.2057,-90.3208 82.9262,-76.2982"/>
<polygon fill="#191970" stroke="#191970" points="83.5057,-72.8343 72.9519,-73.7663 81.7834,-79.6192 83.5057,-72.8343"/>
</g>
<!-- Node7&#45;&gt;Node4 -->
<g id="edge16" class="edge">
<title>Node7&#45;&gt;Node4</title>
<path fill="none" stroke="#191970" d="M244.0932,-112.3733C224.83,-103.3838 195.8733,-89.8706 174.18,-79.7471"/>
<polygon fill="#191970" stroke="#191970" points="175.6234,-76.5584 165.0814,-75.5011 172.6632,-82.9017 175.6234,-76.5584"/>
</g>
<!-- Node7&#45;&gt;Node6 -->
<g id="edge13" class="edge">
<title>Node7&#45;&gt;Node6</title>
<path fill="none" stroke="#191970" d="M308.9995,-112.4913C350.393,-103.4895 413.8784,-89.3951 468.7219,-76 470.1716,-75.6459 471.6509,-75.2794 473.1444,-74.905"/>
<polygon fill="#191970" stroke="#191970" points="474.2191,-78.2428 483.0383,-72.3715 472.4826,-71.4616 474.2191,-78.2428"/>
</g>
<!-- Node8 -->
<g id="node9" class="node">
<title>Node8</title>
<polygon fill="none" stroke="#bfbfbf" points="362.7219,-56.5 362.7219,-75.5 426.7219,-75.5 426.7219,-56.5 362.7219,-56.5"/>
<text text-anchor="middle" x="394.7219" y="-63.5" font-family="Helvetica,sans-Serif" font-size="10.00" fill="#000000">algorithm</text>
</g>
<!-- Node7&#45;&gt;Node8 -->
<g id="edge9" class="edge">
<title>Node7&#45;&gt;Node8</title>
<path fill="none" stroke="#191970" d="M287.0697,-112.3733C308.1252,-103.3032 339.8714,-89.6279 363.4394,-79.4755"/>
<polygon fill="#191970" stroke="#191970" points="364.8663,-82.6719 372.6657,-75.5011 362.0969,-76.243 364.8663,-82.6719"/>
</g>
<!-- Node9 -->
<g id="node10" class="node">
<title>Node9</title>
<polygon fill="none" stroke="#bfbfbf" points="639.7219,-56.5 639.7219,-75.5 691.7219,-75.5 691.7219,-56.5 639.7219,-56.5"/>
<text text-anchor="middle" x="665.7219" y="-63.5" font-family="Helvetica,sans-Serif" font-size="10.00" fill="#000000">cassert</text>
</g>
<!-- Node7&#45;&gt;Node9 -->
<g id="edge10" class="edge">
<title>Node7&#45;&gt;Node9</title>
<path fill="none" stroke="#191970" d="M318.3763,-115.9235C387.0185,-107.9214 509.5041,-92.8741 613.7219,-76 618.8649,-75.1673 624.2792,-74.2132 629.5926,-73.2323"/>
<polygon fill="#191970" stroke="#191970" points="630.4151,-76.6388 639.5883,-71.3377 629.1114,-69.7612 630.4151,-76.6388"/>
</g>
<!-- Node10 -->
<g id="node11" class="node">
<title>Node10</title>
<polygon fill="none" stroke="#bfbfbf" points="216.7219,-56.5 216.7219,-75.5 272.7219,-75.5 272.7219,-56.5 216.7219,-56.5"/>
<text text-anchor="middle" x="244.7219" y="-63.5" font-family="Helvetica,sans-Serif" font-size="10.00" fill="#000000">numeric</text>
</g>
<!-- Node7&#45;&gt;Node10 -->
<g id="edge12" class="edge">
<title>Node7&#45;&gt;Node10</title>
<path fill="none" stroke="#191970" d="M261.2382,-112.2455C258.5711,-104.7776 254.8086,-94.2427 251.5482,-85.1137"/>
<polygon fill="#191970" stroke="#191970" points="254.8252,-83.8829 248.1657,-75.6427 248.233,-86.2373 254.8252,-83.8829"/>
</g>
<!-- Node11 -->
<g id="node12" class="node">
<title>Node11</title>
<polygon fill="none" stroke="#bfbfbf" points="458.2219,-.5 458.2219,-19.5 505.2219,-19.5 505.2219,-.5 458.2219,-.5"/>
<text text-anchor="middle" x="481.7219" y="-7.5" font-family="Helvetica,sans-Serif" font-size="10.00" fill="#000000">cmath</text>
</g>
<!-- Node7&#45;&gt;Node11 -->
<g id="edge14" class="edge">
<title>Node7&#45;&gt;Node11</title>
<path fill="none" stroke="#191970" d="M314.8852,-112.4791C358.0291,-103.5807 416.2895,-89.6525 435.7219,-76 452.6214,-64.127 465.3459,-43.9487 473.0799,-29.0216"/>
<polygon fill="#191970" stroke="#191970" points="476.3916,-30.2156 477.6269,-19.693 470.0992,-27.1485 476.3916,-30.2156"/>
</g>
<!-- Node12 -->
<g id="node13" class="node">
<title>Node12</title>
<polygon fill="none" stroke="#bfbfbf" points="291.2219,-56.5 291.2219,-75.5 344.2219,-75.5 344.2219,-56.5 291.2219,-56.5"/>
<text text-anchor="middle" x="317.7219" y="-63.5" font-family="Helvetica,sans-Serif" font-size="10.00" fill="#000000">iterator</text>
</g>
<!-- Node7&#45;&gt;Node12 -->
<g id="edge15" class="edge">
<title>Node7&#45;&gt;Node12</title>
<path fill="none" stroke="#191970" d="M273.9538,-112.2455C281.5536,-104.2155 292.5096,-92.6394 301.5587,-83.0781"/>
<polygon fill="#191970" stroke="#191970" points="304.264,-85.3115 308.5958,-75.6427 299.1799,-80.4998 304.264,-85.3115"/>
</g>
<!-- Node13 -->
<g id="node14" class="node">
<title>Node13</title>
<g id="a_node14"><a xlink:href="../../d4/da1/helper_8h.html" target="_top" xlink:title="various helper functions ">
<polygon fill="none" stroke="#000000" points="548.7219,-56.5 548.7219,-75.5 604.7219,-75.5 604.7219,-56.5 548.7219,-56.5"/>
<text text-anchor="middle" x="576.7219" y="-63.5" font-family="Helvetica,sans-Serif" font-size="10.00" fill="#000000">helper.h</text>
</a>
</g>
</g>
<!-- Node7&#45;&gt;Node13 -->
<g id="edge17" class="edge">
<title>Node7&#45;&gt;Node13</title>
<path fill="none" stroke="#191970" d="M318.2911,-114.4807C373.7238,-106.3556 462.6812,-92.3529 538.7219,-76 538.8219,-75.9785 538.9221,-75.9569 539.0224,-75.9352"/>
<polygon fill="#191970" stroke="#191970" points="539.6223,-79.3892 548.5688,-73.7137 538.0357,-72.5713 539.6223,-79.3892"/>
</g>
<!-- Node13&#45;&gt;Node1 -->
<g id="edge18" class="edge">
<title>Node13&#45;&gt;Node1</title>
<path fill="none" stroke="#191970" d="M548.5861,-58.2033C545.2741,-57.4022 541.9319,-56.6465 538.7219,-56 434.8541,-35.0799 310.4785,-20.3375 249.755,-13.7951"/>
<polygon fill="#191970" stroke="#191970" points="249.8382,-10.2843 239.5238,-12.7058 249.097,-17.2449 249.8382,-10.2843"/>
</g>
<!-- Node13&#45;&gt;Node11 -->
<g id="edge19" class="edge">
<title>Node13&#45;&gt;Node11</title>
<path fill="none" stroke="#191970" d="M560.1742,-56.2455C545.462,-47.5731 523.7331,-34.7645 506.8714,-24.825"/>
<polygon fill="#191970" stroke="#191970" points="508.4721,-21.7057 498.08,-19.6427 504.9173,-27.736 508.4721,-21.7057"/>
</g>
<!-- Node14 -->
<g id="node15" class="node">
<title>Node14</title>
<polygon fill="none" stroke="#bfbfbf" points="551.7219,-.5 551.7219,-19.5 601.7219,-19.5 601.7219,-.5 551.7219,-.5"/>
<text text-anchor="middle" x="576.7219" y="-7.5" font-family="Helvetica,sans-Serif" font-size="10.00" fill="#000000">chrono</text>
</g>
<!-- Node13&#45;&gt;Node14 -->
<g id="edge20" class="edge">
<title>Node13&#45;&gt;Node14</title>
<path fill="none" stroke="#191970" d="M576.7219,-56.2455C576.7219,-48.9382 576.7219,-38.6944 576.7219,-29.7046"/>
<polygon fill="#191970" stroke="#191970" points="580.222,-29.6426 576.7219,-19.6427 573.222,-29.6427 580.222,-29.6426"/>
</g>
<!-- Node16 -->
<g id="node17" class="node">
<title>Node16</title>
<polygon fill="none" stroke="#bfbfbf" points="757.7219,-56.5 757.7219,-75.5 807.7219,-75.5 807.7219,-56.5 757.7219,-56.5"/>
<text text-anchor="middle" x="782.7219" y="-63.5" font-family="Helvetica,sans-Serif" font-size="10.00" fill="#000000">cstdint</text>
</g>
<!-- Node15&#45;&gt;Node16 -->
<g id="edge22" class="edge">
<title>Node15&#45;&gt;Node16</title>
<path fill="none" stroke="#191970" d="M848.787,-112.2455C836.6272,-103.7337 818.7755,-91.2375 804.6934,-81.3801"/>
<polygon fill="#191970" stroke="#191970" points="806.6966,-78.51 796.4972,-75.6427 802.6824,-84.2447 806.6966,-78.51"/>
</g>
<!-- Node17&#45;&gt;Node2 -->
<g id="edge25" class="edge">
<title>Node17&#45;&gt;Node2</title>
<path fill="none" stroke="#191970" d="M399.0115,-168.2455C415.4981,-159.4527 439.9571,-146.4079 458.6984,-136.4125"/>
<polygon fill="#191970" stroke="#191970" points="460.4654,-139.4368 467.6419,-131.6427 457.1713,-133.2604 460.4654,-139.4368"/>
</g>
<!-- Node17&#45;&gt;Node4 -->
<g id="edge26" class="edge">
<title>Node17&#45;&gt;Node4</title>
<path fill="none" stroke="#191970" d="M302.1841,-168.4178C269.3254,-161.8072 231.8555,-150.6826 201.7219,-132 182.328,-119.9759 166.0128,-99.2331 155.8736,-84.2056"/>
<polygon fill="#191970" stroke="#191970" points="158.7542,-82.2147 150.3862,-75.7164 152.8755,-86.0147 158.7542,-82.2147"/>
</g>
<!-- Node17&#45;&gt;Node6 -->
<g id="edge24" class="edge">
<title>Node17&#45;&gt;Node6</title>
<path fill="none" stroke="#191970" d="M382.5508,-168.2699C385.6514,-154.211 393.1805,-128.1375 408.7219,-112 426.2005,-93.851 452.2484,-82.0954 473.0971,-75.0143"/>
<polygon fill="#191970" stroke="#191970" points="474.3881,-78.2764 482.8539,-71.9061 472.2633,-71.6067 474.3881,-78.2764"/>
</g>
<!-- Node17&#45;&gt;Node7 -->
<g id="edge27" class="edge">
<title>Node17&#45;&gt;Node7</title>
<path fill="none" stroke="#191970" d="M360.7808,-168.3733C342.2433,-159.4241 314.4191,-145.9917 293.4806,-135.8835"/>
<polygon fill="#191970" stroke="#191970" points="294.93,-132.6967 284.4028,-131.5011 291.8867,-139.0006 294.93,-132.6967"/>
</g>
<!-- Node17&#45;&gt;Node13 -->
<g id="edge28" class="edge">
<title>Node17&#45;&gt;Node13</title>
<path fill="none" stroke="#191970" d="M387.4331,-168.0513C397.5848,-153.7201 418.1772,-127.3107 441.7219,-112 458.017,-101.4036 505.1015,-86.5028 539.0809,-76.5629"/>
<polygon fill="#191970" stroke="#191970" points="540.0857,-79.9158 548.7181,-73.7732 538.1393,-73.1918 540.0857,-79.9158"/>
</g>
<!-- Node18&#45;&gt;Node6 -->
<g id="edge30" class="edge">
<title>Node18&#45;&gt;Node6</title>
<path fill="none" stroke="#191970" d="M648.9853,-168.4854C633.5495,-159.5358 610.154,-145.5257 590.7219,-132 567.7783,-116.0302 542.7328,-95.9863 526.0141,-82.2018"/>
<polygon fill="#191970" stroke="#191970" points="528.015,-79.314 518.0855,-75.6187 523.5433,-84.6996 528.015,-79.314"/>
</g>
<!-- Node18&#45;&gt;Node9 -->
<g id="edge32" class="edge">
<title>Node18&#45;&gt;Node9</title>
<path fill="none" stroke="#191970" d="M685.482,-168.3999C706.7564,-156.6268 736.1199,-135.3395 724.7219,-112 718.3178,-98.8865 706.1698,-88.4229 694.5534,-80.8092"/>
<polygon fill="#191970" stroke="#191970" points="696.243,-77.7405 685.878,-75.5457 692.6121,-83.7252 696.243,-77.7405"/>
</g>
<!-- Node18&#45;&gt;Node13 -->
<g id="edge38" class="edge">
<title>Node18&#45;&gt;Node13</title>
<path fill="none" stroke="#191970" d="M648.8308,-168.339C635.6489,-160.0935 617.6334,-147.1792 605.7219,-132 594.7625,-118.034 587.0447,-99.2824 582.341,-85.3359"/>
<polygon fill="#191970" stroke="#191970" points="585.6696,-84.2536 579.3277,-75.7665 578.9928,-86.356 585.6696,-84.2536"/>
</g>
<!-- Node18&#45;&gt;Node15 -->
<g id="edge33" class="edge">
<title>Node18&#45;&gt;Node15</title>
<path fill="none" stroke="#191970" d="M692.2902,-170.4476C724.7801,-161.2119 780.228,-145.45 819.0299,-134.4201"/>
<polygon fill="#191970" stroke="#191970" points="820.3432,-137.6855 829.0051,-131.5845 818.4291,-130.9522 820.3432,-137.6855"/>
</g>
<!-- Node18&#45;&gt;Node16 -->
<g id="edge31" class="edge">
<title>Node18&#45;&gt;Node16</title>
<path fill="none" stroke="#191970" d="M686.5573,-168.4815C702.6641,-160.4009 724.8225,-147.6382 740.7219,-132 754.5911,-118.3586 766.0886,-99.3208 773.5265,-85.1958"/>
<polygon fill="#191970" stroke="#191970" points="776.8234,-86.4311 778.2009,-75.9262 770.5731,-83.2793 776.8234,-86.4311"/>
</g>
<!-- Node19 -->
<g id="node20" class="node">
<title>Node19</title>
<g id="a_node20"><a xlink:href="../../d2/d53/EncoderSymbol_8h.html" target="_top" xlink:title="Structure containing all relevant information to encode a symbol. ">
<polygon fill="none" stroke="#000000" points="615.2219,-112.5 615.2219,-131.5 716.2219,-131.5 716.2219,-112.5 615.2219,-112.5"/>
<text text-anchor="middle" x="665.7219" y="-119.5" font-family="Helvetica,sans-Serif" font-size="10.00" fill="#000000">EncoderSymbol.h</text>
</a>
</g>
</g>
<!-- Node18&#45;&gt;Node19 -->
<g id="edge34" class="edge">
<title>Node18&#45;&gt;Node19</title>
<path fill="none" stroke="#191970" d="M665.7219,-168.2455C665.7219,-160.9382 665.7219,-150.6944 665.7219,-141.7046"/>
<polygon fill="#191970" stroke="#191970" points="669.222,-141.6426 665.7219,-131.6427 662.222,-141.6427 669.222,-141.6426"/>
</g>
<!-- Node19&#45;&gt;Node9 -->
<g id="edge36" class="edge">
<title>Node19&#45;&gt;Node9</title>
<path fill="none" stroke="#191970" d="M665.7219,-112.2455C665.7219,-104.9382 665.7219,-94.6944 665.7219,-85.7046"/>
<polygon fill="#191970" stroke="#191970" points="669.222,-85.6426 665.7219,-75.6427 662.222,-85.6427 669.222,-85.6426"/>
</g>
<!-- Node19&#45;&gt;Node13 -->
<g id="edge37" class="edge">
<title>Node19&#45;&gt;Node13</title>
<path fill="none" stroke="#191970" d="M650.2193,-112.2455C636.5639,-103.6534 616.4562,-91.0014 600.723,-81.1018"/>
<polygon fill="#191970" stroke="#191970" points="602.3748,-78.006 592.0469,-75.6427 598.6468,-83.9307 602.3748,-78.006"/>
</g>
<!-- Node19&#45;&gt;Node16 -->
<g id="edge35" class="edge">
<title>Node19&#45;&gt;Node16</title>
<path fill="none" stroke="#191970" d="M685.8349,-112.3733C704.5322,-103.4241 732.5963,-89.9917 753.7153,-79.8835"/>
<polygon fill="#191970" stroke="#191970" points="755.3624,-82.9755 762.8713,-75.5011 752.3402,-76.6614 755.3624,-82.9755"/>
</g>
</g>
</svg>
