<?xml version="1.0" encoding="UTF-8" standalone="no"?>
<!DOCTYPE svg PUBLIC "-//W3C//DTD SVG 1.1//EN"
 "http://www.w3.org/Graphics/SVG/1.1/DTD/svg11.dtd">
<!-- Generated by graphviz version 2.40.1 (20161225.0304)
 -->
<!-- Title: o2::raw::RawFileWriter::PayloadCache Pages: 1 -->
<svg width="194pt" height="182pt"
 viewBox="0.00 0.00 193.50 182.00" xmlns="http://www.w3.org/2000/svg" xmlns:xlink="http://www.w3.org/1999/xlink">
<g id="graph0" class="graph" transform="scale(1 1) rotate(0) translate(4 178)">
<title>o2::raw::RawFileWriter::PayloadCache</title>
<!-- Node1 -->
<g id="node1" class="node">
<title>Node1</title>
<polygon fill="#bfbfbf" stroke="#000000" points="24,-.5 24,-68.5 149,-68.5 149,-.5 24,-.5"/>
<text text-anchor="start" x="32" y="-56.5" font-family="Helvetica,sans-Serif" font-size="10.00" fill="#000000">o2::raw::RawFileWriter</text>
<text text-anchor="middle" x="86.5" y="-45.5" font-family="Helvetica,sans-Serif" font-size="10.00" fill="#000000">::PayloadCache</text>
<polyline fill="none" stroke="#000000" points="24,-38.5 149,-38.5 "/>
<text text-anchor="middle" x="86.5" y="-26.5" font-family="Helvetica,sans-Serif" font-size="10.00" fill="#000000"> </text>
<polyline fill="none" stroke="#000000" points="24,-19.5 149,-19.5 "/>
<text text-anchor="start" x="32" y="-7.5" font-family="Helvetica,sans-Serif" font-size="10.00" fill="#000000">+ ClassDefNV()</text>
</g>
<!-- Node2 -->
<g id="node2" class="node">
<title>Node2</title>
<polygon fill="none" stroke="#bfbfbf" points="0,-116.5 0,-173.5 91,-173.5 91,-116.5 0,-116.5"/>
<text text-anchor="middle" x="45.5" y="-161.5" font-family="Helvetica,sans-Serif" font-size="10.00" fill="#000000">vector&lt; char &gt;</text>
<polyline fill="none" stroke="#bfbfbf" points="0,-154.5 91,-154.5 "/>
<text text-anchor="middle" x="45.5" y="-142.5" font-family="Helvetica,sans-Serif" font-size="10.00" fill="#000000"> </text>
<polyline fill="none" stroke="#bfbfbf" points="0,-135.5 91,-135.5 "/>
<text text-anchor="middle" x="45.5" y="-123.5" font-family="Helvetica,sans-Serif" font-size="10.00" fill="#000000"> </text>
</g>
<!-- Node2&#45;&gt;Node1 -->
<g id="edge1" class="edge">
<title>Node2&#45;&gt;Node1</title>
<path fill="none" stroke="#404040" d="M48.3256,-116.4376C49.8187,-106.8838 52.0822,-96.3035 55.5,-87 56.4194,-84.4974 57.4579,-81.9791 58.5833,-79.4724"/>
<polygon fill="none" stroke="#404040" points="58.6272,-79.384 57.7189,-72.2303 63.973,-68.6405 64.8812,-75.7942 58.6272,-79.384"/>
<text text-anchor="middle" x="81" y="-90" font-family="Helvetica,sans-Serif" font-size="10.00" fill="#000000"> +payload</text>
</g>
<!-- Node3 -->
<g id="node3" class="node">
<title>Node3</title>
<polygon fill="none" stroke="#bfbfbf" points="109.5,-116.5 109.5,-173.5 147.5,-173.5 147.5,-116.5 109.5,-116.5"/>
<text text-anchor="middle" x="128.5" y="-161.5" font-family="Helvetica,sans-Serif" font-size="10.00" fill="#000000">bool</text>
<polyline fill="none" stroke="#bfbfbf" points="109.5,-154.5 147.5,-154.5 "/>
<text text-anchor="middle" x="128.5" y="-142.5" font-family="Helvetica,sans-Serif" font-size="10.00" fill="#000000"> </text>
<polyline fill="none" stroke="#bfbfbf" points="109.5,-135.5 147.5,-135.5 "/>
<text text-anchor="middle" x="128.5" y="-123.5" font-family="Helvetica,sans-Serif" font-size="10.00" fill="#000000"> </text>
</g>
<!-- Node3&#45;&gt;Node1 -->
<g id="edge2" class="edge">
<title>Node3&#45;&gt;Node1</title>
<path fill="none" stroke="#404040" d="M117.6539,-116.3812C114.1022,-107.0161 110.1353,-96.5634 106.5,-87 105.62,-84.6851 104.7179,-82.313 103.8066,-79.9177"/>
<polygon fill="none" stroke="#404040" points="103.7937,-79.8836 97.9209,-75.6991 99.5247,-68.6686 105.3975,-72.8531 103.7937,-79.8836"/>
<text text-anchor="middle" x="147.5" y="-90" font-family="Helvetica,sans-Serif" font-size="10.00" fill="#000000"> +preformatted</text>
</g>
</g>
</svg>
