<?xml version="1.0" encoding="UTF-8" standalone="no"?>
<!DOCTYPE svg PUBLIC "-//W3C//DTD SVG 1.1//EN"
 "http://www.w3.org/Graphics/SVG/1.1/DTD/svg11.dtd">
<!-- Generated by graphviz version 2.40.1 (20161225.0304)
 -->
<!-- Title: /home/travis/build/AliceO2Group/AliceO2/DataFormats/Detectors/Common/include/DetectorsCommonDataFormats/EncodedBlocks.h Pages: 1 -->
<!--zoomable 408 -->
<svg id="main" version="1.1" xmlns="http://www.w3.org/2000/svg" xmlns:xlink="http://www.w3.org/1999/xlink" xml:space="preserve" onload="init(evt)">
<style type="text/css"><![CDATA[
.edge:hover path { stroke: red; }
.edge:hover polygon { stroke: red; fill: red; }
]]></style>
<script type="text/javascript"><![CDATA[
var edges = document.getElementsByTagName('g');
if (edges && edges.length) {
  for (var i=0;i<edges.length;i++) {
    if (edges[i].id.substr(0,4)=='edge') {
      edges[i].setAttribute('class','edge');
    }
  }
}
]]></script>
        <defs>
                <circle id="rim" cx="0" cy="0" r="7"/>
                <circle id="rim2" cx="0" cy="0" r="3.5"/>
                <g id="zoomPlus">
                        <use xlink:href="#rim" fill="#404040">
                                <set attributeName="fill" to="#808080" begin="zoomplus.mouseover" end="zoomplus.mouseout"/>
                        </use>
                        <path d="M-4,0h8M0,-4v8" fill="none" stroke="white" stroke-width="1.5" pointer-events="none"/>
                </g>
                <g id="zoomMin">
                        <use xlink:href="#rim" fill="#404040">
                                <set attributeName="fill" to="#808080" begin="zoomminus.mouseover" end="zoomminus.mouseout"/>
                        </use>
                        <path d="M-4,0h8" fill="none" stroke="white" stroke-width="1.5" pointer-events="none"/>
                </g>
                <g id="dirArrow">
                        <path fill="none" stroke="white" stroke-width="1.5" d="M0,-3.0v7 M-2.5,-0.5L0,-3.0L2.5,-0.5"/>
                </g>
               <g id="resetDef">
                       <use xlink:href="#rim2" fill="#404040">
                               <set attributeName="fill" to="#808080" begin="reset.mouseover" end="reset.mouseout"/>
                       </use>
               </g>
        </defs>

<script type="text/javascript">
var viewWidth = 1429;
var viewHeight = 408;
var sectionId = 'dynsection-0';
</script>
<script xlink:href="../../svgpan.js"/>
<svg id="graph" class="graph">
<g id="viewport">
<title>/home/travis/build/AliceO2Group/AliceO2/DataFormats/Detectors/Common/include/DetectorsCommonDataFormats/EncodedBlocks.h</title>
<!-- Node0 -->
<g id="node1" class="node">
<title>Node0</title>
<polygon fill="#bfbfbf" stroke="#000000" points="961.5,-336.5 961.5,-399.5 1158.5,-399.5 1158.5,-336.5 961.5,-336.5"/>
<text text-anchor="start" x="969.5" y="-387.5" font-family="Helvetica,sans-Serif" font-size="10.00" fill="#000000">/home/travis/build</text>
<text text-anchor="start" x="969.5" y="-376.5" font-family="Helvetica,sans-Serif" font-size="10.00" fill="#000000">/AliceO2Group/AliceO2</text>
<text text-anchor="start" x="969.5" y="-365.5" font-family="Helvetica,sans-Serif" font-size="10.00" fill="#000000">/DataFormats/Detectors</text>
<text text-anchor="start" x="969.5" y="-354.5" font-family="Helvetica,sans-Serif" font-size="10.00" fill="#000000">/Common/include/DetectorsCommon</text>
<text text-anchor="middle" x="1060" y="-343.5" font-family="Helvetica,sans-Serif" font-size="10.00" fill="#000000">DataFormats/EncodedBlocks.h</text>
</g>
<!-- Node1 -->
<g id="node2" class="node">
<title>Node1</title>
<polygon fill="none" stroke="#bfbfbf" points="867.5,-112.5 867.5,-131.5 936.5,-131.5 936.5,-112.5 867.5,-112.5"/>
<text text-anchor="middle" x="902" y="-119.5" font-family="Helvetica,sans-Serif" font-size="10.00" fill="#000000">type_traits</text>
</g>
<!-- Node0&#45;&gt;Node1 -->
<g id="edge1" class="edge">
<title>Node0&#45;&gt;Node1</title>
<path fill="none" stroke="#191970" d="M1018.3082,-336.1643C1006.2166,-325.5678 993.679,-313.1009 984,-300 945.6887,-248.144 919.1658,-175.5295 907.9705,-141.2996"/>
<polygon fill="#191970" stroke="#191970" points="911.2529,-140.0725 904.8787,-131.6097 904.5841,-142.2004 911.2529,-140.0725"/>
</g>
<!-- Node2 -->
<g id="node3" class="node">
<title>Node2</title>
<polygon fill="none" stroke="#bfbfbf" points="993.5,-280.5 993.5,-299.5 1052.5,-299.5 1052.5,-280.5 993.5,-280.5"/>
<text text-anchor="middle" x="1023" y="-287.5" font-family="Helvetica,sans-Serif" font-size="10.00" fill="#000000">Rtypes.h</text>
</g>
<!-- Node0&#45;&gt;Node2 -->
<g id="edge2" class="edge">
<title>Node0&#45;&gt;Node2</title>
<path fill="none" stroke="#191970" d="M1044.9507,-336.2744C1040.5129,-326.919 1035.8004,-316.9845 1031.8841,-308.7287"/>
<polygon fill="#191970" stroke="#191970" points="1035.0222,-307.1775 1027.574,-299.6426 1028.6977,-310.1777 1035.0222,-307.1775"/>
</g>
<!-- Node3 -->
<g id="node4" class="node">
<title>Node3</title>
<g id="a_node4"><a xlink:href="../../d4/de7/rans_8h.html" target="_top" xlink:title="header for public api ">
<polygon fill="none" stroke="#000000" points="547,-280.5 547,-299.5 621,-299.5 621,-280.5 547,-280.5"/>
<text text-anchor="middle" x="584" y="-287.5" font-family="Helvetica,sans-Serif" font-size="10.00" fill="#000000">rANS/rans.h</text>
</a>
</g>
</g>
<!-- Node0&#45;&gt;Node3 -->
<g id="edge3" class="edge">
<title>Node0&#45;&gt;Node3</title>
<path fill="none" stroke="#191970" d="M961.3725,-351.8383C860.462,-335.3026 707.9395,-310.3094 631.3767,-297.7634"/>
<polygon fill="#191970" stroke="#191970" points="631.5252,-294.2411 621.0908,-296.0779 630.3932,-301.149 631.5252,-294.2411"/>
</g>
<!-- Node25 -->
<g id="node26" class="node">
<title>Node25</title>
<polygon fill="none" stroke="#bfbfbf" points="1071,-280.5 1071,-299.5 1123,-299.5 1123,-280.5 1071,-280.5"/>
<text text-anchor="middle" x="1097" y="-287.5" font-family="Helvetica,sans-Serif" font-size="10.00" fill="#000000">TTree.h</text>
</g>
<!-- Node0&#45;&gt;Node25 -->
<g id="edge52" class="edge">
<title>Node0&#45;&gt;Node25</title>
<path fill="none" stroke="#191970" d="M1075.0493,-336.2744C1079.4871,-326.919 1084.1996,-316.9845 1088.1159,-308.7287"/>
<polygon fill="#191970" stroke="#191970" points="1091.3023,-310.1777 1092.426,-299.6426 1084.9778,-307.1775 1091.3023,-310.1777"/>
</g>
<!-- Node26 -->
<g id="node27" class="node">
<title>Node26</title>
<g id="a_node27"><a xlink:href="../../d4/d8f/StringUtils_8h.html" target="_top" xlink:title="CommonUtils/StringUtils.h">
<polygon fill="none" stroke="#000000" points="1141,-280.5 1141,-299.5 1287,-299.5 1287,-280.5 1141,-280.5"/>
<text text-anchor="middle" x="1214" y="-287.5" font-family="Helvetica,sans-Serif" font-size="10.00" fill="#000000">CommonUtils/StringUtils.h</text>
</a>
</g>
</g>
<!-- Node0&#45;&gt;Node26 -->
<g id="edge53" class="edge">
<title>Node0&#45;&gt;Node26</title>
<path fill="none" stroke="#191970" d="M1122.1938,-336.4992C1144.3102,-325.2974 1168.1202,-313.2378 1185.9491,-304.2076"/>
<polygon fill="#191970" stroke="#191970" points="1187.8505,-307.168 1195.19,-299.5271 1184.6876,-300.9233 1187.8505,-307.168"/>
</g>
<!-- Node28 -->
<g id="node29" class="node">
<title>Node28</title>
<g id="a_node29"><a xlink:href="../../dd/da4/Logger_8h.html" target="_top" xlink:title="Framework/Logger.h">
<polygon fill="none" stroke="#000000" points="1305.5,-280.5 1305.5,-299.5 1420.5,-299.5 1420.5,-280.5 1305.5,-280.5"/>
<text text-anchor="middle" x="1363" y="-287.5" font-family="Helvetica,sans-Serif" font-size="10.00" fill="#000000">Framework/Logger.h</text>
</a>
</g>
</g>
<!-- Node0&#45;&gt;Node28 -->
<g id="edge55" class="edge">
<title>Node0&#45;&gt;Node28</title>
<path fill="none" stroke="#191970" d="M1158.7943,-342.5678C1211.6031,-328.9735 1274.1722,-312.8666 1316.0064,-302.0974"/>
<polygon fill="#191970" stroke="#191970" points="1317.1027,-305.4293 1325.9144,-299.5468 1315.3575,-298.6504 1317.1027,-305.4293"/>
</g>
<!-- Node4 -->
<g id="node5" class="node">
<title>Node4</title>
<g id="a_node5"><a xlink:href="../../d0/d51/SymbolStatistics_8h.html" target="_top" xlink:title="Structure to depict the distribution of symbols in the source message. ">
<polygon fill="none" stroke="#000000" points="449,-112.5 449,-131.5 583,-131.5 583,-112.5 449,-112.5"/>
<text text-anchor="middle" x="516" y="-119.5" font-family="Helvetica,sans-Serif" font-size="10.00" fill="#000000">rANS/SymbolStatistics.h</text>
</a>
</g>
</g>
<!-- Node3&#45;&gt;Node4 -->
<g id="edge4" class="edge">
<title>Node3&#45;&gt;Node4</title>
<path fill="none" stroke="#191970" d="M571.2595,-280.4377C550.7443,-264.144 511.1584,-228.7751 496,-188 490.0914,-172.1062 496.8414,-153.5983 504.0524,-140.2332"/>
<polygon fill="#191970" stroke="#191970" points="507.1275,-141.9092 509.2101,-131.521 501.1039,-138.3431 507.1275,-141.9092"/>
</g>
<!-- Node16 -->
<g id="node17" class="node">
<title>Node16</title>
<g id="a_node17"><a xlink:href="../../dd/d74/Utilities_2rANS_2include_2rANS_2Encoder_8h.html" target="_top" xlink:title="rANS/Encoder.h">
<polygon fill="none" stroke="#000000" points="310.5,-224.5 310.5,-243.5 401.5,-243.5 401.5,-224.5 310.5,-224.5"/>
<text text-anchor="middle" x="356" y="-231.5" font-family="Helvetica,sans-Serif" font-size="10.00" fill="#000000">rANS/Encoder.h</text>
</a>
</g>
</g>
<!-- Node3&#45;&gt;Node16 -->
<g id="edge17" class="edge">
<title>Node3&#45;&gt;Node16</title>
<path fill="none" stroke="#191970" d="M546.8604,-280.878C508.1932,-271.3808 447.4436,-256.4598 404.8951,-246.0093"/>
<polygon fill="#191970" stroke="#191970" points="405.5799,-242.5735 395.0336,-243.5872 403.9101,-249.3715 405.5799,-242.5735"/>
</g>
<!-- Node23 -->
<g id="node24" class="node">
<title>Node23</title>
<g id="a_node24"><a xlink:href="../../dc/d62/Utilities_2rANS_2include_2rANS_2Decoder_8h.html" target="_top" xlink:title="rANS/Decoder.h">
<polygon fill="none" stroke="#000000" points="646,-224.5 646,-243.5 738,-243.5 738,-224.5 646,-224.5"/>
<text text-anchor="middle" x="692" y="-231.5" font-family="Helvetica,sans-Serif" font-size="10.00" fill="#000000">rANS/Decoder.h</text>
</a>
</g>
</g>
<!-- Node3&#45;&gt;Node23 -->
<g id="edge38" class="edge">
<title>Node3&#45;&gt;Node23</title>
<path fill="none" stroke="#191970" d="M602.8122,-280.2455C619.8473,-271.4125 645.1575,-258.2887 664.4681,-248.2758"/>
<polygon fill="#191970" stroke="#191970" points="666.137,-251.353 673.4034,-243.6427 662.9147,-245.1388 666.137,-251.353"/>
</g>
<!-- Node5 -->
<g id="node6" class="node">
<title>Node5</title>
<polygon fill="none" stroke="#bfbfbf" points="0,-56.5 0,-75.5 64,-75.5 64,-56.5 0,-56.5"/>
<text text-anchor="middle" x="32" y="-63.5" font-family="Helvetica,sans-Serif" font-size="10.00" fill="#000000">algorithm</text>
</g>
<!-- Node4&#45;&gt;Node5 -->
<g id="edge5" class="edge">
<title>Node4&#45;&gt;Node5</title>
<path fill="none" stroke="#191970" d="M448.9374,-114.425C369.2947,-105.4018 232.4417,-89.8107 115,-76 101.8061,-74.4484 87.4365,-72.728 74.4186,-71.1578"/>
<polygon fill="#191970" stroke="#191970" points="74.6643,-67.6621 64.3165,-69.9368 73.8243,-74.6115 74.6643,-67.6621"/>
</g>
<!-- Node6 -->
<g id="node7" class="node">
<title>Node6</title>
<polygon fill="none" stroke="#bfbfbf" points="281,-56.5 281,-75.5 333,-75.5 333,-56.5 281,-56.5"/>
<text text-anchor="middle" x="307" y="-63.5" font-family="Helvetica,sans-Serif" font-size="10.00" fill="#000000">cassert</text>
</g>
<!-- Node4&#45;&gt;Node6 -->
<g id="edge6" class="edge">
<title>Node4&#45;&gt;Node6</title>
<path fill="none" stroke="#191970" d="M480.0716,-112.3733C441.7165,-102.0963 381.2957,-85.907 342.9371,-75.6291"/>
<polygon fill="#191970" stroke="#191970" points="343.779,-72.2313 333.2138,-73.0238 341.9672,-78.9927 343.779,-72.2313"/>
</g>
<!-- Node7 -->
<g id="node8" class="node">
<title>Node7</title>
<polygon fill="none" stroke="#bfbfbf" points="875,-56.5 875,-75.5 935,-75.5 935,-56.5 875,-56.5"/>
<text text-anchor="middle" x="905" y="-63.5" font-family="Helvetica,sans-Serif" font-size="10.00" fill="#000000">iostream</text>
</g>
<!-- Node4&#45;&gt;Node7 -->
<g id="edge7" class="edge">
<title>Node4&#45;&gt;Node7</title>
<path fill="none" stroke="#191970" d="M582.4295,-112.4369C663.3791,-100.7835 797.6079,-81.46 864.5048,-71.8296"/>
<polygon fill="#191970" stroke="#191970" points="865.2456,-75.2592 874.6448,-70.3699 864.2481,-68.3306 865.2456,-75.2592"/>
</g>
<!-- Node8 -->
<g id="node9" class="node">
<title>Node8</title>
<polygon fill="none" stroke="#bfbfbf" points="480,-56.5 480,-75.5 536,-75.5 536,-56.5 480,-56.5"/>
<text text-anchor="middle" x="508" y="-63.5" font-family="Helvetica,sans-Serif" font-size="10.00" fill="#000000">numeric</text>
</g>
<!-- Node4&#45;&gt;Node8 -->
<g id="edge8" class="edge">
<title>Node4&#45;&gt;Node8</title>
<path fill="none" stroke="#191970" d="M514.6065,-112.2455C513.5626,-104.9382 512.0992,-94.6944 510.8149,-85.7046"/>
<polygon fill="#191970" stroke="#191970" points="514.2566,-85.0472 509.3775,-75.6427 507.327,-86.0372 514.2566,-85.0472"/>
</g>
<!-- Node9 -->
<g id="node10" class="node">
<title>Node9</title>
<polygon fill="none" stroke="#bfbfbf" points="625.5,-56.5 625.5,-75.5 672.5,-75.5 672.5,-56.5 625.5,-56.5"/>
<text text-anchor="middle" x="649" y="-63.5" font-family="Helvetica,sans-Serif" font-size="10.00" fill="#000000">vector</text>
</g>
<!-- Node4&#45;&gt;Node9 -->
<g id="edge9" class="edge">
<title>Node4&#45;&gt;Node9</title>
<path fill="none" stroke="#191970" d="M538.8635,-112.3733C560.405,-103.3032 592.8838,-89.6279 616.9956,-79.4755"/>
<polygon fill="#191970" stroke="#191970" points="618.5767,-82.6075 626.4348,-75.5011 615.8603,-76.156 618.5767,-82.6075"/>
</g>
<!-- Node10 -->
<g id="node11" class="node">
<title>Node10</title>
<polygon fill="none" stroke="#bfbfbf" points="428.5,-.5 428.5,-19.5 475.5,-19.5 475.5,-.5 428.5,-.5"/>
<text text-anchor="middle" x="452" y="-7.5" font-family="Helvetica,sans-Serif" font-size="10.00" fill="#000000">cmath</text>
</g>
<!-- Node4&#45;&gt;Node10 -->
<g id="edge10" class="edge">
<title>Node4&#45;&gt;Node10</title>
<path fill="none" stroke="#191970" d="M503.5813,-112.3196C493.4335,-103.7851 479.4334,-90.4813 471,-76 462.6554,-61.6713 457.7701,-43.4344 455.0481,-29.7634"/>
<polygon fill="#191970" stroke="#191970" points="458.4284,-28.7782 453.242,-19.5396 451.5351,-29.996 458.4284,-28.7782"/>
</g>
<!-- Node11 -->
<g id="node12" class="node">
<title>Node11</title>
<polygon fill="none" stroke="#bfbfbf" points="554.5,-56.5 554.5,-75.5 607.5,-75.5 607.5,-56.5 554.5,-56.5"/>
<text text-anchor="middle" x="581" y="-63.5" font-family="Helvetica,sans-Serif" font-size="10.00" fill="#000000">iterator</text>
</g>
<!-- Node4&#45;&gt;Node11 -->
<g id="edge11" class="edge">
<title>Node4&#45;&gt;Node11</title>
<path fill="none" stroke="#191970" d="M527.3221,-112.2455C536.9223,-103.9746 550.8892,-91.9416 562.1695,-82.2232"/>
<polygon fill="#191970" stroke="#191970" points="564.516,-84.8214 569.8076,-75.6427 559.947,-79.5182 564.516,-84.8214"/>
</g>
<!-- Node12 -->
<g id="node13" class="node">
<title>Node12</title>
<polygon fill="none" stroke="#bfbfbf" points="709,-56.5 709,-75.5 817,-75.5 817,-56.5 709,-56.5"/>
<text text-anchor="middle" x="763" y="-63.5" font-family="Helvetica,sans-Serif" font-size="10.00" fill="#000000">fairlogger/Logger.h</text>
</g>
<!-- Node4&#45;&gt;Node12 -->
<g id="edge12" class="edge">
<title>Node4&#45;&gt;Node12</title>
<path fill="none" stroke="#191970" d="M558.1802,-112.4369C600.4523,-102.8529 665.6062,-88.0812 711.0417,-77.78"/>
<polygon fill="#191970" stroke="#191970" points="712.0152,-81.1482 720.9938,-75.5237 710.4674,-74.3215 712.0152,-81.1482"/>
</g>
<!-- Node13 -->
<g id="node14" class="node">
<title>Node13</title>
<g id="a_node14"><a xlink:href="../../d4/da1/helper_8h.html" target="_top" xlink:title="various helper functions ">
<polygon fill="none" stroke="#000000" points="363,-56.5 363,-75.5 419,-75.5 419,-56.5 363,-56.5"/>
<text text-anchor="middle" x="391" y="-63.5" font-family="Helvetica,sans-Serif" font-size="10.00" fill="#000000">helper.h</text>
</a>
</g>
</g>
<!-- Node4&#45;&gt;Node13 -->
<g id="edge13" class="edge">
<title>Node4&#45;&gt;Node13</title>
<path fill="none" stroke="#191970" d="M494.5117,-112.3733C474.356,-103.3435 444.012,-89.7494 421.382,-79.6111"/>
<polygon fill="#191970" stroke="#191970" points="422.7649,-76.3955 412.2079,-75.5011 419.9029,-82.7838 422.7649,-76.3955"/>
</g>
<!-- Node13&#45;&gt;Node10 -->
<g id="edge15" class="edge">
<title>Node13&#45;&gt;Node10</title>
<path fill="none" stroke="#191970" d="M401.6254,-56.2455C410.5473,-48.0549 423.488,-36.1749 434.0192,-26.5069"/>
<polygon fill="#191970" stroke="#191970" points="436.4968,-28.9837 441.4964,-19.6427 431.7629,-23.8271 436.4968,-28.9837"/>
</g>
<!-- Node14 -->
<g id="node15" class="node">
<title>Node14</title>
<polygon fill="none" stroke="#bfbfbf" points="734.5,-.5 734.5,-19.5 787.5,-19.5 787.5,-.5 734.5,-.5"/>
<text text-anchor="middle" x="761" y="-7.5" font-family="Helvetica,sans-Serif" font-size="10.00" fill="#000000">cstddef</text>
</g>
<!-- Node13&#45;&gt;Node14 -->
<g id="edge14" class="edge">
<title>Node13&#45;&gt;Node14</title>
<path fill="none" stroke="#191970" d="M419.1138,-61.7449C485.1769,-51.7462 650.2853,-26.7568 724.2062,-15.5688"/>
<polygon fill="#191970" stroke="#191970" points="725.0646,-18.9788 734.4282,-14.0217 724.0171,-12.0576 725.0646,-18.9788"/>
</g>
<!-- Node15 -->
<g id="node16" class="node">
<title>Node15</title>
<polygon fill="none" stroke="#bfbfbf" points="360,-.5 360,-19.5 410,-19.5 410,-.5 360,-.5"/>
<text text-anchor="middle" x="385" y="-7.5" font-family="Helvetica,sans-Serif" font-size="10.00" fill="#000000">chrono</text>
</g>
<!-- Node13&#45;&gt;Node15 -->
<g id="edge16" class="edge">
<title>Node13&#45;&gt;Node15</title>
<path fill="none" stroke="#191970" d="M389.9549,-56.2455C389.172,-48.9382 388.0744,-38.6944 387.1112,-29.7046"/>
<polygon fill="#191970" stroke="#191970" points="390.5786,-29.2129 386.0331,-19.6427 383.6185,-29.9587 390.5786,-29.2129"/>
</g>
<!-- Node16&#45;&gt;Node5 -->
<g id="edge19" class="edge">
<title>Node16&#45;&gt;Node5</title>
<path fill="none" stroke="#191970" d="M310.2489,-227.8609C223.7084,-215.1584 41.6682,-182.8562 8,-132 -1.8275,-117.1555 7.3635,-97.7733 17.0749,-83.8591"/>
<polygon fill="#191970" stroke="#191970" points="20.0796,-85.6893 23.3371,-75.6077 14.5036,-81.4575 20.0796,-85.6893"/>
</g>
<!-- Node16&#45;&gt;Node12 -->
<g id="edge20" class="edge">
<title>Node16&#45;&gt;Node12</title>
<path fill="none" stroke="#191970" d="M401.5176,-232.4545C506.1763,-228.4331 756.9031,-215.9528 782,-188 807.6509,-159.4302 788.1057,-111.1149 774.0524,-84.6712"/>
<polygon fill="#191970" stroke="#191970" points="776.9715,-82.7197 769.0409,-75.6941 770.8594,-86.1318 776.9715,-82.7197"/>
</g>
<!-- Node16&#45;&gt;Node13 -->
<g id="edge37" class="edge">
<title>Node16&#45;&gt;Node13</title>
<path fill="none" stroke="#191970" d="M357.982,-224.4862C363.5387,-197.8144 379.3517,-121.9117 386.8969,-85.695"/>
<polygon fill="#191970" stroke="#191970" points="390.3393,-86.3316 388.9525,-75.8279 383.4865,-84.9038 390.3393,-86.3316"/>
</g>
<!-- Node17 -->
<g id="node18" class="node">
<title>Node17</title>
<polygon fill="none" stroke="#bfbfbf" points="149,-168.5 149,-187.5 207,-187.5 207,-168.5 149,-168.5"/>
<text text-anchor="middle" x="178" y="-175.5" font-family="Helvetica,sans-Serif" font-size="10.00" fill="#000000">memory</text>
</g>
<!-- Node16&#45;&gt;Node17 -->
<g id="edge18" class="edge">
<title>Node16&#45;&gt;Node17</title>
<path fill="none" stroke="#191970" d="M325.4007,-224.3733C295.3136,-214.9076 249.2839,-200.4264 216.6772,-190.1681"/>
<polygon fill="#191970" stroke="#191970" points="217.6108,-186.7927 207.0213,-187.1303 215.51,-193.4701 217.6108,-186.7927"/>
</g>
<!-- Node18 -->
<g id="node19" class="node">
<title>Node18</title>
<g id="a_node19"><a xlink:href="../../d8/dd9/SymbolTable_8h.html" target="_top" xlink:title="Container for information needed to encode/decode a symbol of the alphabet. ">
<polygon fill="none" stroke="#000000" points="505,-168.5 505,-187.5 593,-187.5 593,-168.5 505,-168.5"/>
<text text-anchor="middle" x="549" y="-175.5" font-family="Helvetica,sans-Serif" font-size="10.00" fill="#000000">SymbolTable.h</text>
</a>
</g>
</g>
<!-- Node16&#45;&gt;Node18 -->
<g id="edge21" class="edge">
<title>Node16&#45;&gt;Node18</title>
<path fill="none" stroke="#191970" d="M389.1779,-224.3733C421.5487,-214.9807 470.9398,-200.6496 506.2424,-190.4064"/>
<polygon fill="#191970" stroke="#191970" points="507.6265,-193.6492 516.2551,-187.5011 505.6758,-186.9264 507.6265,-193.6492"/>
</g>
<!-- Node19 -->
<g id="node20" class="node">
<title>Node19</title>
<g id="a_node20"><a xlink:href="../../d2/d53/EncoderSymbol_8h.html" target="_top" xlink:title="Structure containing all relevant information to encode a symbol. ">
<polygon fill="none" stroke="#000000" points="177.5,-112.5 177.5,-131.5 278.5,-131.5 278.5,-112.5 177.5,-112.5"/>
<text text-anchor="middle" x="228" y="-119.5" font-family="Helvetica,sans-Serif" font-size="10.00" fill="#000000">EncoderSymbol.h</text>
</a>
</g>
</g>
<!-- Node16&#45;&gt;Node19 -->
<g id="edge25" class="edge">
<title>Node16&#45;&gt;Node19</title>
<path fill="none" stroke="#191970" d="M341.2137,-224.4683C327.8728,-215.6173 307.9531,-201.7675 292,-188 274.3884,-172.8013 256.0855,-153.5155 243.5871,-139.723"/>
<polygon fill="#191970" stroke="#191970" points="245.8902,-137.0482 236.6132,-131.9307 240.6742,-141.7164 245.8902,-137.0482"/>
</g>
<!-- Node21 -->
<g id="node22" class="node">
<title>Node21</title>
<g id="a_node22"><a xlink:href="../../d5/d7a/Coder_8h.html" target="_top" xlink:title="Stateless class for coding and decoding symbols using rANS. ">
<polygon fill="none" stroke="#000000" points="301.5,-168.5 301.5,-187.5 354.5,-187.5 354.5,-168.5 301.5,-168.5"/>
<text text-anchor="middle" x="328" y="-175.5" font-family="Helvetica,sans-Serif" font-size="10.00" fill="#000000">Coder.h</text>
</a>
</g>
</g>
<!-- Node16&#45;&gt;Node21 -->
<g id="edge29" class="edge">
<title>Node16&#45;&gt;Node21</title>
<path fill="none" stroke="#191970" d="M351.1228,-224.2455C347.3487,-216.6973 342.0079,-206.0158 337.4099,-196.8197"/>
<polygon fill="#191970" stroke="#191970" points="340.424,-195.0217 332.8213,-187.6427 334.163,-198.1522 340.424,-195.0217"/>
</g>
<!-- Node18&#45;&gt;Node4 -->
<g id="edge24" class="edge">
<title>Node18&#45;&gt;Node4</title>
<path fill="none" stroke="#191970" d="M543.2518,-168.2455C538.7565,-160.617 532.3752,-149.7881 526.9175,-140.5267"/>
<polygon fill="#191970" stroke="#191970" points="529.7747,-138.4811 521.6823,-131.6427 523.7439,-142.035 529.7747,-138.4811"/>
</g>
<!-- Node18&#45;&gt;Node9 -->
<g id="edge22" class="edge">
<title>Node18&#45;&gt;Node9</title>
<path fill="none" stroke="#191970" d="M573.5869,-168.3384C590.1563,-160.704 611.3929,-148.5661 625,-132 635.9914,-118.6184 642.1741,-99.7696 645.5006,-85.6391"/>
<polygon fill="#191970" stroke="#191970" points="648.9969,-86.0143 647.5933,-75.5129 642.1418,-84.5976 648.9969,-86.0143"/>
</g>
<!-- Node18&#45;&gt;Node12 -->
<g id="edge23" class="edge">
<title>Node18&#45;&gt;Node12</title>
<path fill="none" stroke="#191970" d="M570.1629,-168.3276C589.7414,-159.2691 619.5702,-145.1876 645,-132 677.5603,-115.1146 714.3349,-94.2529 738.0484,-80.56"/>
<polygon fill="#191970" stroke="#191970" points="739.8629,-83.5538 746.7609,-75.5121 736.3537,-77.4969 739.8629,-83.5538"/>
</g>
<!-- Node19&#45;&gt;Node6 -->
<g id="edge27" class="edge">
<title>Node19&#45;&gt;Node6</title>
<path fill="none" stroke="#191970" d="M241.7607,-112.2455C253.6552,-103.814 271.065,-91.4729 284.9085,-81.6598"/>
<polygon fill="#191970" stroke="#191970" points="287.2628,-84.2811 293.3969,-75.6427 283.2146,-78.5704 287.2628,-84.2811"/>
</g>
<!-- Node19&#45;&gt;Node13 -->
<g id="edge28" class="edge">
<title>Node19&#45;&gt;Node13</title>
<path fill="none" stroke="#191970" d="M256.0207,-112.3733C283.0078,-103.1016 324.0017,-89.0178 353.7311,-78.804"/>
<polygon fill="#191970" stroke="#191970" points="355.0248,-82.0605 363.3449,-75.5011 352.7503,-75.4403 355.0248,-82.0605"/>
</g>
<!-- Node20 -->
<g id="node21" class="node">
<title>Node20</title>
<polygon fill="none" stroke="#bfbfbf" points="124,-56.5 124,-75.5 174,-75.5 174,-56.5 124,-56.5"/>
<text text-anchor="middle" x="149" y="-63.5" font-family="Helvetica,sans-Serif" font-size="10.00" fill="#000000">cstdint</text>
</g>
<!-- Node19&#45;&gt;Node20 -->
<g id="edge26" class="edge">
<title>Node19&#45;&gt;Node20</title>
<path fill="none" stroke="#191970" d="M214.2393,-112.2455C202.3448,-103.814 184.935,-91.4729 171.0915,-81.6598"/>
<polygon fill="#191970" stroke="#191970" points="172.7854,-78.5704 162.6031,-75.6427 168.7372,-84.2811 172.7854,-78.5704"/>
</g>
<!-- Node21&#45;&gt;Node6 -->
<g id="edge32" class="edge">
<title>Node21&#45;&gt;Node6</title>
<path fill="none" stroke="#191970" d="M326.2096,-168.4509C322.769,-150.1013 315.1733,-109.5908 310.6317,-85.3693"/>
<polygon fill="#191970" stroke="#191970" points="314.0689,-84.7086 308.7859,-75.5249 307.1888,-85.9986 314.0689,-84.7086"/>
</g>
<!-- Node21&#45;&gt;Node9 -->
<g id="edge30" class="edge">
<title>Node21&#45;&gt;Node9</title>
<path fill="none" stroke="#191970" d="M354.5607,-175.6518C413.1578,-170.1097 551.5215,-154.9339 592,-132 611.8538,-120.7515 628.0873,-99.871 638.0817,-84.5991"/>
<polygon fill="#191970" stroke="#191970" points="641.1529,-86.2885 643.4749,-75.9512 635.2133,-82.5842 641.1529,-86.2885"/>
</g>
<!-- Node21&#45;&gt;Node13 -->
<g id="edge36" class="edge">
<title>Node21&#45;&gt;Node13</title>
<path fill="none" stroke="#191970" d="M333.3713,-168.4509C343.8325,-149.8533 367.0983,-108.4919 380.652,-84.3964"/>
<polygon fill="#191970" stroke="#191970" points="383.7901,-85.9566 385.6423,-75.5249 377.6891,-82.5247 383.7901,-85.9566"/>
</g>
<!-- Node21&#45;&gt;Node19 -->
<g id="edge35" class="edge">
<title>Node21&#45;&gt;Node19</title>
<path fill="none" stroke="#191970" d="M310.5813,-168.2455C294.9515,-159.4928 271.7981,-146.527 253.9815,-136.5496"/>
<polygon fill="#191970" stroke="#191970" points="255.6543,-133.475 245.2191,-131.6427 252.234,-139.5825 255.6543,-133.475"/>
</g>
<!-- Node21&#45;&gt;Node20 -->
<g id="edge31" class="edge">
<title>Node21&#45;&gt;Node20</title>
<path fill="none" stroke="#191970" d="M301.2832,-173.5326C260.8304,-166.2538 186.7547,-150.7481 168,-132 155.7698,-119.7741 151.299,-100.2178 149.7211,-85.5609"/>
<polygon fill="#191970" stroke="#191970" points="153.2066,-85.2331 148.9977,-75.5102 146.2247,-85.7357 153.2066,-85.2331"/>
</g>
<!-- Node22 -->
<g id="node23" class="node">
<title>Node22</title>
<g id="a_node23"><a xlink:href="../../d7/d99/DecoderSymbol_8h.html" target="_top" xlink:title="Structure containing all relevant information for decoding a rANS encoded symbol. ...">
<polygon fill="none" stroke="#000000" points="17.5,-112.5 17.5,-131.5 120.5,-131.5 120.5,-112.5 17.5,-112.5"/>
<text text-anchor="middle" x="69" y="-119.5" font-family="Helvetica,sans-Serif" font-size="10.00" fill="#000000">DecoderSymbol.h</text>
</a>
</g>
</g>
<!-- Node21&#45;&gt;Node22 -->
<g id="edge33" class="edge">
<title>Node21&#45;&gt;Node22</title>
<path fill="none" stroke="#191970" d="M301.258,-172.2179C259.4024,-163.1681 177.5763,-145.476 123.088,-133.6947"/>
<polygon fill="#191970" stroke="#191970" points="123.7616,-130.2595 113.2478,-131.5671 122.2822,-137.1014 123.7616,-130.2595"/>
</g>
<!-- Node22&#45;&gt;Node20 -->
<g id="edge34" class="edge">
<title>Node22&#45;&gt;Node20</title>
<path fill="none" stroke="#191970" d="M82.9349,-112.2455C95.0947,-103.7337 112.9464,-91.2375 127.0285,-81.3801"/>
<polygon fill="#191970" stroke="#191970" points="129.0395,-84.2447 135.2248,-75.6427 125.0253,-78.51 129.0395,-84.2447"/>
</g>
<!-- Node23&#45;&gt;Node1 -->
<g id="edge40" class="edge">
<title>Node23&#45;&gt;Node1</title>
<path fill="none" stroke="#191970" d="M738.0743,-228.9078C772.2605,-223.3137 818.6946,-211.734 853,-188 870.5216,-175.8778 884.2718,-155.4474 892.6902,-140.5221"/>
<polygon fill="#191970" stroke="#191970" points="895.8047,-142.1199 897.4384,-131.6518 889.6333,-138.8164 895.8047,-142.1199"/>
</g>
<!-- Node23&#45;&gt;Node7 -->
<g id="edge41" class="edge">
<title>Node23&#45;&gt;Node7</title>
<path fill="none" stroke="#191970" d="M738.3704,-228.4788C777.289,-222.4816 833.4984,-210.5676 878,-188 912.6131,-170.4471 928.5645,-167.1575 945,-132 953.2058,-114.4468 939.3755,-95.6634 925.7873,-82.6414"/>
<polygon fill="#191970" stroke="#191970" points="927.7793,-79.7286 917.9832,-75.6928 923.1244,-84.9566 927.7793,-79.7286"/>
</g>
<!-- Node23&#45;&gt;Node12 -->
<g id="edge42" class="edge">
<title>Node23&#45;&gt;Node12</title>
<path fill="none" stroke="#191970" d="M731.5162,-224.442C763.6137,-215.7844 805.1243,-202.2371 815,-188 834.252,-160.2458 828.8741,-142.7969 815,-112 809.4303,-99.6369 798.7137,-89.2563 788.4494,-81.5033"/>
<polygon fill="#191970" stroke="#191970" points="790.2549,-78.4948 780.0567,-75.623 786.2382,-84.2277 790.2549,-78.4948"/>
</g>
<!-- Node23&#45;&gt;Node14 -->
<g id="edge39" class="edge">
<title>Node23&#45;&gt;Node14</title>
<path fill="none" stroke="#191970" d="M738.4043,-227.7261C793.6774,-219.6579 882.1638,-204.6828 911,-188 939.8809,-171.2913 949.1079,-163.1747 961,-132 970.0858,-108.182 945.3378,-57.2745 944,-56 923.2169,-36.2006 845.1315,-21.9524 797.9362,-14.9336"/>
<polygon fill="#191970" stroke="#191970" points="798.1946,-11.4346 787.7963,-13.4658 797.1917,-18.3624 798.1946,-11.4346"/>
</g>
<!-- Node23&#45;&gt;Node18 -->
<g id="edge43" class="edge">
<title>Node23&#45;&gt;Node18</title>
<path fill="none" stroke="#191970" d="M667.4174,-224.3733C644.0504,-215.2226 608.7138,-201.3844 582.7216,-191.2057"/>
<polygon fill="#191970" stroke="#191970" points="583.8495,-187.8886 573.2618,-187.5011 581.297,-194.4066 583.8495,-187.8886"/>
</g>
<!-- Node23&#45;&gt;Node21 -->
<g id="edge51" class="edge">
<title>Node23&#45;&gt;Node21</title>
<path fill="none" stroke="#191970" d="M645.8991,-226.9076C572.7189,-215.6491 431.4337,-193.9129 364.6617,-183.6403"/>
<polygon fill="#191970" stroke="#191970" points="365.0228,-180.1547 354.6068,-182.0934 363.9583,-187.0733 365.0228,-180.1547"/>
</g>
<!-- Node23&#45;&gt;Node22 -->
<g id="edge44" class="edge">
<title>Node23&#45;&gt;Node22</title>
<path fill="none" stroke="#191970" d="M645.6992,-231.2891C570.7665,-226.3187 418.541,-213.7992 292,-188 256.805,-180.8244 162.8111,-151.7415 108.7525,-134.6696"/>
<polygon fill="#191970" stroke="#191970" points="109.7366,-131.31 99.1465,-131.6297 107.6245,-137.9838 109.7366,-131.31"/>
</g>
<!-- Node24 -->
<g id="node25" class="node">
<title>Node24</title>
<g id="a_node25"><a xlink:href="../../dc/d3b/ReverseSymbolLookupTable_8h.html" target="_top" xlink:title="Maps CDF back to source symbol &#45; needed for the decoder. ">
<polygon fill="none" stroke="#000000" points="611,-168.5 611,-187.5 773,-187.5 773,-168.5 611,-168.5"/>
<text text-anchor="middle" x="692" y="-175.5" font-family="Helvetica,sans-Serif" font-size="10.00" fill="#000000">ReverseSymbolLookupTable.h</text>
</a>
</g>
</g>
<!-- Node23&#45;&gt;Node24 -->
<g id="edge45" class="edge">
<title>Node23&#45;&gt;Node24</title>
<path fill="none" stroke="#191970" d="M692,-224.2455C692,-216.9382 692,-206.6944 692,-197.7046"/>
<polygon fill="#191970" stroke="#191970" points="695.5001,-197.6426 692,-187.6427 688.5001,-197.6427 695.5001,-197.6426"/>
</g>
<!-- Node24&#45;&gt;Node1 -->
<g id="edge47" class="edge">
<title>Node24&#45;&gt;Node1</title>
<path fill="none" stroke="#191970" d="M728.1003,-168.3733C763.9477,-158.8139 818.9779,-144.1392 857.5073,-133.8647"/>
<polygon fill="#191970" stroke="#191970" points="858.6551,-137.181 867.4156,-131.2225 856.8514,-130.4174 858.6551,-137.181"/>
</g>
<!-- Node24&#45;&gt;Node4 -->
<g id="edge49" class="edge">
<title>Node24&#45;&gt;Node4</title>
<path fill="none" stroke="#191970" d="M661.7445,-168.3733C632.3517,-159.021 587.5708,-144.7725 555.4066,-134.5385"/>
<polygon fill="#191970" stroke="#191970" points="556.4512,-131.198 545.8607,-131.5011 554.3287,-137.8685 556.4512,-131.198"/>
</g>
<!-- Node24&#45;&gt;Node9 -->
<g id="edge46" class="edge">
<title>Node24&#45;&gt;Node9</title>
<path fill="none" stroke="#191970" d="M688.3338,-168.4509C681.2572,-150.0186 665.5955,-109.2254 656.3112,-85.043"/>
<polygon fill="#191970" stroke="#191970" points="659.5086,-83.606 652.6569,-75.5249 652.9737,-86.115 659.5086,-83.606"/>
</g>
<!-- Node24&#45;&gt;Node12 -->
<g id="edge48" class="edge">
<title>Node24&#45;&gt;Node12</title>
<path fill="none" stroke="#191970" d="M704.7293,-168.2757C715.1811,-159.7144 729.7227,-146.3958 739,-132 748.2764,-117.6056 754.5982,-99.1393 758.4151,-85.402"/>
<polygon fill="#191970" stroke="#191970" points="761.8433,-86.1239 760.9478,-75.567 755.0645,-84.3782 761.8433,-86.1239"/>
</g>
<!-- Node24&#45;&gt;Node13 -->
<g id="edge50" class="edge">
<title>Node24&#45;&gt;Node13</title>
<path fill="none" stroke="#191970" d="M625.6453,-168.4615C556.3692,-158.0958 455.6256,-141.7173 440,-132 421.9071,-120.7483 408.252,-100.173 400.0121,-84.9758"/>
<polygon fill="#191970" stroke="#191970" points="403.0518,-83.2324 395.3871,-75.9178 396.8174,-86.4156 403.0518,-83.2324"/>
</g>
<!-- Node27 -->
<g id="node28" class="node">
<title>Node27</title>
<polygon fill="none" stroke="#bfbfbf" points="1186,-224.5 1186,-243.5 1242,-243.5 1242,-224.5 1186,-224.5"/>
<text text-anchor="middle" x="1214" y="-231.5" font-family="Helvetica,sans-Serif" font-size="10.00" fill="#000000">sstream</text>
</g>
<!-- Node26&#45;&gt;Node27 -->
<g id="edge54" class="edge">
<title>Node26&#45;&gt;Node27</title>
<path fill="none" stroke="#191970" d="M1214,-280.2455C1214,-272.9382 1214,-262.6944 1214,-253.7046"/>
<polygon fill="#191970" stroke="#191970" points="1217.5001,-253.6426 1214,-243.6427 1210.5001,-253.6427 1217.5001,-253.6426"/>
</g>
</g>
</svg>
        <g id="navigator" transform="translate(0 0)" fill="#404254">
                <rect fill="#f2f5e9" fill-opacity="0.5" stroke="#606060" stroke-width=".5" x="0" y="0" width="60" height="60"/>
                <use id="zoomplus" xlink:href="#zoomPlus" x="17" y="9" onmousedown="handleZoom(evt,'in')"/>
                <use id="zoomminus" xlink:href="#zoomMin" x="42" y="9" onmousedown="handleZoom(evt,'out')"/>
                <use id="reset" xlink:href="#resetDef" x="30" y="36" onmousedown="handleReset()"/>
                <g id="arrowUp" xlink:href="#dirArrow" transform="translate(30 24)" onmousedown="handlePan(0,-1)">
                  <use xlink:href="#rim" fill="#404040">
                        <set attributeName="fill" to="#808080" begin="arrowUp.mouseover" end="arrowUp.mouseout"/>
                  </use>
                  <path fill="none" stroke="white" stroke-width="1.5" d="M0,-3.0v7 M-2.5,-0.5L0,-3.0L2.5,-0.5"/>
                </g>
                <g id="arrowRight" xlink:href="#dirArrow" transform="rotate(90) translate(36 -43)" onmousedown="handlePan(1,0)">
                  <use xlink:href="#rim" fill="#404040">
                        <set attributeName="fill" to="#808080" begin="arrowRight.mouseover" end="arrowRight.mouseout"/>
                  </use>
                  <path fill="none" stroke="white" stroke-width="1.5" d="M0,-3.0v7 M-2.5,-0.5L0,-3.0L2.5,-0.5"/>
                </g>
                <g id="arrowDown" xlink:href="#dirArrow" transform="rotate(180) translate(-30 -48)" onmousedown="handlePan(0,1)">
                  <use xlink:href="#rim" fill="#404040">
                        <set attributeName="fill" to="#808080" begin="arrowDown.mouseover" end="arrowDown.mouseout"/>
                  </use>
                  <path fill="none" stroke="white" stroke-width="1.5" d="M0,-3.0v7 M-2.5,-0.5L0,-3.0L2.5,-0.5"/>
                </g>
                <g id="arrowLeft" xlink:href="#dirArrow" transform="rotate(270) translate(-36 17)" onmousedown="handlePan(-1,0)">
                  <use xlink:href="#rim" fill="#404040">
                        <set attributeName="fill" to="#808080" begin="arrowLeft.mouseover" end="arrowLeft.mouseout"/>
                  </use>
                  <path fill="none" stroke="white" stroke-width="1.5" d="M0,-3.0v7 M-2.5,-0.5L0,-3.0L2.5,-0.5"/>
                </g>
        </g>
        <svg viewBox="0 0 15 15" width="100%" height="30px" preserveAspectRatio="xMaxYMin meet">
         <g id="arrow_out" transform="scale(0.3 0.3)">
          <a xlink:href="EncodedBlocks_8h__incl_org.svg" target="_base">
           <rect id="button" ry="5" rx="5" y="6" x="6" height="38" width="38"
                fill="#f2f5e9" fill-opacity="0.5" stroke="#606060" stroke-width="1.0"/>
           <path id="arrow"
             d="M 11.500037,31.436501 C 11.940474,20.09759 22.043105,11.32322 32.158766,21.979434 L 37.068811,17.246167 C 37.068811,17.246167 37.088388,32 37.088388,32 L 22.160133,31.978069 C 22.160133,31.978069 26.997745,27.140456 26.997745,27.140456 C 18.528582,18.264221 13.291696,25.230495 11.500037,31.436501 z"
             style="fill:#404040;"/>
          </a>
         </g>
        </svg>
</svg>
