<?xml version="1.0" encoding="UTF-8" standalone="no"?>
<!DOCTYPE svg PUBLIC "-//W3C//DTD SVG 1.1//EN"
 "http://www.w3.org/Graphics/SVG/1.1/DTD/svg11.dtd">
<!-- Generated by graphviz version 2.40.1 (20161225.0304)
 -->
<!-- Title: /home/travis/build/AliceO2Group/AliceO2/Detectors/ITSMFT Pages: 1 -->
<svg width="837pt" height="519pt"
 viewBox="0.00 0.00 837.00 519.00" xmlns="http://www.w3.org/2000/svg" xmlns:xlink="http://www.w3.org/1999/xlink">
<g id="graph0" class="graph" transform="scale(1 1) rotate(0) translate(4 515)">
<title>/home/travis/build/AliceO2Group/AliceO2/Detectors/ITSMFT</title>
<g id="clust1" class="cluster">
<title>clusterdir_051dca18e802f8e9474f2e30d29c04e0</title>
<g id="a_clust1"><a xlink:href="dir_051dca18e802f8e9474f2e30d29c04e0.html" target="_top" xlink:title="Detectors">
<polygon fill="#ddddee" stroke="#000000" points="132,-272 132,-503 362,-503 362,-272 132,-272"/>
<text text-anchor="middle" x="247" y="-491" font-family="Helvetica,sans-Serif" font-size="10.00" fill="#000000">Detectors</text>
</a>
</g>
</g>
<g id="clust2" class="cluster">
<title>clusterdir_1306292b77b40360479b729ac9ee7efe</title>
<g id="a_clust2"><a xlink:href="dir_1306292b77b40360479b729ac9ee7efe.html" target="_top">
<polygon fill="#eeeeff" stroke="#000000" points="140,-280 140,-476 354,-476 354,-280 140,-280"/>
</a>
</g>
</g>
<!-- dir_1306292b77b40360479b729ac9ee7efe -->
<g id="node1" class="node">
<title>dir_1306292b77b40360479b729ac9ee7efe</title>
<text text-anchor="middle" x="319" y="-447.5" font-family="Helvetica,sans-Serif" font-size="10.00" fill="#000000">ITSMFT</text>
</g>
<!-- dir_85bf31a2e8d306e7598ffcb73f8df6bf -->
<g id="node2" class="node">
<title>dir_85bf31a2e8d306e7598ffcb73f8df6bf</title>
<g id="a_node2"><a xlink:href="dir_85bf31a2e8d306e7598ffcb73f8df6bf.html" target="_top" xlink:title="common">
<polygon fill="#ffffff" stroke="#ff0000" points="278.5,-396 219.5,-396 219.5,-360 278.5,-360 278.5,-396"/>
<text text-anchor="middle" x="249" y="-375.5" font-family="Helvetica,sans-Serif" font-size="10.00" fill="#000000">common</text>
</a>
</g>
</g>
<!-- dir_871aad07cbf94d6cd423c3d8d5bdf4e9 -->
<g id="node3" class="node">
<title>dir_871aad07cbf94d6cd423c3d8d5bdf4e9</title>
<g id="a_node3"><a xlink:href="dir_871aad07cbf94d6cd423c3d8d5bdf4e9.html" target="_top" xlink:title="ITS">
<polygon fill="#ffffff" stroke="#ff0000" points="276,-324 222,-324 222,-288 276,-288 276,-324"/>
<text text-anchor="middle" x="249" y="-303.5" font-family="Helvetica,sans-Serif" font-size="10.00" fill="#000000">ITS</text>
</a>
</g>
</g>
<!-- dir_85bf31a2e8d306e7598ffcb73f8df6bf&#45;&gt;dir_871aad07cbf94d6cd423c3d8d5bdf4e9 -->
<g id="edge25" class="edge">
<title>dir_85bf31a2e8d306e7598ffcb73f8df6bf&#45;&gt;dir_871aad07cbf94d6cd423c3d8d5bdf4e9</title>
<path fill="none" stroke="#000000" d="M243.0476,-359.8314C242.2972,-352.131 242.0763,-342.9743 242.3849,-334.4166"/>
<polygon fill="#000000" stroke="#000000" points="245.8792,-334.6161 243.024,-324.4133 238.8935,-334.1697 245.8792,-334.6161"/>
<g id="a_edge25&#45;headlabel"><a xlink:href="dir_000061_000044.html" target="_top" xlink:title="1">
<text text-anchor="middle" x="248.4836" y="-335.8844" font-family="Helvetica,sans-Serif" font-size="10.00" fill="#000000">1</text>
</a>
</g>
</g>
<!-- dir_4ab6b4cc6a7edbff49100e9123df213f -->
<g id="node6" class="node">
<title>dir_4ab6b4cc6a7edbff49100e9123df213f</title>
<g id="a_node6"><a xlink:href="dir_4ab6b4cc6a7edbff49100e9123df213f.html" target="_top" xlink:title="Common">
<polygon fill="none" stroke="#ff0000" points="545.5,-396 484.5,-396 484.5,-360 545.5,-360 545.5,-396"/>
<text text-anchor="middle" x="515" y="-375.5" font-family="Helvetica,sans-Serif" font-size="10.00" fill="#000000">Common</text>
</a>
</g>
</g>
<!-- dir_85bf31a2e8d306e7598ffcb73f8df6bf&#45;&gt;dir_4ab6b4cc6a7edbff49100e9123df213f -->
<g id="edge26" class="edge">
<title>dir_85bf31a2e8d306e7598ffcb73f8df6bf&#45;&gt;dir_4ab6b4cc6a7edbff49100e9123df213f</title>
<path fill="none" stroke="#000000" d="M278.6133,-378C343.7537,-378 408.8942,-378 474.0347,-378"/>
<polygon fill="#000000" stroke="#000000" points="474.0666,-381.5001 484.0666,-378 474.0665,-374.5001 474.0666,-381.5001"/>
<g id="a_edge26&#45;headlabel"><a xlink:href="dir_000061_000027.html" target="_top" xlink:title="19">
<text text-anchor="middle" x="470.472" y="-381.8393" font-family="Helvetica,sans-Serif" font-size="10.00" fill="#000000">19</text>
</a>
</g>
</g>
<!-- dir_b05a5fa85f84bfc9013183c9d87f9a36 -->
<g id="node7" class="node">
<title>dir_b05a5fa85f84bfc9013183c9d87f9a36</title>
<g id="a_node7"><a xlink:href="dir_b05a5fa85f84bfc9013183c9d87f9a36.html" target="_top" xlink:title="Utilities">
<polygon fill="none" stroke="#ff0000" points="498.5,-108 443.5,-108 443.5,-72 498.5,-72 498.5,-108"/>
<text text-anchor="middle" x="471" y="-87.5" font-family="Helvetica,sans-Serif" font-size="10.00" fill="#000000">Utilities</text>
</a>
</g>
</g>
<!-- dir_85bf31a2e8d306e7598ffcb73f8df6bf&#45;&gt;dir_b05a5fa85f84bfc9013183c9d87f9a36 -->
<g id="edge27" class="edge">
<title>dir_85bf31a2e8d306e7598ffcb73f8df6bf&#45;&gt;dir_b05a5fa85f84bfc9013183c9d87f9a36</title>
<path fill="none" stroke="#000000" d="M261.4329,-359.5736C268.4166,-349.1678 277.2585,-335.9004 285,-324 337.6996,-242.9889 341.9229,-215.4494 407,-144 416.517,-133.5511 428.0357,-123.2505 438.6631,-114.4926"/>
<polygon fill="#000000" stroke="#000000" points="440.9801,-117.1204 446.5683,-108.1192 436.5865,-111.6709 440.9801,-117.1204"/>
<g id="a_edge27&#45;headlabel"><a xlink:href="dir_000061_000558.html" target="_top" xlink:title="1">
<text text-anchor="middle" x="439.9638" y="-119.0869" font-family="Helvetica,sans-Serif" font-size="10.00" fill="#000000">1</text>
</a>
</g>
</g>
<!-- dir_37c90836491b695b472bf98d1be8336b -->
<g id="node8" class="node">
<title>dir_37c90836491b695b472bf98d1be8336b</title>
<g id="a_node8"><a xlink:href="dir_37c90836491b695b472bf98d1be8336b.html" target="_top" xlink:title="Base">
<polygon fill="none" stroke="#ff0000" points="369,-108 315,-108 315,-72 369,-72 369,-108"/>
<text text-anchor="middle" x="342" y="-87.5" font-family="Helvetica,sans-Serif" font-size="10.00" fill="#000000">Base</text>
</a>
</g>
</g>
<!-- dir_85bf31a2e8d306e7598ffcb73f8df6bf&#45;&gt;dir_37c90836491b695b472bf98d1be8336b -->
<g id="edge28" class="edge">
<title>dir_85bf31a2e8d306e7598ffcb73f8df6bf&#45;&gt;dir_37c90836491b695b472bf98d1be8336b</title>
<path fill="none" stroke="#000000" d="M233.0095,-359.9169C225.3462,-350.0371 216.9834,-337.1563 213,-324 206.3028,-301.8805 206.263,-294.1074 213,-272 232.336,-208.5494 283.5387,-148.537 315.3145,-115.7623"/>
<polygon fill="#000000" stroke="#000000" points="318.0276,-117.9957 322.5557,-108.4172 313.0427,-113.0812 318.0276,-117.9957"/>
<g id="a_edge28&#45;headlabel"><a xlink:href="dir_000061_000274.html" target="_top" xlink:title="3">
<text text-anchor="middle" x="317.5259" y="-120.0488" font-family="Helvetica,sans-Serif" font-size="10.00" fill="#000000">3</text>
</a>
</g>
</g>
<!-- dir_bcbb2cf9a3d3d83e5515c82071a07177 -->
<g id="node10" class="node">
<title>dir_bcbb2cf9a3d3d83e5515c82071a07177</title>
<g id="a_node10"><a xlink:href="dir_bcbb2cf9a3d3d83e5515c82071a07177.html" target="_top" xlink:title="Framework">
<polygon fill="none" stroke="#ff0000" points="441.5,-36 370.5,-36 370.5,0 441.5,0 441.5,-36"/>
<text text-anchor="middle" x="406" y="-15.5" font-family="Helvetica,sans-Serif" font-size="10.00" fill="#000000">Framework</text>
</a>
</g>
</g>
<!-- dir_85bf31a2e8d306e7598ffcb73f8df6bf&#45;&gt;dir_bcbb2cf9a3d3d83e5515c82071a07177 -->
<g id="edge29" class="edge">
<title>dir_85bf31a2e8d306e7598ffcb73f8df6bf&#45;&gt;dir_bcbb2cf9a3d3d83e5515c82071a07177</title>
<path fill="none" stroke="#000000" d="M227.6873,-359.7308C218.1866,-350.1756 208.021,-337.6372 203,-324 174.6716,-247.0598 212.9634,-116.0025 253,-72 280.4876,-41.7895 325.9218,-28.4778 360.1539,-22.6137"/>
<polygon fill="#000000" stroke="#000000" points="361.0425,-26.0177 370.3858,-21.0224 359.9667,-19.1008 361.0425,-26.0177"/>
<g id="a_edge29&#45;headlabel"><a xlink:href="dir_000061_000013.html" target="_top" xlink:title="26">
<text text-anchor="middle" x="357.9268" y="-26.8755" font-family="Helvetica,sans-Serif" font-size="10.00" fill="#000000">26</text>
</a>
</g>
</g>
<!-- dir_26637d1bd82229bc9ed97f7e706be743 -->
<g id="node11" class="node">
<title>dir_26637d1bd82229bc9ed97f7e706be743</title>
<g id="a_node11"><a xlink:href="dir_26637d1bd82229bc9ed97f7e706be743.html" target="_top" xlink:title="Raw">
<polygon fill="none" stroke="#ff0000" points="632,-252 578,-252 578,-216 632,-216 632,-252"/>
<text text-anchor="middle" x="605" y="-231.5" font-family="Helvetica,sans-Serif" font-size="10.00" fill="#000000">Raw</text>
</a>
</g>
</g>
<!-- dir_85bf31a2e8d306e7598ffcb73f8df6bf&#45;&gt;dir_26637d1bd82229bc9ed97f7e706be743 -->
<g id="edge30" class="edge">
<title>dir_85bf31a2e8d306e7598ffcb73f8df6bf&#45;&gt;dir_26637d1bd82229bc9ed97f7e706be743</title>
<path fill="none" stroke="#000000" d="M278.7525,-371.1002C315.4633,-362.162 379.4667,-345.185 432,-324 481.1437,-304.182 534.8615,-274.9558 569.1911,-255.2332"/>
<polygon fill="#000000" stroke="#000000" points="571.0099,-258.2245 577.9127,-250.187 567.5043,-252.1656 571.0099,-258.2245"/>
<g id="a_edge30&#45;headlabel"><a xlink:href="dir_000061_000562.html" target="_top" xlink:title="6">
<text text-anchor="middle" x="569.3204" y="-259.9822" font-family="Helvetica,sans-Serif" font-size="10.00" fill="#000000">6</text>
</a>
</g>
</g>
<!-- dir_2171f7ec022c5423887b07c69b2f5b48 -->
<g id="node12" class="node">
<title>dir_2171f7ec022c5423887b07c69b2f5b48</title>
<g id="a_node12"><a xlink:href="dir_2171f7ec022c5423887b07c69b2f5b48.html" target="_top" xlink:title="DataFormats">
<polygon fill="none" stroke="#ff0000" points="496,-180 416,-180 416,-144 496,-144 496,-180"/>
<text text-anchor="middle" x="456" y="-159.5" font-family="Helvetica,sans-Serif" font-size="10.00" fill="#000000">DataFormats</text>
</a>
</g>
</g>
<!-- dir_85bf31a2e8d306e7598ffcb73f8df6bf&#45;&gt;dir_2171f7ec022c5423887b07c69b2f5b48 -->
<g id="edge31" class="edge">
<title>dir_85bf31a2e8d306e7598ffcb73f8df6bf&#45;&gt;dir_2171f7ec022c5423887b07c69b2f5b48</title>
<path fill="none" stroke="#000000" d="M278.8922,-368.036C301.9633,-359.2174 333.6183,-344.5423 356,-324 398.2198,-285.25 429.1214,-224.6779 444.6692,-189.6183"/>
<polygon fill="#000000" stroke="#000000" points="448.0604,-190.5947 448.8208,-180.0272 441.6364,-187.814 448.0604,-190.5947"/>
<g id="a_edge31&#45;headlabel"><a xlink:href="dir_000061_000076.html" target="_top" xlink:title="66">
<text text-anchor="middle" x="449.2381" y="-192.5214" font-family="Helvetica,sans-Serif" font-size="10.00" fill="#000000">66</text>
</a>
</g>
</g>
<!-- dir_871aad07cbf94d6cd423c3d8d5bdf4e9&#45;&gt;dir_85bf31a2e8d306e7598ffcb73f8df6bf -->
<g id="edge3" class="edge">
<title>dir_871aad07cbf94d6cd423c3d8d5bdf4e9&#45;&gt;dir_85bf31a2e8d306e7598ffcb73f8df6bf</title>
<path fill="none" stroke="#000000" d="M254.976,-324.4133C255.7071,-332.0593 255.9203,-341.1084 255.6155,-349.5726"/>
<polygon fill="#000000" stroke="#000000" points="252.1048,-349.6264 254.9524,-359.8314 259.0902,-350.078 252.1048,-349.6264"/>
<g id="a_edge3&#45;headlabel"><a xlink:href="dir_000044_000061.html" target="_top" xlink:title="44">
<text text-anchor="middle" x="249.5032" y="-343.3562" font-family="Helvetica,sans-Serif" font-size="10.00" fill="#000000">44</text>
</a>
</g>
</g>
<!-- dir_871aad07cbf94d6cd423c3d8d5bdf4e9&#45;&gt;dir_4ab6b4cc6a7edbff49100e9123df213f -->
<g id="edge1" class="edge">
<title>dir_871aad07cbf94d6cd423c3d8d5bdf4e9&#45;&gt;dir_4ab6b4cc6a7edbff49100e9123df213f</title>
<path fill="none" stroke="#000000" d="M276.36,-313.4057C323.4466,-326.151 420.0088,-352.2881 474.7693,-367.1105"/>
<polygon fill="#000000" stroke="#000000" points="473.9193,-370.5063 484.4864,-369.7407 475.7483,-363.7494 473.9193,-370.5063"/>
<g id="a_edge1&#45;headlabel"><a xlink:href="dir_000044_000027.html" target="_top" xlink:title="33">
<text text-anchor="middle" x="469.7077" y="-369.8078" font-family="Helvetica,sans-Serif" font-size="10.00" fill="#000000">33</text>
</a>
</g>
</g>
<!-- dir_871aad07cbf94d6cd423c3d8d5bdf4e9&#45;&gt;dir_37c90836491b695b472bf98d1be8336b -->
<g id="edge2" class="edge">
<title>dir_871aad07cbf94d6cd423c3d8d5bdf4e9&#45;&gt;dir_37c90836491b695b472bf98d1be8336b</title>
<path fill="none" stroke="#000000" d="M256.7692,-287.9555C273.0441,-250.1556 310.806,-162.4506 330.1354,-117.5564"/>
<polygon fill="#000000" stroke="#000000" points="333.4476,-118.714 334.1875,-108.1451 327.0182,-115.9458 333.4476,-118.714"/>
<g id="a_edge2&#45;headlabel"><a xlink:href="dir_000044_000274.html" target="_top" xlink:title="13">
<text text-anchor="middle" x="334.634" y="-120.6384" font-family="Helvetica,sans-Serif" font-size="10.00" fill="#000000">13</text>
</a>
</g>
</g>
<!-- dir_f511f1e9c03c071966ae594f00bbc5e0 -->
<g id="node9" class="node">
<title>dir_f511f1e9c03c071966ae594f00bbc5e0</title>
<g id="a_node9"><a xlink:href="dir_f511f1e9c03c071966ae594f00bbc5e0.html" target="_top" xlink:title="GPU">
<polygon fill="none" stroke="#ff0000" points="746,-324 692,-324 692,-288 746,-288 746,-324"/>
<text text-anchor="middle" x="719" y="-303.5" font-family="Helvetica,sans-Serif" font-size="10.00" fill="#000000">GPU</text>
</a>
</g>
</g>
<!-- dir_871aad07cbf94d6cd423c3d8d5bdf4e9&#45;&gt;dir_f511f1e9c03c071966ae594f00bbc5e0 -->
<g id="edge4" class="edge">
<title>dir_871aad07cbf94d6cd423c3d8d5bdf4e9&#45;&gt;dir_f511f1e9c03c071966ae594f00bbc5e0</title>
<path fill="none" stroke="#000000" d="M276.0801,-306C411.254,-306 546.4279,-306 681.6019,-306"/>
<polygon fill="#000000" stroke="#000000" points="681.7501,-309.5001 691.75,-306 681.75,-302.5001 681.7501,-309.5001"/>
<g id="a_edge4&#45;headlabel"><a xlink:href="dir_000044_000671.html" target="_top" xlink:title="33">
<text text-anchor="middle" x="678.1554" y="-309.8393" font-family="Helvetica,sans-Serif" font-size="10.00" fill="#000000">33</text>
</a>
</g>
</g>
<!-- dir_871aad07cbf94d6cd423c3d8d5bdf4e9&#45;&gt;dir_bcbb2cf9a3d3d83e5515c82071a07177 -->
<g id="edge5" class="edge">
<title>dir_871aad07cbf94d6cd423c3d8d5bdf4e9&#45;&gt;dir_bcbb2cf9a3d3d83e5515c82071a07177</title>
<path fill="none" stroke="#000000" d="M248.5648,-287.7009C248.4984,-245.1613 253.8893,-138.2046 306,-72 319.9482,-54.2794 341.3751,-41.6181 360.8224,-33.0308"/>
<polygon fill="#000000" stroke="#000000" points="362.283,-36.2139 370.1687,-29.1381 359.5917,-29.752 362.283,-36.2139"/>
<g id="a_edge5&#45;headlabel"><a xlink:href="dir_000044_000013.html" target="_top" xlink:title="40">
<text text-anchor="middle" x="360.0563" y="-37.7169" font-family="Helvetica,sans-Serif" font-size="10.00" fill="#000000">40</text>
</a>
</g>
</g>
<!-- dir_871aad07cbf94d6cd423c3d8d5bdf4e9&#45;&gt;dir_26637d1bd82229bc9ed97f7e706be743 -->
<g id="edge6" class="edge">
<title>dir_871aad07cbf94d6cd423c3d8d5bdf4e9&#45;&gt;dir_26637d1bd82229bc9ed97f7e706be743</title>
<path fill="none" stroke="#000000" d="M276.0501,-300.5292C339.1495,-287.7675 496.1605,-256.0125 568.027,-241.4777"/>
<polygon fill="#000000" stroke="#000000" points="568.8834,-244.8754 577.9911,-239.4625 567.4957,-238.0143 568.8834,-244.8754"/>
<g id="a_edge6&#45;headlabel"><a xlink:href="dir_000044_000562.html" target="_top" xlink:title="1">
<text text-anchor="middle" x="565.9229" y="-245.8709" font-family="Helvetica,sans-Serif" font-size="10.00" fill="#000000">1</text>
</a>
</g>
</g>
<!-- dir_871aad07cbf94d6cd423c3d8d5bdf4e9&#45;&gt;dir_2171f7ec022c5423887b07c69b2f5b48 -->
<g id="edge7" class="edge">
<title>dir_871aad07cbf94d6cd423c3d8d5bdf4e9&#45;&gt;dir_2171f7ec022c5423887b07c69b2f5b48</title>
<path fill="none" stroke="#000000" d="M270.862,-287.9627C293.9509,-269.2066 331.6902,-239.3749 366,-216 381.6096,-205.3654 399.3338,-194.4895 414.901,-185.3113"/>
<polygon fill="#000000" stroke="#000000" points="416.9182,-188.1864 423.7852,-180.1182 413.3856,-182.1431 416.9182,-188.1864"/>
<g id="a_edge7&#45;headlabel"><a xlink:href="dir_000044_000076.html" target="_top" xlink:title="111">
<text text-anchor="middle" x="415.2477" y="-189.9515" font-family="Helvetica,sans-Serif" font-size="10.00" fill="#000000">111</text>
</a>
</g>
</g>
<!-- dir_f39d1cd569ca2d16022b762a0e4a53c8 -->
<g id="node4" class="node">
<title>dir_f39d1cd569ca2d16022b762a0e4a53c8</title>
<g id="a_node4"><a xlink:href="dir_f39d1cd569ca2d16022b762a0e4a53c8.html" target="_top" xlink:title="MFT">
<polygon fill="#ffffff" stroke="#ff0000" points="274,-468 220,-468 220,-432 274,-432 274,-468"/>
<text text-anchor="middle" x="247" y="-447.5" font-family="Helvetica,sans-Serif" font-size="10.00" fill="#000000">MFT</text>
</a>
</g>
</g>
<!-- dir_f39d1cd569ca2d16022b762a0e4a53c8&#45;&gt;dir_85bf31a2e8d306e7598ffcb73f8df6bf -->
<g id="edge10" class="edge">
<title>dir_f39d1cd569ca2d16022b762a0e4a53c8&#45;&gt;dir_85bf31a2e8d306e7598ffcb73f8df6bf</title>
<path fill="none" stroke="#000000" d="M247.5047,-431.8314C247.7186,-424.131 247.9729,-414.9743 248.2106,-406.4166"/>
<polygon fill="#000000" stroke="#000000" points="251.7094,-406.5066 248.4885,-396.4133 244.7121,-406.3122 251.7094,-406.5066"/>
<g id="a_edge10&#45;headlabel"><a xlink:href="dir_000110_000061.html" target="_top" xlink:title="27">
<text text-anchor="middle" x="254.4479" y="-407.6787" font-family="Helvetica,sans-Serif" font-size="10.00" fill="#000000">27</text>
</a>
</g>
</g>
<!-- dir_f39d1cd569ca2d16022b762a0e4a53c8&#45;&gt;dir_4ab6b4cc6a7edbff49100e9123df213f -->
<g id="edge8" class="edge">
<title>dir_f39d1cd569ca2d16022b762a0e4a53c8&#45;&gt;dir_4ab6b4cc6a7edbff49100e9123df213f</title>
<path fill="none" stroke="#000000" d="M274.1846,-435.4437C277.1139,-434.167 280.0882,-432.9873 283,-432 363.1546,-404.8209 388.7852,-419.8245 470,-396 471.4634,-395.5707 472.9452,-395.112 474.4354,-394.6301"/>
<polygon fill="#000000" stroke="#000000" points="476.0051,-397.7889 484.2871,-391.1814 473.6923,-391.182 476.0051,-397.7889"/>
<g id="a_edge8&#45;headlabel"><a xlink:href="dir_000110_000027.html" target="_top" xlink:title="27">
<text text-anchor="middle" x="473.5504" y="-399.1564" font-family="Helvetica,sans-Serif" font-size="10.00" fill="#000000">27</text>
</a>
</g>
</g>
<!-- dir_f39d1cd569ca2d16022b762a0e4a53c8&#45;&gt;dir_37c90836491b695b472bf98d1be8336b -->
<g id="edge9" class="edge">
<title>dir_f39d1cd569ca2d16022b762a0e4a53c8&#45;&gt;dir_37c90836491b695b472bf98d1be8336b</title>
<path fill="none" stroke="#000000" d="M231.6025,-431.7193C224.1014,-421.7854 215.7049,-408.9159 211,-396 183.608,-320.8028 186.8451,-290.5314 216,-216 229.415,-181.7059 231.5977,-170.6603 257,-144 270.8117,-129.5043 289.2768,-117.1711 305.4677,-107.9667"/>
<polygon fill="#000000" stroke="#000000" points="307.5975,-110.7908 314.6855,-102.9161 304.2338,-104.6519 307.5975,-110.7908"/>
<g id="a_edge9&#45;headlabel"><a xlink:href="dir_000110_000274.html" target="_top" xlink:title="7">
<text text-anchor="middle" x="305.8093" y="-112.508" font-family="Helvetica,sans-Serif" font-size="10.00" fill="#000000">7</text>
</a>
</g>
</g>
<!-- dir_f39d1cd569ca2d16022b762a0e4a53c8&#45;&gt;dir_f511f1e9c03c071966ae594f00bbc5e0 -->
<g id="edge11" class="edge">
<title>dir_f39d1cd569ca2d16022b762a0e4a53c8&#45;&gt;dir_f511f1e9c03c071966ae594f00bbc5e0</title>
<path fill="none" stroke="#000000" d="M274.0911,-435.1439C277.0387,-433.9256 280.0428,-432.8416 283,-432 367.7752,-407.8731 606.1158,-447.0058 678,-396 698.2448,-381.6352 708.6997,-354.7911 713.9655,-334.1444"/>
<polygon fill="#000000" stroke="#000000" points="717.3993,-334.8285 716.2123,-324.3003 710.5748,-333.2708 717.3993,-334.8285"/>
<g id="a_edge11&#45;headlabel"><a xlink:href="dir_000110_000671.html" target="_top" xlink:title="1">
<text text-anchor="middle" x="719.3676" y="-336.4647" font-family="Helvetica,sans-Serif" font-size="10.00" fill="#000000">1</text>
</a>
</g>
</g>
<!-- dir_f39d1cd569ca2d16022b762a0e4a53c8&#45;&gt;dir_bcbb2cf9a3d3d83e5515c82071a07177 -->
<g id="edge12" class="edge">
<title>dir_f39d1cd569ca2d16022b762a0e4a53c8&#45;&gt;dir_bcbb2cf9a3d3d83e5515c82071a07177</title>
<path fill="none" stroke="#000000" d="M219.6229,-435.6589C155.3135,-401.7624 0,-318.5955 0,-306 0,-306 0,-306 0,-162 0,-86.2744 254.0531,-40.2455 360.2262,-24.3157"/>
<polygon fill="#000000" stroke="#000000" points="360.9445,-27.7476 370.326,-22.8244 359.922,-20.8227 360.9445,-27.7476"/>
<g id="a_edge12&#45;headlabel"><a xlink:href="dir_000110_000013.html" target="_top" xlink:title="39">
<text text-anchor="middle" x="357.8032" y="-28.5814" font-family="Helvetica,sans-Serif" font-size="10.00" fill="#000000">39</text>
</a>
</g>
</g>
<!-- dir_f39d1cd569ca2d16022b762a0e4a53c8&#45;&gt;dir_26637d1bd82229bc9ed97f7e706be743 -->
<g id="edge13" class="edge">
<title>dir_f39d1cd569ca2d16022b762a0e4a53c8&#45;&gt;dir_26637d1bd82229bc9ed97f7e706be743</title>
<path fill="none" stroke="#000000" d="M274.1276,-435.2674C277.0681,-434.025 280.0606,-432.9016 283,-432 399.5822,-396.241 447.0642,-452.745 555,-396 593.159,-375.9387 604.524,-364.2376 620,-324 627.7246,-303.9159 623.0276,-279.8046 616.9167,-261.5953"/>
<polygon fill="#000000" stroke="#000000" points="620.1802,-260.3288 613.4461,-252.1493 613.6096,-262.7429 620.1802,-260.3288"/>
<g id="a_edge13&#45;headlabel"><a xlink:href="dir_000110_000562.html" target="_top" xlink:title="1">
<text text-anchor="middle" x="624.0848" y="-260.2237" font-family="Helvetica,sans-Serif" font-size="10.00" fill="#000000">1</text>
</a>
</g>
</g>
<!-- dir_f39d1cd569ca2d16022b762a0e4a53c8&#45;&gt;dir_2171f7ec022c5423887b07c69b2f5b48 -->
<g id="edge14" class="edge">
<title>dir_f39d1cd569ca2d16022b762a0e4a53c8&#45;&gt;dir_2171f7ec022c5423887b07c69b2f5b48</title>
<path fill="none" stroke="#000000" d="M273.9837,-431.9834C317.4742,-401.1391 401.5702,-333.584 435,-252 443.1876,-232.0185 448.5705,-208.1717 451.8347,-190.0464"/>
<polygon fill="#000000" stroke="#000000" points="455.2988,-190.552 453.517,-180.1081 448.397,-189.3836 455.2988,-190.552"/>
<g id="a_edge14&#45;headlabel"><a xlink:href="dir_000110_000076.html" target="_top" xlink:title="82">
<text text-anchor="middle" x="457.4984" y="-192.07" font-family="Helvetica,sans-Serif" font-size="10.00" fill="#000000">82</text>
</a>
</g>
</g>
<!-- dir_8a13aabf51651f1b5f53d57129f566b6 -->
<g id="node5" class="node">
<title>dir_8a13aabf51651f1b5f53d57129f566b6</title>
<g id="a_node5"><a xlink:href="dir_8a13aabf51651f1b5f53d57129f566b6.html" target="_top" xlink:title="test">
<polygon fill="#ffffff" stroke="#ff0000" points="202,-468 148,-468 148,-432 202,-432 202,-468"/>
<text text-anchor="middle" x="175" y="-447.5" font-family="Helvetica,sans-Serif" font-size="10.00" fill="#000000">test</text>
</a>
</g>
</g>
<!-- dir_8a13aabf51651f1b5f53d57129f566b6&#45;&gt;dir_85bf31a2e8d306e7598ffcb73f8df6bf -->
<g id="edge34" class="edge">
<title>dir_8a13aabf51651f1b5f53d57129f566b6&#45;&gt;dir_85bf31a2e8d306e7598ffcb73f8df6bf</title>
<path fill="none" stroke="#000000" d="M193.6733,-431.8314C202.5249,-423.219 213.2486,-412.7851 222.8895,-403.4048"/>
<polygon fill="#000000" stroke="#000000" points="225.6061,-405.645 230.3326,-396.1628 220.7246,-400.6279 225.6061,-405.645"/>
<g id="a_edge34&#45;headlabel"><a xlink:href="dir_000511_000061.html" target="_top" xlink:title="3">
<text text-anchor="middle" x="225.0098" y="-407.6866" font-family="Helvetica,sans-Serif" font-size="10.00" fill="#000000">3</text>
</a>
</g>
</g>
<!-- dir_8a13aabf51651f1b5f53d57129f566b6&#45;&gt;dir_871aad07cbf94d6cd423c3d8d5bdf4e9 -->
<g id="edge32" class="edge">
<title>dir_8a13aabf51651f1b5f53d57129f566b6&#45;&gt;dir_871aad07cbf94d6cd423c3d8d5bdf4e9</title>
<path fill="none" stroke="#000000" d="M180.8578,-431.8568C187.176,-413.2745 198.0852,-383.818 211,-360 216.0818,-350.6279 222.4863,-340.9387 228.5819,-332.3996"/>
<polygon fill="#000000" stroke="#000000" points="231.43,-334.4343 234.514,-324.2983 225.7822,-330.2988 231.43,-334.4343"/>
<g id="a_edge32&#45;headlabel"><a xlink:href="dir_000511_000044.html" target="_top" xlink:title="1">
<text text-anchor="middle" x="231.5972" y="-336.5119" font-family="Helvetica,sans-Serif" font-size="10.00" fill="#000000">1</text>
</a>
</g>
</g>
<!-- dir_8a13aabf51651f1b5f53d57129f566b6&#45;&gt;dir_4ab6b4cc6a7edbff49100e9123df213f -->
<g id="edge33" class="edge">
<title>dir_8a13aabf51651f1b5f53d57129f566b6&#45;&gt;dir_4ab6b4cc6a7edbff49100e9123df213f</title>
<path fill="none" stroke="#000000" d="M202.1701,-435.4006C205.1023,-434.1323 208.0812,-432.9664 211,-432 302.2098,-401.8021 414.7222,-387.419 473.9954,-381.5085"/>
<polygon fill="#000000" stroke="#000000" points="474.4631,-384.9797 484.08,-380.5339 473.7897,-378.0122 474.4631,-384.9797"/>
<g id="a_edge33&#45;headlabel"><a xlink:href="dir_000511_000027.html" target="_top" xlink:title="2">
<text text-anchor="middle" x="471.1582" y="-385.6515" font-family="Helvetica,sans-Serif" font-size="10.00" fill="#000000">2</text>
</a>
</g>
</g>
<!-- dir_4ab6b4cc6a7edbff49100e9123df213f&#45;&gt;dir_f511f1e9c03c071966ae594f00bbc5e0 -->
<g id="edge15" class="edge">
<title>dir_4ab6b4cc6a7edbff49100e9123df213f&#45;&gt;dir_f511f1e9c03c071966ae594f00bbc5e0</title>
<path fill="none" stroke="#000000" d="M545.7101,-365.2936C582.3067,-351.664 643.121,-330.2279 682.1924,-317.2067"/>
<polygon fill="#000000" stroke="#000000" points="683.4744,-320.4693 691.8712,-314.0082 681.278,-313.8228 683.4744,-320.4693"/>
<g id="a_edge15&#45;headlabel"><a xlink:href="dir_000027_000671.html" target="_top" xlink:title="3">
<text text-anchor="middle" x="680.9522" y="-321.793" font-family="Helvetica,sans-Serif" font-size="10.00" fill="#000000">3</text>
</a>
</g>
</g>
<!-- dir_4ab6b4cc6a7edbff49100e9123df213f&#45;&gt;dir_bcbb2cf9a3d3d83e5515c82071a07177 -->
<g id="edge16" class="edge">
<title>dir_4ab6b4cc6a7edbff49100e9123df213f&#45;&gt;dir_bcbb2cf9a3d3d83e5515c82071a07177</title>
<path fill="none" stroke="#000000" d="M545.5923,-373.0712C600.5753,-364.57 712.7599,-345.9356 746,-324 787.1824,-296.8232 811,-283.3413 811,-234 811,-234 811,-234 811,-162 811,-85.8681 558.0942,-40.7769 451.9172,-24.7119"/>
<polygon fill="#000000" stroke="#000000" points="452.2203,-21.2184 441.8131,-23.2035 451.1867,-28.1417 452.2203,-21.2184"/>
<g id="a_edge16&#45;headlabel"><a xlink:href="dir_000027_000013.html" target="_top" xlink:title="2">
<text text-anchor="middle" x="456.1947" y="-16.4409" font-family="Helvetica,sans-Serif" font-size="10.00" fill="#000000">2</text>
</a>
</g>
</g>
<!-- dir_4ab6b4cc6a7edbff49100e9123df213f&#45;&gt;dir_2171f7ec022c5423887b07c69b2f5b48 -->
<g id="edge17" class="edge">
<title>dir_4ab6b4cc6a7edbff49100e9123df213f&#45;&gt;dir_2171f7ec022c5423887b07c69b2f5b48</title>
<path fill="none" stroke="#000000" d="M506.1253,-359.9555C492.3852,-322.3144 468.3271,-235.1867 458.9583,-190.1246"/>
<polygon fill="#000000" stroke="#000000" points="462.3603,-189.2845 457.0012,-180.1451 455.4912,-190.6317 462.3603,-189.2845"/>
<g id="a_edge17&#45;headlabel"><a xlink:href="dir_000027_000076.html" target="_top" xlink:title="2">
<text text-anchor="middle" x="465.8382" y="-189.7656" font-family="Helvetica,sans-Serif" font-size="10.00" fill="#000000">2</text>
</a>
</g>
</g>
<!-- dir_b05a5fa85f84bfc9013183c9d87f9a36&#45;&gt;dir_4ab6b4cc6a7edbff49100e9123df213f -->
<g id="edge18" class="edge">
<title>dir_b05a5fa85f84bfc9013183c9d87f9a36&#45;&gt;dir_4ab6b4cc6a7edbff49100e9123df213f</title>
<path fill="none" stroke="#000000" d="M485.6595,-108.365C492.776,-118.322 500.6994,-131.1867 505,-144 528.7863,-214.8686 523.5663,-304.6282 518.7338,-349.5984"/>
<polygon fill="#000000" stroke="#000000" points="515.2292,-349.4383 517.5629,-359.7729 522.1833,-350.2387 515.2292,-349.4383"/>
<g id="a_edge18&#45;headlabel"><a xlink:href="dir_000558_000027.html" target="_top" xlink:title="1">
<text text-anchor="middle" x="512.8195" y="-343.0426" font-family="Helvetica,sans-Serif" font-size="10.00" fill="#000000">1</text>
</a>
</g>
</g>
<!-- dir_b05a5fa85f84bfc9013183c9d87f9a36&#45;&gt;dir_bcbb2cf9a3d3d83e5515c82071a07177 -->
<g id="edge19" class="edge">
<title>dir_b05a5fa85f84bfc9013183c9d87f9a36&#45;&gt;dir_bcbb2cf9a3d3d83e5515c82071a07177</title>
<path fill="none" stroke="#000000" d="M454.5978,-71.8314C446.9585,-63.3694 437.7317,-53.1489 429.3793,-43.8971"/>
<polygon fill="#000000" stroke="#000000" points="431.9221,-41.4906 422.6231,-36.4133 426.7262,-46.1813 431.9221,-41.4906"/>
<g id="a_edge19&#45;headlabel"><a xlink:href="dir_000558_000013.html" target="_top" xlink:title="33">
<text text-anchor="middle" x="436.4383" y="-39.7561" font-family="Helvetica,sans-Serif" font-size="10.00" fill="#000000">33</text>
</a>
</g>
</g>
<!-- dir_b05a5fa85f84bfc9013183c9d87f9a36&#45;&gt;dir_2171f7ec022c5423887b07c69b2f5b48 -->
<g id="edge20" class="edge">
<title>dir_b05a5fa85f84bfc9013183c9d87f9a36&#45;&gt;dir_2171f7ec022c5423887b07c69b2f5b48</title>
<path fill="none" stroke="#000000" d="M473.1399,-108.4133C472.259,-116.2292 470.5313,-125.5113 468.3994,-134.136"/>
<polygon fill="#000000" stroke="#000000" points="465.01,-133.2615 465.7375,-143.8314 471.7602,-135.1149 465.01,-133.2615"/>
<g id="a_edge20&#45;headlabel"><a xlink:href="dir_000558_000076.html" target="_top" xlink:title="48">
<text text-anchor="middle" x="463.2237" y="-126.5435" font-family="Helvetica,sans-Serif" font-size="10.00" fill="#000000">48</text>
</a>
</g>
</g>
<!-- dir_37c90836491b695b472bf98d1be8336b&#45;&gt;dir_4ab6b4cc6a7edbff49100e9123df213f -->
<g id="edge21" class="edge">
<title>dir_37c90836491b695b472bf98d1be8336b&#45;&gt;dir_4ab6b4cc6a7edbff49100e9123df213f</title>
<path fill="none" stroke="#000000" d="M352.8336,-108.2396C376.2737,-147.6744 433.498,-243.7893 482,-324 487.3165,-332.7921 493.1523,-342.3666 498.4186,-350.9786"/>
<polygon fill="#000000" stroke="#000000" points="495.4485,-352.8306 503.6549,-359.5317 501.4186,-349.1756 495.4485,-352.8306"/>
<g id="a_edge21&#45;headlabel"><a xlink:href="dir_000274_000027.html" target="_top" xlink:title="16">
<text text-anchor="middle" x="491.1502" y="-348.7473" font-family="Helvetica,sans-Serif" font-size="10.00" fill="#000000">16</text>
</a>
</g>
</g>
<!-- dir_37c90836491b695b472bf98d1be8336b&#45;&gt;dir_f511f1e9c03c071966ae594f00bbc5e0 -->
<g id="edge22" class="edge">
<title>dir_37c90836491b695b472bf98d1be8336b&#45;&gt;dir_f511f1e9c03c071966ae594f00bbc5e0</title>
<path fill="none" stroke="#000000" d="M369.1045,-96.8585C441.4577,-115.6419 636.7881,-169.609 683,-216 699.7117,-232.7765 708.9284,-258.3011 713.8405,-277.8885"/>
<polygon fill="#000000" stroke="#000000" points="710.4613,-278.8131 716.0903,-287.7888 717.2872,-277.2618 710.4613,-278.8131"/>
<g id="a_edge22&#45;headlabel"><a xlink:href="dir_000274_000671.html" target="_top" xlink:title="14">
<text text-anchor="middle" x="706.8961" y="-273.437" font-family="Helvetica,sans-Serif" font-size="10.00" fill="#000000">14</text>
</a>
</g>
</g>
<!-- dir_37c90836491b695b472bf98d1be8336b&#45;&gt;dir_bcbb2cf9a3d3d83e5515c82071a07177 -->
<g id="edge23" class="edge">
<title>dir_37c90836491b695b472bf98d1be8336b&#45;&gt;dir_bcbb2cf9a3d3d83e5515c82071a07177</title>
<path fill="none" stroke="#000000" d="M358.1499,-71.8314C365.6717,-63.3694 374.7565,-53.1489 382.9804,-43.8971"/>
<polygon fill="#000000" stroke="#000000" points="385.6049,-46.2127 389.6327,-36.4133 380.373,-41.5621 385.6049,-46.2127"/>
<g id="a_edge23&#45;headlabel"><a xlink:href="dir_000274_000013.html" target="_top" xlink:title="1">
<text text-anchor="middle" x="385.3389" y="-48.2856" font-family="Helvetica,sans-Serif" font-size="10.00" fill="#000000">1</text>
</a>
</g>
</g>
<!-- dir_37c90836491b695b472bf98d1be8336b&#45;&gt;dir_2171f7ec022c5423887b07c69b2f5b48 -->
<g id="edge24" class="edge">
<title>dir_37c90836491b695b472bf98d1be8336b&#45;&gt;dir_2171f7ec022c5423887b07c69b2f5b48</title>
<path fill="none" stroke="#000000" d="M369.3743,-103.845C386.022,-113.5296 407.2133,-126.7142 424.5285,-138.0811"/>
<polygon fill="#000000" stroke="#000000" points="422.919,-141.2137 433.1854,-143.8314 426.7921,-135.3828 422.919,-141.2137"/>
<g id="a_edge24&#45;headlabel"><a xlink:href="dir_000274_000076.html" target="_top" xlink:title="10">
<text text-anchor="middle" x="418.3538" y="-139.0899" font-family="Helvetica,sans-Serif" font-size="10.00" fill="#000000">10</text>
</a>
</g>
</g>
<!-- dir_f511f1e9c03c071966ae594f00bbc5e0&#45;&gt;dir_871aad07cbf94d6cd423c3d8d5bdf4e9 -->
<g id="edge35" class="edge">
<title>dir_f511f1e9c03c071966ae594f00bbc5e0&#45;&gt;dir_871aad07cbf94d6cd423c3d8d5bdf4e9</title>
<path fill="none" stroke="#000000" d="M691.75,-306C556.5761,-306 421.4022,-306 286.2283,-306"/>
<polygon fill="#000000" stroke="#000000" points="286.0801,-302.5001 276.0801,-306 286.08,-309.5001 286.0801,-302.5001"/>
<g id="a_edge35&#45;headlabel"><a xlink:href="dir_000671_000044.html" target="_top" xlink:title="7">
<text text-anchor="middle" x="289.6747" y="-297.1607" font-family="Helvetica,sans-Serif" font-size="10.00" fill="#000000">7</text>
</a>
</g>
</g>
<!-- dir_f511f1e9c03c071966ae594f00bbc5e0&#45;&gt;dir_4ab6b4cc6a7edbff49100e9123df213f -->
<g id="edge36" class="edge">
<title>dir_f511f1e9c03c071966ae594f00bbc5e0&#45;&gt;dir_4ab6b4cc6a7edbff49100e9123df213f</title>
<path fill="none" stroke="#000000" d="M691.7478,-317.4148C656.5883,-330.5886 595.4816,-352.172 555.0604,-365.7066"/>
<polygon fill="#000000" stroke="#000000" points="553.8954,-362.4055 545.5099,-368.8812 556.1034,-369.0482 553.8954,-362.4055"/>
<g id="a_edge36&#45;headlabel"><a xlink:href="dir_000671_000027.html" target="_top" xlink:title="2">
<text text-anchor="middle" x="556.411" y="-356.0774" font-family="Helvetica,sans-Serif" font-size="10.00" fill="#000000">2</text>
</a>
</g>
</g>
<!-- dir_f511f1e9c03c071966ae594f00bbc5e0&#45;&gt;dir_b05a5fa85f84bfc9013183c9d87f9a36 -->
<g id="edge37" class="edge">
<title>dir_f511f1e9c03c071966ae594f00bbc5e0&#45;&gt;dir_b05a5fa85f84bfc9013183c9d87f9a36</title>
<path fill="none" stroke="#000000" d="M724.9711,-287.9865C734.8843,-254.2634 750.0266,-181.6202 711,-144 682.4284,-116.458 568.8607,-100.4462 508.7589,-93.7385"/>
<polygon fill="#000000" stroke="#000000" points="508.8604,-90.2291 498.5413,-92.6304 508.1056,-97.1883 508.8604,-90.2291"/>
<g id="a_edge37&#45;headlabel"><a xlink:href="dir_000671_000558.html" target="_top" xlink:title="4">
<text text-anchor="middle" x="512.7401" y="-85.2938" font-family="Helvetica,sans-Serif" font-size="10.00" fill="#000000">4</text>
</a>
</g>
</g>
<!-- dir_f511f1e9c03c071966ae594f00bbc5e0&#45;&gt;dir_26637d1bd82229bc9ed97f7e706be743 -->
<g id="edge38" class="edge">
<title>dir_f511f1e9c03c071966ae594f00bbc5e0&#45;&gt;dir_26637d1bd82229bc9ed97f7e706be743</title>
<path fill="none" stroke="#000000" d="M691.9991,-289.2091C684.6449,-283.422 676.7036,-277.1151 669,-272 660.2513,-266.191 650.5088,-260.5853 641.2772,-255.5449"/>
<polygon fill="#000000" stroke="#000000" points="642.7374,-252.3562 632.2718,-250.7064 639.4242,-258.5225 642.7374,-252.3562"/>
<g id="a_edge38&#45;headlabel"><a xlink:href="dir_000671_000562.html" target="_top" xlink:title="1">
<text text-anchor="middle" x="647.2477" y="-249.0564" font-family="Helvetica,sans-Serif" font-size="10.00" fill="#000000">1</text>
</a>
</g>
</g>
<!-- dir_f511f1e9c03c071966ae594f00bbc5e0&#45;&gt;dir_2171f7ec022c5423887b07c69b2f5b48 -->
<g id="edge39" class="edge">
<title>dir_f511f1e9c03c071966ae594f00bbc5e0&#45;&gt;dir_2171f7ec022c5423887b07c69b2f5b48</title>
<path fill="none" stroke="#000000" d="M701.3096,-287.6901C685.4017,-267.2629 661.064,-234.6436 632,-216 593.5157,-191.3135 543.4031,-177.5955 506.4112,-170.1702"/>
<polygon fill="#000000" stroke="#000000" points="506.8265,-166.6861 496.346,-168.2388 505.5073,-173.5606 506.8265,-166.6861"/>
<g id="a_edge39&#45;headlabel"><a xlink:href="dir_000671_000076.html" target="_top" xlink:title="15">
<text text-anchor="middle" x="510.8917" y="-162.075" font-family="Helvetica,sans-Serif" font-size="10.00" fill="#000000">15</text>
</a>
</g>
</g>
<!-- dir_bcbb2cf9a3d3d83e5515c82071a07177&#45;&gt;dir_871aad07cbf94d6cd423c3d8d5bdf4e9 -->
<g id="edge40" class="edge">
<title>dir_bcbb2cf9a3d3d83e5515c82071a07177&#45;&gt;dir_871aad07cbf94d6cd423c3d8d5bdf4e9</title>
<path fill="none" stroke="#000000" d="M370.3797,-24.8838C342.2361,-32.0817 303.8498,-46.0801 280,-72 227.6323,-128.9132 235.6289,-229.0871 243.4481,-277.8057"/>
<polygon fill="#000000" stroke="#000000" points="240.0462,-278.6748 245.193,-287.9355 246.9446,-277.4865 240.0462,-278.6748"/>
<g id="a_edge40&#45;headlabel"><a xlink:href="dir_000013_000044.html" target="_top" xlink:title="1">
<text text-anchor="middle" x="236.638" y="-273.1143" font-family="Helvetica,sans-Serif" font-size="10.00" fill="#000000">1</text>
</a>
</g>
</g>
<!-- dir_bcbb2cf9a3d3d83e5515c82071a07177&#45;&gt;dir_4ab6b4cc6a7edbff49100e9123df213f -->
<g id="edge41" class="edge">
<title>dir_bcbb2cf9a3d3d83e5515c82071a07177&#45;&gt;dir_4ab6b4cc6a7edbff49100e9123df213f</title>
<path fill="none" stroke="#000000" d="M441.6509,-22.0567C543.7417,-35.3017 829,-81.1451 829,-162 829,-234 829,-234 829,-234 829,-283.3413 805.1824,-296.8232 764,-324 730.6402,-346.0146 617.7659,-364.7042 555.9651,-373.1627"/>
<polygon fill="#000000" stroke="#000000" points="555.2245,-369.7305 545.7774,-374.5266 556.1534,-376.6686 555.2245,-369.7305"/>
<g id="a_edge41&#45;headlabel"><a xlink:href="dir_000013_000027.html" target="_top" xlink:title="8">
<text text-anchor="middle" x="558.4106" y="-363.9395" font-family="Helvetica,sans-Serif" font-size="10.00" fill="#000000">8</text>
</a>
</g>
</g>
<!-- dir_bcbb2cf9a3d3d83e5515c82071a07177&#45;&gt;dir_2171f7ec022c5423887b07c69b2f5b48 -->
<g id="edge42" class="edge">
<title>dir_bcbb2cf9a3d3d83e5515c82071a07177&#45;&gt;dir_2171f7ec022c5423887b07c69b2f5b48</title>
<path fill="none" stroke="#000000" d="M418.2696,-36.0348C426.0782,-54.2807 435.2084,-83.2492 444,-108 447.016,-116.4909 450.4926,-125.6514 453.3525,-133.9732"/>
<polygon fill="#000000" stroke="#000000" points="450.0596,-135.1658 456.4628,-143.6068 456.721,-133.0151 450.0596,-135.1658"/>
<g id="a_edge42&#45;headlabel"><a xlink:href="dir_000013_000076.html" target="_top" xlink:title="82">
<text text-anchor="middle" x="446.2533" y="-130.1174" font-family="Helvetica,sans-Serif" font-size="10.00" fill="#000000">82</text>
</a>
</g>
</g>
<!-- dir_26637d1bd82229bc9ed97f7e706be743&#45;&gt;dir_4ab6b4cc6a7edbff49100e9123df213f -->
<g id="edge43" class="edge">
<title>dir_26637d1bd82229bc9ed97f7e706be743&#45;&gt;dir_4ab6b4cc6a7edbff49100e9123df213f</title>
<path fill="none" stroke="#000000" d="M609.1507,-252.2691C612.4851,-271.4852 614.7572,-301.9403 602,-324 591.6376,-341.9187 572.7035,-354.7085 555.1388,-363.3281"/>
<polygon fill="#000000" stroke="#000000" points="553.2255,-360.3543 545.5847,-367.6939 556.1348,-366.7211 553.2255,-360.3543"/>
<g id="a_edge43&#45;headlabel"><a xlink:href="dir_000562_000027.html" target="_top" xlink:title="9">
<text text-anchor="middle" x="555.3149" y="-353.7779" font-family="Helvetica,sans-Serif" font-size="10.00" fill="#000000">9</text>
</a>
</g>
</g>
<!-- dir_26637d1bd82229bc9ed97f7e706be743&#45;&gt;dir_f511f1e9c03c071966ae594f00bbc5e0 -->
<g id="edge44" class="edge">
<title>dir_26637d1bd82229bc9ed97f7e706be743&#45;&gt;dir_f511f1e9c03c071966ae594f00bbc5e0</title>
<path fill="none" stroke="#000000" d="M632.2478,-242.921C648.9046,-250.0183 669.8597,-260.6192 687,-272 691.2081,-274.7941 695.4871,-277.9438 699.5277,-281.1702"/>
<polygon fill="#000000" stroke="#000000" points="697.4903,-284.0308 707.3878,-287.8111 702.008,-278.6837 697.4903,-284.0308"/>
<g id="a_edge44&#45;headlabel"><a xlink:href="dir_000562_000671.html" target="_top" xlink:title="2">
<text text-anchor="middle" x="692.9121" y="-281.3798" font-family="Helvetica,sans-Serif" font-size="10.00" fill="#000000">2</text>
</a>
</g>
</g>
<!-- dir_26637d1bd82229bc9ed97f7e706be743&#45;&gt;dir_bcbb2cf9a3d3d83e5515c82071a07177 -->
<g id="edge45" class="edge">
<title>dir_26637d1bd82229bc9ed97f7e706be743&#45;&gt;dir_bcbb2cf9a3d3d83e5515c82071a07177</title>
<path fill="none" stroke="#000000" d="M598.6902,-215.7576C586.3482,-182.6206 555.9559,-112.2557 508,-72 491.0642,-57.7835 469.7753,-45.7892 451.0335,-36.743"/>
<polygon fill="#000000" stroke="#000000" points="452.3263,-33.4837 441.7856,-32.4138 449.3585,-39.8234 452.3263,-33.4837"/>
<g id="a_edge45&#45;headlabel"><a xlink:href="dir_000562_000013.html" target="_top" xlink:title="25">
<text text-anchor="middle" x="456.7856" y="-29.9362" font-family="Helvetica,sans-Serif" font-size="10.00" fill="#000000">25</text>
</a>
</g>
</g>
<!-- dir_26637d1bd82229bc9ed97f7e706be743&#45;&gt;dir_2171f7ec022c5423887b07c69b2f5b48 -->
<g id="edge46" class="edge">
<title>dir_26637d1bd82229bc9ed97f7e706be743&#45;&gt;dir_2171f7ec022c5423887b07c69b2f5b48</title>
<path fill="none" stroke="#000000" d="M577.6711,-220.7941C556.6631,-210.6426 527.1538,-196.3831 502.4581,-184.4495"/>
<polygon fill="#000000" stroke="#000000" points="503.7833,-181.2028 493.2566,-180.0032 500.7377,-187.5055 503.7833,-181.2028"/>
<g id="a_edge46&#45;headlabel"><a xlink:href="dir_000562_000076.html" target="_top" xlink:title="15">
<text text-anchor="middle" x="508.2552" y="-177.7102" font-family="Helvetica,sans-Serif" font-size="10.00" fill="#000000">15</text>
</a>
</g>
</g>
<!-- dir_2171f7ec022c5423887b07c69b2f5b48&#45;&gt;dir_85bf31a2e8d306e7598ffcb73f8df6bf -->
<g id="edge50" class="edge">
<title>dir_2171f7ec022c5423887b07c69b2f5b48&#45;&gt;dir_85bf31a2e8d306e7598ffcb73f8df6bf</title>
<path fill="none" stroke="#000000" d="M438.3925,-180.1494C417.9133,-201.5314 383.4137,-238.4065 356,-272 337.9024,-294.1773 337.9042,-303.4286 318,-324 307.701,-334.6442 295.2548,-345.0031 283.7846,-353.754"/>
<polygon fill="#000000" stroke="#000000" points="281.572,-351.0379 275.6496,-359.8229 285.7578,-356.6486 281.572,-351.0379"/>
<g id="a_edge50&#45;headlabel"><a xlink:href="dir_000076_000061.html" target="_top" xlink:title="1">
<text text-anchor="middle" x="282.7555" y="-344.1128" font-family="Helvetica,sans-Serif" font-size="10.00" fill="#000000">1</text>
</a>
</g>
</g>
<!-- dir_2171f7ec022c5423887b07c69b2f5b48&#45;&gt;dir_4ab6b4cc6a7edbff49100e9123df213f -->
<g id="edge47" class="edge">
<title>dir_2171f7ec022c5423887b07c69b2f5b48&#45;&gt;dir_4ab6b4cc6a7edbff49100e9123df213f</title>
<path fill="none" stroke="#000000" d="M464.9114,-180.1451C478.6698,-217.8741 502.724,-305.0083 512.0667,-349.9956"/>
<polygon fill="#000000" stroke="#000000" points="508.6605,-350.8145 514.0171,-359.9555 515.53,-349.4692 508.6605,-350.8145"/>
<g id="a_edge47&#45;headlabel"><a xlink:href="dir_000076_000027.html" target="_top" xlink:title="35">
<text text-anchor="middle" x="505.1834" y="-345.3325" font-family="Helvetica,sans-Serif" font-size="10.00" fill="#000000">35</text>
</a>
</g>
</g>
<!-- dir_2171f7ec022c5423887b07c69b2f5b48&#45;&gt;dir_b05a5fa85f84bfc9013183c9d87f9a36 -->
<g id="edge48" class="edge">
<title>dir_2171f7ec022c5423887b07c69b2f5b48&#45;&gt;dir_b05a5fa85f84bfc9013183c9d87f9a36</title>
<path fill="none" stroke="#000000" d="M453.8327,-143.8314C454.6959,-136.0463 456.4105,-126.7729 458.5339,-118.1347"/>
<polygon fill="#000000" stroke="#000000" points="461.9306,-118.982 461.1879,-108.4133 455.1777,-117.1384 461.9306,-118.982"/>
<g id="a_edge48&#45;headlabel"><a xlink:href="dir_000076_000558.html" target="_top" xlink:title="1">
<text text-anchor="middle" x="463.723" y="-120.6975" font-family="Helvetica,sans-Serif" font-size="10.00" fill="#000000">1</text>
</a>
</g>
</g>
<!-- dir_2171f7ec022c5423887b07c69b2f5b48&#45;&gt;dir_37c90836491b695b472bf98d1be8336b -->
<g id="edge49" class="edge">
<title>dir_2171f7ec022c5423887b07c69b2f5b48&#45;&gt;dir_37c90836491b695b472bf98d1be8336b</title>
<path fill="none" stroke="#000000" d="M421.2806,-143.8314C405.9451,-134.7074 388.1162,-123.539 373.2064,-113.7449"/>
<polygon fill="#000000" stroke="#000000" points="375.0719,-110.7822 364.806,-108.1628 371.1978,-116.6124 375.0719,-110.7822"/>
<g id="a_edge49&#45;headlabel"><a xlink:href="dir_000076_000274.html" target="_top" xlink:title="1">
<text text-anchor="middle" x="379.6372" y="-107.9069" font-family="Helvetica,sans-Serif" font-size="10.00" fill="#000000">1</text>
</a>
</g>
</g>
<!-- dir_2171f7ec022c5423887b07c69b2f5b48&#45;&gt;dir_f511f1e9c03c071966ae594f00bbc5e0 -->
<g id="edge51" class="edge">
<title>dir_2171f7ec022c5423887b07c69b2f5b48&#45;&gt;dir_f511f1e9c03c071966ae594f00bbc5e0</title>
<path fill="none" stroke="#000000" d="M496.2365,-165.9971C537.7998,-171.8789 602.6875,-185.6505 650,-216 675.204,-232.1675 696.8536,-258.8449 709.2752,-278.9672"/>
<polygon fill="#000000" stroke="#000000" points="706.2807,-280.7807 714.3127,-287.6901 712.3425,-277.28 706.2807,-280.7807"/>
<g id="a_edge51&#45;headlabel"><a xlink:href="dir_000076_000671.html" target="_top" xlink:title="17">
<text text-anchor="middle" x="702.0244" y="-276.5878" font-family="Helvetica,sans-Serif" font-size="10.00" fill="#000000">17</text>
</a>
</g>
</g>
<!-- dir_2171f7ec022c5423887b07c69b2f5b48&#45;&gt;dir_bcbb2cf9a3d3d83e5515c82071a07177 -->
<g id="edge52" class="edge">
<title>dir_2171f7ec022c5423887b07c69b2f5b48&#45;&gt;dir_bcbb2cf9a3d3d83e5515c82071a07177</title>
<path fill="none" stroke="#000000" d="M440.6089,-143.6068C435.3958,-133.2113 430.2423,-119.9432 426,-108 418.6508,-87.3099 411.0649,-63.6725 406.7793,-45.8151"/>
<polygon fill="#000000" stroke="#000000" points="410.1989,-45.069 404.6641,-36.0348 403.3571,-46.5487 410.1989,-45.069"/>
<g id="a_edge52&#45;headlabel"><a xlink:href="dir_000076_000013.html" target="_top" xlink:title="10">
<text text-anchor="middle" x="413.7338" y="-45.4822" font-family="Helvetica,sans-Serif" font-size="10.00" fill="#000000">10</text>
</a>
</g>
</g>
</g>
</svg>
