<?xml version="1.0" encoding="UTF-8" standalone="no"?>
<!DOCTYPE svg PUBLIC "-//W3C//DTD SVG 1.1//EN"
 "http://www.w3.org/Graphics/SVG/1.1/DTD/svg11.dtd">
<!-- Generated by graphviz version 2.40.1 (20161225.0304)
 -->
<!-- Title: /home/travis/build/AliceO2Group/AliceO2/Framework/Core/include/Framework/AnalysisTask.h Pages: 1 -->
<svg width="6234pt" height="150pt"
 viewBox="0.00 0.00 6234.00 150.00" xmlns="http://www.w3.org/2000/svg" xmlns:xlink="http://www.w3.org/1999/xlink">
<g id="graph0" class="graph" transform="scale(1 1) rotate(0) translate(4 146)">
<title>/home/travis/build/AliceO2Group/AliceO2/Framework/Core/include/Framework/AnalysisTask.h</title>
<!-- Node172 -->
<g id="node1" class="node">
<title>Node172</title>
<polygon fill="#bfbfbf" stroke="#000000" points="3292,-89.5 3292,-141.5 3441,-141.5 3441,-89.5 3292,-89.5"/>
<text text-anchor="start" x="3300" y="-129.5" font-family="Helvetica,sans-Serif" font-size="10.00" fill="#000000">/home/travis/build</text>
<text text-anchor="start" x="3300" y="-118.5" font-family="Helvetica,sans-Serif" font-size="10.00" fill="#000000">/AliceO2Group/AliceO2</text>
<text text-anchor="start" x="3300" y="-107.5" font-family="Helvetica,sans-Serif" font-size="10.00" fill="#000000">/Framework/Core/include</text>
<text text-anchor="middle" x="3366.5" y="-96.5" font-family="Helvetica,sans-Serif" font-size="10.00" fill="#000000">/Framework/AnalysisTask.h</text>
</g>
<!-- Node173 -->
<g id="node2" class="node">
<title>Node173</title>
<g id="a_node2"><a xlink:href="../../dc/def/CorrelationContainer_8cxx.html" target="_top" xlink:title="/home/travis/build\l/AliceO2Group/AliceO2\l/Analysis/Core/src/Correlation\lContainer.cxx">
<polygon fill="none" stroke="#000000" points="0,-.5 0,-52.5 161,-52.5 161,-.5 0,-.5"/>
<text text-anchor="start" x="8" y="-40.5" font-family="Helvetica,sans-Serif" font-size="10.00" fill="#000000">/home/travis/build</text>
<text text-anchor="start" x="8" y="-29.5" font-family="Helvetica,sans-Serif" font-size="10.00" fill="#000000">/AliceO2Group/AliceO2</text>
<text text-anchor="start" x="8" y="-18.5" font-family="Helvetica,sans-Serif" font-size="10.00" fill="#000000">/Analysis/Core/src/Correlation</text>
<text text-anchor="middle" x="80.5" y="-7.5" font-family="Helvetica,sans-Serif" font-size="10.00" fill="#000000">Container.cxx</text>
</a>
</g>
</g>
<!-- Node172&#45;&gt;Node173 -->
<g id="edge1" class="edge">
<title>Node172&#45;&gt;Node173</title>
<path fill="none" stroke="#191970" d="M3281.7023,-115.192C2806.6182,-113.286 485.3574,-101.5374 170.5,-53 167.4414,-52.5285 164.341,-51.981 161.2219,-51.3714"/>
<polygon fill="#191970" stroke="#191970" points="3281.9012,-118.6927 3291.9151,-115.2325 3281.9291,-111.6927 3281.9012,-118.6927"/>
</g>
<!-- Node174 -->
<g id="node3" class="node">
<title>Node174</title>
<g id="a_node3"><a xlink:href="../../d9/dae/StepTHn_8cxx.html" target="_top" xlink:title="/home/travis/build\l/AliceO2Group/AliceO2\l/Analysis/Core/src/StepTHn.cxx">
<polygon fill="none" stroke="#000000" points="179.5,-6 179.5,-47 347.5,-47 347.5,-6 179.5,-6"/>
<text text-anchor="start" x="187.5" y="-35" font-family="Helvetica,sans-Serif" font-size="10.00" fill="#000000">/home/travis/build</text>
<text text-anchor="start" x="187.5" y="-24" font-family="Helvetica,sans-Serif" font-size="10.00" fill="#000000">/AliceO2Group/AliceO2</text>
<text text-anchor="middle" x="263.5" y="-13" font-family="Helvetica,sans-Serif" font-size="10.00" fill="#000000">/Analysis/Core/src/StepTHn.cxx</text>
</a>
</g>
</g>
<!-- Node172&#45;&gt;Node174 -->
<g id="edge2" class="edge">
<title>Node172&#45;&gt;Node174</title>
<path fill="none" stroke="#191970" d="M3281.526,-115.0365C2822.8367,-112.3608 652.0962,-97.4257 356.5,-53 346.9538,-51.5653 337.0042,-49.4382 327.3139,-47.0021"/>
<polygon fill="#191970" stroke="#191970" points="3281.6995,-118.5375 3291.7197,-115.0956 3281.7401,-111.5376 3281.6995,-118.5375"/>
</g>
<!-- Node175 -->
<g id="node4" class="node">
<title>Node175</title>
<g id="a_node4"><a xlink:href="../../d5/d75/centralityQa_8cxx.html" target="_top" xlink:title="/home/travis/build\l/AliceO2Group/AliceO2\l/Analysis/Tasks/centralityQa.cxx">
<polygon fill="none" stroke="#000000" points="365.5,-6 365.5,-47 539.5,-47 539.5,-6 365.5,-6"/>
<text text-anchor="start" x="373.5" y="-35" font-family="Helvetica,sans-Serif" font-size="10.00" fill="#000000">/home/travis/build</text>
<text text-anchor="start" x="373.5" y="-24" font-family="Helvetica,sans-Serif" font-size="10.00" fill="#000000">/AliceO2Group/AliceO2</text>
<text text-anchor="middle" x="452.5" y="-13" font-family="Helvetica,sans-Serif" font-size="10.00" fill="#000000">/Analysis/Tasks/centralityQa.cxx</text>
</a>
</g>
</g>
<!-- Node172&#45;&gt;Node175 -->
<g id="edge3" class="edge">
<title>Node172&#45;&gt;Node175</title>
<path fill="none" stroke="#191970" d="M3281.6671,-114.8668C2841.1514,-111.4112 824.271,-93.482 548.5,-53 538.7492,-51.5686 528.5813,-49.4609 518.6654,-47.049"/>
<polygon fill="#191970" stroke="#191970" points="3281.7511,-118.3674 3291.7782,-114.9457 3281.8058,-111.3677 3281.7511,-118.3674"/>
</g>
<!-- Node176 -->
<g id="node5" class="node">
<title>Node176</title>
<g id="a_node5"><a xlink:href="../../de/d41/centralityTable_8cxx.html" target="_top" xlink:title="/home/travis/build\l/AliceO2Group/AliceO2\l/Analysis/Tasks/centralityTable.cxx">
<polygon fill="none" stroke="#000000" points="557.5,-6 557.5,-47 743.5,-47 743.5,-6 557.5,-6"/>
<text text-anchor="start" x="565.5" y="-35" font-family="Helvetica,sans-Serif" font-size="10.00" fill="#000000">/home/travis/build</text>
<text text-anchor="start" x="565.5" y="-24" font-family="Helvetica,sans-Serif" font-size="10.00" fill="#000000">/AliceO2Group/AliceO2</text>
<text text-anchor="middle" x="650.5" y="-13" font-family="Helvetica,sans-Serif" font-size="10.00" fill="#000000">/Analysis/Tasks/centralityTable.cxx</text>
</a>
</g>
</g>
<!-- Node172&#45;&gt;Node176 -->
<g id="edge4" class="edge">
<title>Node172&#45;&gt;Node176</title>
<path fill="none" stroke="#191970" d="M3281.4312,-114.6305C2860.1367,-110.1677 1007.2536,-88.6522 752.5,-53 742.1718,-51.5546 731.3862,-49.4391 720.8588,-47.0235"/>
<polygon fill="#191970" stroke="#191970" points="3281.6711,-118.1331 3291.7075,-114.739 3281.745,-111.1335 3281.6711,-118.1331"/>
</g>
<!-- Node177 -->
<g id="node6" class="node">
<title>Node177</title>
<g id="a_node6"><a xlink:href="../../d9/d61/correlations_8cxx.html" target="_top" xlink:title="/home/travis/build\l/AliceO2Group/AliceO2\l/Analysis/Tasks/correlations.cxx">
<polygon fill="none" stroke="#000000" points="761.5,-6 761.5,-47 933.5,-47 933.5,-6 761.5,-6"/>
<text text-anchor="start" x="769.5" y="-35" font-family="Helvetica,sans-Serif" font-size="10.00" fill="#000000">/home/travis/build</text>
<text text-anchor="start" x="769.5" y="-24" font-family="Helvetica,sans-Serif" font-size="10.00" fill="#000000">/AliceO2Group/AliceO2</text>
<text text-anchor="middle" x="847.5" y="-13" font-family="Helvetica,sans-Serif" font-size="10.00" fill="#000000">/Analysis/Tasks/correlations.cxx</text>
</a>
</g>
</g>
<!-- Node172&#45;&gt;Node177 -->
<g id="edge5" class="edge">
<title>Node172&#45;&gt;Node177</title>
<path fill="none" stroke="#191970" d="M3281.7701,-114.5527C2880.0836,-109.8948 1177.2558,-88.217 942.5,-53 932.8481,-51.5521 922.7845,-49.4351 912.9712,-47.0189"/>
<polygon fill="#191970" stroke="#191970" points="3281.8245,-118.0535 3291.8643,-114.6693 3281.9055,-111.0539 3281.8245,-118.0535"/>
</g>
<!-- Node178 -->
<g id="node7" class="node">
<title>Node178</title>
<g id="a_node7"><a xlink:href="../../df/d59/correlationsCollection_8cxx.html" target="_top" xlink:title="/home/travis/build\l/AliceO2Group/AliceO2\l/Analysis/Tasks/correlations\lCollection.cxx">
<polygon fill="none" stroke="#000000" points="951.5,-.5 951.5,-52.5 1103.5,-52.5 1103.5,-.5 951.5,-.5"/>
<text text-anchor="start" x="959.5" y="-40.5" font-family="Helvetica,sans-Serif" font-size="10.00" fill="#000000">/home/travis/build</text>
<text text-anchor="start" x="959.5" y="-29.5" font-family="Helvetica,sans-Serif" font-size="10.00" fill="#000000">/AliceO2Group/AliceO2</text>
<text text-anchor="start" x="959.5" y="-18.5" font-family="Helvetica,sans-Serif" font-size="10.00" fill="#000000">/Analysis/Tasks/correlations</text>
<text text-anchor="middle" x="1027.5" y="-7.5" font-family="Helvetica,sans-Serif" font-size="10.00" fill="#000000">Collection.cxx</text>
</a>
</g>
</g>
<!-- Node172&#45;&gt;Node178 -->
<g id="edge6" class="edge">
<title>Node172&#45;&gt;Node178</title>
<path fill="none" stroke="#191970" d="M3281.4905,-114.5225C2896.8917,-109.9132 1329.0655,-89.0541 1112.5,-53 1109.603,-52.5177 1106.6677,-51.961 1103.7159,-51.3436"/>
<polygon fill="#191970" stroke="#191970" points="3281.67,-118.0247 3291.7111,-114.6444 3281.7537,-111.0252 3281.67,-118.0247"/>
</g>
<!-- Node179 -->
<g id="node8" class="node">
<title>Node179</title>
<g id="a_node8"><a xlink:href="../../d4/d39/correlationsMixed_8cxx.html" target="_top" xlink:title="/home/travis/build\l/AliceO2Group/AliceO2\l/Analysis/Tasks/correlations\lMixed.cxx">
<polygon fill="none" stroke="#000000" points="1121.5,-.5 1121.5,-52.5 1273.5,-52.5 1273.5,-.5 1121.5,-.5"/>
<text text-anchor="start" x="1129.5" y="-40.5" font-family="Helvetica,sans-Serif" font-size="10.00" fill="#000000">/home/travis/build</text>
<text text-anchor="start" x="1129.5" y="-29.5" font-family="Helvetica,sans-Serif" font-size="10.00" fill="#000000">/AliceO2Group/AliceO2</text>
<text text-anchor="start" x="1129.5" y="-18.5" font-family="Helvetica,sans-Serif" font-size="10.00" fill="#000000">/Analysis/Tasks/correlations</text>
<text text-anchor="middle" x="1197.5" y="-7.5" font-family="Helvetica,sans-Serif" font-size="10.00" fill="#000000">Mixed.cxx</text>
</a>
</g>
</g>
<!-- Node172&#45;&gt;Node179 -->
<g id="edge7" class="edge">
<title>Node172&#45;&gt;Node179</title>
<path fill="none" stroke="#191970" d="M3281.6744,-114.3184C2915.7159,-109.0358 1481.5587,-86.3707 1282.5,-53 1279.6035,-52.5144 1276.6687,-51.955 1273.7173,-51.3352"/>
<polygon fill="#191970" stroke="#191970" points="3281.8808,-117.8216 3291.9301,-114.4659 3281.9816,-110.8224 3281.8808,-117.8216"/>
</g>
<!-- Node180 -->
<g id="node9" class="node">
<title>Node180</title>
<g id="a_node9"><a xlink:href="../../d9/df1/eventSelection_8cxx.html" target="_top" xlink:title="/home/travis/build\l/AliceO2Group/AliceO2\l/Analysis/Tasks/eventSelection.cxx">
<polygon fill="none" stroke="#000000" points="1292,-6 1292,-47 1479,-47 1479,-6 1292,-6"/>
<text text-anchor="start" x="1300" y="-35" font-family="Helvetica,sans-Serif" font-size="10.00" fill="#000000">/home/travis/build</text>
<text text-anchor="start" x="1300" y="-24" font-family="Helvetica,sans-Serif" font-size="10.00" fill="#000000">/AliceO2Group/AliceO2</text>
<text text-anchor="middle" x="1385.5" y="-13" font-family="Helvetica,sans-Serif" font-size="10.00" fill="#000000">/Analysis/Tasks/eventSelection.cxx</text>
</a>
</g>
</g>
<!-- Node172&#45;&gt;Node180 -->
<g id="edge8" class="edge">
<title>Node172&#45;&gt;Node180</title>
<path fill="none" stroke="#191970" d="M3281.7081,-115.1657C2963.5493,-113.525 1841.014,-104.1588 1487.5,-53 1477.3598,-51.5326 1466.775,-49.439 1456.4254,-47.0636"/>
<polygon fill="#191970" stroke="#191970" points="3281.7685,-118.6659 3291.7861,-115.2164 3281.8039,-111.666 3281.7685,-118.6659"/>
</g>
<!-- Node181 -->
<g id="node10" class="node">
<title>Node181</title>
<g id="a_node10"><a xlink:href="../../dd/d91/eventSelectionQa_8cxx.html" target="_top" xlink:title="/home/travis/build\l/AliceO2Group/AliceO2\l/Analysis/Tasks/eventSelection\lQa.cxx">
<polygon fill="none" stroke="#000000" points="1497,-.5 1497,-52.5 1664,-52.5 1664,-.5 1497,-.5"/>
<text text-anchor="start" x="1505" y="-40.5" font-family="Helvetica,sans-Serif" font-size="10.00" fill="#000000">/home/travis/build</text>
<text text-anchor="start" x="1505" y="-29.5" font-family="Helvetica,sans-Serif" font-size="10.00" fill="#000000">/AliceO2Group/AliceO2</text>
<text text-anchor="start" x="1505" y="-18.5" font-family="Helvetica,sans-Serif" font-size="10.00" fill="#000000">/Analysis/Tasks/eventSelection</text>
<text text-anchor="middle" x="1580.5" y="-7.5" font-family="Helvetica,sans-Serif" font-size="10.00" fill="#000000">Qa.cxx</text>
</a>
</g>
</g>
<!-- Node172&#45;&gt;Node181 -->
<g id="edge9" class="edge">
<title>Node172&#45;&gt;Node181</title>
<path fill="none" stroke="#191970" d="M3281.6809,-115.0981C2983.9429,-113.2617 1987.5172,-103.4059 1672.5,-53 1669.7098,-52.5535 1666.8845,-52.0495 1664.041,-51.4976"/>
<polygon fill="#191970" stroke="#191970" points="3281.9544,-118.5997 3291.9753,-115.1601 3281.9966,-111.5999 3281.9544,-118.5997"/>
</g>
<!-- Node182 -->
<g id="node11" class="node">
<title>Node182</title>
<g id="a_node11"><a xlink:href="../../d3/db8/invMassAnalysis_8cxx.html" target="_top" xlink:title="/home/travis/build\l/AliceO2Group/AliceO2\l/Analysis/Tasks/invMassAnalysis.cxx">
<polygon fill="none" stroke="#000000" points="1682,-6 1682,-47 1877,-47 1877,-6 1682,-6"/>
<text text-anchor="start" x="1690" y="-35" font-family="Helvetica,sans-Serif" font-size="10.00" fill="#000000">/home/travis/build</text>
<text text-anchor="start" x="1690" y="-24" font-family="Helvetica,sans-Serif" font-size="10.00" fill="#000000">/AliceO2Group/AliceO2</text>
<text text-anchor="middle" x="1779.5" y="-13" font-family="Helvetica,sans-Serif" font-size="10.00" fill="#000000">/Analysis/Tasks/invMassAnalysis.cxx</text>
</a>
</g>
</g>
<!-- Node172&#45;&gt;Node182 -->
<g id="edge10" class="edge">
<title>Node172&#45;&gt;Node182</title>
<path fill="none" stroke="#191970" d="M3281.5795,-114.1525C3009.0932,-109.4764 2158.7275,-92.0548 1886.5,-53 1875.9863,-51.4917 1865.0021,-49.3918 1854.2457,-47.0278"/>
<polygon fill="#191970" stroke="#191970" points="3281.7436,-117.6557 3291.8017,-114.3265 3281.8628,-110.6567 3281.7436,-117.6557"/>
</g>
<!-- Node183 -->
<g id="node12" class="node">
<title>Node183</title>
<g id="a_node12"><a xlink:href="../../d2/dc6/jetfinder_8cxx.html" target="_top" xlink:title="/home/travis/build\l/AliceO2Group/AliceO2\l/Analysis/Tasks/jetfinder.cxx">
<polygon fill="none" stroke="#000000" points="1895.5,-6 1895.5,-47 2049.5,-47 2049.5,-6 1895.5,-6"/>
<text text-anchor="start" x="1903.5" y="-35" font-family="Helvetica,sans-Serif" font-size="10.00" fill="#000000">/home/travis/build</text>
<text text-anchor="start" x="1903.5" y="-24" font-family="Helvetica,sans-Serif" font-size="10.00" fill="#000000">/AliceO2Group/AliceO2</text>
<text text-anchor="middle" x="1972.5" y="-13" font-family="Helvetica,sans-Serif" font-size="10.00" fill="#000000">/Analysis/Tasks/jetfinder.cxx</text>
</a>
</g>
</g>
<!-- Node172&#45;&gt;Node183 -->
<g id="edge11" class="edge">
<title>Node172&#45;&gt;Node183</title>
<path fill="none" stroke="#191970" d="M3281.6257,-114.2241C3030.6471,-110.0116 2294.8356,-94.3785 2058.5,-53 2050.0359,-51.5181 2041.2392,-49.4497 2032.6434,-47.1154"/>
<polygon fill="#191970" stroke="#191970" points="3281.7236,-117.7261 3291.7804,-114.3928 3281.8399,-110.7271 3281.7236,-117.7261"/>
</g>
<!-- Node184 -->
<g id="node13" class="node">
<title>Node184</title>
<g id="a_node13"><a xlink:href="../../d3/d6a/multiplicityQa_8cxx.html" target="_top" xlink:title="/home/travis/build\l/AliceO2Group/AliceO2\l/Analysis/Tasks/multiplicity\lQa.cxx">
<polygon fill="none" stroke="#000000" points="2068,-.5 2068,-52.5 2217,-52.5 2217,-.5 2068,-.5"/>
<text text-anchor="start" x="2076" y="-40.5" font-family="Helvetica,sans-Serif" font-size="10.00" fill="#000000">/home/travis/build</text>
<text text-anchor="start" x="2076" y="-29.5" font-family="Helvetica,sans-Serif" font-size="10.00" fill="#000000">/AliceO2Group/AliceO2</text>
<text text-anchor="start" x="2076" y="-18.5" font-family="Helvetica,sans-Serif" font-size="10.00" fill="#000000">/Analysis/Tasks/multiplicity</text>
<text text-anchor="middle" x="2142.5" y="-7.5" font-family="Helvetica,sans-Serif" font-size="10.00" fill="#000000">Qa.cxx</text>
</a>
</g>
</g>
<!-- Node172&#45;&gt;Node184 -->
<g id="edge12" class="edge">
<title>Node172&#45;&gt;Node184</title>
<path fill="none" stroke="#191970" d="M3281.5603,-113.6435C3052.9249,-108.2002 2428.1101,-90.2635 2225.5,-53 2222.8222,-52.5075 2220.1106,-51.9532 2217.3832,-51.3484"/>
<polygon fill="#191970" stroke="#191970" points="3281.7386,-117.1486 3291.8185,-113.8856 3281.9039,-110.1505 3281.7386,-117.1486"/>
</g>
<!-- Node185 -->
<g id="node14" class="node">
<title>Node185</title>
<g id="a_node14"><a xlink:href="../../d4/d23/multiplicityTable_8cxx.html" target="_top" xlink:title="/home/travis/build\l/AliceO2Group/AliceO2\l/Analysis/Tasks/multiplicity\lTable.cxx">
<polygon fill="none" stroke="#000000" points="2235,-.5 2235,-52.5 2384,-52.5 2384,-.5 2235,-.5"/>
<text text-anchor="start" x="2243" y="-40.5" font-family="Helvetica,sans-Serif" font-size="10.00" fill="#000000">/home/travis/build</text>
<text text-anchor="start" x="2243" y="-29.5" font-family="Helvetica,sans-Serif" font-size="10.00" fill="#000000">/AliceO2Group/AliceO2</text>
<text text-anchor="start" x="2243" y="-18.5" font-family="Helvetica,sans-Serif" font-size="10.00" fill="#000000">/Analysis/Tasks/multiplicity</text>
<text text-anchor="middle" x="2309.5" y="-7.5" font-family="Helvetica,sans-Serif" font-size="10.00" fill="#000000">Table.cxx</text>
</a>
</g>
</g>
<!-- Node172&#45;&gt;Node185 -->
<g id="edge13" class="edge">
<title>Node172&#45;&gt;Node185</title>
<path fill="none" stroke="#191970" d="M3281.6074,-112.721C3077.1583,-105.5982 2561.869,-84.9699 2392.5,-53 2389.8245,-52.495 2387.1149,-51.93 2384.3892,-51.3159"/>
<polygon fill="#191970" stroke="#191970" points="3281.5777,-116.222 3291.6929,-113.0702 3281.82,-109.2262 3281.5777,-116.222"/>
</g>
<!-- Node186 -->
<g id="node15" class="node">
<title>Node186</title>
<g id="a_node15"><a xlink:href="../../db/d90/trackselection_8cxx.html" target="_top" xlink:title="/home/travis/build\l/AliceO2Group/AliceO2\l/Analysis/Tasks/trackselection.cxx">
<polygon fill="none" stroke="#000000" points="2402,-6 2402,-47 2585,-47 2585,-6 2402,-6"/>
<text text-anchor="start" x="2410" y="-35" font-family="Helvetica,sans-Serif" font-size="10.00" fill="#000000">/home/travis/build</text>
<text text-anchor="start" x="2410" y="-24" font-family="Helvetica,sans-Serif" font-size="10.00" fill="#000000">/AliceO2Group/AliceO2</text>
<text text-anchor="middle" x="2493.5" y="-13" font-family="Helvetica,sans-Serif" font-size="10.00" fill="#000000">/Analysis/Tasks/trackselection.cxx</text>
</a>
</g>
</g>
<!-- Node172&#45;&gt;Node186 -->
<g id="edge14" class="edge">
<title>Node172&#45;&gt;Node186</title>
<path fill="none" stroke="#191970" d="M3281.853,-113.5861C3138.9895,-109.2583 2841.3436,-95.5088 2593.5,-53 2584.118,-51.3908 2574.3345,-49.3121 2564.718,-47.0273"/>
<polygon fill="#191970" stroke="#191970" points="3281.77,-117.0851 3291.8689,-113.8817 3281.9765,-110.0881 3281.77,-117.0851"/>
</g>
<!-- Node187 -->
<g id="node16" class="node">
<title>Node187</title>
<g id="a_node16"><a xlink:href="../../d2/d9d/upcAnalysis_8cxx.html" target="_top" xlink:title="/home/travis/build\l/AliceO2Group/AliceO2\l/Analysis/Tasks/upcAnalysis.cxx">
<polygon fill="none" stroke="#000000" points="2603,-6 2603,-47 2776,-47 2776,-6 2603,-6"/>
<text text-anchor="start" x="2611" y="-35" font-family="Helvetica,sans-Serif" font-size="10.00" fill="#000000">/home/travis/build</text>
<text text-anchor="start" x="2611" y="-24" font-family="Helvetica,sans-Serif" font-size="10.00" fill="#000000">/AliceO2Group/AliceO2</text>
<text text-anchor="middle" x="2689.5" y="-13" font-family="Helvetica,sans-Serif" font-size="10.00" fill="#000000">/Analysis/Tasks/upcAnalysis.cxx</text>
</a>
</g>
</g>
<!-- Node172&#45;&gt;Node187 -->
<g id="edge15" class="edge">
<title>Node172&#45;&gt;Node187</title>
<path fill="none" stroke="#191970" d="M3281.9168,-110.8068C3168.0732,-103.4933 2959.6095,-86.5872 2784.5,-53 2775.8397,-51.3389 2766.8191,-49.2737 2757.9337,-47.0341"/>
<polygon fill="#191970" stroke="#191970" points="3281.7613,-114.3039 3291.9625,-111.443 3282.2037,-107.3179 3281.7613,-114.3039"/>
</g>
<!-- Node188 -->
<g id="node17" class="node">
<title>Node188</title>
<g id="a_node17"><a xlink:href="../../dd/d1b/validation_8cxx.html" target="_top" xlink:title="/home/travis/build\l/AliceO2Group/AliceO2\l/Analysis/Tasks/validation.cxx">
<polygon fill="none" stroke="#000000" points="2794,-6 2794,-47 2957,-47 2957,-6 2794,-6"/>
<text text-anchor="start" x="2802" y="-35" font-family="Helvetica,sans-Serif" font-size="10.00" fill="#000000">/home/travis/build</text>
<text text-anchor="start" x="2802" y="-24" font-family="Helvetica,sans-Serif" font-size="10.00" fill="#000000">/AliceO2Group/AliceO2</text>
<text text-anchor="middle" x="2875.5" y="-13" font-family="Helvetica,sans-Serif" font-size="10.00" fill="#000000">/Analysis/Tasks/validation.cxx</text>
</a>
</g>
</g>
<!-- Node172&#45;&gt;Node188 -->
<g id="edge16" class="edge">
<title>Node172&#45;&gt;Node188</title>
<path fill="none" stroke="#191970" d="M3281.683,-105.4601C3200.307,-95.0727 3074.2336,-76.9991 2966.5,-53 2958.63,-51.2469 2950.4389,-49.194 2942.3378,-47.0203"/>
<polygon fill="#191970" stroke="#191970" points="3281.5135,-108.9665 3291.874,-106.7506 3282.393,-102.0219 3281.5135,-108.9665"/>
</g>
<!-- Node189 -->
<g id="node18" class="node">
<title>Node189</title>
<g id="a_node18"><a xlink:href="../../de/d5e/vertexerhf_8cxx.html" target="_top" xlink:title="/home/travis/build\l/AliceO2Group/AliceO2\l/Analysis/Tasks/vertexerhf.cxx">
<polygon fill="none" stroke="#000000" points="2975.5,-6 2975.5,-47 3139.5,-47 3139.5,-6 2975.5,-6"/>
<text text-anchor="start" x="2983.5" y="-35" font-family="Helvetica,sans-Serif" font-size="10.00" fill="#000000">/home/travis/build</text>
<text text-anchor="start" x="2983.5" y="-24" font-family="Helvetica,sans-Serif" font-size="10.00" fill="#000000">/AliceO2Group/AliceO2</text>
<text text-anchor="middle" x="3057.5" y="-13" font-family="Helvetica,sans-Serif" font-size="10.00" fill="#000000">/Analysis/Tasks/vertexerhf.cxx</text>
</a>
</g>
</g>
<!-- Node172&#45;&gt;Node189 -->
<g id="edge17" class="edge">
<title>Node172&#45;&gt;Node189</title>
<path fill="none" stroke="#191970" d="M3282.0029,-91.3635C3241.5892,-79.7967 3192.5287,-65.7222 3148.5,-53 3141.8606,-51.0815 3134.9503,-49.0793 3128.0368,-47.0723"/>
<polygon fill="#191970" stroke="#191970" points="3281.2384,-94.7851 3291.8155,-94.1713 3283.1642,-88.0552 3281.2384,-94.7851"/>
</g>
<!-- Node190 -->
<g id="node19" class="node">
<title>Node190</title>
<g id="a_node19"><a xlink:href="../../dd/d00/aodreader_8cxx.html" target="_top" xlink:title="/home/travis/build\l/AliceO2Group/AliceO2\l/Analysis/Tutorials/src\l/aodreader.cxx">
<polygon fill="none" stroke="#000000" points="3158,-.5 3158,-52.5 3285,-52.5 3285,-.5 3158,-.5"/>
<text text-anchor="start" x="3166" y="-40.5" font-family="Helvetica,sans-Serif" font-size="10.00" fill="#000000">/home/travis/build</text>
<text text-anchor="start" x="3166" y="-29.5" font-family="Helvetica,sans-Serif" font-size="10.00" fill="#000000">/AliceO2Group/AliceO2</text>
<text text-anchor="start" x="3166" y="-18.5" font-family="Helvetica,sans-Serif" font-size="10.00" fill="#000000">/Analysis/Tutorials/src</text>
<text text-anchor="middle" x="3221.5" y="-7.5" font-family="Helvetica,sans-Serif" font-size="10.00" fill="#000000">/aodreader.cxx</text>
</a>
</g>
</g>
<!-- Node172&#45;&gt;Node190 -->
<g id="edge18" class="edge">
<title>Node172&#45;&gt;Node190</title>
<path fill="none" stroke="#191970" d="M3315.1781,-83.9989C3298.3996,-73.7004 3279.9622,-62.3837 3263.9152,-52.5341"/>
<polygon fill="#191970" stroke="#191970" points="3313.4259,-87.0302 3323.7795,-89.2784 3317.0877,-81.0643 3313.4259,-87.0302"/>
</g>
<!-- Node191 -->
<g id="node20" class="node">
<title>Node191</title>
<g id="a_node20"><a xlink:href="../../d0/dee/aodwriter_8cxx.html" target="_top" xlink:title="/home/travis/build\l/AliceO2Group/AliceO2\l/Analysis/Tutorials/src\l/aodwriter.cxx">
<polygon fill="none" stroke="#000000" points="3303,-.5 3303,-52.5 3430,-52.5 3430,-.5 3303,-.5"/>
<text text-anchor="start" x="3311" y="-40.5" font-family="Helvetica,sans-Serif" font-size="10.00" fill="#000000">/home/travis/build</text>
<text text-anchor="start" x="3311" y="-29.5" font-family="Helvetica,sans-Serif" font-size="10.00" fill="#000000">/AliceO2Group/AliceO2</text>
<text text-anchor="start" x="3311" y="-18.5" font-family="Helvetica,sans-Serif" font-size="10.00" fill="#000000">/Analysis/Tutorials/src</text>
<text text-anchor="middle" x="3366.5" y="-7.5" font-family="Helvetica,sans-Serif" font-size="10.00" fill="#000000">/aodwriter.cxx</text>
</a>
</g>
</g>
<!-- Node172&#45;&gt;Node191 -->
<g id="edge19" class="edge">
<title>Node172&#45;&gt;Node191</title>
<path fill="none" stroke="#191970" d="M3366.5,-79.1155C3366.5,-70.2061 3366.5,-60.8475 3366.5,-52.5341"/>
<polygon fill="#191970" stroke="#191970" points="3363.0001,-79.2784 3366.5,-89.2784 3370.0001,-79.2785 3363.0001,-79.2784"/>
</g>
<!-- Node192 -->
<g id="node21" class="node">
<title>Node192</title>
<g id="a_node21"><a xlink:href="../../d6/dcb/associatedExample_8cxx.html" target="_top" xlink:title="/home/travis/build\l/AliceO2Group/AliceO2\l/Analysis/Tutorials/src\l/associatedExample.cxx">
<polygon fill="none" stroke="#000000" points="3448,-.5 3448,-52.5 3583,-52.5 3583,-.5 3448,-.5"/>
<text text-anchor="start" x="3456" y="-40.5" font-family="Helvetica,sans-Serif" font-size="10.00" fill="#000000">/home/travis/build</text>
<text text-anchor="start" x="3456" y="-29.5" font-family="Helvetica,sans-Serif" font-size="10.00" fill="#000000">/AliceO2Group/AliceO2</text>
<text text-anchor="start" x="3456" y="-18.5" font-family="Helvetica,sans-Serif" font-size="10.00" fill="#000000">/Analysis/Tutorials/src</text>
<text text-anchor="middle" x="3515.5" y="-7.5" font-family="Helvetica,sans-Serif" font-size="10.00" fill="#000000">/associatedExample.cxx</text>
</a>
</g>
</g>
<!-- Node172&#45;&gt;Node192 -->
<g id="edge20" class="edge">
<title>Node172&#45;&gt;Node192</title>
<path fill="none" stroke="#191970" d="M3419.2377,-83.9989C3436.4791,-73.7004 3455.4251,-62.3837 3471.9147,-52.5341"/>
<polygon fill="#191970" stroke="#191970" points="3417.1893,-81.1456 3410.399,-89.2784 3420.7789,-87.1552 3417.1893,-81.1456"/>
</g>
<!-- Node193 -->
<g id="node22" class="node">
<title>Node193</title>
<g id="a_node22"><a xlink:href="../../d4/dd5/collisionTracksIteration_8cxx.html" target="_top" xlink:title="/home/travis/build\l/AliceO2Group/AliceO2\l/Analysis/Tutorials/src\l/collisionTracksIteration.cxx">
<polygon fill="none" stroke="#000000" points="3601.5,-.5 3601.5,-52.5 3753.5,-52.5 3753.5,-.5 3601.5,-.5"/>
<text text-anchor="start" x="3609.5" y="-40.5" font-family="Helvetica,sans-Serif" font-size="10.00" fill="#000000">/home/travis/build</text>
<text text-anchor="start" x="3609.5" y="-29.5" font-family="Helvetica,sans-Serif" font-size="10.00" fill="#000000">/AliceO2Group/AliceO2</text>
<text text-anchor="start" x="3609.5" y="-18.5" font-family="Helvetica,sans-Serif" font-size="10.00" fill="#000000">/Analysis/Tutorials/src</text>
<text text-anchor="middle" x="3677.5" y="-7.5" font-family="Helvetica,sans-Serif" font-size="10.00" fill="#000000">/collisionTracksIteration.cxx</text>
</a>
</g>
</g>
<!-- Node172&#45;&gt;Node193 -->
<g id="edge21" class="edge">
<title>Node172&#45;&gt;Node193</title>
<path fill="none" stroke="#191970" d="M3450.9908,-92.832C3493.5321,-81.2416 3545.8503,-66.7184 3592.5,-53 3595.3176,-52.1714 3598.1852,-51.3199 3601.0798,-50.4533"/>
<polygon fill="#191970" stroke="#191970" points="3449.9658,-89.4835 3441.2349,-95.4853 3451.8029,-96.2382 3449.9658,-89.4835"/>
</g>
<!-- Node194 -->
<g id="node23" class="node">
<title>Node194</title>
<g id="a_node23"><a xlink:href="../../d2/df5/dynamicColumns_8cxx.html" target="_top" xlink:title="/home/travis/build\l/AliceO2Group/AliceO2\l/Analysis/Tutorials/src\l/dynamicColumns.cxx">
<polygon fill="none" stroke="#000000" points="3772,-.5 3772,-52.5 3899,-52.5 3899,-.5 3772,-.5"/>
<text text-anchor="start" x="3780" y="-40.5" font-family="Helvetica,sans-Serif" font-size="10.00" fill="#000000">/home/travis/build</text>
<text text-anchor="start" x="3780" y="-29.5" font-family="Helvetica,sans-Serif" font-size="10.00" fill="#000000">/AliceO2Group/AliceO2</text>
<text text-anchor="start" x="3780" y="-18.5" font-family="Helvetica,sans-Serif" font-size="10.00" fill="#000000">/Analysis/Tutorials/src</text>
<text text-anchor="middle" x="3835.5" y="-7.5" font-family="Helvetica,sans-Serif" font-size="10.00" fill="#000000">/dynamicColumns.cxx</text>
</a>
</g>
</g>
<!-- Node172&#45;&gt;Node194 -->
<g id="edge22" class="edge">
<title>Node172&#45;&gt;Node194</title>
<path fill="none" stroke="#191970" d="M3451.2078,-106.8939C3532.048,-97.566 3656.827,-80.2507 3762.5,-53 3765.5028,-52.2256 3768.5553,-51.3765 3771.6243,-50.4723"/>
<polygon fill="#191970" stroke="#191970" points="3450.621,-103.438 3441.0813,-108.0471 3451.4131,-110.393 3450.621,-103.438"/>
</g>
<!-- Node195 -->
<g id="node24" class="node">
<title>Node195</title>
<g id="a_node24"><a xlink:href="../../d6/ddb/eventMixing_8cxx.html" target="_top" xlink:title="/home/travis/build\l/AliceO2Group/AliceO2\l/Analysis/Tutorials/src\l/eventMixing.cxx">
<polygon fill="none" stroke="#000000" points="3917,-.5 3917,-52.5 4044,-52.5 4044,-.5 3917,-.5"/>
<text text-anchor="start" x="3925" y="-40.5" font-family="Helvetica,sans-Serif" font-size="10.00" fill="#000000">/home/travis/build</text>
<text text-anchor="start" x="3925" y="-29.5" font-family="Helvetica,sans-Serif" font-size="10.00" fill="#000000">/AliceO2Group/AliceO2</text>
<text text-anchor="start" x="3925" y="-18.5" font-family="Helvetica,sans-Serif" font-size="10.00" fill="#000000">/Analysis/Tutorials/src</text>
<text text-anchor="middle" x="3980.5" y="-7.5" font-family="Helvetica,sans-Serif" font-size="10.00" fill="#000000">/eventMixing.cxx</text>
</a>
</g>
</g>
<!-- Node172&#45;&gt;Node195 -->
<g id="edge23" class="edge">
<title>Node172&#45;&gt;Node195</title>
<path fill="none" stroke="#191970" d="M3451.2571,-111.962C3558.856,-106.0543 3749.6073,-90.8306 3908.5,-53 3911.2211,-52.3521 3913.9803,-51.6322 3916.7529,-50.8565"/>
<polygon fill="#191970" stroke="#191970" points="3450.9064,-108.4756 3441.1077,-112.5051 3451.2805,-115.4656 3450.9064,-108.4756"/>
</g>
<!-- Node196 -->
<g id="node25" class="node">
<title>Node196</title>
<g id="a_node25"><a xlink:href="../../d6/d77/filters_8cxx.html" target="_top" xlink:title="/home/travis/build\l/AliceO2Group/AliceO2\l/Analysis/Tutorials/src\l/filters.cxx">
<polygon fill="none" stroke="#000000" points="4062,-.5 4062,-52.5 4189,-52.5 4189,-.5 4062,-.5"/>
<text text-anchor="start" x="4070" y="-40.5" font-family="Helvetica,sans-Serif" font-size="10.00" fill="#000000">/home/travis/build</text>
<text text-anchor="start" x="4070" y="-29.5" font-family="Helvetica,sans-Serif" font-size="10.00" fill="#000000">/AliceO2Group/AliceO2</text>
<text text-anchor="start" x="4070" y="-18.5" font-family="Helvetica,sans-Serif" font-size="10.00" fill="#000000">/Analysis/Tutorials/src</text>
<text text-anchor="middle" x="4125.5" y="-7.5" font-family="Helvetica,sans-Serif" font-size="10.00" fill="#000000">/filters.cxx</text>
</a>
</g>
</g>
<!-- Node172&#45;&gt;Node196 -->
<g id="edge24" class="edge">
<title>Node172&#45;&gt;Node196</title>
<path fill="none" stroke="#191970" d="M3451.2251,-110.5717C3608.76,-100.948 3940.9641,-78.3658 4053.5,-53 4056.2287,-52.3849 4058.9942,-51.6925 4061.7721,-50.9394"/>
<polygon fill="#191970" stroke="#191970" points="3450.8745,-107.0864 3441.1053,-111.1867 3451.2993,-114.0735 3450.8745,-107.0864"/>
</g>
<!-- Node197 -->
<g id="node26" class="node">
<title>Node197</title>
<g id="a_node26"><a xlink:href="../../d2/d4e/fullTrackIteration_8cxx.html" target="_top" xlink:title="/home/travis/build\l/AliceO2Group/AliceO2\l/Analysis/Tutorials/src\l/fullTrackIteration.cxx">
<polygon fill="none" stroke="#000000" points="4207,-.5 4207,-52.5 4334,-52.5 4334,-.5 4207,-.5"/>
<text text-anchor="start" x="4215" y="-40.5" font-family="Helvetica,sans-Serif" font-size="10.00" fill="#000000">/home/travis/build</text>
<text text-anchor="start" x="4215" y="-29.5" font-family="Helvetica,sans-Serif" font-size="10.00" fill="#000000">/AliceO2Group/AliceO2</text>
<text text-anchor="start" x="4215" y="-18.5" font-family="Helvetica,sans-Serif" font-size="10.00" fill="#000000">/Analysis/Tutorials/src</text>
<text text-anchor="middle" x="4270.5" y="-7.5" font-family="Helvetica,sans-Serif" font-size="10.00" fill="#000000">/fullTrackIteration.cxx</text>
</a>
</g>
</g>
<!-- Node172&#45;&gt;Node197 -->
<g id="edge25" class="edge">
<title>Node172&#45;&gt;Node197</title>
<path fill="none" stroke="#191970" d="M3451.2959,-112.1172C3633.6074,-104.3575 4057.7504,-83.5628 4198.5,-53 4201.2335,-52.4064 4204.0029,-51.732 4206.7842,-50.9938"/>
<polygon fill="#191970" stroke="#191970" points="3451.0618,-108.6239 3441.2186,-112.5433 3451.3576,-115.6176 3451.0618,-108.6239"/>
</g>
<!-- Node198 -->
<g id="node27" class="node">
<title>Node198</title>
<g id="a_node27"><a xlink:href="../../df/d90/histograms_8cxx.html" target="_top" xlink:title="/home/travis/build\l/AliceO2Group/AliceO2\l/Analysis/Tutorials/src\l/histograms.cxx">
<polygon fill="none" stroke="#000000" points="4352,-.5 4352,-52.5 4479,-52.5 4479,-.5 4352,-.5"/>
<text text-anchor="start" x="4360" y="-40.5" font-family="Helvetica,sans-Serif" font-size="10.00" fill="#000000">/home/travis/build</text>
<text text-anchor="start" x="4360" y="-29.5" font-family="Helvetica,sans-Serif" font-size="10.00" fill="#000000">/AliceO2Group/AliceO2</text>
<text text-anchor="start" x="4360" y="-18.5" font-family="Helvetica,sans-Serif" font-size="10.00" fill="#000000">/Analysis/Tutorials/src</text>
<text text-anchor="middle" x="4415.5" y="-7.5" font-family="Helvetica,sans-Serif" font-size="10.00" fill="#000000">/histograms.cxx</text>
</a>
</g>
</g>
<!-- Node172&#45;&gt;Node198 -->
<g id="edge26" class="edge">
<title>Node172&#45;&gt;Node198</title>
<path fill="none" stroke="#191970" d="M3451.3757,-113.2099C3656.4109,-107.1722 4174.2455,-88.7705 4343.5,-53 4346.2367,-52.4216 4349.0089,-51.7598 4351.7924,-51.0322"/>
<polygon fill="#191970" stroke="#191970" points="3451.1558,-109.7147 3441.2622,-113.5051 3451.3601,-116.7117 3451.1558,-109.7147"/>
</g>
<!-- Node199 -->
<g id="node28" class="node">
<title>Node199</title>
<g id="a_node28"><a xlink:href="../../dd/d06/histogramTrackSelection_8cxx.html" target="_top" xlink:title="/home/travis/build\l/AliceO2Group/AliceO2\l/Analysis/Tutorials/src\l/histogramTrackSelection.cxx">
<polygon fill="none" stroke="#000000" points="4497.5,-.5 4497.5,-52.5 4657.5,-52.5 4657.5,-.5 4497.5,-.5"/>
<text text-anchor="start" x="4505.5" y="-40.5" font-family="Helvetica,sans-Serif" font-size="10.00" fill="#000000">/home/travis/build</text>
<text text-anchor="start" x="4505.5" y="-29.5" font-family="Helvetica,sans-Serif" font-size="10.00" fill="#000000">/AliceO2Group/AliceO2</text>
<text text-anchor="start" x="4505.5" y="-18.5" font-family="Helvetica,sans-Serif" font-size="10.00" fill="#000000">/Analysis/Tutorials/src</text>
<text text-anchor="middle" x="4577.5" y="-7.5" font-family="Helvetica,sans-Serif" font-size="10.00" fill="#000000">/histogramTrackSelection.cxx</text>
</a>
</g>
</g>
<!-- Node172&#45;&gt;Node199 -->
<g id="edge27" class="edge">
<title>Node172&#45;&gt;Node199</title>
<path fill="none" stroke="#191970" d="M3451.1911,-113.345C3676.9065,-107.1924 4289.2741,-87.7156 4488.5,-53 4491.3588,-52.5018 4494.2557,-51.9427 4497.171,-51.3337"/>
<polygon fill="#191970" stroke="#191970" points="3450.9623,-109.8499 3441.0607,-113.6193 3451.1518,-116.8473 3450.9623,-109.8499"/>
</g>
<!-- Node200 -->
<g id="node29" class="node">
<title>Node200</title>
<g id="a_node29"><a xlink:href="../../d7/d21/jetAnalysis_8cxx.html" target="_top" xlink:title="/home/travis/build\l/AliceO2Group/AliceO2\l/Analysis/Tutorials/src\l/jetAnalysis.cxx">
<polygon fill="none" stroke="#000000" points="4676,-.5 4676,-52.5 4803,-52.5 4803,-.5 4676,-.5"/>
<text text-anchor="start" x="4684" y="-40.5" font-family="Helvetica,sans-Serif" font-size="10.00" fill="#000000">/home/travis/build</text>
<text text-anchor="start" x="4684" y="-29.5" font-family="Helvetica,sans-Serif" font-size="10.00" fill="#000000">/AliceO2Group/AliceO2</text>
<text text-anchor="start" x="4684" y="-18.5" font-family="Helvetica,sans-Serif" font-size="10.00" fill="#000000">/Analysis/Tutorials/src</text>
<text text-anchor="middle" x="4739.5" y="-7.5" font-family="Helvetica,sans-Serif" font-size="10.00" fill="#000000">/jetAnalysis.cxx</text>
</a>
</g>
</g>
<!-- Node172&#45;&gt;Node200 -->
<g id="edge28" class="edge">
<title>Node172&#45;&gt;Node200</title>
<path fill="none" stroke="#191970" d="M3451.3939,-114.733C3701.5359,-111.9491 4432.8353,-99.9115 4666.5,-53 4669.5404,-52.3896 4672.6237,-51.675 4675.7177,-50.8798"/>
<polygon fill="#191970" stroke="#191970" points="3451.233,-111.2344 3441.2719,-114.8435 3451.3095,-118.234 3451.233,-111.2344"/>
</g>
<!-- Node201 -->
<g id="node30" class="node">
<title>Node201</title>
<g id="a_node30"><a xlink:href="../../dd/d84/mcHistograms_8cxx.html" target="_top" xlink:title="/home/travis/build\l/AliceO2Group/AliceO2\l/Analysis/Tutorials/src\l/mcHistograms.cxx">
<polygon fill="none" stroke="#000000" points="4821,-.5 4821,-52.5 4948,-52.5 4948,-.5 4821,-.5"/>
<text text-anchor="start" x="4829" y="-40.5" font-family="Helvetica,sans-Serif" font-size="10.00" fill="#000000">/home/travis/build</text>
<text text-anchor="start" x="4829" y="-29.5" font-family="Helvetica,sans-Serif" font-size="10.00" fill="#000000">/AliceO2Group/AliceO2</text>
<text text-anchor="start" x="4829" y="-18.5" font-family="Helvetica,sans-Serif" font-size="10.00" fill="#000000">/Analysis/Tutorials/src</text>
<text text-anchor="middle" x="4884.5" y="-7.5" font-family="Helvetica,sans-Serif" font-size="10.00" fill="#000000">/mcHistograms.cxx</text>
</a>
</g>
</g>
<!-- Node172&#45;&gt;Node201 -->
<g id="edge29" class="edge">
<title>Node172&#45;&gt;Node201</title>
<path fill="none" stroke="#191970" d="M3451.3786,-113.36C3740.9502,-105.8481 4679.4214,-79.69 4812.5,-53 4815.2425,-52.45 4818.0196,-51.8118 4820.8071,-51.1038"/>
<polygon fill="#191970" stroke="#191970" points="3451.2598,-109.8618 3441.3537,-113.6194 3451.4409,-116.8595 3451.2598,-109.8618"/>
</g>
<!-- Node202 -->
<g id="node31" class="node">
<title>Node202</title>
<g id="a_node31"><a xlink:href="../../d7/d10/newCollections_8cxx.html" target="_top" xlink:title="/home/travis/build\l/AliceO2Group/AliceO2\l/Analysis/Tutorials/src\l/newCollections.cxx">
<polygon fill="none" stroke="#000000" points="4966,-.5 4966,-52.5 5093,-52.5 5093,-.5 4966,-.5"/>
<text text-anchor="start" x="4974" y="-40.5" font-family="Helvetica,sans-Serif" font-size="10.00" fill="#000000">/home/travis/build</text>
<text text-anchor="start" x="4974" y="-29.5" font-family="Helvetica,sans-Serif" font-size="10.00" fill="#000000">/AliceO2Group/AliceO2</text>
<text text-anchor="start" x="4974" y="-18.5" font-family="Helvetica,sans-Serif" font-size="10.00" fill="#000000">/Analysis/Tutorials/src</text>
<text text-anchor="middle" x="5029.5" y="-7.5" font-family="Helvetica,sans-Serif" font-size="10.00" fill="#000000">/newCollections.cxx</text>
</a>
</g>
</g>
<!-- Node172&#45;&gt;Node202 -->
<g id="edge30" class="edge">
<title>Node172&#45;&gt;Node202</title>
<path fill="none" stroke="#191970" d="M3451.3914,-113.7187C3759.6752,-107.0364 4809.714,-82.3375 4957.5,-53 4960.2436,-52.4554 4963.0216,-51.8217 4965.8099,-51.1174"/>
<polygon fill="#191970" stroke="#191970" points="3451.0985,-110.2241 3441.1764,-113.9394 3451.2497,-117.2225 3451.0985,-110.2241"/>
</g>
<!-- Node203 -->
<g id="node32" class="node">
<title>Node203</title>
<g id="a_node32"><a xlink:href="../../d3/d45/outputs_8cxx.html" target="_top" xlink:title="/home/travis/build\l/AliceO2Group/AliceO2\l/Analysis/Tutorials/src\l/outputs.cxx">
<polygon fill="none" stroke="#000000" points="5111,-.5 5111,-52.5 5238,-52.5 5238,-.5 5111,-.5"/>
<text text-anchor="start" x="5119" y="-40.5" font-family="Helvetica,sans-Serif" font-size="10.00" fill="#000000">/home/travis/build</text>
<text text-anchor="start" x="5119" y="-29.5" font-family="Helvetica,sans-Serif" font-size="10.00" fill="#000000">/AliceO2Group/AliceO2</text>
<text text-anchor="start" x="5119" y="-18.5" font-family="Helvetica,sans-Serif" font-size="10.00" fill="#000000">/Analysis/Tutorials/src</text>
<text text-anchor="middle" x="5174.5" y="-7.5" font-family="Helvetica,sans-Serif" font-size="10.00" fill="#000000">/outputs.cxx</text>
</a>
</g>
</g>
<!-- Node172&#45;&gt;Node203 -->
<g id="edge31" class="edge">
<title>Node172&#45;&gt;Node203</title>
<path fill="none" stroke="#191970" d="M3451.3384,-114.019C3777.4109,-108.1116 4939.944,-84.9929 5102.5,-53 5105.2445,-52.4599 5108.0232,-51.83 5110.8121,-51.1288"/>
<polygon fill="#191970" stroke="#191970" points="3450.9496,-110.5254 3441.0144,-114.2054 3451.076,-117.5242 3450.9496,-110.5254"/>
</g>
<!-- Node204 -->
<g id="node33" class="node">
<title>Node204</title>
<g id="a_node33"><a xlink:href="../../d4/ded/trackCollectionIteration_8cxx.html" target="_top" xlink:title="/home/travis/build\l/AliceO2Group/AliceO2\l/Analysis/Tutorials/src\l/trackCollectionIteration.cxx">
<polygon fill="none" stroke="#000000" points="5256,-.5 5256,-52.5 5411,-52.5 5411,-.5 5256,-.5"/>
<text text-anchor="start" x="5264" y="-40.5" font-family="Helvetica,sans-Serif" font-size="10.00" fill="#000000">/home/travis/build</text>
<text text-anchor="start" x="5264" y="-29.5" font-family="Helvetica,sans-Serif" font-size="10.00" fill="#000000">/AliceO2Group/AliceO2</text>
<text text-anchor="start" x="5264" y="-18.5" font-family="Helvetica,sans-Serif" font-size="10.00" fill="#000000">/Analysis/Tutorials/src</text>
<text text-anchor="middle" x="5333.5" y="-7.5" font-family="Helvetica,sans-Serif" font-size="10.00" fill="#000000">/trackCollectionIteration.cxx</text>
</a>
</g>
</g>
<!-- Node172&#45;&gt;Node204 -->
<g id="edge32" class="edge">
<title>Node172&#45;&gt;Node204</title>
<path fill="none" stroke="#191970" d="M3451.1557,-114.0103C3793.9649,-107.7972 5069.2463,-82.8761 5247.5,-53 5250.2735,-52.5351 5253.0822,-52.0047 5255.9073,-51.42"/>
<polygon fill="#191970" stroke="#191970" points="3450.9804,-110.5128 3441.0453,-114.193 3451.107,-117.5116 3450.9804,-110.5128"/>
</g>
<!-- Node205 -->
<g id="node34" class="node">
<title>Node205</title>
<g id="a_node34"><a xlink:href="../../db/d7e/trackIteration_8cxx.html" target="_top" xlink:title="/home/travis/build\l/AliceO2Group/AliceO2\l/Analysis/Tutorials/src\l/trackIteration.cxx">
<polygon fill="none" stroke="#000000" points="5429,-.5 5429,-52.5 5556,-52.5 5556,-.5 5429,-.5"/>
<text text-anchor="start" x="5437" y="-40.5" font-family="Helvetica,sans-Serif" font-size="10.00" fill="#000000">/home/travis/build</text>
<text text-anchor="start" x="5437" y="-29.5" font-family="Helvetica,sans-Serif" font-size="10.00" fill="#000000">/AliceO2Group/AliceO2</text>
<text text-anchor="start" x="5437" y="-18.5" font-family="Helvetica,sans-Serif" font-size="10.00" fill="#000000">/Analysis/Tutorials/src</text>
<text text-anchor="middle" x="5492.5" y="-7.5" font-family="Helvetica,sans-Serif" font-size="10.00" fill="#000000">/trackIteration.cxx</text>
</a>
</g>
</g>
<!-- Node172&#45;&gt;Node205 -->
<g id="edge33" class="edge">
<title>Node172&#45;&gt;Node205</title>
<path fill="none" stroke="#191970" d="M3451.3549,-114.5277C3814.1646,-110.1518 5225.4214,-90.8299 5420.5,-53 5423.246,-52.4675 5426.026,-51.844 5428.8159,-51.1481"/>
<polygon fill="#191970" stroke="#191970" points="3451.1418,-111.0299 3441.1845,-114.6497 3451.2258,-118.0294 3451.1418,-111.0299"/>
</g>
<!-- Node206 -->
<g id="node35" class="node">
<title>Node206</title>
<g id="a_node35"><a xlink:href="../../d0/da7/tracksCombinations_8cxx.html" target="_top" xlink:title="/home/travis/build\l/AliceO2Group/AliceO2\l/Analysis/Tutorials/src\l/tracksCombinations.cxx">
<polygon fill="none" stroke="#000000" points="5574,-.5 5574,-52.5 5711,-52.5 5711,-.5 5574,-.5"/>
<text text-anchor="start" x="5582" y="-40.5" font-family="Helvetica,sans-Serif" font-size="10.00" fill="#000000">/home/travis/build</text>
<text text-anchor="start" x="5582" y="-29.5" font-family="Helvetica,sans-Serif" font-size="10.00" fill="#000000">/AliceO2Group/AliceO2</text>
<text text-anchor="start" x="5582" y="-18.5" font-family="Helvetica,sans-Serif" font-size="10.00" fill="#000000">/Analysis/Tutorials/src</text>
<text text-anchor="middle" x="5642.5" y="-7.5" font-family="Helvetica,sans-Serif" font-size="10.00" fill="#000000">/tracksCombinations.cxx</text>
</a>
</g>
</g>
<!-- Node172&#45;&gt;Node206 -->
<g id="edge34" class="edge">
<title>Node172&#45;&gt;Node206</title>
<path fill="none" stroke="#191970" d="M3451.3349,-114.6064C3829.8498,-110.4138 5355.114,-91.2701 5565.5,-53 5568.2819,-52.494 5571.099,-51.9053 5573.929,-51.2499"/>
<polygon fill="#191970" stroke="#191970" points="3451.2323,-111.1072 3441.2716,-114.7173 3451.3096,-118.1068 3451.2323,-111.1072"/>
</g>
<!-- Node207 -->
<g id="node36" class="node">
<title>Node207</title>
<g id="a_node36"><a xlink:href="../../d9/d09/test__AnalysisTask_8cxx.html" target="_top" xlink:title="/home/travis/build\l/AliceO2Group/AliceO2\l/Framework/Core/test/test\l_AnalysisTask.cxx">
<polygon fill="none" stroke="#000000" points="5729,-.5 5729,-52.5 5872,-52.5 5872,-.5 5729,-.5"/>
<text text-anchor="start" x="5737" y="-40.5" font-family="Helvetica,sans-Serif" font-size="10.00" fill="#000000">/home/travis/build</text>
<text text-anchor="start" x="5737" y="-29.5" font-family="Helvetica,sans-Serif" font-size="10.00" fill="#000000">/AliceO2Group/AliceO2</text>
<text text-anchor="start" x="5737" y="-18.5" font-family="Helvetica,sans-Serif" font-size="10.00" fill="#000000">/Framework/Core/test/test</text>
<text text-anchor="middle" x="5800.5" y="-7.5" font-family="Helvetica,sans-Serif" font-size="10.00" fill="#000000">_AnalysisTask.cxx</text>
</a>
</g>
</g>
<!-- Node172&#45;&gt;Node207 -->
<g id="edge35" class="edge">
<title>Node172&#45;&gt;Node207</title>
<path fill="none" stroke="#191970" d="M3451.378,-114.7194C3846.2516,-110.8892 5493.9099,-92.6448 5720.5,-53 5723.2383,-52.5209 5726.0108,-51.9669 5728.7974,-51.3519"/>
<polygon fill="#191970" stroke="#191970" points="3451.1371,-111.2215 3441.1714,-114.8179 3451.2047,-118.2212 3451.1371,-111.2215"/>
</g>
<!-- Node208 -->
<g id="node37" class="node">
<title>Node208</title>
<g id="a_node37"><a xlink:href="../../d2/d45/test__GroupSlicer_8cxx.html" target="_top" xlink:title="/home/travis/build\l/AliceO2Group/AliceO2\l/Framework/Core/test/test\l_GroupSlicer.cxx">
<polygon fill="none" stroke="#000000" points="5890,-.5 5890,-52.5 6033,-52.5 6033,-.5 5890,-.5"/>
<text text-anchor="start" x="5898" y="-40.5" font-family="Helvetica,sans-Serif" font-size="10.00" fill="#000000">/home/travis/build</text>
<text text-anchor="start" x="5898" y="-29.5" font-family="Helvetica,sans-Serif" font-size="10.00" fill="#000000">/AliceO2Group/AliceO2</text>
<text text-anchor="start" x="5898" y="-18.5" font-family="Helvetica,sans-Serif" font-size="10.00" fill="#000000">/Framework/Core/test/test</text>
<text text-anchor="middle" x="5961.5" y="-7.5" font-family="Helvetica,sans-Serif" font-size="10.00" fill="#000000">_GroupSlicer.cxx</text>
</a>
</g>
</g>
<!-- Node172&#45;&gt;Node208 -->
<g id="edge36" class="edge">
<title>Node172&#45;&gt;Node208</title>
<path fill="none" stroke="#191970" d="M3451.0787,-114.8772C3861.7741,-111.6539 5638.2011,-95.3553 5881.5,-53 5884.2387,-52.5232 5887.0116,-51.9712 5889.7984,-51.3579"/>
<polygon fill="#191970" stroke="#191970" points="3451.0269,-111.3774 3441.0545,-114.9554 3451.0816,-118.3772 3451.0269,-111.3774"/>
</g>
<!-- Node209 -->
<g id="node38" class="node">
<title>Node209</title>
<g id="a_node38"><a xlink:href="../../d1/d61/o2AnalysisTaskExample_8cxx.html" target="_top" xlink:title="/home/travis/build\l/AliceO2Group/AliceO2\l/Framework/TestWorkflows\l/src/o2AnalysisTaskExample.cxx">
<polygon fill="none" stroke="#000000" points="6051,-.5 6051,-52.5 6226,-52.5 6226,-.5 6051,-.5"/>
<text text-anchor="start" x="6059" y="-40.5" font-family="Helvetica,sans-Serif" font-size="10.00" fill="#000000">/home/travis/build</text>
<text text-anchor="start" x="6059" y="-29.5" font-family="Helvetica,sans-Serif" font-size="10.00" fill="#000000">/AliceO2Group/AliceO2</text>
<text text-anchor="start" x="6059" y="-18.5" font-family="Helvetica,sans-Serif" font-size="10.00" fill="#000000">/Framework/TestWorkflows</text>
<text text-anchor="middle" x="6138.5" y="-7.5" font-family="Helvetica,sans-Serif" font-size="10.00" fill="#000000">/src/o2AnalysisTaskExample.cxx</text>
</a>
</g>
</g>
<!-- Node172&#45;&gt;Node209 -->
<g id="edge37" class="edge">
<title>Node172&#45;&gt;Node209</title>
<path fill="none" stroke="#191970" d="M3451.171,-114.7609C3877.7705,-110.8706 5781.4891,-91.4721 6042.5,-53 6045.2368,-52.5966 6048.0066,-52.1401 6050.7944,-51.6387"/>
<polygon fill="#191970" stroke="#191970" points="3451.0381,-111.2618 3441.0703,-114.8526 3451.1017,-118.2615 3451.0381,-111.2618"/>
</g>
</g>
</svg>
