<?xml version="1.0" encoding="UTF-8" standalone="no"?>
<!DOCTYPE svg PUBLIC "-//W3C//DTD SVG 1.1//EN"
 "http://www.w3.org/Graphics/SVG/1.1/DTD/svg11.dtd">
<!-- Generated by graphviz version 2.40.1 (20161225.0304)
 -->
<!-- Title: BTask Pages: 1 -->
<svg width="1776pt" height="981pt"
 viewBox="0.00 0.00 1776.00 981.00" xmlns="http://www.w3.org/2000/svg" xmlns:xlink="http://www.w3.org/1999/xlink">
<g id="graph0" class="graph" transform="scale(1 1) rotate(0) translate(4 977)">
<title>BTask</title>
<!-- Node2 -->
<g id="node1" class="node">
<title>Node2</title>
<polygon fill="#bfbfbf" stroke="#000000" points="198,-.5 198,-156.5 298,-156.5 298,-.5 198,-.5"/>
<text text-anchor="middle" x="248" y="-144.5" font-family="Helvetica,sans-Serif" font-size="10.00" fill="#000000">BTask</text>
<polyline fill="none" stroke="#000000" points="198,-137.5 298,-137.5 "/>
<text text-anchor="middle" x="248" y="-125.5" font-family="Helvetica,sans-Serif" font-size="10.00" fill="#000000"> </text>
<polyline fill="none" stroke="#000000" points="198,-118.5 298,-118.5 "/>
<text text-anchor="start" x="206" y="-106.5" font-family="Helvetica,sans-Serif" font-size="10.00" fill="#000000">+ process()</text>
<text text-anchor="start" x="206" y="-95.5" font-family="Helvetica,sans-Serif" font-size="10.00" fill="#000000">+ process()</text>
<text text-anchor="start" x="206" y="-84.5" font-family="Helvetica,sans-Serif" font-size="10.00" fill="#000000">+ process()</text>
<text text-anchor="start" x="206" y="-73.5" font-family="Helvetica,sans-Serif" font-size="10.00" fill="#000000">+ process()</text>
<text text-anchor="start" x="206" y="-62.5" font-family="Helvetica,sans-Serif" font-size="10.00" fill="#000000">+ process()</text>
<text text-anchor="start" x="206" y="-51.5" font-family="Helvetica,sans-Serif" font-size="10.00" fill="#000000">+ process()</text>
<text text-anchor="start" x="206" y="-40.5" font-family="Helvetica,sans-Serif" font-size="10.00" fill="#000000">+ process()</text>
<text text-anchor="start" x="206" y="-29.5" font-family="Helvetica,sans-Serif" font-size="10.00" fill="#000000">+ process()</text>
<text text-anchor="start" x="206" y="-18.5" font-family="Helvetica,sans-Serif" font-size="10.00" fill="#000000">+ run()</text>
<text text-anchor="start" x="206" y="-7.5" font-family="Helvetica,sans-Serif" font-size="10.00" fill="#000000">+ endOfStream()</text>
</g>
<!-- Node3 -->
<g id="node2" class="node">
<title>Node3</title>
<g id="a_node2"><a xlink:href="../../de/dac/classo2_1_1framework_1_1Task.html" target="_top" xlink:title="{o2::framework::Task\n||+ ~Task()\l+ init()\l+ run()\l+ endOfStream()\l}">
<polygon fill="none" stroke="#000000" points="0,-265 0,-355 116,-355 116,-265 0,-265"/>
<text text-anchor="middle" x="58" y="-343" font-family="Helvetica,sans-Serif" font-size="10.00" fill="#000000">o2::framework::Task</text>
<polyline fill="none" stroke="#000000" points="0,-336 116,-336 "/>
<text text-anchor="middle" x="58" y="-324" font-family="Helvetica,sans-Serif" font-size="10.00" fill="#000000"> </text>
<polyline fill="none" stroke="#000000" points="0,-317 116,-317 "/>
<text text-anchor="start" x="8" y="-305" font-family="Helvetica,sans-Serif" font-size="10.00" fill="#000000">+ ~Task()</text>
<text text-anchor="start" x="8" y="-294" font-family="Helvetica,sans-Serif" font-size="10.00" fill="#000000">+ init()</text>
<text text-anchor="start" x="8" y="-283" font-family="Helvetica,sans-Serif" font-size="10.00" fill="#000000">+ run()</text>
<text text-anchor="start" x="8" y="-272" font-family="Helvetica,sans-Serif" font-size="10.00" fill="#000000">+ endOfStream()</text>
</a>
</g>
</g>
<!-- Node3&#45;&gt;Node2 -->
<g id="edge1" class="edge">
<title>Node3&#45;&gt;Node2</title>
<path fill="none" stroke="#191970" d="M88.0422,-256.0271C103.3642,-230.4118 123.1463,-200.0112 144,-175 160.0887,-155.7037 179.867,-136.4646 197.8406,-120.3003"/>
<polygon fill="none" stroke="#191970" points="84.89,-254.4817 82.8142,-264.8713 90.9159,-258.0438 84.89,-254.4817"/>
</g>
<!-- Node4 -->
<g id="node3" class="node">
<title>Node4</title>
<polygon fill="none" stroke="#bfbfbf" points="134.5,-281.5 134.5,-338.5 175.5,-338.5 175.5,-281.5 134.5,-281.5"/>
<text text-anchor="middle" x="155" y="-326.5" font-family="Helvetica,sans-Serif" font-size="10.00" fill="#000000">Filter</text>
<polyline fill="none" stroke="#bfbfbf" points="134.5,-319.5 175.5,-319.5 "/>
<text text-anchor="middle" x="155" y="-307.5" font-family="Helvetica,sans-Serif" font-size="10.00" fill="#000000"> </text>
<polyline fill="none" stroke="#bfbfbf" points="134.5,-300.5 175.5,-300.5 "/>
<text text-anchor="middle" x="155" y="-288.5" font-family="Helvetica,sans-Serif" font-size="10.00" fill="#000000"> </text>
</g>
<!-- Node4&#45;&gt;Node2 -->
<g id="edge2" class="edge">
<title>Node4&#45;&gt;Node2</title>
<path fill="none" stroke="#404040" d="M149.3017,-281.4214C145.0219,-253.2567 142.0225,-209.5461 156,-175 163.3333,-156.8752 175.8435,-140.2052 189.3157,-126.0031"/>
<polygon fill="none" stroke="#404040" points="189.3254,-125.9934 190.723,-118.919 197.7908,-117.4883 196.3931,-124.5627 189.3254,-125.9934"/>
<text text-anchor="middle" x="181" y="-200" font-family="Helvetica,sans-Serif" font-size="10.00" fill="#000000"> +etafilter</text>
<text text-anchor="middle" x="181" y="-189" font-family="Helvetica,sans-Serif" font-size="10.00" fill="#000000">+phifilter</text>
<text text-anchor="middle" x="181" y="-178" font-family="Helvetica,sans-Serif" font-size="10.00" fill="#000000">+ptFilter</text>
</g>
<!-- Node5 -->
<g id="node4" class="node">
<title>Node5</title>
<g id="a_node4"><a xlink:href="../../d4/dc3/classfloat.html" target="_top" xlink:title="{float\n||}">
<polygon fill="none" stroke="#000000" points="150,-739 150,-796 188,-796 188,-739 150,-739"/>
<text text-anchor="middle" x="169" y="-784" font-family="Helvetica,sans-Serif" font-size="10.00" fill="#000000">float</text>
<polyline fill="none" stroke="#000000" points="150,-777 188,-777 "/>
<text text-anchor="middle" x="169" y="-765" font-family="Helvetica,sans-Serif" font-size="10.00" fill="#000000"> </text>
<polyline fill="none" stroke="#000000" points="150,-758 188,-758 "/>
<text text-anchor="middle" x="169" y="-746" font-family="Helvetica,sans-Serif" font-size="10.00" fill="#000000"> </text>
</a>
</g>
</g>
<!-- Node5&#45;&gt;Node2 -->
<g id="edge3" class="edge">
<title>Node5&#45;&gt;Node2</title>
<path fill="none" stroke="#404040" d="M172.294,-738.7717C183.3793,-642.0908 219.6433,-325.8134 237.656,-168.7156"/>
<polygon fill="none" stroke="#404040" points="237.6588,-168.6901 234.3684,-162.2734 239.0259,-156.7682 242.3163,-163.1848 237.6588,-168.6901"/>
<text text-anchor="middle" x="231" y="-481" font-family="Helvetica,sans-Serif" font-size="10.00" fill="#000000"> +etaup</text>
<text text-anchor="middle" x="231" y="-470" font-family="Helvetica,sans-Serif" font-size="10.00" fill="#000000">+ptlow</text>
<text text-anchor="middle" x="231" y="-459" font-family="Helvetica,sans-Serif" font-size="10.00" fill="#000000">+fPI</text>
<text text-anchor="middle" x="231" y="-448" font-family="Helvetica,sans-Serif" font-size="10.00" fill="#000000">+ptup</text>
<text text-anchor="middle" x="231" y="-437" font-family="Helvetica,sans-Serif" font-size="10.00" fill="#000000">+etalow</text>
<text text-anchor="middle" x="231" y="-426" font-family="Helvetica,sans-Serif" font-size="10.00" fill="#000000">+phiup</text>
<text text-anchor="middle" x="231" y="-415" font-family="Helvetica,sans-Serif" font-size="10.00" fill="#000000">+philow</text>
</g>
<!-- Node6 -->
<g id="node5" class="node">
<title>Node6</title>
<g id="a_node5"><a xlink:href="../../d8/d71/structo2_1_1framework_1_1Configurable.html" target="_top" xlink:title="{o2::framework::Configurable\l\&lt; float \&gt;\n||+ Configurable()\l+ operator float()\l+ operator&#45;\&gt;()\l}">
<polygon fill="none" stroke="#000000" points="248.5,-540.5 248.5,-630.5 403.5,-630.5 403.5,-540.5 248.5,-540.5"/>
<text text-anchor="start" x="256.5" y="-618.5" font-family="Helvetica,sans-Serif" font-size="10.00" fill="#000000">o2::framework::Configurable</text>
<text text-anchor="middle" x="326" y="-607.5" font-family="Helvetica,sans-Serif" font-size="10.00" fill="#000000">&lt; float &gt;</text>
<polyline fill="none" stroke="#000000" points="248.5,-600.5 403.5,-600.5 "/>
<text text-anchor="middle" x="326" y="-588.5" font-family="Helvetica,sans-Serif" font-size="10.00" fill="#000000"> </text>
<polyline fill="none" stroke="#000000" points="248.5,-581.5 403.5,-581.5 "/>
<text text-anchor="start" x="256.5" y="-569.5" font-family="Helvetica,sans-Serif" font-size="10.00" fill="#000000">+ Configurable()</text>
<text text-anchor="start" x="256.5" y="-558.5" font-family="Helvetica,sans-Serif" font-size="10.00" fill="#000000">+ operator float()</text>
<text text-anchor="start" x="256.5" y="-547.5" font-family="Helvetica,sans-Serif" font-size="10.00" fill="#000000">+ operator&#45;&gt;()</text>
</a>
</g>
</g>
<!-- Node5&#45;&gt;Node6 -->
<g id="edge5" class="edge">
<title>Node5&#45;&gt;Node6</title>
<path fill="none" stroke="#404040" d="M178.8653,-738.7203C183.2587,-729.021 189.2307,-718.7126 197,-711 209.9782,-698.1165 219.5293,-704.1812 234,-693 253.3668,-678.0357 271.594,-658.4364 286.6352,-640.0765"/>
<polygon fill="none" stroke="#404040" points="286.7039,-639.9906 287.3281,-632.8065 294.1996,-630.6195 293.5754,-637.8036 286.7039,-639.9906"/>
<text text-anchor="middle" x="265.5" y="-685" font-family="Helvetica,sans-Serif" font-size="10.00" fill="#000000"> +value</text>
</g>
<!-- Node6&#45;&gt;Node2 -->
<g id="edge4" class="edge">
<title>Node6&#45;&gt;Node2</title>
<path fill="none" stroke="#404040" d="M319.0094,-540.0609C306.1785,-456.6602 278.6518,-277.7364 261.8902,-168.7862"/>
<polygon fill="none" stroke="#404040" points="261.8766,-168.6977 257.0108,-163.3757 260.0519,-156.8372 264.9177,-162.1592 261.8766,-168.6977"/>
<text text-anchor="middle" x="318.5" y="-307.5" font-family="Helvetica,sans-Serif" font-size="10.00" fill="#000000"> +phiCut</text>
</g>
<!-- Node7 -->
<g id="node6" class="node">
<title>Node7</title>
<polygon fill="none" stroke="#bfbfbf" points="599.5,-899 599.5,-956 628.5,-956 628.5,-899 599.5,-899"/>
<text text-anchor="middle" x="614" y="-944" font-family="Helvetica,sans-Serif" font-size="10.00" fill="#000000">int</text>
<polyline fill="none" stroke="#bfbfbf" points="599.5,-937 628.5,-937 "/>
<text text-anchor="middle" x="614" y="-925" font-family="Helvetica,sans-Serif" font-size="10.00" fill="#000000"> </text>
<polyline fill="none" stroke="#bfbfbf" points="599.5,-918 628.5,-918 "/>
<text text-anchor="middle" x="614" y="-906" font-family="Helvetica,sans-Serif" font-size="10.00" fill="#000000"> </text>
</g>
<!-- Node7&#45;&gt;Node6 -->
<g id="edge6" class="edge">
<title>Node7&#45;&gt;Node6</title>
<path fill="none" stroke="#404040" d="M599.441,-922.4882C573.8549,-913.2839 519.7698,-892.0313 480,-864 459.45,-849.5156 453.4979,-845.211 440,-824 411.317,-778.9267 421.6327,-759.395 399,-711 387.9927,-687.4633 374.0135,-662.5326 361.2406,-641.1469"/>
<polygon fill="none" stroke="#404040" points="361.0952,-640.9061 354.5689,-637.8389 354.8901,-630.6349 361.4163,-633.7021 361.0952,-640.9061"/>
<text text-anchor="middle" x="460" y="-770.5" font-family="Helvetica,sans-Serif" font-size="10.00" fill="#000000"> +name</text>
<text text-anchor="middle" x="460" y="-759.5" font-family="Helvetica,sans-Serif" font-size="10.00" fill="#000000">+help</text>
</g>
<!-- Node8 -->
<g id="node7" class="node">
<title>Node8</title>
<g id="a_node7"><a xlink:href="../../d8/d71/structo2_1_1framework_1_1Configurable.html" target="_top" xlink:title="{o2::framework::Configurable\&lt; T \&gt;\n||+ Configurable()\l+ operator T()\l+ operator&#45;\&gt;()\l}">
<polygon fill="none" stroke="#000000" points="206,-728 206,-807 390,-807 390,-728 206,-728"/>
<text text-anchor="middle" x="298" y="-795" font-family="Helvetica,sans-Serif" font-size="10.00" fill="#000000">o2::framework::Configurable&lt; T &gt;</text>
<polyline fill="none" stroke="#000000" points="206,-788 390,-788 "/>
<text text-anchor="middle" x="298" y="-776" font-family="Helvetica,sans-Serif" font-size="10.00" fill="#000000"> </text>
<polyline fill="none" stroke="#000000" points="206,-769 390,-769 "/>
<text text-anchor="start" x="214" y="-757" font-family="Helvetica,sans-Serif" font-size="10.00" fill="#000000">+ Configurable()</text>
<text text-anchor="start" x="214" y="-746" font-family="Helvetica,sans-Serif" font-size="10.00" fill="#000000">+ operator T()</text>
<text text-anchor="start" x="214" y="-735" font-family="Helvetica,sans-Serif" font-size="10.00" fill="#000000">+ operator&#45;&gt;()</text>
</a>
</g>
</g>
<!-- Node7&#45;&gt;Node8 -->
<g id="edge8" class="edge">
<title>Node7&#45;&gt;Node8</title>
<path fill="none" stroke="#404040" d="M599.3158,-926.8982C559.4323,-924.6225 447.0624,-913.8906 372,-864 354.2359,-852.193 338.9675,-834.6753 326.9917,-817.7934"/>
<polygon fill="none" stroke="#404040" points="326.6963,-817.3571 320.02,-814.6319 319.9677,-807.421 326.6441,-810.1462 326.6963,-817.3571"/>
<text text-anchor="middle" x="392" y="-856" font-family="Helvetica,sans-Serif" font-size="10.00" fill="#000000"> +name</text>
<text text-anchor="middle" x="392" y="-845" font-family="Helvetica,sans-Serif" font-size="10.00" fill="#000000">+help</text>
</g>
<!-- Node10 -->
<g id="node9" class="node">
<title>Node10</title>
<g id="a_node9"><a xlink:href="../../d4/d79/structo2_1_1framework_1_1OutputObj.html" target="_top" xlink:title="{o2::framework::OutputObj\l\&lt; TH2F \&gt;\n||+ spec()\l+ OutputObj()\l+ OutputObj()\l+ setObject()\l+ setObject()\l+ setObject()\l+ setHash()\l+ operator&#45;\&gt;()\l+ operator*()\l+ ref()\l}">
<polygon fill="none" stroke="#000000" points="590.5,-226.5 590.5,-393.5 733.5,-393.5 733.5,-226.5 590.5,-226.5"/>
<text text-anchor="start" x="598.5" y="-381.5" font-family="Helvetica,sans-Serif" font-size="10.00" fill="#000000">o2::framework::OutputObj</text>
<text text-anchor="middle" x="662" y="-370.5" font-family="Helvetica,sans-Serif" font-size="10.00" fill="#000000">&lt; TH2F &gt;</text>
<polyline fill="none" stroke="#000000" points="590.5,-363.5 733.5,-363.5 "/>
<text text-anchor="middle" x="662" y="-351.5" font-family="Helvetica,sans-Serif" font-size="10.00" fill="#000000"> </text>
<polyline fill="none" stroke="#000000" points="590.5,-344.5 733.5,-344.5 "/>
<text text-anchor="start" x="598.5" y="-332.5" font-family="Helvetica,sans-Serif" font-size="10.00" fill="#000000">+ spec()</text>
<text text-anchor="start" x="598.5" y="-321.5" font-family="Helvetica,sans-Serif" font-size="10.00" fill="#000000">+ OutputObj()</text>
<text text-anchor="start" x="598.5" y="-310.5" font-family="Helvetica,sans-Serif" font-size="10.00" fill="#000000">+ OutputObj()</text>
<text text-anchor="start" x="598.5" y="-299.5" font-family="Helvetica,sans-Serif" font-size="10.00" fill="#000000">+ setObject()</text>
<text text-anchor="start" x="598.5" y="-288.5" font-family="Helvetica,sans-Serif" font-size="10.00" fill="#000000">+ setObject()</text>
<text text-anchor="start" x="598.5" y="-277.5" font-family="Helvetica,sans-Serif" font-size="10.00" fill="#000000">+ setObject()</text>
<text text-anchor="start" x="598.5" y="-266.5" font-family="Helvetica,sans-Serif" font-size="10.00" fill="#000000">+ setHash()</text>
<text text-anchor="start" x="598.5" y="-255.5" font-family="Helvetica,sans-Serif" font-size="10.00" fill="#000000">+ operator&#45;&gt;()</text>
<text text-anchor="start" x="598.5" y="-244.5" font-family="Helvetica,sans-Serif" font-size="10.00" fill="#000000">+ operator*()</text>
<text text-anchor="start" x="598.5" y="-233.5" font-family="Helvetica,sans-Serif" font-size="10.00" fill="#000000">+ ref()</text>
</a>
</g>
</g>
<!-- Node7&#45;&gt;Node10 -->
<g id="edge13" class="edge">
<title>Node7&#45;&gt;Node10</title>
<path fill="none" stroke="#404040" d="M599.4287,-903.65C574.5596,-862.1261 523.5562,-773.2988 492,-693 461.7363,-615.9901 471.7873,-588.8368 484,-507 490.5158,-463.3378 486.871,-447.5825 513,-412 530.5342,-388.1219 555.4267,-367.9736 579.8557,-352.0551"/>
<polygon fill="none" stroke="#404040" points="580.1202,-351.8885 583.0654,-345.3063 590.2741,-345.4933 587.3289,-352.0756 580.1202,-351.8885"/>
<text text-anchor="middle" x="510" y="-685" font-family="Helvetica,sans-Serif" font-size="10.00" fill="#000000"> +label</text>
</g>
<!-- Node14 -->
<g id="node13" class="node">
<title>Node14</title>
<g id="a_node13"><a xlink:href="../../da/d96/structo2_1_1framework_1_1InputSpec.html" target="_top" xlink:title="{o2::framework::InputSpec\n||+ InputSpec()\l+ InputSpec()\l+ InputSpec()\l+ InputSpec()\l+ InputSpec()\l+ operator==()\l}">
<polygon fill="none" stroke="#000000" points="788,-711.5 788,-823.5 930,-823.5 930,-711.5 788,-711.5"/>
<text text-anchor="middle" x="859" y="-811.5" font-family="Helvetica,sans-Serif" font-size="10.00" fill="#000000">o2::framework::InputSpec</text>
<polyline fill="none" stroke="#000000" points="788,-804.5 930,-804.5 "/>
<text text-anchor="middle" x="859" y="-792.5" font-family="Helvetica,sans-Serif" font-size="10.00" fill="#000000"> </text>
<polyline fill="none" stroke="#000000" points="788,-785.5 930,-785.5 "/>
<text text-anchor="start" x="796" y="-773.5" font-family="Helvetica,sans-Serif" font-size="10.00" fill="#000000">+ InputSpec()</text>
<text text-anchor="start" x="796" y="-762.5" font-family="Helvetica,sans-Serif" font-size="10.00" fill="#000000">+ InputSpec()</text>
<text text-anchor="start" x="796" y="-751.5" font-family="Helvetica,sans-Serif" font-size="10.00" fill="#000000">+ InputSpec()</text>
<text text-anchor="start" x="796" y="-740.5" font-family="Helvetica,sans-Serif" font-size="10.00" fill="#000000">+ InputSpec()</text>
<text text-anchor="start" x="796" y="-729.5" font-family="Helvetica,sans-Serif" font-size="10.00" fill="#000000">+ InputSpec()</text>
<text text-anchor="start" x="796" y="-718.5" font-family="Helvetica,sans-Serif" font-size="10.00" fill="#000000">+ operator==()</text>
</a>
</g>
</g>
<!-- Node7&#45;&gt;Node14 -->
<g id="edge18" class="edge">
<title>Node7&#45;&gt;Node14</title>
<path fill="none" stroke="#404040" d="M628.7668,-922.0455C654.2132,-912.3168 707.4923,-890.4863 748,-864 762.6732,-854.4058 777.4598,-843.0169 791.2434,-831.4861"/>
<polygon fill="none" stroke="#404040" points="791.4793,-831.285 793.4509,-824.3487 800.6121,-823.5008 798.6404,-830.4372 791.4793,-831.285"/>
<text text-anchor="middle" x="801" y="-850.5" font-family="Helvetica,sans-Serif" font-size="10.00" fill="#000000"> +binding</text>
</g>
<!-- Node18 -->
<g id="node17" class="node">
<title>Node18</title>
<g id="a_node17"><a xlink:href="../../d4/d79/structo2_1_1framework_1_1OutputObj.html" target="_top" xlink:title="{o2::framework::OutputObj\&lt; T \&gt;\n||+ OutputObj()\l+ OutputObj()\l+ setObject()\l+ setObject()\l+ setObject()\l+ setHash()\l+ spec()\l+ operator&#45;\&gt;()\l+ operator*()\l+ ref()\l}">
<polygon fill="none" stroke="#000000" points="795,-507.5 795,-663.5 967,-663.5 967,-507.5 795,-507.5"/>
<text text-anchor="middle" x="881" y="-651.5" font-family="Helvetica,sans-Serif" font-size="10.00" fill="#000000">o2::framework::OutputObj&lt; T &gt;</text>
<polyline fill="none" stroke="#000000" points="795,-644.5 967,-644.5 "/>
<text text-anchor="middle" x="881" y="-632.5" font-family="Helvetica,sans-Serif" font-size="10.00" fill="#000000"> </text>
<polyline fill="none" stroke="#000000" points="795,-625.5 967,-625.5 "/>
<text text-anchor="start" x="803" y="-613.5" font-family="Helvetica,sans-Serif" font-size="10.00" fill="#000000">+ OutputObj()</text>
<text text-anchor="start" x="803" y="-602.5" font-family="Helvetica,sans-Serif" font-size="10.00" fill="#000000">+ OutputObj()</text>
<text text-anchor="start" x="803" y="-591.5" font-family="Helvetica,sans-Serif" font-size="10.00" fill="#000000">+ setObject()</text>
<text text-anchor="start" x="803" y="-580.5" font-family="Helvetica,sans-Serif" font-size="10.00" fill="#000000">+ setObject()</text>
<text text-anchor="start" x="803" y="-569.5" font-family="Helvetica,sans-Serif" font-size="10.00" fill="#000000">+ setObject()</text>
<text text-anchor="start" x="803" y="-558.5" font-family="Helvetica,sans-Serif" font-size="10.00" fill="#000000">+ setHash()</text>
<text text-anchor="start" x="803" y="-547.5" font-family="Helvetica,sans-Serif" font-size="10.00" fill="#000000">+ spec()</text>
<text text-anchor="start" x="803" y="-536.5" font-family="Helvetica,sans-Serif" font-size="10.00" fill="#000000">+ operator&#45;&gt;()</text>
<text text-anchor="start" x="803" y="-525.5" font-family="Helvetica,sans-Serif" font-size="10.00" fill="#000000">+ operator*()</text>
<text text-anchor="start" x="803" y="-514.5" font-family="Helvetica,sans-Serif" font-size="10.00" fill="#000000">+ ref()</text>
</a>
</g>
</g>
<!-- Node7&#45;&gt;Node18 -->
<g id="edge23" class="edge">
<title>Node7&#45;&gt;Node18</title>
<path fill="none" stroke="#404040" d="M628.6871,-914.9213C649.0137,-896.7746 685.6263,-861.3112 707,-824 733.2001,-778.2635 714.5293,-755.3587 743,-711 754.8072,-692.6039 769.982,-675.1837 785.9278,-659.5038"/>
<polygon fill="none" stroke="#404040" points="786.1745,-659.268 787.7482,-652.2307 794.8494,-650.9766 793.2758,-658.014 786.1745,-659.268"/>
<text text-anchor="middle" x="761" y="-765" font-family="Helvetica,sans-Serif" font-size="10.00" fill="#000000"> +label</text>
</g>
<!-- Node20 -->
<g id="node19" class="node">
<title>Node20</title>
<g id="a_node19"><a xlink:href="../../d4/d79/structo2_1_1framework_1_1OutputObj.html" target="_top" xlink:title="{o2::framework::OutputObj\l\&lt; TH1F \&gt;\n||+ spec()\l+ OutputObj()\l+ OutputObj()\l+ setObject()\l+ setObject()\l+ setObject()\l+ setHash()\l+ operator&#45;\&gt;()\l+ operator*()\l+ ref()\l}">
<polygon fill="none" stroke="#000000" points="1228.5,-226.5 1228.5,-393.5 1371.5,-393.5 1371.5,-226.5 1228.5,-226.5"/>
<text text-anchor="start" x="1236.5" y="-381.5" font-family="Helvetica,sans-Serif" font-size="10.00" fill="#000000">o2::framework::OutputObj</text>
<text text-anchor="middle" x="1300" y="-370.5" font-family="Helvetica,sans-Serif" font-size="10.00" fill="#000000">&lt; TH1F &gt;</text>
<polyline fill="none" stroke="#000000" points="1228.5,-363.5 1371.5,-363.5 "/>
<text text-anchor="middle" x="1300" y="-351.5" font-family="Helvetica,sans-Serif" font-size="10.00" fill="#000000"> </text>
<polyline fill="none" stroke="#000000" points="1228.5,-344.5 1371.5,-344.5 "/>
<text text-anchor="start" x="1236.5" y="-332.5" font-family="Helvetica,sans-Serif" font-size="10.00" fill="#000000">+ spec()</text>
<text text-anchor="start" x="1236.5" y="-321.5" font-family="Helvetica,sans-Serif" font-size="10.00" fill="#000000">+ OutputObj()</text>
<text text-anchor="start" x="1236.5" y="-310.5" font-family="Helvetica,sans-Serif" font-size="10.00" fill="#000000">+ OutputObj()</text>
<text text-anchor="start" x="1236.5" y="-299.5" font-family="Helvetica,sans-Serif" font-size="10.00" fill="#000000">+ setObject()</text>
<text text-anchor="start" x="1236.5" y="-288.5" font-family="Helvetica,sans-Serif" font-size="10.00" fill="#000000">+ setObject()</text>
<text text-anchor="start" x="1236.5" y="-277.5" font-family="Helvetica,sans-Serif" font-size="10.00" fill="#000000">+ setObject()</text>
<text text-anchor="start" x="1236.5" y="-266.5" font-family="Helvetica,sans-Serif" font-size="10.00" fill="#000000">+ setHash()</text>
<text text-anchor="start" x="1236.5" y="-255.5" font-family="Helvetica,sans-Serif" font-size="10.00" fill="#000000">+ operator&#45;&gt;()</text>
<text text-anchor="start" x="1236.5" y="-244.5" font-family="Helvetica,sans-Serif" font-size="10.00" fill="#000000">+ operator*()</text>
<text text-anchor="start" x="1236.5" y="-233.5" font-family="Helvetica,sans-Serif" font-size="10.00" fill="#000000">+ ref()</text>
</a>
</g>
</g>
<!-- Node7&#45;&gt;Node20 -->
<g id="edge30" class="edge">
<title>Node7&#45;&gt;Node20</title>
<path fill="none" stroke="#404040" d="M628.8161,-923.3753C660.8821,-914.5844 739.2138,-893.8423 806,-882 1180.6962,-815.5603 1430.0991,-985.3034 1634,-664 1696.2206,-565.9539 1657.0889,-482.7396 1565,-412 1511.2564,-370.716 1438.8158,-344.3574 1383.2567,-328.7993"/>
<polygon fill="none" stroke="#404040" points="1383.2479,-328.797 1376.4073,-331.0787 1371.6701,-325.6419 1378.5107,-323.3601 1383.2479,-328.797"/>
<text text-anchor="middle" x="1637" y="-685" font-family="Helvetica,sans-Serif" font-size="10.00" fill="#000000"> +label</text>
</g>
<!-- Node8&#45;&gt;Node6 -->
<g id="edge7" class="edge">
<title>Node8&#45;&gt;Node6</title>
<path fill="none" stroke="#ffa500" d="M305.6929,-717.4964C309.8638,-690.3851 314.979,-657.1362 319.0321,-630.7912"/>
<polygon fill="#ffa500" stroke="#ffa500" points="302.2061,-717.1434 304.1447,-727.5593 309.1247,-718.2078 302.2061,-717.1434"/>
<text text-anchor="middle" x="335" y="-685" font-family="Helvetica,sans-Serif" font-size="10.00" fill="#000000"> &lt; float &gt;</text>
</g>
<!-- Node9 -->
<g id="node8" class="node">
<title>Node9</title>
<polygon fill="none" stroke="#bfbfbf" points="283.5,-899 283.5,-956 312.5,-956 312.5,-899 283.5,-899"/>
<text text-anchor="middle" x="298" y="-944" font-family="Helvetica,sans-Serif" font-size="10.00" fill="#000000">T</text>
<polyline fill="none" stroke="#bfbfbf" points="283.5,-937 312.5,-937 "/>
<text text-anchor="middle" x="298" y="-925" font-family="Helvetica,sans-Serif" font-size="10.00" fill="#000000"> </text>
<polyline fill="none" stroke="#bfbfbf" points="283.5,-918 312.5,-918 "/>
<text text-anchor="middle" x="298" y="-906" font-family="Helvetica,sans-Serif" font-size="10.00" fill="#000000"> </text>
</g>
<!-- Node9&#45;&gt;Node8 -->
<g id="edge9" class="edge">
<title>Node9&#45;&gt;Node8</title>
<path fill="none" stroke="#404040" d="M298,-898.8952C298,-876.8577 298,-845.7968 298,-819.4075"/>
<polygon fill="none" stroke="#404040" points="298.0001,-819.2754 294,-813.2755 298,-807.2754 302,-813.2754 298.0001,-819.2754"/>
<text text-anchor="middle" x="317.5" y="-850.5" font-family="Helvetica,sans-Serif" font-size="10.00" fill="#000000"> +value</text>
</g>
<!-- Node10&#45;&gt;Node2 -->
<g id="edge10" class="edge">
<title>Node10&#45;&gt;Node2</title>
<path fill="none" stroke="#404040" d="M590.3593,-269.9401C510.8396,-225.4743 383.8621,-154.4712 308.9377,-112.575"/>
<polygon fill="none" stroke="#404040" points="308.7465,-112.4682 301.5574,-113.0311 298.2728,-106.6115 305.4619,-106.0486 308.7465,-112.4682"/>
<text text-anchor="middle" x="493" y="-189" font-family="Helvetica,sans-Serif" font-size="10.00" fill="#000000"> +etaphiH</text>
</g>
<!-- Node11 -->
<g id="node10" class="node">
<title>Node11</title>
<polygon fill="none" stroke="#bfbfbf" points="1145.5,-739 1145.5,-796 1284.5,-796 1284.5,-739 1145.5,-739"/>
<text text-anchor="middle" x="1215" y="-784" font-family="Helvetica,sans-Serif" font-size="10.00" fill="#000000">OutputObjHandlingPolicy</text>
<polyline fill="none" stroke="#bfbfbf" points="1145.5,-777 1284.5,-777 "/>
<text text-anchor="middle" x="1215" y="-765" font-family="Helvetica,sans-Serif" font-size="10.00" fill="#000000"> </text>
<polyline fill="none" stroke="#bfbfbf" points="1145.5,-758 1284.5,-758 "/>
<text text-anchor="middle" x="1215" y="-746" font-family="Helvetica,sans-Serif" font-size="10.00" fill="#000000"> </text>
</g>
<!-- Node11&#45;&gt;Node10 -->
<g id="edge11" class="edge">
<title>Node11&#45;&gt;Node10</title>
<path fill="none" stroke="#404040" d="M1200.375,-738.7923C1190.6031,-718.4182 1178.2547,-690.1523 1171,-664 1139.3277,-549.8248 1181.5262,-479.2886 1084,-412 1029.7135,-374.5448 852.4362,-340.6319 745.6944,-322.922"/>
<polygon fill="none" stroke="#404040" points="745.5196,-322.8934 738.9504,-325.8674 733.6785,-320.9474 740.2477,-317.9733 745.5196,-322.8934"/>
<text text-anchor="middle" x="1191.5" y="-583" font-family="Helvetica,sans-Serif" font-size="10.00" fill="#000000"> +policy</text>
</g>
<!-- Node11&#45;&gt;Node18 -->
<g id="edge22" class="edge">
<title>Node11&#45;&gt;Node18</title>
<path fill="none" stroke="#404040" d="M1177.1748,-738.7815C1164.3666,-729.5102 1149.8058,-719.4519 1136,-711 1112.0956,-696.3658 1106.5264,-691.0516 1080,-682 1037.675,-667.5573 1021.7854,-682.3454 981,-664 979.9873,-663.5445 978.9757,-663.0765 977.9657,-662.5968"/>
<polygon fill="none" stroke="#404040" points="977.8768,-662.5509 970.7098,-663.3472 967.2181,-657.0378 974.3852,-656.2415 977.8768,-662.5509"/>
<text text-anchor="middle" x="1126.5" y="-685" font-family="Helvetica,sans-Serif" font-size="10.00" fill="#000000"> +policy</text>
</g>
<!-- Node11&#45;&gt;Node20 -->
<g id="edge28" class="edge">
<title>Node11&#45;&gt;Node20</title>
<path fill="none" stroke="#404040" d="M1284.7411,-752.4981C1331.6628,-738.3274 1389.9025,-711.8413 1418,-664 1466.0974,-582.105 1420.4078,-477.9121 1372.5762,-403.818"/>
<polygon fill="none" stroke="#404040" points="1372.425,-403.5885 1365.7835,-400.7792 1365.8223,-393.5682 1372.4637,-396.3774 1372.425,-403.5885"/>
<text text-anchor="middle" x="1458.5" y="-583" font-family="Helvetica,sans-Serif" font-size="10.00" fill="#000000"> +policy</text>
</g>
<!-- Node12 -->
<g id="node11" class="node">
<title>Node12</title>
<g id="a_node11"><a xlink:href="../../d3/d87/classuint32__t.html" target="_top" xlink:title="{uint32_t\n||}">
<polygon fill="none" stroke="#000000" points="948,-739 948,-796 1004,-796 1004,-739 948,-739"/>
<text text-anchor="middle" x="976" y="-784" font-family="Helvetica,sans-Serif" font-size="10.00" fill="#000000">uint32_t</text>
<polyline fill="none" stroke="#000000" points="948,-777 1004,-777 "/>
<text text-anchor="middle" x="976" y="-765" font-family="Helvetica,sans-Serif" font-size="10.00" fill="#000000"> </text>
<polyline fill="none" stroke="#000000" points="948,-758 1004,-758 "/>
<text text-anchor="middle" x="976" y="-746" font-family="Helvetica,sans-Serif" font-size="10.00" fill="#000000"> </text>
</a>
</g>
</g>
<!-- Node12&#45;&gt;Node10 -->
<g id="edge12" class="edge">
<title>Node12&#45;&gt;Node10</title>
<path fill="none" stroke="#404040" d="M963.2959,-738.7903C957.3503,-728.4987 949.2789,-717.7762 939,-711 900.5662,-685.6631 882.0524,-702.4546 837,-693 783.7238,-681.8196 753.9441,-704.8825 718,-664 643.5922,-579.3694 711.2031,-522.6765 690,-412 689.584,-409.8287 689.1453,-407.636 688.6867,-405.4288"/>
<polygon fill="none" stroke="#404040" points="688.6461,-405.2439 683.4487,-400.2451 686.0639,-393.5249 691.2613,-398.5237 688.6461,-405.2439"/>
<text text-anchor="middle" x="752" y="-583" font-family="Helvetica,sans-Serif" font-size="10.00" fill="#000000"> +mTaskHash</text>
</g>
<!-- Node12&#45;&gt;Node18 -->
<g id="edge21" class="edge">
<title>Node12&#45;&gt;Node18</title>
<path fill="none" stroke="#404040" d="M957.8116,-738.7426C951.956,-729.7547 945.3395,-719.8722 939,-711 933.1078,-702.7539 930.0777,-701.7711 925,-693 921.6532,-687.2189 918.4359,-681.134 915.3705,-674.9207"/>
<polygon fill="none" stroke="#404040" points="915.1615,-674.4797 908.9771,-670.7712 910.0218,-663.6361 916.2062,-667.3447 915.1615,-674.4797"/>
<text text-anchor="middle" x="959" y="-685" font-family="Helvetica,sans-Serif" font-size="10.00" fill="#000000"> +mTaskHash</text>
</g>
<!-- Node12&#45;&gt;Node20 -->
<g id="edge29" class="edge">
<title>Node12&#45;&gt;Node20</title>
<path fill="none" stroke="#404040" d="M983.3189,-738.7822C989.8478,-719.3968 1001.4757,-695.0495 1021,-682 1057.1803,-657.8181 1183.5976,-693.0493 1216,-664 1269.0235,-616.4635 1231.795,-576.3441 1248,-507 1255.7784,-473.715 1265.0937,-437.4888 1273.6774,-405.2844"/>
<polygon fill="none" stroke="#404040" points="1273.6983,-405.206 1271.3866,-398.3755 1276.8025,-393.6145 1279.1143,-400.445 1273.6983,-405.206"/>
<text text-anchor="middle" x="1282" y="-583" font-family="Helvetica,sans-Serif" font-size="10.00" fill="#000000"> +mTaskHash</text>
</g>
<!-- Node13 -->
<g id="node12" class="node">
<title>Node13</title>
<polygon fill="none" stroke="#bfbfbf" points="1089,-739 1089,-796 1127,-796 1127,-739 1089,-739"/>
<text text-anchor="middle" x="1108" y="-784" font-family="Helvetica,sans-Serif" font-size="10.00" fill="#000000">bool</text>
<polyline fill="none" stroke="#bfbfbf" points="1089,-777 1127,-777 "/>
<text text-anchor="middle" x="1108" y="-765" font-family="Helvetica,sans-Serif" font-size="10.00" fill="#000000"> </text>
<polyline fill="none" stroke="#bfbfbf" points="1089,-758 1127,-758 "/>
<text text-anchor="middle" x="1108" y="-746" font-family="Helvetica,sans-Serif" font-size="10.00" fill="#000000"> </text>
</g>
<!-- Node13&#45;&gt;Node10 -->
<g id="edge14" class="edge">
<title>Node13&#45;&gt;Node10</title>
<path fill="none" stroke="#404040" d="M1101.4197,-738.6266C1096.8814,-717.936 1090.9734,-689.3594 1087,-664 1078.2782,-608.3345 1095.9398,-454.5461 1059,-412 1018.4421,-365.2867 849.8535,-334.9765 745.8497,-320.3357"/>
<polygon fill="none" stroke="#404040" points="745.6984,-320.3149 739.2068,-323.4549 733.8116,-318.6703 740.3032,-315.5304 745.6984,-320.3149"/>
<text text-anchor="middle" x="1118" y="-583" font-family="Helvetica,sans-Serif" font-size="10.00" fill="#000000"> +isdangling</text>
</g>
<!-- Node13&#45;&gt;Node18 -->
<g id="edge25" class="edge">
<title>Node13&#45;&gt;Node18</title>
<path fill="none" stroke="#404040" d="M1088.6461,-751.9828C1063.6768,-731.9633 1018.4615,-695.7114 976.5843,-662.1359"/>
<polygon fill="none" stroke="#404040" points="976.5126,-662.0784 969.3293,-661.446 967.1502,-654.572 974.3336,-655.2044 976.5126,-662.0784"/>
<text text-anchor="middle" x="1045" y="-685" font-family="Helvetica,sans-Serif" font-size="10.00" fill="#000000"> +isdangling</text>
</g>
<!-- Node13&#45;&gt;Node20 -->
<g id="edge31" class="edge">
<title>Node13&#45;&gt;Node20</title>
<path fill="none" stroke="#404040" d="M1117.0548,-738.9666C1121.5746,-728.823 1128.0406,-718.1565 1137,-711 1202.6112,-658.5917 1268.5347,-730.3534 1320,-664 1350.1481,-625.1305 1334.8572,-496.8169 1319.1128,-405.8916"/>
<polygon fill="none" stroke="#404040" points="1319.079,-405.6995 1314.0971,-400.4859 1316.9935,-393.8821 1321.9754,-399.0956 1319.079,-405.6995"/>
<text text-anchor="middle" x="1368" y="-583" font-family="Helvetica,sans-Serif" font-size="10.00" fill="#000000"> +isdangling</text>
</g>
<!-- Node14&#45;&gt;Node10 -->
<g id="edge15" class="edge">
<title>Node14&#45;&gt;Node10</title>
<path fill="none" stroke="#404040" d="M787.8167,-717.1979C783.2422,-714.9081 778.6178,-712.8146 774,-711 664.7071,-668.0524 588.7394,-754.573 514,-664 447.5921,-583.5235 517.8519,-469.0034 582.4003,-392.2255"/>
<polygon fill="none" stroke="#404040" points="582.4402,-392.1787 583.2957,-385.0185 590.2341,-383.0542 589.3786,-390.2144 582.4402,-392.1787"/>
<text text-anchor="middle" x="531" y="-583" font-family="Helvetica,sans-Serif" font-size="10.00" fill="#000000"> +spec</text>
</g>
<!-- Node14&#45;&gt;Node18 -->
<g id="edge26" class="edge">
<title>Node14&#45;&gt;Node18</title>
<path fill="none" stroke="#404040" d="M842.4588,-711.3829C841.2967,-701.5868 841.1978,-691.4954 843,-682 843.4163,-679.8067 843.8814,-677.5996 844.3896,-675.385"/>
<polygon fill="none" stroke="#404040" points="844.4586,-675.1198 842.1016,-668.3048 847.4859,-663.5079 849.8429,-670.323 844.4586,-675.1198"/>
<text text-anchor="middle" x="860" y="-685" font-family="Helvetica,sans-Serif" font-size="10.00" fill="#000000"> +spec</text>
</g>
<!-- Node14&#45;&gt;Node20 -->
<g id="edge32" class="edge">
<title>Node14&#45;&gt;Node20</title>
<path fill="none" stroke="#404040" d="M930.3839,-716.7698C933.285,-714.8082 936.1652,-712.8784 939,-711 951.6456,-702.6207 958.9135,-705.1474 968,-693 1019.2057,-624.5454 953.1567,-563.8514 1017,-507 1059.9037,-468.795 1094.5406,-516.4627 1145,-489 1182.1393,-468.7869 1214.4568,-435.9192 1239.8317,-403.8293"/>
<polygon fill="none" stroke="#404040" points="1240.153,-403.4126 1240.6497,-396.2186 1247.4814,-393.9102 1246.9847,-401.1042 1240.153,-403.4126"/>
<text text-anchor="middle" x="1034" y="-583" font-family="Helvetica,sans-Serif" font-size="10.00" fill="#000000"> +spec</text>
</g>
<!-- Node15 -->
<g id="node14" class="node">
<title>Node15</title>
<polygon fill="none" stroke="#bfbfbf" points="815,-899 815,-956 903,-956 903,-899 815,-899"/>
<text text-anchor="middle" x="859" y="-944" font-family="Helvetica,sans-Serif" font-size="10.00" fill="#000000">enum Lifetime</text>
<polyline fill="none" stroke="#bfbfbf" points="815,-937 903,-937 "/>
<text text-anchor="middle" x="859" y="-925" font-family="Helvetica,sans-Serif" font-size="10.00" fill="#000000"> </text>
<polyline fill="none" stroke="#bfbfbf" points="815,-918 903,-918 "/>
<text text-anchor="middle" x="859" y="-906" font-family="Helvetica,sans-Serif" font-size="10.00" fill="#000000"> </text>
</g>
<!-- Node15&#45;&gt;Node14 -->
<g id="edge16" class="edge">
<title>Node15&#45;&gt;Node14</title>
<path fill="none" stroke="#404040" d="M859,-898.8952C859,-881.3 859,-857.9527 859,-835.8235"/>
<polygon fill="none" stroke="#404040" points="859.0001,-835.6991 855,-829.6991 859,-823.6991 863,-829.6991 859.0001,-835.6991"/>
<text text-anchor="middle" x="884" y="-850.5" font-family="Helvetica,sans-Serif" font-size="10.00" fill="#000000"> +lifetime</text>
</g>
<!-- Node16 -->
<g id="node15" class="node">
<title>Node16</title>
<polygon fill="none" stroke="#bfbfbf" points="1604,-882.5 1604,-972.5 1768,-972.5 1768,-882.5 1604,-882.5"/>
<text text-anchor="start" x="1612" y="-960.5" font-family="Helvetica,sans-Serif" font-size="10.00" fill="#000000">variant&lt; o2::framework</text>
<text text-anchor="start" x="1612" y="-949.5" font-family="Helvetica,sans-Serif" font-size="10.00" fill="#000000">::ConcreteDataMatcher,</text>
<text text-anchor="start" x="1612" y="-938.5" font-family="Helvetica,sans-Serif" font-size="10.00" fill="#000000"> o2::framework::data_matcher</text>
<text text-anchor="middle" x="1686" y="-927.5" font-family="Helvetica,sans-Serif" font-size="10.00" fill="#000000">::DataDescriptorMatcher &gt;</text>
<polyline fill="none" stroke="#bfbfbf" points="1604,-920.5 1768,-920.5 "/>
<text text-anchor="middle" x="1686" y="-908.5" font-family="Helvetica,sans-Serif" font-size="10.00" fill="#000000"> </text>
<polyline fill="none" stroke="#bfbfbf" points="1604,-901.5 1768,-901.5 "/>
<text text-anchor="middle" x="1686" y="-889.5" font-family="Helvetica,sans-Serif" font-size="10.00" fill="#000000"> </text>
</g>
<!-- Node16&#45;&gt;Node14 -->
<g id="edge17" class="edge">
<title>Node16&#45;&gt;Node14</title>
<path fill="none" stroke="#404040" d="M1603.7287,-921.0398C1440.4427,-907.4402 1079.9674,-873.3358 941.5449,-824.3784"/>
<polygon fill="none" stroke="#404040" points="941.2552,-824.2699 934.2332,-825.9107 930.0179,-820.06 937.0398,-818.4192 941.2552,-824.2699"/>
<text text-anchor="middle" x="1120" y="-850.5" font-family="Helvetica,sans-Serif" font-size="10.00" fill="#000000"> +matcher</text>
</g>
<!-- Node17 -->
<g id="node16" class="node">
<title>Node17</title>
<polygon fill="none" stroke="#bfbfbf" points="557,-557 557,-614 673,-614 673,-557 557,-557"/>
<text text-anchor="middle" x="615" y="-602" font-family="Helvetica,sans-Serif" font-size="10.00" fill="#000000">shared_ptr&lt; TH2F &gt;</text>
<polyline fill="none" stroke="#bfbfbf" points="557,-595 673,-595 "/>
<text text-anchor="middle" x="615" y="-583" font-family="Helvetica,sans-Serif" font-size="10.00" fill="#000000"> </text>
<polyline fill="none" stroke="#bfbfbf" points="557,-576 673,-576 "/>
<text text-anchor="middle" x="615" y="-564" font-family="Helvetica,sans-Serif" font-size="10.00" fill="#000000"> </text>
</g>
<!-- Node17&#45;&gt;Node10 -->
<g id="edge19" class="edge">
<title>Node17&#45;&gt;Node10</title>
<path fill="none" stroke="#404040" d="M619.8968,-556.7963C625.9734,-521.177 636.6437,-458.6311 645.7215,-405.4196"/>
<polygon fill="none" stroke="#404040" points="645.7331,-405.3513 642.7991,-398.7641 647.7512,-393.5222 650.6852,-400.1095 645.7331,-405.3513"/>
<text text-anchor="middle" x="665" y="-448" font-family="Helvetica,sans-Serif" font-size="10.00" fill="#000000"> +object</text>
</g>
<!-- Node18&#45;&gt;Node10 -->
<g id="edge20" class="edge">
<title>Node18&#45;&gt;Node10</title>
<path fill="none" stroke="#ffa500" d="M812.4686,-499.2882C785.6993,-465.6127 755.113,-427.1353 728.5387,-393.7051"/>
<polygon fill="#ffa500" stroke="#ffa500" points="809.8667,-501.6396 818.8292,-507.2897 815.3463,-497.2837 809.8667,-501.6396"/>
<text text-anchor="middle" x="828.5" y="-448" font-family="Helvetica,sans-Serif" font-size="10.00" fill="#000000"> &lt; TH2F &gt;</text>
</g>
<!-- Node18&#45;&gt;Node20 -->
<g id="edge34" class="edge">
<title>Node18&#45;&gt;Node20</title>
<path fill="none" stroke="#ffa500" d="M975.0507,-501.285C1010.9341,-471.2312 1053.073,-438.3285 1094,-412 1136.6248,-384.5792 1187.6563,-359.2619 1228.263,-340.7095"/>
<polygon fill="#ffa500" stroke="#ffa500" points="972.4124,-498.9312 967.0197,-508.051 976.9225,-504.2846 972.4124,-498.9312"/>
<text text-anchor="middle" x="1119.5" y="-448" font-family="Helvetica,sans-Serif" font-size="10.00" fill="#000000"> &lt; TH1F &gt;</text>
</g>
<!-- Node19 -->
<g id="node18" class="node">
<title>Node19</title>
<polygon fill="none" stroke="#bfbfbf" points="600.5,-739 600.5,-796 697.5,-796 697.5,-739 600.5,-739"/>
<text text-anchor="middle" x="649" y="-784" font-family="Helvetica,sans-Serif" font-size="10.00" fill="#000000">shared_ptr&lt; T &gt;</text>
<polyline fill="none" stroke="#bfbfbf" points="600.5,-777 697.5,-777 "/>
<text text-anchor="middle" x="649" y="-765" font-family="Helvetica,sans-Serif" font-size="10.00" fill="#000000"> </text>
<polyline fill="none" stroke="#bfbfbf" points="600.5,-758 697.5,-758 "/>
<text text-anchor="middle" x="649" y="-746" font-family="Helvetica,sans-Serif" font-size="10.00" fill="#000000"> </text>
</g>
<!-- Node19&#45;&gt;Node18 -->
<g id="edge24" class="edge">
<title>Node19&#45;&gt;Node18</title>
<path fill="none" stroke="#404040" d="M651.3342,-738.7198C654.4299,-719.8191 661.5736,-696.0733 678,-682 713.2906,-651.7647 738.5535,-682.9182 781,-664 782.0143,-663.5479 783.0273,-663.0833 784.0388,-662.6068"/>
<polygon fill="none" stroke="#404040" points="784.1262,-662.5619 787.6346,-656.2618 794.7995,-657.0772 791.2911,-663.3773 784.1262,-662.5619"/>
<text text-anchor="middle" x="699" y="-685" font-family="Helvetica,sans-Serif" font-size="10.00" fill="#000000"> +object</text>
</g>
<!-- Node20&#45;&gt;Node2 -->
<g id="edge27" class="edge">
<title>Node20&#45;&gt;Node2</title>
<path fill="none" stroke="#404040" d="M1228.1058,-294.1792C1032.5696,-251.1501 493.496,-132.5231 310.0568,-92.156"/>
<polygon fill="none" stroke="#404040" points="309.9592,-92.1346 303.2398,-94.7516 298.2397,-89.5556 304.9591,-86.9386 309.9592,-92.1346"/>
<text text-anchor="middle" x="822" y="-194.5" font-family="Helvetica,sans-Serif" font-size="10.00" fill="#000000"> +phiH</text>
<text text-anchor="middle" x="822" y="-183.5" font-family="Helvetica,sans-Serif" font-size="10.00" fill="#000000">+etaH</text>
</g>
<!-- Node21 -->
<g id="node20" class="node">
<title>Node21</title>
<polygon fill="none" stroke="#bfbfbf" points="1509,-557 1509,-614 1625,-614 1625,-557 1509,-557"/>
<text text-anchor="middle" x="1567" y="-602" font-family="Helvetica,sans-Serif" font-size="10.00" fill="#000000">shared_ptr&lt; TH1F &gt;</text>
<polyline fill="none" stroke="#bfbfbf" points="1509,-595 1625,-595 "/>
<text text-anchor="middle" x="1567" y="-583" font-family="Helvetica,sans-Serif" font-size="10.00" fill="#000000"> </text>
<polyline fill="none" stroke="#bfbfbf" points="1509,-576 1625,-576 "/>
<text text-anchor="middle" x="1567" y="-564" font-family="Helvetica,sans-Serif" font-size="10.00" fill="#000000"> </text>
</g>
<!-- Node21&#45;&gt;Node20 -->
<g id="edge33" class="edge">
<title>Node21&#45;&gt;Node20</title>
<path fill="none" stroke="#404040" d="M1555.1948,-556.9028C1538.9072,-520.0468 1506.6517,-455.5421 1464,-412 1440.4902,-387.9994 1410.2598,-367.1606 1382.1714,-350.6853"/>
<polygon fill="none" stroke="#404040" points="1381.9413,-350.5535 1374.7466,-351.0409 1371.5296,-344.5872 1378.7242,-344.0998 1381.9413,-350.5535"/>
<text text-anchor="middle" x="1540" y="-448" font-family="Helvetica,sans-Serif" font-size="10.00" fill="#000000"> +object</text>
</g>
</g>
</svg>
