<?xml version="1.0" encoding="UTF-8" standalone="no"?>
<!DOCTYPE svg PUBLIC "-//W3C//DTD SVG 1.1//EN"
 "http://www.w3.org/Graphics/SVG/1.1/DTD/svg11.dtd">
<!-- Generated by graphviz version 2.40.1 (20161225.0304)
 -->
<!-- Title: /home/travis/build/AliceO2Group/AliceO2/Framework/Utils/include/DPLUtils/MakeRootTreeWriterSpec.h Pages: 1 -->
<svg width="4959pt" height="250pt"
 viewBox="0.00 0.00 4959.00 250.00" xmlns="http://www.w3.org/2000/svg" xmlns:xlink="http://www.w3.org/1999/xlink">
<g id="graph0" class="graph" transform="scale(1 1) rotate(0) translate(4 246)">
<title>/home/travis/build/AliceO2Group/AliceO2/Framework/Utils/include/DPLUtils/MakeRootTreeWriterSpec.h</title>
<!-- Node132 -->
<g id="node1" class="node">
<title>Node132</title>
<polygon fill="#bfbfbf" stroke="#000000" points="2488,-189.5 2488,-241.5 2681,-241.5 2681,-189.5 2488,-189.5"/>
<text text-anchor="start" x="2496" y="-229.5" font-family="Helvetica,sans-Serif" font-size="10.00" fill="#000000">/home/travis/build</text>
<text text-anchor="start" x="2496" y="-218.5" font-family="Helvetica,sans-Serif" font-size="10.00" fill="#000000">/AliceO2Group/AliceO2</text>
<text text-anchor="start" x="2496" y="-207.5" font-family="Helvetica,sans-Serif" font-size="10.00" fill="#000000">/Framework/Utils/include</text>
<text text-anchor="middle" x="2584.5" y="-196.5" font-family="Helvetica,sans-Serif" font-size="10.00" fill="#000000">/DPLUtils/MakeRootTreeWriterSpec.h</text>
</g>
<!-- Node133 -->
<g id="node2" class="node">
<title>Node133</title>
<g id="a_node2"><a xlink:href="../../dd/d16/CPV_2workflow_2src_2RecoWorkflow_8cxx.html" target="_top" xlink:title="/home/travis/build\l/AliceO2Group/AliceO2\l/Detectors/CPV/workflow\l/src/RecoWorkflow.cxx">
<polygon fill="none" stroke="#000000" points="0,-95 0,-147 137,-147 137,-95 0,-95"/>
<text text-anchor="start" x="8" y="-135" font-family="Helvetica,sans-Serif" font-size="10.00" fill="#000000">/home/travis/build</text>
<text text-anchor="start" x="8" y="-124" font-family="Helvetica,sans-Serif" font-size="10.00" fill="#000000">/AliceO2Group/AliceO2</text>
<text text-anchor="start" x="8" y="-113" font-family="Helvetica,sans-Serif" font-size="10.00" fill="#000000">/Detectors/CPV/workflow</text>
<text text-anchor="middle" x="68.5" y="-102" font-family="Helvetica,sans-Serif" font-size="10.00" fill="#000000">/src/RecoWorkflow.cxx</text>
</a>
</g>
</g>
<!-- Node132&#45;&gt;Node133 -->
<g id="edge1" class="edge">
<title>Node132&#45;&gt;Node133</title>
<path fill="none" stroke="#191970" d="M2477.6171,-215.0396C2037.3021,-212.833 376.1943,-201.3512 146.5,-153 139.4817,-151.5226 132.2924,-149.4385 125.2548,-147.0339"/>
<polygon fill="#191970" stroke="#191970" points="2477.7726,-218.5404 2487.7899,-215.0901 2477.8074,-211.5404 2477.7726,-218.5404"/>
</g>
<!-- Node134 -->
<g id="node3" class="node">
<title>Node134</title>
<g id="a_node3"><a xlink:href="../../d2/dbf/EMCAL_2workflow_2src_2RecoWorkflow_8cxx.html" target="_top" xlink:title="/home/travis/build\l/AliceO2Group/AliceO2\l/Detectors/EMCAL/workflow\l/src/RecoWorkflow.cxx">
<polygon fill="none" stroke="#000000" points="155.5,-95 155.5,-147 305.5,-147 305.5,-95 155.5,-95"/>
<text text-anchor="start" x="163.5" y="-135" font-family="Helvetica,sans-Serif" font-size="10.00" fill="#000000">/home/travis/build</text>
<text text-anchor="start" x="163.5" y="-124" font-family="Helvetica,sans-Serif" font-size="10.00" fill="#000000">/AliceO2Group/AliceO2</text>
<text text-anchor="start" x="163.5" y="-113" font-family="Helvetica,sans-Serif" font-size="10.00" fill="#000000">/Detectors/EMCAL/workflow</text>
<text text-anchor="middle" x="230.5" y="-102" font-family="Helvetica,sans-Serif" font-size="10.00" fill="#000000">/src/RecoWorkflow.cxx</text>
</a>
</g>
</g>
<!-- Node132&#45;&gt;Node134 -->
<g id="edge2" class="edge">
<title>Node132&#45;&gt;Node134</title>
<path fill="none" stroke="#191970" d="M2477.6651,-214.69C2056.886,-211.209 526.6476,-195.7075 313.5,-153 306.0801,-151.5133 298.4598,-149.4234 290.9877,-147.0156"/>
<polygon fill="#191970" stroke="#191970" points="2477.6685,-218.1901 2487.697,-214.7725 2477.7261,-211.1903 2477.6685,-218.1901"/>
</g>
<!-- Node135 -->
<g id="node4" class="node">
<title>Node135</title>
<g id="a_node4"><a xlink:href="../../d3/d52/TrackWriterTPCITSSpec_8cxx.html" target="_top" xlink:title="/home/travis/build\l/AliceO2Group/AliceO2\l/Detectors/GlobalTrackingWorkflow\l/src/TrackWriterTPCITSSpec.cxx">
<polygon fill="none" stroke="#000000" points="323,-95 323,-147 510,-147 510,-95 323,-95"/>
<text text-anchor="start" x="331" y="-135" font-family="Helvetica,sans-Serif" font-size="10.00" fill="#000000">/home/travis/build</text>
<text text-anchor="start" x="331" y="-124" font-family="Helvetica,sans-Serif" font-size="10.00" fill="#000000">/AliceO2Group/AliceO2</text>
<text text-anchor="start" x="331" y="-113" font-family="Helvetica,sans-Serif" font-size="10.00" fill="#000000">/Detectors/GlobalTrackingWorkflow</text>
<text text-anchor="middle" x="416.5" y="-102" font-family="Helvetica,sans-Serif" font-size="10.00" fill="#000000">/src/TrackWriterTPCITSSpec.cxx</text>
</a>
</g>
</g>
<!-- Node132&#45;&gt;Node135 -->
<g id="edge3" class="edge">
<title>Node132&#45;&gt;Node135</title>
<path fill="none" stroke="#191970" d="M2477.9023,-213.9829C2082.4133,-208.1199 711.9452,-185.6333 518.5,-153 509.6241,-151.5027 500.4503,-149.4241 491.4101,-147.0384"/>
<polygon fill="#191970" stroke="#191970" points="2477.8586,-217.4826 2487.9093,-214.1308 2477.9621,-210.4833 2477.8586,-217.4826"/>
</g>
<!-- Node136 -->
<g id="node5" class="node">
<title>Node136</title>
<g id="a_node5"><a xlink:href="../../d2/d27/TPCResidualWriterSpec_8cxx.html" target="_top" xlink:title="/home/travis/build\l/AliceO2Group/AliceO2\l/Detectors/GlobalTrackingWorkflow\l/tpcinterpolationworkflow/src\l/TPCResidualWriterSpec.cxx">
<polygon fill="none" stroke="#000000" points="528,-89.5 528,-152.5 715,-152.5 715,-89.5 528,-89.5"/>
<text text-anchor="start" x="536" y="-140.5" font-family="Helvetica,sans-Serif" font-size="10.00" fill="#000000">/home/travis/build</text>
<text text-anchor="start" x="536" y="-129.5" font-family="Helvetica,sans-Serif" font-size="10.00" fill="#000000">/AliceO2Group/AliceO2</text>
<text text-anchor="start" x="536" y="-118.5" font-family="Helvetica,sans-Serif" font-size="10.00" fill="#000000">/Detectors/GlobalTrackingWorkflow</text>
<text text-anchor="start" x="536" y="-107.5" font-family="Helvetica,sans-Serif" font-size="10.00" fill="#000000">/tpcinterpolationworkflow/src</text>
<text text-anchor="middle" x="621.5" y="-96.5" font-family="Helvetica,sans-Serif" font-size="10.00" fill="#000000">/TPCResidualWriterSpec.cxx</text>
</a>
</g>
</g>
<!-- Node132&#45;&gt;Node136 -->
<g id="edge4" class="edge">
<title>Node132&#45;&gt;Node136</title>
<path fill="none" stroke="#191970" d="M2477.7528,-213.5979C2108.1304,-206.7791 896.0125,-182.3974 723.5,-153 720.7557,-152.5323 717.9827,-152.0096 715.194,-151.4399"/>
<polygon fill="#191970" stroke="#191970" points="2477.8505,-217.1002 2487.9133,-213.7848 2477.9794,-210.1013 2477.8505,-217.1002"/>
</g>
<!-- Node137 -->
<g id="node6" class="node">
<title>Node137</title>
<g id="a_node6"><a xlink:href="../../dd/d06/ITS_2workflow_2src_2ClusterWriterSpec_8cxx.html" target="_top" xlink:title="/home/travis/build\l/AliceO2Group/AliceO2\l/Detectors/ITSMFT/ITS\l/workflow/src/ClusterWriterSpec.cxx">
<polygon fill="none" stroke="#000000" points="733,-95 733,-147 924,-147 924,-95 733,-95"/>
<text text-anchor="start" x="741" y="-135" font-family="Helvetica,sans-Serif" font-size="10.00" fill="#000000">/home/travis/build</text>
<text text-anchor="start" x="741" y="-124" font-family="Helvetica,sans-Serif" font-size="10.00" fill="#000000">/AliceO2Group/AliceO2</text>
<text text-anchor="start" x="741" y="-113" font-family="Helvetica,sans-Serif" font-size="10.00" fill="#000000">/Detectors/ITSMFT/ITS</text>
<text text-anchor="middle" x="828.5" y="-102" font-family="Helvetica,sans-Serif" font-size="10.00" fill="#000000">/workflow/src/ClusterWriterSpec.cxx</text>
</a>
</g>
</g>
<!-- Node132&#45;&gt;Node137 -->
<g id="edge5" class="edge">
<title>Node132&#45;&gt;Node137</title>
<path fill="none" stroke="#191970" d="M2477.7052,-215.0474C2161.2684,-213.1383 1232.1166,-203.2852 933.5,-153 924.4797,-151.481 915.1506,-149.4067 905.9456,-147.0386"/>
<polygon fill="#191970" stroke="#191970" points="2477.7748,-218.5478 2487.7952,-215.1068 2477.8161,-211.5479 2477.7748,-218.5478"/>
</g>
<!-- Node138 -->
<g id="node7" class="node">
<title>Node138</title>
<g id="a_node7"><a xlink:href="../../dc/d27/ITS_2workflow_2src_2TrackWriterSpec_8cxx.html" target="_top" xlink:title="/home/travis/build\l/AliceO2Group/AliceO2\l/Detectors/ITSMFT/ITS\l/workflow/src/TrackWriterSpec.cxx">
<polygon fill="none" stroke="#000000" points="942.5,-95 942.5,-147 1124.5,-147 1124.5,-95 942.5,-95"/>
<text text-anchor="start" x="950.5" y="-135" font-family="Helvetica,sans-Serif" font-size="10.00" fill="#000000">/home/travis/build</text>
<text text-anchor="start" x="950.5" y="-124" font-family="Helvetica,sans-Serif" font-size="10.00" fill="#000000">/AliceO2Group/AliceO2</text>
<text text-anchor="start" x="950.5" y="-113" font-family="Helvetica,sans-Serif" font-size="10.00" fill="#000000">/Detectors/ITSMFT/ITS</text>
<text text-anchor="middle" x="1033.5" y="-102" font-family="Helvetica,sans-Serif" font-size="10.00" fill="#000000">/workflow/src/TrackWriterSpec.cxx</text>
</a>
</g>
</g>
<!-- Node132&#45;&gt;Node138 -->
<g id="edge6" class="edge">
<title>Node132&#45;&gt;Node138</title>
<path fill="none" stroke="#191970" d="M2477.7833,-214.5415C2188.2761,-211.3609 1392.513,-198.606 1134.5,-153 1125.8058,-151.4632 1116.8211,-149.3777 1107.9605,-147.0033"/>
<polygon fill="#191970" stroke="#191970" points="2477.8294,-218.0421 2487.8667,-214.6507 2477.9052,-211.0426 2477.8294,-218.0421"/>
</g>
<!-- Node139 -->
<g id="node8" class="node">
<title>Node139</title>
<g id="a_node8"><a xlink:href="../../d9/daa/MFT_2workflow_2src_2ClusterWriterSpec_8cxx.html" target="_top" xlink:title="/home/travis/build\l/AliceO2Group/AliceO2\l/Detectors/ITSMFT/MFT\l/workflow/src/ClusterWriterSpec.cxx">
<polygon fill="none" stroke="#000000" points="1143,-95 1143,-147 1334,-147 1334,-95 1143,-95"/>
<text text-anchor="start" x="1151" y="-135" font-family="Helvetica,sans-Serif" font-size="10.00" fill="#000000">/home/travis/build</text>
<text text-anchor="start" x="1151" y="-124" font-family="Helvetica,sans-Serif" font-size="10.00" fill="#000000">/AliceO2Group/AliceO2</text>
<text text-anchor="start" x="1151" y="-113" font-family="Helvetica,sans-Serif" font-size="10.00" fill="#000000">/Detectors/ITSMFT/MFT</text>
<text text-anchor="middle" x="1238.5" y="-102" font-family="Helvetica,sans-Serif" font-size="10.00" fill="#000000">/workflow/src/ClusterWriterSpec.cxx</text>
</a>
</g>
</g>
<!-- Node132&#45;&gt;Node139 -->
<g id="edge7" class="edge">
<title>Node132&#45;&gt;Node139</title>
<path fill="none" stroke="#191970" d="M2477.6723,-213.4839C2218.1653,-208.0443 1560.0154,-190.851 1343.5,-153 1334.5832,-151.4412 1325.3604,-149.3591 1316.2523,-147.0017"/>
<polygon fill="#191970" stroke="#191970" points="2477.7871,-216.987 2487.8577,-213.6957 2477.9327,-209.9885 2477.7871,-216.987"/>
</g>
<!-- Node140 -->
<g id="node9" class="node">
<title>Node140</title>
<g id="a_node9"><a xlink:href="../../d3/daa/MFT_2workflow_2src_2TrackWriterSpec_8cxx.html" target="_top" xlink:title="/home/travis/build\l/AliceO2Group/AliceO2\l/Detectors/ITSMFT/MFT\l/workflow/src/TrackWriterSpec.cxx">
<polygon fill="none" stroke="#000000" points="1352.5,-95 1352.5,-147 1534.5,-147 1534.5,-95 1352.5,-95"/>
<text text-anchor="start" x="1360.5" y="-135" font-family="Helvetica,sans-Serif" font-size="10.00" fill="#000000">/home/travis/build</text>
<text text-anchor="start" x="1360.5" y="-124" font-family="Helvetica,sans-Serif" font-size="10.00" fill="#000000">/AliceO2Group/AliceO2</text>
<text text-anchor="start" x="1360.5" y="-113" font-family="Helvetica,sans-Serif" font-size="10.00" fill="#000000">/Detectors/ITSMFT/MFT</text>
<text text-anchor="middle" x="1443.5" y="-102" font-family="Helvetica,sans-Serif" font-size="10.00" fill="#000000">/workflow/src/TrackWriterSpec.cxx</text>
</a>
</g>
</g>
<!-- Node132&#45;&gt;Node140 -->
<g id="edge8" class="edge">
<title>Node132&#45;&gt;Node140</title>
<path fill="none" stroke="#191970" d="M2477.5243,-212.4633C2249.1184,-205.4268 1720.2009,-186.0375 1543.5,-153 1535.0786,-151.4255 1526.3788,-149.3505 1517.7866,-147.0118"/>
<polygon fill="#191970" stroke="#191970" points="2477.7379,-215.9714 2487.8404,-212.779 2477.9521,-208.9746 2477.7379,-215.9714"/>
</g>
<!-- Node141 -->
<g id="node10" class="node">
<title>Node141</title>
<g id="a_node10"><a xlink:href="../../d2/de0/MUON_2MID_2Workflow_2src_2RecoWorkflow_8cxx.html" target="_top" xlink:title="Definition of MID reconstruction workflow. ">
<polygon fill="none" stroke="#000000" points="1552.5,-95 1552.5,-147 1722.5,-147 1722.5,-95 1552.5,-95"/>
<text text-anchor="start" x="1560.5" y="-135" font-family="Helvetica,sans-Serif" font-size="10.00" fill="#000000">/home/travis/build</text>
<text text-anchor="start" x="1560.5" y="-124" font-family="Helvetica,sans-Serif" font-size="10.00" fill="#000000">/AliceO2Group/AliceO2</text>
<text text-anchor="start" x="1560.5" y="-113" font-family="Helvetica,sans-Serif" font-size="10.00" fill="#000000">/Detectors/MUON/MID/Workflow</text>
<text text-anchor="middle" x="1637.5" y="-102" font-family="Helvetica,sans-Serif" font-size="10.00" fill="#000000">/src/RecoWorkflow.cxx</text>
</a>
</g>
</g>
<!-- Node132&#45;&gt;Node141 -->
<g id="edge9" class="edge">
<title>Node132&#45;&gt;Node141</title>
<path fill="none" stroke="#191970" d="M2477.8973,-211.0824C2281.8356,-202.3949 1871.3041,-181.4314 1731.5,-153 1723.6446,-151.4025 1715.5415,-149.3295 1707.54,-147.0065"/>
<polygon fill="#191970" stroke="#191970" points="2477.7825,-214.5807 2487.927,-211.5244 2478.0908,-207.5875 2477.7825,-214.5807"/>
</g>
<!-- Node142 -->
<g id="node11" class="node">
<title>Node142</title>
<g id="a_node11"><a xlink:href="../../dd/d65/RecoWorkflowMC_8cxx.html" target="_top" xlink:title="Definition of MID reconstruction workflow for MC. ">
<polygon fill="none" stroke="#000000" points="1740.5,-95 1740.5,-147 1910.5,-147 1910.5,-95 1740.5,-95"/>
<text text-anchor="start" x="1748.5" y="-135" font-family="Helvetica,sans-Serif" font-size="10.00" fill="#000000">/home/travis/build</text>
<text text-anchor="start" x="1748.5" y="-124" font-family="Helvetica,sans-Serif" font-size="10.00" fill="#000000">/AliceO2Group/AliceO2</text>
<text text-anchor="start" x="1748.5" y="-113" font-family="Helvetica,sans-Serif" font-size="10.00" fill="#000000">/Detectors/MUON/MID/Workflow</text>
<text text-anchor="middle" x="1825.5" y="-102" font-family="Helvetica,sans-Serif" font-size="10.00" fill="#000000">/src/RecoWorkflowMC.cxx</text>
</a>
</g>
</g>
<!-- Node132&#45;&gt;Node142 -->
<g id="edge10" class="edge">
<title>Node132&#45;&gt;Node142</title>
<path fill="none" stroke="#191970" d="M2477.7594,-213.1482C2345.4204,-208.4808 2113.5857,-194.5535 1919.5,-153 1911.9143,-151.3759 1904.0909,-149.334 1896.3478,-147.0714"/>
<polygon fill="#191970" stroke="#191970" points="2477.7838,-216.6509 2487.8975,-213.4944 2478.0228,-209.655 2477.7838,-216.6509"/>
</g>
<!-- Node143 -->
<g id="node12" class="node">
<title>Node143</title>
<g id="a_node12"><a xlink:href="../../d8/d7e/PHOS_2workflow_2src_2RecoWorkflow_8cxx.html" target="_top" xlink:title="/home/travis/build\l/AliceO2Group/AliceO2\l/Detectors/PHOS/workflow\l/src/RecoWorkflow.cxx">
<polygon fill="none" stroke="#000000" points="1928.5,-95 1928.5,-147 2072.5,-147 2072.5,-95 1928.5,-95"/>
<text text-anchor="start" x="1936.5" y="-135" font-family="Helvetica,sans-Serif" font-size="10.00" fill="#000000">/home/travis/build</text>
<text text-anchor="start" x="1936.5" y="-124" font-family="Helvetica,sans-Serif" font-size="10.00" fill="#000000">/AliceO2Group/AliceO2</text>
<text text-anchor="start" x="1936.5" y="-113" font-family="Helvetica,sans-Serif" font-size="10.00" fill="#000000">/Detectors/PHOS/workflow</text>
<text text-anchor="middle" x="2000.5" y="-102" font-family="Helvetica,sans-Serif" font-size="10.00" fill="#000000">/src/RecoWorkflow.cxx</text>
</a>
</g>
</g>
<!-- Node132&#45;&gt;Node143 -->
<g id="edge11" class="edge">
<title>Node132&#45;&gt;Node143</title>
<path fill="none" stroke="#191970" d="M2477.5837,-210.0551C2374.7535,-202.9893 2215.5885,-187.2286 2081.5,-153 2075.0539,-151.3545 2068.4307,-149.3293 2061.8819,-147.1036"/>
<polygon fill="#191970" stroke="#191970" points="2477.4538,-213.5541 2487.666,-210.7324 2477.9231,-206.5699 2477.4538,-213.5541"/>
</g>
<!-- Node144 -->
<g id="node13" class="node">
<title>Node144</title>
<g id="a_node13"><a xlink:href="../../d0/d80/TPC_2workflow_2src_2RecoWorkflow_8cxx.html" target="_top" xlink:title="/home/travis/build\l/AliceO2Group/AliceO2\l/Detectors/TPC/workflow\l/src/RecoWorkflow.cxx">
<polygon fill="none" stroke="#000000" points="2090.5,-95 2090.5,-147 2226.5,-147 2226.5,-95 2090.5,-95"/>
<text text-anchor="start" x="2098.5" y="-135" font-family="Helvetica,sans-Serif" font-size="10.00" fill="#000000">/home/travis/build</text>
<text text-anchor="start" x="2098.5" y="-124" font-family="Helvetica,sans-Serif" font-size="10.00" fill="#000000">/AliceO2Group/AliceO2</text>
<text text-anchor="start" x="2098.5" y="-113" font-family="Helvetica,sans-Serif" font-size="10.00" fill="#000000">/Detectors/TPC/workflow</text>
<text text-anchor="middle" x="2158.5" y="-102" font-family="Helvetica,sans-Serif" font-size="10.00" fill="#000000">/src/RecoWorkflow.cxx</text>
</a>
</g>
</g>
<!-- Node132&#45;&gt;Node144 -->
<g id="edge12" class="edge">
<title>Node132&#45;&gt;Node144</title>
<path fill="none" stroke="#191970" d="M2477.8754,-202.3169C2408.3024,-192.2616 2315.9811,-176.1575 2236.5,-153 2230.5979,-151.2804 2224.5329,-149.2637 2218.5174,-147.0936"/>
<polygon fill="#191970" stroke="#191970" points="2477.5769,-205.8097 2487.9709,-203.7567 2478.5653,-198.8798 2477.5769,-205.8097"/>
</g>
<!-- Node145 -->
<g id="node14" class="node">
<title>Node145</title>
<g id="a_node14"><a xlink:href="../../dd/d1a/TRDDigitWriterSpec_8cxx.html" target="_top" xlink:title="/home/travis/build\l/AliceO2Group/AliceO2\l/Detectors/TRD/workflow\l/src/TRDDigitWriterSpec.cxx">
<polygon fill="none" stroke="#000000" points="2245,-95 2245,-147 2398,-147 2398,-95 2245,-95"/>
<text text-anchor="start" x="2253" y="-135" font-family="Helvetica,sans-Serif" font-size="10.00" fill="#000000">/home/travis/build</text>
<text text-anchor="start" x="2253" y="-124" font-family="Helvetica,sans-Serif" font-size="10.00" fill="#000000">/AliceO2Group/AliceO2</text>
<text text-anchor="start" x="2253" y="-113" font-family="Helvetica,sans-Serif" font-size="10.00" fill="#000000">/Detectors/TRD/workflow</text>
<text text-anchor="middle" x="2321.5" y="-102" font-family="Helvetica,sans-Serif" font-size="10.00" fill="#000000">/src/TRDDigitWriterSpec.cxx</text>
</a>
</g>
</g>
<!-- Node132&#45;&gt;Node145 -->
<g id="edge13" class="edge">
<title>Node132&#45;&gt;Node145</title>
<path fill="none" stroke="#191970" d="M2500.1063,-186.0244C2470.7548,-175.687 2437.6404,-163.928 2407.5,-153 2402.2582,-151.0995 2396.8422,-149.1205 2391.3975,-147.12"/>
<polygon fill="#191970" stroke="#191970" points="2499.3115,-189.455 2509.9064,-189.4724 2501.6348,-182.8518 2499.3115,-189.455"/>
</g>
<!-- Node146 -->
<g id="node15" class="node">
<title>Node146</title>
<g id="a_node15"><a xlink:href="../../d0/dfb/TRDTrackletWriterSpec_8cxx.html" target="_top" xlink:title="/home/travis/build\l/AliceO2Group/AliceO2\l/Detectors/TRD/workflow\l/src/TRDTrackletWriterSpec.cxx">
<polygon fill="none" stroke="#000000" points="2416.5,-95 2416.5,-147 2584.5,-147 2584.5,-95 2416.5,-95"/>
<text text-anchor="start" x="2424.5" y="-135" font-family="Helvetica,sans-Serif" font-size="10.00" fill="#000000">/home/travis/build</text>
<text text-anchor="start" x="2424.5" y="-124" font-family="Helvetica,sans-Serif" font-size="10.00" fill="#000000">/AliceO2Group/AliceO2</text>
<text text-anchor="start" x="2424.5" y="-113" font-family="Helvetica,sans-Serif" font-size="10.00" fill="#000000">/Detectors/TRD/workflow</text>
<text text-anchor="middle" x="2500.5" y="-102" font-family="Helvetica,sans-Serif" font-size="10.00" fill="#000000">/src/TRDTrackletWriterSpec.cxx</text>
</a>
</g>
</g>
<!-- Node132&#45;&gt;Node146 -->
<g id="edge14" class="edge">
<title>Node132&#45;&gt;Node146</title>
<path fill="none" stroke="#191970" d="M2554.5432,-181.7986C2544.4693,-170.4654 2533.3855,-157.9962 2523.8917,-147.3157"/>
<polygon fill="#191970" stroke="#191970" points="2552.0647,-184.2785 2561.3243,-189.4273 2557.2965,-179.6279 2552.0647,-184.2785"/>
</g>
<!-- Node147 -->
<g id="node16" class="node">
<title>Node147</title>
<g id="a_node16"><a xlink:href="../../da/dcf/test__RootTreeWriter_8cxx.html" target="_top" xlink:title="/home/travis/build\l/AliceO2Group/AliceO2\l/Framework/Utils/test\l/test_RootTreeWriter.cxx">
<polygon fill="none" stroke="#000000" points="2602.5,-95 2602.5,-147 2736.5,-147 2736.5,-95 2602.5,-95"/>
<text text-anchor="start" x="2610.5" y="-135" font-family="Helvetica,sans-Serif" font-size="10.00" fill="#000000">/home/travis/build</text>
<text text-anchor="start" x="2610.5" y="-124" font-family="Helvetica,sans-Serif" font-size="10.00" fill="#000000">/AliceO2Group/AliceO2</text>
<text text-anchor="start" x="2610.5" y="-113" font-family="Helvetica,sans-Serif" font-size="10.00" fill="#000000">/Framework/Utils/test</text>
<text text-anchor="middle" x="2669.5" y="-102" font-family="Helvetica,sans-Serif" font-size="10.00" fill="#000000">/test_RootTreeWriter.cxx</text>
</a>
</g>
</g>
<!-- Node132&#45;&gt;Node147 -->
<g id="edge15" class="edge">
<title>Node132&#45;&gt;Node147</title>
<path fill="none" stroke="#191970" d="M2614.8134,-181.7986C2625.0073,-170.4654 2636.223,-157.9962 2645.8298,-147.3157"/>
<polygon fill="#191970" stroke="#191970" points="2612.0369,-179.6518 2607.9516,-189.4273 2617.2414,-184.333 2612.0369,-179.6518"/>
</g>
<!-- Node148 -->
<g id="node17" class="node">
<title>Node148</title>
<g id="a_node17"><a xlink:href="../../d1/d02/test__RootTreeWriterWorkflow_8cxx.html" target="_top" xlink:title="/home/travis/build\l/AliceO2Group/AliceO2\l/Framework/Utils/test\l/test_RootTreeWriterWorkflow.cxx">
<polygon fill="none" stroke="#000000" points="2755,-95 2755,-147 2934,-147 2934,-95 2755,-95"/>
<text text-anchor="start" x="2763" y="-135" font-family="Helvetica,sans-Serif" font-size="10.00" fill="#000000">/home/travis/build</text>
<text text-anchor="start" x="2763" y="-124" font-family="Helvetica,sans-Serif" font-size="10.00" fill="#000000">/AliceO2Group/AliceO2</text>
<text text-anchor="start" x="2763" y="-113" font-family="Helvetica,sans-Serif" font-size="10.00" fill="#000000">/Framework/Utils/test</text>
<text text-anchor="middle" x="2844.5" y="-102" font-family="Helvetica,sans-Serif" font-size="10.00" fill="#000000">/test_RootTreeWriterWorkflow.cxx</text>
</a>
</g>
</g>
<!-- Node132&#45;&gt;Node148 -->
<g id="edge16" class="edge">
<title>Node132&#45;&gt;Node148</title>
<path fill="none" stroke="#191970" d="M2665.7325,-185.9751C2699.9371,-173.543 2739.4096,-159.1963 2772.5488,-147.1515"/>
<polygon fill="#191970" stroke="#191970" points="2664.4373,-182.7218 2656.2344,-189.4273 2666.8285,-189.3007 2664.4373,-182.7218"/>
</g>
<!-- Node149 -->
<g id="node18" class="node">
<title>Node149</title>
<g id="a_node18"><a xlink:href="../../d1/dc0/CPVDigitWriterSpec_8h.html" target="_top" xlink:title="/home/travis/build\l/AliceO2Group/AliceO2\l/Steer/DigitizerWorkflow\l/src/CPVDigitWriterSpec.h">
<polygon fill="none" stroke="#000000" points="2952,-95 2952,-147 3093,-147 3093,-95 2952,-95"/>
<text text-anchor="start" x="2960" y="-135" font-family="Helvetica,sans-Serif" font-size="10.00" fill="#000000">/home/travis/build</text>
<text text-anchor="start" x="2960" y="-124" font-family="Helvetica,sans-Serif" font-size="10.00" fill="#000000">/AliceO2Group/AliceO2</text>
<text text-anchor="start" x="2960" y="-113" font-family="Helvetica,sans-Serif" font-size="10.00" fill="#000000">/Steer/DigitizerWorkflow</text>
<text text-anchor="middle" x="3022.5" y="-102" font-family="Helvetica,sans-Serif" font-size="10.00" fill="#000000">/src/CPVDigitWriterSpec.h</text>
</a>
</g>
</g>
<!-- Node132&#45;&gt;Node149 -->
<g id="edge17" class="edge">
<title>Node132&#45;&gt;Node149</title>
<path fill="none" stroke="#191970" d="M2691.3748,-202.9521C2763.477,-193.0164 2860.2834,-176.8046 2943.5,-153 2949.4754,-151.2907 2955.6165,-149.2809 2961.7081,-147.1153"/>
<polygon fill="#191970" stroke="#191970" points="2690.806,-199.4972 2681.3688,-204.3126 2691.7492,-206.4333 2690.806,-199.4972"/>
</g>
<!-- Node151 -->
<g id="node20" class="node">
<title>Node151</title>
<g id="a_node20"><a xlink:href="../../d9/db2/EMCALDigitWriterSpec_8cxx.html" target="_top" xlink:title="/home/travis/build\l/AliceO2Group/AliceO2\l/Steer/DigitizerWorkflow\l/src/EMCALDigitWriterSpec.cxx">
<polygon fill="none" stroke="#000000" points="3111.5,-95 3111.5,-147 3277.5,-147 3277.5,-95 3111.5,-95"/>
<text text-anchor="start" x="3119.5" y="-135" font-family="Helvetica,sans-Serif" font-size="10.00" fill="#000000">/home/travis/build</text>
<text text-anchor="start" x="3119.5" y="-124" font-family="Helvetica,sans-Serif" font-size="10.00" fill="#000000">/AliceO2Group/AliceO2</text>
<text text-anchor="start" x="3119.5" y="-113" font-family="Helvetica,sans-Serif" font-size="10.00" fill="#000000">/Steer/DigitizerWorkflow</text>
<text text-anchor="middle" x="3194.5" y="-102" font-family="Helvetica,sans-Serif" font-size="10.00" fill="#000000">/src/EMCALDigitWriterSpec.cxx</text>
</a>
</g>
</g>
<!-- Node132&#45;&gt;Node151 -->
<g id="edge19" class="edge">
<title>Node132&#45;&gt;Node151</title>
<path fill="none" stroke="#191970" d="M2691.0622,-209.3481C2796.6032,-201.6912 2962.2917,-185.4455 3102.5,-153 3109.7492,-151.3225 3117.2243,-149.2763 3124.6334,-147.0377"/>
<polygon fill="#191970" stroke="#191970" points="2690.765,-205.8603 2681.0392,-210.0625 2691.2627,-212.8426 2690.765,-205.8603"/>
</g>
<!-- Node152 -->
<g id="node21" class="node">
<title>Node152</title>
<g id="a_node21"><a xlink:href="../../d8/dcd/FDDDigitWriterSpec_8h.html" target="_top" xlink:title="/home/travis/build\l/AliceO2Group/AliceO2\l/Steer/DigitizerWorkflow\l/src/FDDDigitWriterSpec.h">
<polygon fill="none" stroke="#000000" points="3295.5,-95 3295.5,-147 3437.5,-147 3437.5,-95 3295.5,-95"/>
<text text-anchor="start" x="3303.5" y="-135" font-family="Helvetica,sans-Serif" font-size="10.00" fill="#000000">/home/travis/build</text>
<text text-anchor="start" x="3303.5" y="-124" font-family="Helvetica,sans-Serif" font-size="10.00" fill="#000000">/AliceO2Group/AliceO2</text>
<text text-anchor="start" x="3303.5" y="-113" font-family="Helvetica,sans-Serif" font-size="10.00" fill="#000000">/Steer/DigitizerWorkflow</text>
<text text-anchor="middle" x="3366.5" y="-102" font-family="Helvetica,sans-Serif" font-size="10.00" fill="#000000">/src/FDDDigitWriterSpec.h</text>
</a>
</g>
</g>
<!-- Node132&#45;&gt;Node152 -->
<g id="edge20" class="edge">
<title>Node132&#45;&gt;Node152</title>
<path fill="none" stroke="#191970" d="M2691.2173,-209.8122C2858.9323,-200.2296 3176.4384,-179.3108 3286.5,-153 3293.1925,-151.4001 3300.0628,-149.342 3306.8311,-147.042"/>
<polygon fill="#191970" stroke="#191970" points="2690.9147,-206.3236 2681.1293,-210.3852 2691.3118,-213.3123 2690.9147,-206.3236"/>
</g>
<!-- Node153 -->
<g id="node22" class="node">
<title>Node153</title>
<g id="a_node22"><a xlink:href="../../d4/d85/FT0DigitWriterSpec_8h.html" target="_top" xlink:title="/home/travis/build\l/AliceO2Group/AliceO2\l/Steer/DigitizerWorkflow\l/src/FT0DigitWriterSpec.h">
<polygon fill="none" stroke="#000000" points="3456,-95 3456,-147 3595,-147 3595,-95 3456,-95"/>
<text text-anchor="start" x="3464" y="-135" font-family="Helvetica,sans-Serif" font-size="10.00" fill="#000000">/home/travis/build</text>
<text text-anchor="start" x="3464" y="-124" font-family="Helvetica,sans-Serif" font-size="10.00" fill="#000000">/AliceO2Group/AliceO2</text>
<text text-anchor="start" x="3464" y="-113" font-family="Helvetica,sans-Serif" font-size="10.00" fill="#000000">/Steer/DigitizerWorkflow</text>
<text text-anchor="middle" x="3525.5" y="-102" font-family="Helvetica,sans-Serif" font-size="10.00" fill="#000000">/src/FT0DigitWriterSpec.h</text>
</a>
</g>
</g>
<!-- Node132&#45;&gt;Node153 -->
<g id="edge22" class="edge">
<title>Node132&#45;&gt;Node153</title>
<path fill="none" stroke="#191970" d="M2691.25,-211.9159C2889.1961,-204.5823 3305.8188,-185.7351 3446.5,-153 3453.274,-151.4238 3460.2234,-149.3477 3467.0557,-147.0084"/>
<polygon fill="#191970" stroke="#191970" points="2690.9905,-208.423 2681.1259,-212.288 2691.2477,-215.4183 2690.9905,-208.423"/>
</g>
<!-- Node154 -->
<g id="node23" class="node">
<title>Node154</title>
<g id="a_node23"><a xlink:href="../../d3/d12/FV0DigitWriterSpec_8h.html" target="_top" xlink:title="/home/travis/build\l/AliceO2Group/AliceO2\l/Steer/DigitizerWorkflow\l/src/FV0DigitWriterSpec.h">
<polygon fill="none" stroke="#000000" points="3613.5,-95 3613.5,-147 3753.5,-147 3753.5,-95 3613.5,-95"/>
<text text-anchor="start" x="3621.5" y="-135" font-family="Helvetica,sans-Serif" font-size="10.00" fill="#000000">/home/travis/build</text>
<text text-anchor="start" x="3621.5" y="-124" font-family="Helvetica,sans-Serif" font-size="10.00" fill="#000000">/AliceO2Group/AliceO2</text>
<text text-anchor="start" x="3621.5" y="-113" font-family="Helvetica,sans-Serif" font-size="10.00" fill="#000000">/Steer/DigitizerWorkflow</text>
<text text-anchor="middle" x="3683.5" y="-102" font-family="Helvetica,sans-Serif" font-size="10.00" fill="#000000">/src/FV0DigitWriterSpec.h</text>
</a>
</g>
</g>
<!-- Node132&#45;&gt;Node154 -->
<g id="edge24" class="edge">
<title>Node132&#45;&gt;Node154</title>
<path fill="none" stroke="#191970" d="M2691.1948,-213.3182C2916.2934,-208.0047 3433.1393,-191.8653 3604.5,-153 3611.2827,-151.4617 3618.2377,-149.4096 3625.0731,-147.0842"/>
<polygon fill="#191970" stroke="#191970" points="2690.9406,-209.8231 2681.025,-213.5556 2691.104,-216.8212 2690.9406,-209.8231"/>
</g>
<!-- Node155 -->
<g id="node24" class="node">
<title>Node155</title>
<g id="a_node24"><a xlink:href="../../d5/d5b/HMPIDDigitWriterSpec_8h.html" target="_top" xlink:title="/home/travis/build\l/AliceO2Group/AliceO2\l/Steer/DigitizerWorkflow\l/src/HMPIDDigitWriterSpec.h">
<polygon fill="none" stroke="#000000" points="3771.5,-95 3771.5,-147 3925.5,-147 3925.5,-95 3771.5,-95"/>
<text text-anchor="start" x="3779.5" y="-135" font-family="Helvetica,sans-Serif" font-size="10.00" fill="#000000">/home/travis/build</text>
<text text-anchor="start" x="3779.5" y="-124" font-family="Helvetica,sans-Serif" font-size="10.00" fill="#000000">/AliceO2Group/AliceO2</text>
<text text-anchor="start" x="3779.5" y="-113" font-family="Helvetica,sans-Serif" font-size="10.00" fill="#000000">/Steer/DigitizerWorkflow</text>
<text text-anchor="middle" x="3848.5" y="-102" font-family="Helvetica,sans-Serif" font-size="10.00" fill="#000000">/src/HMPIDDigitWriterSpec.h</text>
</a>
</g>
</g>
<!-- Node132&#45;&gt;Node155 -->
<g id="edge26" class="edge">
<title>Node132&#45;&gt;Node155</title>
<path fill="none" stroke="#191970" d="M2691.4042,-213.9611C2941.6525,-209.6912 3559.644,-195.0961 3762.5,-153 3769.8312,-151.4786 3777.3693,-149.4373 3784.7911,-147.1182"/>
<polygon fill="#191970" stroke="#191970" points="2691.1515,-210.4647 2681.2119,-214.1327 2691.2695,-217.4637 2691.1515,-210.4647"/>
</g>
<!-- Node156 -->
<g id="node25" class="node">
<title>Node156</title>
<g id="a_node25"><a xlink:href="../../df/d17/ITSMFTDigitWriterSpec_8cxx.html" target="_top" xlink:title="/home/travis/build\l/AliceO2Group/AliceO2\l/Steer/DigitizerWorkflow\l/src/ITSMFTDigitWriterSpec.cxx">
<polygon fill="none" stroke="#000000" points="3944,-95 3944,-147 4111,-147 4111,-95 3944,-95"/>
<text text-anchor="start" x="3952" y="-135" font-family="Helvetica,sans-Serif" font-size="10.00" fill="#000000">/home/travis/build</text>
<text text-anchor="start" x="3952" y="-124" font-family="Helvetica,sans-Serif" font-size="10.00" fill="#000000">/AliceO2Group/AliceO2</text>
<text text-anchor="start" x="3952" y="-113" font-family="Helvetica,sans-Serif" font-size="10.00" fill="#000000">/Steer/DigitizerWorkflow</text>
<text text-anchor="middle" x="4027.5" y="-102" font-family="Helvetica,sans-Serif" font-size="10.00" fill="#000000">/src/ITSMFTDigitWriterSpec.cxx</text>
</a>
</g>
</g>
<!-- Node132&#45;&gt;Node156 -->
<g id="edge28" class="edge">
<title>Node132&#45;&gt;Node156</title>
<path fill="none" stroke="#191970" d="M2691.3995,-214.4739C2967.0683,-211.1997 3697.0406,-198.3801 3934.5,-153 3942.5503,-151.4615 3950.8512,-149.375 3959.0258,-147"/>
<polygon fill="#191970" stroke="#191970" points="2691.3477,-210.9741 2681.3894,-214.5909 2691.4296,-217.9737 2691.3477,-210.9741"/>
</g>
<!-- Node157 -->
<g id="node26" class="node">
<title>Node157</title>
<g id="a_node26"><a xlink:href="../../d8/d60/MCHDigitWriterSpec_8h.html" target="_top" xlink:title="/home/travis/build\l/AliceO2Group/AliceO2\l/Steer/DigitizerWorkflow\l/src/MCHDigitWriterSpec.h">
<polygon fill="none" stroke="#000000" points="4129.5,-95 4129.5,-147 4273.5,-147 4273.5,-95 4129.5,-95"/>
<text text-anchor="start" x="4137.5" y="-135" font-family="Helvetica,sans-Serif" font-size="10.00" fill="#000000">/home/travis/build</text>
<text text-anchor="start" x="4137.5" y="-124" font-family="Helvetica,sans-Serif" font-size="10.00" fill="#000000">/AliceO2Group/AliceO2</text>
<text text-anchor="start" x="4137.5" y="-113" font-family="Helvetica,sans-Serif" font-size="10.00" fill="#000000">/Steer/DigitizerWorkflow</text>
<text text-anchor="middle" x="4201.5" y="-102" font-family="Helvetica,sans-Serif" font-size="10.00" fill="#000000">/src/MCHDigitWriterSpec.h</text>
</a>
</g>
</g>
<!-- Node132&#45;&gt;Node157 -->
<g id="edge29" class="edge">
<title>Node132&#45;&gt;Node157</title>
<path fill="none" stroke="#191970" d="M2691.5744,-213.2164C3017.2134,-205.982 3981.9437,-182.3085 4120.5,-153 4127.6005,-151.498 4134.886,-149.4343 4142.0375,-147.0723"/>
<polygon fill="#191970" stroke="#191970" points="2691.1142,-209.7256 2681.1942,-213.4462 2691.2692,-216.7239 2691.1142,-209.7256"/>
</g>
<!-- Node158 -->
<g id="node27" class="node">
<title>Node158</title>
<g id="a_node27"><a xlink:href="../../d9/d65/MIDDigitWriterSpec_8h.html" target="_top" xlink:title="/home/travis/build\l/AliceO2Group/AliceO2\l/Steer/DigitizerWorkflow\l/src/MIDDigitWriterSpec.h">
<polygon fill="none" stroke="#000000" points="4291.5,-95 4291.5,-147 4431.5,-147 4431.5,-95 4291.5,-95"/>
<text text-anchor="start" x="4299.5" y="-135" font-family="Helvetica,sans-Serif" font-size="10.00" fill="#000000">/home/travis/build</text>
<text text-anchor="start" x="4299.5" y="-124" font-family="Helvetica,sans-Serif" font-size="10.00" fill="#000000">/AliceO2Group/AliceO2</text>
<text text-anchor="start" x="4299.5" y="-113" font-family="Helvetica,sans-Serif" font-size="10.00" fill="#000000">/Steer/DigitizerWorkflow</text>
<text text-anchor="middle" x="4361.5" y="-102" font-family="Helvetica,sans-Serif" font-size="10.00" fill="#000000">/src/MIDDigitWriterSpec.h</text>
</a>
</g>
</g>
<!-- Node132&#45;&gt;Node158 -->
<g id="edge31" class="edge">
<title>Node132&#45;&gt;Node158</title>
<path fill="none" stroke="#191970" d="M2691.357,-213.7211C3039.5244,-207.6261 4127.762,-186.1151 4282.5,-153 4289.4456,-151.5136 4296.564,-149.4596 4303.5462,-147.1031"/>
<polygon fill="#191970" stroke="#191970" points="2691.2111,-210.223 2681.2737,-213.8969 2691.3332,-217.2219 2691.2111,-210.223"/>
</g>
<!-- Node159 -->
<g id="node28" class="node">
<title>Node159</title>
<g id="a_node28"><a xlink:href="../../d4/d33/PHOSDigitWriterSpec_8h.html" target="_top" xlink:title="/home/travis/build\l/AliceO2Group/AliceO2\l/Steer/DigitizerWorkflow\l/src/PHOSDigitWriterSpec.h">
<polygon fill="none" stroke="#000000" points="4450,-95 4450,-147 4599,-147 4599,-95 4450,-95"/>
<text text-anchor="start" x="4458" y="-135" font-family="Helvetica,sans-Serif" font-size="10.00" fill="#000000">/home/travis/build</text>
<text text-anchor="start" x="4458" y="-124" font-family="Helvetica,sans-Serif" font-size="10.00" fill="#000000">/AliceO2Group/AliceO2</text>
<text text-anchor="start" x="4458" y="-113" font-family="Helvetica,sans-Serif" font-size="10.00" fill="#000000">/Steer/DigitizerWorkflow</text>
<text text-anchor="middle" x="4524.5" y="-102" font-family="Helvetica,sans-Serif" font-size="10.00" fill="#000000">/src/PHOSDigitWriterSpec.h</text>
</a>
</g>
</g>
<!-- Node132&#45;&gt;Node159 -->
<g id="edge33" class="edge">
<title>Node132&#45;&gt;Node159</title>
<path fill="none" stroke="#191970" d="M2691.3453,-213.9548C3060.5766,-208.3317 4269.4574,-187.462 4440.5,-153 4447.8432,-151.5205 4455.3858,-149.4708 4462.7949,-147.1167"/>
<polygon fill="#191970" stroke="#191970" points="2691.1408,-210.4574 2681.1951,-214.1088 2691.247,-217.4566 2691.1408,-210.4574"/>
</g>
<!-- Node160 -->
<g id="node29" class="node">
<title>Node160</title>
<g id="a_node29"><a xlink:href="../../d9/d31/ZDCDigitWriterSpec_8h.html" target="_top" xlink:title="/home/travis/build\l/AliceO2Group/AliceO2\l/Steer/DigitizerWorkflow\l/src/ZDCDigitWriterSpec.h">
<polygon fill="none" stroke="#000000" points="4617,-95 4617,-147 4760,-147 4760,-95 4617,-95"/>
<text text-anchor="start" x="4625" y="-135" font-family="Helvetica,sans-Serif" font-size="10.00" fill="#000000">/home/travis/build</text>
<text text-anchor="start" x="4625" y="-124" font-family="Helvetica,sans-Serif" font-size="10.00" fill="#000000">/AliceO2Group/AliceO2</text>
<text text-anchor="start" x="4625" y="-113" font-family="Helvetica,sans-Serif" font-size="10.00" fill="#000000">/Steer/DigitizerWorkflow</text>
<text text-anchor="middle" x="4688.5" y="-102" font-family="Helvetica,sans-Serif" font-size="10.00" fill="#000000">/src/ZDCDigitWriterSpec.h</text>
</a>
</g>
</g>
<!-- Node132&#45;&gt;Node160 -->
<g id="edge35" class="edge">
<title>Node132&#45;&gt;Node160</title>
<path fill="none" stroke="#191970" d="M2691.2926,-214.3795C3082.004,-209.981 4420.7235,-192.1774 4608.5,-153 4615.5289,-151.5335 4622.7344,-149.4919 4629.8033,-147.1425"/>
<polygon fill="#191970" stroke="#191970" points="2691.0846,-210.8815 2681.1244,-214.4933 2691.163,-217.8811 2691.0846,-210.8815"/>
</g>
<!-- Node161 -->
<g id="node30" class="node">
<title>Node161</title>
<g id="a_node30"><a xlink:href="../../d8/dd2/TPCDigitRootWriterSpec_8cxx.html" target="_top" xlink:title="/home/travis/build\l/AliceO2Group/AliceO2\l/Steer/DigitizerWorkflow\l/src/TPCDigitRootWriterSpec.cxx">
<polygon fill="none" stroke="#000000" points="4778,-95 4778,-147 4951,-147 4951,-95 4778,-95"/>
<text text-anchor="start" x="4786" y="-135" font-family="Helvetica,sans-Serif" font-size="10.00" fill="#000000">/home/travis/build</text>
<text text-anchor="start" x="4786" y="-124" font-family="Helvetica,sans-Serif" font-size="10.00" fill="#000000">/AliceO2Group/AliceO2</text>
<text text-anchor="start" x="4786" y="-113" font-family="Helvetica,sans-Serif" font-size="10.00" fill="#000000">/Steer/DigitizerWorkflow</text>
<text text-anchor="middle" x="4864.5" y="-102" font-family="Helvetica,sans-Serif" font-size="10.00" fill="#000000">/src/TPCDigitRootWriterSpec.cxx</text>
</a>
</g>
</g>
<!-- Node132&#45;&gt;Node161 -->
<g id="edge37" class="edge">
<title>Node132&#45;&gt;Node161</title>
<path fill="none" stroke="#191970" d="M2691.3304,-214.2987C3101.7183,-209.43 4564.2877,-189.6539 4769.5,-153 4777.8092,-151.5158 4786.3798,-149.4455 4794.8145,-147.0643"/>
<polygon fill="#191970" stroke="#191970" points="2691.2057,-210.7998 2681.2477,-214.4178 2691.2884,-217.7993 2691.2057,-210.7998"/>
</g>
<!-- Node150 -->
<g id="node19" class="node">
<title>Node150</title>
<g id="a_node19"><a xlink:href="../../d2/dd7/SimpleDigitizerWorkflow_8cxx.html" target="_top" xlink:title="/home/travis/build\l/AliceO2Group/AliceO2\l/Steer/DigitizerWorkflow\l/src/SimpleDigitizerWorkflow.cxx">
<polygon fill="none" stroke="#000000" points="3760.5,-.5 3760.5,-52.5 3936.5,-52.5 3936.5,-.5 3760.5,-.5"/>
<text text-anchor="start" x="3768.5" y="-40.5" font-family="Helvetica,sans-Serif" font-size="10.00" fill="#000000">/home/travis/build</text>
<text text-anchor="start" x="3768.5" y="-29.5" font-family="Helvetica,sans-Serif" font-size="10.00" fill="#000000">/AliceO2Group/AliceO2</text>
<text text-anchor="start" x="3768.5" y="-18.5" font-family="Helvetica,sans-Serif" font-size="10.00" fill="#000000">/Steer/DigitizerWorkflow</text>
<text text-anchor="middle" x="3848.5" y="-7.5" font-family="Helvetica,sans-Serif" font-size="10.00" fill="#000000">/src/SimpleDigitizerWorkflow.cxx</text>
</a>
</g>
</g>
<!-- Node149&#45;&gt;Node150 -->
<g id="edge18" class="edge">
<title>Node149&#45;&gt;Node150</title>
<path fill="none" stroke="#191970" d="M3091.7198,-91.8826C3095.3351,-90.8124 3098.9424,-89.8407 3102.5,-89 3225.2688,-59.9895 3590.8112,-39.0376 3760.3419,-30.6043"/>
<polygon fill="#191970" stroke="#191970" points="3090.6294,-88.5566 3082.1605,-94.9228 3092.751,-95.2273 3090.6294,-88.5566"/>
</g>
<!-- Node152&#45;&gt;Node150 -->
<g id="edge21" class="edge">
<title>Node152&#45;&gt;Node150</title>
<path fill="none" stroke="#191970" d="M3437.9854,-91.7858C3441.1816,-90.788 3444.363,-89.8528 3447.5,-89 3553.0562,-60.3052 3678.0624,-43.4281 3760.1069,-34.5883"/>
<polygon fill="#191970" stroke="#191970" points="3436.786,-88.4958 3428.3819,-94.9473 3438.9749,-95.1448 3436.786,-88.4958"/>
</g>
<!-- Node153&#45;&gt;Node150 -->
<g id="edge23" class="edge">
<title>Node153&#45;&gt;Node150</title>
<path fill="none" stroke="#191970" d="M3597.2259,-91.4695C3599.6719,-90.615 3602.1016,-89.789 3604.5,-89 3655.489,-72.2266 3713.679,-57.1691 3760.4414,-46.0384"/>
<polygon fill="#191970" stroke="#191970" points="3595.9613,-88.2048 3587.7412,-94.8891 3598.3355,-94.7899 3595.9613,-88.2048"/>
</g>
<!-- Node154&#45;&gt;Node150 -->
<g id="edge25" class="edge">
<title>Node154&#45;&gt;Node150</title>
<path fill="none" stroke="#191970" d="M3737.8521,-89.8711C3758.8919,-77.821 3782.7067,-64.1816 3802.8387,-52.6515"/>
<polygon fill="#191970" stroke="#191970" points="3735.9619,-86.9202 3729.0238,-94.9273 3739.4408,-92.9945 3735.9619,-86.9202"/>
</g>
<!-- Node155&#45;&gt;Node150 -->
<g id="edge27" class="edge">
<title>Node155&#45;&gt;Node150</title>
<path fill="none" stroke="#191970" d="M3848.5,-84.6645C3848.5,-74.0577 3848.5,-62.6746 3848.5,-52.8157"/>
<polygon fill="#191970" stroke="#191970" points="3845.0001,-84.9273 3848.5,-94.9273 3852.0001,-84.9273 3845.0001,-84.9273"/>
</g>
<!-- Node157&#45;&gt;Node150 -->
<g id="edge30" class="edge">
<title>Node157&#45;&gt;Node150</title>
<path fill="none" stroke="#191970" d="M4128.4399,-91.5634C4125.77,-90.6706 4123.1173,-89.8126 4120.5,-89 4059.9972,-70.2146 3990.3438,-54.3146 3936.6696,-43.2529"/>
<polygon fill="#191970" stroke="#191970" points="4127.556,-94.9613 4138.1508,-94.9298 4129.8488,-88.3474 4127.556,-94.9613"/>
</g>
<!-- Node158&#45;&gt;Node150 -->
<g id="edge32" class="edge">
<title>Node158&#45;&gt;Node150</title>
<path fill="none" stroke="#191970" d="M4291.5164,-91.6367C4288.4895,-90.6892 4285.4754,-89.8041 4282.5,-89 4165.1026,-57.2734 4025.2208,-40.8052 3936.6313,-32.9068"/>
<polygon fill="#191970" stroke="#191970" points="4290.6016,-95.0208 4301.1951,-94.8528 4292.809,-88.378 4290.6016,-95.0208"/>
</g>
<!-- Node159&#45;&gt;Node150 -->
<g id="edge34" class="edge">
<title>Node159&#45;&gt;Node150</title>
<path fill="none" stroke="#191970" d="M4451.5083,-91.9233C4447.8119,-90.8514 4444.1286,-89.8672 4440.5,-89 4264.9697,-47.0515 4053.4505,-33.2503 3936.7147,-28.7149"/>
<polygon fill="#191970" stroke="#191970" points="4450.7066,-95.3388 4461.2941,-94.9453 4452.7721,-88.6505 4450.7066,-95.3388"/>
</g>
<!-- Node160&#45;&gt;Node150 -->
<g id="edge36" class="edge">
<title>Node160&#45;&gt;Node150</title>
<path fill="none" stroke="#191970" d="M4619.2818,-91.8759C4615.6661,-90.8075 4612.0582,-89.8379 4608.5,-89 4483.0179,-59.4498 4108.621,-38.6892 3936.6495,-30.4465"/>
<polygon fill="#191970" stroke="#191970" points="4618.2516,-95.2209 4628.8419,-94.9124 4620.3707,-88.5494 4618.2516,-95.2209"/>
</g>
</g>
</svg>
