<?xml version="1.0" encoding="UTF-8" standalone="no"?>
<!DOCTYPE svg PUBLIC "-//W3C//DTD SVG 1.1//EN"
 "http://www.w3.org/Graphics/SVG/1.1/DTD/svg11.dtd">
<!-- Generated by graphviz version 2.40.1 (20161225.0304)
 -->
<!-- Title: CTask Pages: 1 -->
<svg width="1261pt" height="860pt"
 viewBox="0.00 0.00 1261.00 860.00" xmlns="http://www.w3.org/2000/svg" xmlns:xlink="http://www.w3.org/1999/xlink">
<g id="graph0" class="graph" transform="scale(1 1) rotate(0) translate(4 856)">
<title>CTask</title>
<!-- Node1 -->
<g id="node1" class="node">
<title>Node1</title>
<polygon fill="#bfbfbf" stroke="#000000" points="254.5,-.5 254.5,-101.5 327.5,-101.5 327.5,-.5 254.5,-.5"/>
<text text-anchor="middle" x="291" y="-89.5" font-family="Helvetica,sans-Serif" font-size="10.00" fill="#000000">CTask</text>
<polyline fill="none" stroke="#000000" points="254.5,-82.5 327.5,-82.5 "/>
<text text-anchor="middle" x="291" y="-70.5" font-family="Helvetica,sans-Serif" font-size="10.00" fill="#000000"> </text>
<polyline fill="none" stroke="#000000" points="254.5,-63.5 327.5,-63.5 "/>
<text text-anchor="start" x="262.5" y="-51.5" font-family="Helvetica,sans-Serif" font-size="10.00" fill="#000000">+ process()</text>
<text text-anchor="start" x="262.5" y="-40.5" font-family="Helvetica,sans-Serif" font-size="10.00" fill="#000000">+ init()</text>
<text text-anchor="start" x="262.5" y="-29.5" font-family="Helvetica,sans-Serif" font-size="10.00" fill="#000000">+ process()</text>
<text text-anchor="start" x="262.5" y="-18.5" font-family="Helvetica,sans-Serif" font-size="10.00" fill="#000000">+ process()</text>
<text text-anchor="start" x="262.5" y="-7.5" font-family="Helvetica,sans-Serif" font-size="10.00" fill="#000000">+ process()</text>
</g>
<!-- Node2 -->
<g id="node2" class="node">
<title>Node2</title>
<g id="a_node2"><a xlink:href="../../d8/d71/structo2_1_1framework_1_1Configurable.html" target="_top" xlink:title="{o2::framework::Configurable\l\&lt; float \&gt;\n||+ Configurable()\l+ operator float()\l+ operator&#45;\&gt;()\l}">
<polygon fill="none" stroke="#000000" points="150.5,-419.5 150.5,-509.5 305.5,-509.5 305.5,-419.5 150.5,-419.5"/>
<text text-anchor="start" x="158.5" y="-497.5" font-family="Helvetica,sans-Serif" font-size="10.00" fill="#000000">o2::framework::Configurable</text>
<text text-anchor="middle" x="228" y="-486.5" font-family="Helvetica,sans-Serif" font-size="10.00" fill="#000000">&lt; float &gt;</text>
<polyline fill="none" stroke="#000000" points="150.5,-479.5 305.5,-479.5 "/>
<text text-anchor="middle" x="228" y="-467.5" font-family="Helvetica,sans-Serif" font-size="10.00" fill="#000000"> </text>
<polyline fill="none" stroke="#000000" points="150.5,-460.5 305.5,-460.5 "/>
<text text-anchor="start" x="158.5" y="-448.5" font-family="Helvetica,sans-Serif" font-size="10.00" fill="#000000">+ Configurable()</text>
<text text-anchor="start" x="158.5" y="-437.5" font-family="Helvetica,sans-Serif" font-size="10.00" fill="#000000">+ operator float()</text>
<text text-anchor="start" x="158.5" y="-426.5" font-family="Helvetica,sans-Serif" font-size="10.00" fill="#000000">+ operator&#45;&gt;()</text>
</a>
</g>
</g>
<!-- Node2&#45;&gt;Node1 -->
<g id="edge1" class="edge">
<title>Node2&#45;&gt;Node1</title>
<path fill="none" stroke="#404040" d="M234.862,-419.4611C246.139,-345.4448 268.6164,-197.9146 281.4442,-113.7192"/>
<polygon fill="none" stroke="#404040" points="281.4568,-113.6359 278.4062,-107.1018 283.2644,-101.7728 286.315,-108.3068 281.4568,-113.6359"/>
<text text-anchor="middle" x="292" y="-252.5" font-family="Helvetica,sans-Serif" font-size="10.00" fill="#000000"> +pTCut</text>
</g>
<!-- Node3 -->
<g id="node3" class="node">
<title>Node3</title>
<g id="a_node3"><a xlink:href="../../d4/dc3/classfloat.html" target="_top" xlink:title="{float\n||}">
<polygon fill="none" stroke="#000000" points="278,-618 278,-675 316,-675 316,-618 278,-618"/>
<text text-anchor="middle" x="297" y="-663" font-family="Helvetica,sans-Serif" font-size="10.00" fill="#000000">float</text>
<polyline fill="none" stroke="#000000" points="278,-656 316,-656 "/>
<text text-anchor="middle" x="297" y="-644" font-family="Helvetica,sans-Serif" font-size="10.00" fill="#000000"> </text>
<polyline fill="none" stroke="#000000" points="278,-637 316,-637 "/>
<text text-anchor="middle" x="297" y="-625" font-family="Helvetica,sans-Serif" font-size="10.00" fill="#000000"> </text>
</a>
</g>
</g>
<!-- Node3&#45;&gt;Node2 -->
<g id="edge2" class="edge">
<title>Node3&#45;&gt;Node2</title>
<path fill="none" stroke="#404040" d="M286.0667,-617.6616C276.252,-591.7734 261.5629,-553.0282 249.4148,-520.9855"/>
<polygon fill="none" stroke="#404040" points="249.322,-520.7405 243.4548,-516.5482 245.0679,-509.5198 250.9352,-513.7121 249.322,-520.7405"/>
<text text-anchor="middle" x="288.5" y="-564" font-family="Helvetica,sans-Serif" font-size="10.00" fill="#000000"> +value</text>
</g>
<!-- Node4 -->
<g id="node4" class="node">
<title>Node4</title>
<polygon fill="none" stroke="#bfbfbf" points="684.5,-778 684.5,-835 713.5,-835 713.5,-778 684.5,-778"/>
<text text-anchor="middle" x="699" y="-823" font-family="Helvetica,sans-Serif" font-size="10.00" fill="#000000">int</text>
<polyline fill="none" stroke="#bfbfbf" points="684.5,-816 713.5,-816 "/>
<text text-anchor="middle" x="699" y="-804" font-family="Helvetica,sans-Serif" font-size="10.00" fill="#000000"> </text>
<polyline fill="none" stroke="#bfbfbf" points="684.5,-797 713.5,-797 "/>
<text text-anchor="middle" x="699" y="-785" font-family="Helvetica,sans-Serif" font-size="10.00" fill="#000000"> </text>
</g>
<!-- Node4&#45;&gt;Node2 -->
<g id="edge3" class="edge">
<title>Node4&#45;&gt;Node2</title>
<path fill="none" stroke="#404040" d="M684.0827,-805.6268C610.6183,-800.99 288.4333,-776.6287 229,-703 207.3754,-676.2105 213.4228,-583.5878 220.3164,-521.9643"/>
<polygon fill="none" stroke="#404040" points="220.3563,-521.6205 217.0772,-515.198 221.7444,-509.701 225.0235,-516.1234 220.3563,-521.6205"/>
<text text-anchor="middle" x="249" y="-649.5" font-family="Helvetica,sans-Serif" font-size="10.00" fill="#000000"> +name</text>
<text text-anchor="middle" x="249" y="-638.5" font-family="Helvetica,sans-Serif" font-size="10.00" fill="#000000">+help</text>
</g>
<!-- Node5 -->
<g id="node5" class="node">
<title>Node5</title>
<g id="a_node5"><a xlink:href="../../d8/d71/structo2_1_1framework_1_1Configurable.html" target="_top" xlink:title="{o2::framework::Configurable\&lt; T \&gt;\n||+ Configurable()\l+ operator T()\l+ operator&#45;\&gt;()\l}">
<polygon fill="none" stroke="#000000" points="0,-607 0,-686 184,-686 184,-607 0,-607"/>
<text text-anchor="middle" x="92" y="-674" font-family="Helvetica,sans-Serif" font-size="10.00" fill="#000000">o2::framework::Configurable&lt; T &gt;</text>
<polyline fill="none" stroke="#000000" points="0,-667 184,-667 "/>
<text text-anchor="middle" x="92" y="-655" font-family="Helvetica,sans-Serif" font-size="10.00" fill="#000000"> </text>
<polyline fill="none" stroke="#000000" points="0,-648 184,-648 "/>
<text text-anchor="start" x="8" y="-636" font-family="Helvetica,sans-Serif" font-size="10.00" fill="#000000">+ Configurable()</text>
<text text-anchor="start" x="8" y="-625" font-family="Helvetica,sans-Serif" font-size="10.00" fill="#000000">+ operator T()</text>
<text text-anchor="start" x="8" y="-614" font-family="Helvetica,sans-Serif" font-size="10.00" fill="#000000">+ operator&#45;&gt;()</text>
</a>
</g>
</g>
<!-- Node4&#45;&gt;Node5 -->
<g id="edge5" class="edge">
<title>Node4&#45;&gt;Node5</title>
<path fill="none" stroke="#404040" d="M684.3297,-806.269C608.2088,-804.847 258.2189,-795.5065 166,-743 146.8289,-732.0846 130.9793,-714.0026 118.9337,-696.4229"/>
<polygon fill="none" stroke="#404040" points="118.8222,-696.2512 112.1991,-693.3989 112.2846,-686.1883 118.9077,-689.0406 118.8222,-696.2512"/>
<text text-anchor="middle" x="186" y="-735" font-family="Helvetica,sans-Serif" font-size="10.00" fill="#000000"> +name</text>
<text text-anchor="middle" x="186" y="-724" font-family="Helvetica,sans-Serif" font-size="10.00" fill="#000000">+help</text>
</g>
<!-- Node7 -->
<g id="node7" class="node">
<title>Node7</title>
<g id="a_node7"><a xlink:href="../../d4/d79/structo2_1_1framework_1_1OutputObj.html" target="_top" xlink:title="{o2::framework::OutputObj\l\&lt; TH1F \&gt;\n||+ spec()\l+ OutputObj()\l+ OutputObj()\l+ setObject()\l+ setObject()\l+ setObject()\l+ setHash()\l+ operator&#45;\&gt;()\l+ operator*()\l+ ref()\l}">
<polygon fill="none" stroke="#000000" points="593.5,-171.5 593.5,-338.5 736.5,-338.5 736.5,-171.5 593.5,-171.5"/>
<text text-anchor="start" x="601.5" y="-326.5" font-family="Helvetica,sans-Serif" font-size="10.00" fill="#000000">o2::framework::OutputObj</text>
<text text-anchor="middle" x="665" y="-315.5" font-family="Helvetica,sans-Serif" font-size="10.00" fill="#000000">&lt; TH1F &gt;</text>
<polyline fill="none" stroke="#000000" points="593.5,-308.5 736.5,-308.5 "/>
<text text-anchor="middle" x="665" y="-296.5" font-family="Helvetica,sans-Serif" font-size="10.00" fill="#000000"> </text>
<polyline fill="none" stroke="#000000" points="593.5,-289.5 736.5,-289.5 "/>
<text text-anchor="start" x="601.5" y="-277.5" font-family="Helvetica,sans-Serif" font-size="10.00" fill="#000000">+ spec()</text>
<text text-anchor="start" x="601.5" y="-266.5" font-family="Helvetica,sans-Serif" font-size="10.00" fill="#000000">+ OutputObj()</text>
<text text-anchor="start" x="601.5" y="-255.5" font-family="Helvetica,sans-Serif" font-size="10.00" fill="#000000">+ OutputObj()</text>
<text text-anchor="start" x="601.5" y="-244.5" font-family="Helvetica,sans-Serif" font-size="10.00" fill="#000000">+ setObject()</text>
<text text-anchor="start" x="601.5" y="-233.5" font-family="Helvetica,sans-Serif" font-size="10.00" fill="#000000">+ setObject()</text>
<text text-anchor="start" x="601.5" y="-222.5" font-family="Helvetica,sans-Serif" font-size="10.00" fill="#000000">+ setObject()</text>
<text text-anchor="start" x="601.5" y="-211.5" font-family="Helvetica,sans-Serif" font-size="10.00" fill="#000000">+ setHash()</text>
<text text-anchor="start" x="601.5" y="-200.5" font-family="Helvetica,sans-Serif" font-size="10.00" fill="#000000">+ operator&#45;&gt;()</text>
<text text-anchor="start" x="601.5" y="-189.5" font-family="Helvetica,sans-Serif" font-size="10.00" fill="#000000">+ operator*()</text>
<text text-anchor="start" x="601.5" y="-178.5" font-family="Helvetica,sans-Serif" font-size="10.00" fill="#000000">+ ref()</text>
</a>
</g>
</g>
<!-- Node4&#45;&gt;Node7 -->
<g id="edge10" class="edge">
<title>Node4&#45;&gt;Node7</title>
<path fill="none" stroke="#404040" d="M713.5938,-795.8649C778.0418,-747.5892 1029.6673,-544.5754 931,-386 891.336,-322.253 810.5266,-288.6217 748.3297,-271.4821"/>
<polygon fill="none" stroke="#404040" points="748.1539,-271.4357 741.3311,-273.7702 736.552,-268.3701 743.3748,-266.0356 748.1539,-271.4357"/>
<text text-anchor="middle" x="946" y="-564" font-family="Helvetica,sans-Serif" font-size="10.00" fill="#000000"> +label</text>
</g>
<!-- Node11 -->
<g id="node11" class="node">
<title>Node11</title>
<g id="a_node11"><a xlink:href="../../da/d96/structo2_1_1framework_1_1InputSpec.html" target="_top" xlink:title="{o2::framework::InputSpec\n||+ InputSpec()\l+ InputSpec()\l+ InputSpec()\l+ InputSpec()\l+ InputSpec()\l+ operator==()\l}">
<polygon fill="none" stroke="#000000" points="951,-590.5 951,-702.5 1093,-702.5 1093,-590.5 951,-590.5"/>
<text text-anchor="middle" x="1022" y="-690.5" font-family="Helvetica,sans-Serif" font-size="10.00" fill="#000000">o2::framework::InputSpec</text>
<polyline fill="none" stroke="#000000" points="951,-683.5 1093,-683.5 "/>
<text text-anchor="middle" x="1022" y="-671.5" font-family="Helvetica,sans-Serif" font-size="10.00" fill="#000000"> </text>
<polyline fill="none" stroke="#000000" points="951,-664.5 1093,-664.5 "/>
<text text-anchor="start" x="959" y="-652.5" font-family="Helvetica,sans-Serif" font-size="10.00" fill="#000000">+ InputSpec()</text>
<text text-anchor="start" x="959" y="-641.5" font-family="Helvetica,sans-Serif" font-size="10.00" fill="#000000">+ InputSpec()</text>
<text text-anchor="start" x="959" y="-630.5" font-family="Helvetica,sans-Serif" font-size="10.00" fill="#000000">+ InputSpec()</text>
<text text-anchor="start" x="959" y="-619.5" font-family="Helvetica,sans-Serif" font-size="10.00" fill="#000000">+ InputSpec()</text>
<text text-anchor="start" x="959" y="-608.5" font-family="Helvetica,sans-Serif" font-size="10.00" fill="#000000">+ InputSpec()</text>
<text text-anchor="start" x="959" y="-597.5" font-family="Helvetica,sans-Serif" font-size="10.00" fill="#000000">+ operator==()</text>
</a>
</g>
</g>
<!-- Node4&#45;&gt;Node11 -->
<g id="edge15" class="edge">
<title>Node4&#45;&gt;Node11</title>
<path fill="none" stroke="#404040" d="M713.6038,-805.3927C752.2798,-801.8908 859.4937,-788.442 934,-743 947.7285,-734.6269 960.6044,-723.4867 972.0465,-711.7552"/>
<polygon fill="none" stroke="#404040" points="972.3122,-711.471 973.4876,-704.3563 980.5071,-702.7049 979.3317,-709.8196 972.3122,-711.471"/>
<text text-anchor="middle" x="986" y="-729.5" font-family="Helvetica,sans-Serif" font-size="10.00" fill="#000000"> +binding</text>
</g>
<!-- Node15 -->
<g id="node15" class="node">
<title>Node15</title>
<g id="a_node15"><a xlink:href="../../d4/d79/structo2_1_1framework_1_1OutputObj.html" target="_top" xlink:title="{o2::framework::OutputObj\&lt; T \&gt;\n||+ OutputObj()\l+ OutputObj()\l+ setObject()\l+ setObject()\l+ setObject()\l+ setHash()\l+ spec()\l+ operator&#45;\&gt;()\l+ operator*()\l+ ref()\l}">
<polygon fill="none" stroke="#000000" points="518,-386.5 518,-542.5 690,-542.5 690,-386.5 518,-386.5"/>
<text text-anchor="middle" x="604" y="-530.5" font-family="Helvetica,sans-Serif" font-size="10.00" fill="#000000">o2::framework::OutputObj&lt; T &gt;</text>
<polyline fill="none" stroke="#000000" points="518,-523.5 690,-523.5 "/>
<text text-anchor="middle" x="604" y="-511.5" font-family="Helvetica,sans-Serif" font-size="10.00" fill="#000000"> </text>
<polyline fill="none" stroke="#000000" points="518,-504.5 690,-504.5 "/>
<text text-anchor="start" x="526" y="-492.5" font-family="Helvetica,sans-Serif" font-size="10.00" fill="#000000">+ OutputObj()</text>
<text text-anchor="start" x="526" y="-481.5" font-family="Helvetica,sans-Serif" font-size="10.00" fill="#000000">+ OutputObj()</text>
<text text-anchor="start" x="526" y="-470.5" font-family="Helvetica,sans-Serif" font-size="10.00" fill="#000000">+ setObject()</text>
<text text-anchor="start" x="526" y="-459.5" font-family="Helvetica,sans-Serif" font-size="10.00" fill="#000000">+ setObject()</text>
<text text-anchor="start" x="526" y="-448.5" font-family="Helvetica,sans-Serif" font-size="10.00" fill="#000000">+ setObject()</text>
<text text-anchor="start" x="526" y="-437.5" font-family="Helvetica,sans-Serif" font-size="10.00" fill="#000000">+ setHash()</text>
<text text-anchor="start" x="526" y="-426.5" font-family="Helvetica,sans-Serif" font-size="10.00" fill="#000000">+ spec()</text>
<text text-anchor="start" x="526" y="-415.5" font-family="Helvetica,sans-Serif" font-size="10.00" fill="#000000">+ operator&#45;&gt;()</text>
<text text-anchor="start" x="526" y="-404.5" font-family="Helvetica,sans-Serif" font-size="10.00" fill="#000000">+ operator*()</text>
<text text-anchor="start" x="526" y="-393.5" font-family="Helvetica,sans-Serif" font-size="10.00" fill="#000000">+ ref()</text>
</a>
</g>
</g>
<!-- Node4&#45;&gt;Node15 -->
<g id="edge20" class="edge">
<title>Node4&#45;&gt;Node15</title>
<path fill="none" stroke="#404040" d="M698.4437,-777.8019C696.9283,-735.6948 691.3545,-655.1124 671,-590 666.6704,-576.15 662.7754,-573.8321 656,-561 654.6692,-558.4796 653.3161,-555.9238 651.948,-553.3454"/>
<polygon fill="none" stroke="#404040" points="651.8942,-553.2441 645.5443,-549.8266 646.2567,-542.6507 652.6065,-546.0683 651.8942,-553.2441"/>
<text text-anchor="middle" x="711" y="-644" font-family="Helvetica,sans-Serif" font-size="10.00" fill="#000000"> +label</text>
</g>
<!-- Node5&#45;&gt;Node2 -->
<g id="edge4" class="edge">
<title>Node5&#45;&gt;Node2</title>
<path fill="none" stroke="#ffa500" d="M128.0334,-598.2788C148.5273,-570.8532 174.036,-536.7165 194.156,-509.7912"/>
<polygon fill="#ffa500" stroke="#ffa500" points="125.028,-596.4537 121.8458,-606.5593 130.6354,-600.6438 125.028,-596.4537"/>
<text text-anchor="middle" x="176" y="-564" font-family="Helvetica,sans-Serif" font-size="10.00" fill="#000000"> &lt; float &gt;</text>
</g>
<!-- Node6 -->
<g id="node6" class="node">
<title>Node6</title>
<polygon fill="none" stroke="#bfbfbf" points="77.5,-778 77.5,-835 106.5,-835 106.5,-778 77.5,-778"/>
<text text-anchor="middle" x="92" y="-823" font-family="Helvetica,sans-Serif" font-size="10.00" fill="#000000">T</text>
<polyline fill="none" stroke="#bfbfbf" points="77.5,-816 106.5,-816 "/>
<text text-anchor="middle" x="92" y="-804" font-family="Helvetica,sans-Serif" font-size="10.00" fill="#000000"> </text>
<polyline fill="none" stroke="#bfbfbf" points="77.5,-797 106.5,-797 "/>
<text text-anchor="middle" x="92" y="-785" font-family="Helvetica,sans-Serif" font-size="10.00" fill="#000000"> </text>
</g>
<!-- Node6&#45;&gt;Node5 -->
<g id="edge6" class="edge">
<title>Node6&#45;&gt;Node5</title>
<path fill="none" stroke="#404040" d="M92,-777.8952C92,-755.8577 92,-724.7968 92,-698.4075"/>
<polygon fill="none" stroke="#404040" points="92.0001,-698.2754 88,-692.2755 92,-686.2754 96,-692.2754 92.0001,-698.2754"/>
<text text-anchor="middle" x="111.5" y="-729.5" font-family="Helvetica,sans-Serif" font-size="10.00" fill="#000000"> +value</text>
</g>
<!-- Node7&#45;&gt;Node1 -->
<g id="edge7" class="edge">
<title>Node7&#45;&gt;Node1</title>
<path fill="none" stroke="#404040" d="M593.3316,-215.9081C518.3429,-175.0052 402.7592,-111.9595 338.3999,-76.8545"/>
<polygon fill="none" stroke="#404040" points="338.297,-76.7984 331.1142,-77.4368 327.7622,-71.0521 334.945,-70.4137 338.297,-76.7984"/>
<text text-anchor="middle" x="500.5" y="-145" font-family="Helvetica,sans-Serif" font-size="10.00" fill="#000000"> +etaDiff</text>
<text text-anchor="middle" x="500.5" y="-134" font-family="Helvetica,sans-Serif" font-size="10.00" fill="#000000">+ptH</text>
<text text-anchor="middle" x="500.5" y="-123" font-family="Helvetica,sans-Serif" font-size="10.00" fill="#000000">+trZ</text>
</g>
<!-- Node8 -->
<g id="node8" class="node">
<title>Node8</title>
<polygon fill="none" stroke="#bfbfbf" points="408.5,-618 408.5,-675 547.5,-675 547.5,-618 408.5,-618"/>
<text text-anchor="middle" x="478" y="-663" font-family="Helvetica,sans-Serif" font-size="10.00" fill="#000000">OutputObjHandlingPolicy</text>
<polyline fill="none" stroke="#bfbfbf" points="408.5,-656 547.5,-656 "/>
<text text-anchor="middle" x="478" y="-644" font-family="Helvetica,sans-Serif" font-size="10.00" fill="#000000"> </text>
<polyline fill="none" stroke="#bfbfbf" points="408.5,-637 547.5,-637 "/>
<text text-anchor="middle" x="478" y="-625" font-family="Helvetica,sans-Serif" font-size="10.00" fill="#000000"> </text>
</g>
<!-- Node8&#45;&gt;Node7 -->
<g id="edge8" class="edge">
<title>Node8&#45;&gt;Node7</title>
<path fill="none" stroke="#404040" d="M465.4221,-617.7304C460.1466,-604.1438 454.6325,-587.5324 452,-572 438.1353,-490.1947 425.5141,-457.2692 468,-386 493.9668,-342.4412 540.7098,-310.4272 582.1485,-288.9541"/>
<polygon fill="none" stroke="#404040" points="582.3878,-288.8339 585.955,-282.5669 593.1119,-283.4492 589.5448,-289.7163 582.3878,-288.8339"/>
<text text-anchor="middle" x="488.5" y="-462" font-family="Helvetica,sans-Serif" font-size="10.00" fill="#000000"> +policy</text>
</g>
<!-- Node8&#45;&gt;Node15 -->
<g id="edge19" class="edge">
<title>Node8&#45;&gt;Node15</title>
<path fill="none" stroke="#404040" d="M503.5379,-617.9735C515.1805,-604.4381 528.8267,-587.7995 540,-572 544.3208,-565.8901 548.6379,-559.4777 552.8738,-552.9549"/>
<polygon fill="none" stroke="#404040" points="552.9991,-552.7585 552.8535,-545.5488 559.4525,-542.6415 559.5981,-549.8511 552.9991,-552.7585"/>
<text text-anchor="middle" x="566.5" y="-564" font-family="Helvetica,sans-Serif" font-size="10.00" fill="#000000"> +policy</text>
</g>
<!-- Node9 -->
<g id="node9" class="node">
<title>Node9</title>
<g id="a_node9"><a xlink:href="../../d3/d87/classuint32__t.html" target="_top" xlink:title="{uint32_t\n||}">
<polygon fill="none" stroke="#000000" points="334,-618 334,-675 390,-675 390,-618 334,-618"/>
<text text-anchor="middle" x="362" y="-663" font-family="Helvetica,sans-Serif" font-size="10.00" fill="#000000">uint32_t</text>
<polyline fill="none" stroke="#000000" points="334,-656 390,-656 "/>
<text text-anchor="middle" x="362" y="-644" font-family="Helvetica,sans-Serif" font-size="10.00" fill="#000000"> </text>
<polyline fill="none" stroke="#000000" points="334,-637 390,-637 "/>
<text text-anchor="middle" x="362" y="-625" font-family="Helvetica,sans-Serif" font-size="10.00" fill="#000000"> </text>
</a>
</g>
</g>
<!-- Node9&#45;&gt;Node7 -->
<g id="edge9" class="edge">
<title>Node9&#45;&gt;Node7</title>
<path fill="none" stroke="#404040" d="M353.3208,-617.7439C339.6676,-566.3692 319.3332,-457.5147 367,-386 414.7043,-314.4291 511.0137,-281.6565 581.2747,-266.8464"/>
<polygon fill="none" stroke="#404040" points="581.4278,-266.8157 586.5225,-261.7124 593.1928,-264.4524 588.098,-269.5557 581.4278,-266.8157"/>
<text text-anchor="middle" x="401" y="-462" font-family="Helvetica,sans-Serif" font-size="10.00" fill="#000000"> +mTaskHash</text>
</g>
<!-- Node9&#45;&gt;Node15 -->
<g id="edge18" class="edge">
<title>Node9&#45;&gt;Node15</title>
<path fill="none" stroke="#404040" d="M376.6805,-617.772C382.6406,-608.0776 390.2093,-597.7591 399,-590 434.6164,-558.5634 454.2469,-567.4126 495,-543 499.1027,-540.5423 503.2476,-537.9747 507.4015,-535.3304"/>
<polygon fill="none" stroke="#404040" points="507.6657,-535.1587 510.5163,-528.5349 517.727,-528.6187 514.8763,-535.2424 507.6657,-535.1587"/>
<text text-anchor="middle" x="488" y="-564" font-family="Helvetica,sans-Serif" font-size="10.00" fill="#000000"> +mTaskHash</text>
</g>
<!-- Node10 -->
<g id="node10" class="node">
<title>Node10</title>
<polygon fill="none" stroke="#bfbfbf" points="770,-618 770,-675 808,-675 808,-618 770,-618"/>
<text text-anchor="middle" x="789" y="-663" font-family="Helvetica,sans-Serif" font-size="10.00" fill="#000000">bool</text>
<polyline fill="none" stroke="#bfbfbf" points="770,-656 808,-656 "/>
<text text-anchor="middle" x="789" y="-644" font-family="Helvetica,sans-Serif" font-size="10.00" fill="#000000"> </text>
<polyline fill="none" stroke="#bfbfbf" points="770,-637 808,-637 "/>
<text text-anchor="middle" x="789" y="-625" font-family="Helvetica,sans-Serif" font-size="10.00" fill="#000000"> </text>
</g>
<!-- Node10&#45;&gt;Node7 -->
<g id="edge11" class="edge">
<title>Node10&#45;&gt;Node7</title>
<path fill="none" stroke="#404040" d="M792.6029,-617.6204C793.2831,-599.6274 791.1109,-576.9492 779,-561 766.2224,-544.1728 748.675,-559.1063 735,-543 688.6659,-488.4281 715.9939,-455.5424 699,-386 696.1972,-374.5305 693.1847,-362.5163 690.1529,-350.6131"/>
<polygon fill="none" stroke="#404040" points="690.0975,-350.3965 684.7345,-345.5759 687.1216,-338.7713 692.4846,-343.5919 690.0975,-350.3965"/>
<text text-anchor="middle" x="766" y="-462" font-family="Helvetica,sans-Serif" font-size="10.00" fill="#000000"> +isdangling</text>
</g>
<!-- Node10&#45;&gt;Node15 -->
<g id="edge22" class="edge">
<title>Node10&#45;&gt;Node15</title>
<path fill="none" stroke="#404040" d="M769.8476,-623.1893C760.8532,-612.6888 749.7611,-600.3523 739,-590 729.8956,-581.2413 726.4721,-580.3597 717,-572 709.3298,-565.2306 701.4624,-558.1179 693.623,-550.9106"/>
<polygon fill="none" stroke="#404040" points="693.6056,-550.8946 686.4848,-549.7571 684.796,-542.7465 691.9168,-543.884 693.6056,-550.8946"/>
<text text-anchor="middle" x="748" y="-564" font-family="Helvetica,sans-Serif" font-size="10.00" fill="#000000"> +isdangling</text>
</g>
<!-- Node11&#45;&gt;Node7 -->
<g id="edge12" class="edge">
<title>Node11&#45;&gt;Node7</title>
<path fill="none" stroke="#404040" d="M1026.2778,-590.3458C1028.0118,-526.192 1020.7756,-421.7487 964,-357 935.1943,-324.1491 826.4349,-292.6812 748.3969,-273.5986"/>
<polygon fill="none" stroke="#404040" points="748.3015,-273.5756 741.5302,-276.0557 736.6366,-270.7592 743.4078,-268.2792 748.3015,-273.5756"/>
<text text-anchor="middle" x="1042" y="-462" font-family="Helvetica,sans-Serif" font-size="10.00" fill="#000000"> +spec</text>
</g>
<!-- Node11&#45;&gt;Node15 -->
<g id="edge23" class="edge">
<title>Node11&#45;&gt;Node15</title>
<path fill="none" stroke="#404040" d="M950.8321,-618.5167C903.6877,-600.6081 840.2183,-577.6883 783,-561 748.4294,-550.9171 736.5074,-558.4939 704,-543 702.9758,-542.5118 701.9524,-542.0116 700.9302,-541.5"/>
<polygon fill="none" stroke="#404040" points="700.5977,-541.3204 693.4174,-541.9865 690.0408,-535.6148 697.2211,-534.9486 700.5977,-541.3204"/>
<text text-anchor="middle" x="833" y="-564" font-family="Helvetica,sans-Serif" font-size="10.00" fill="#000000"> +spec</text>
</g>
<!-- Node12 -->
<g id="node12" class="node">
<title>Node12</title>
<polygon fill="none" stroke="#bfbfbf" points="983,-778 983,-835 1071,-835 1071,-778 983,-778"/>
<text text-anchor="middle" x="1027" y="-823" font-family="Helvetica,sans-Serif" font-size="10.00" fill="#000000">enum Lifetime</text>
<polyline fill="none" stroke="#bfbfbf" points="983,-816 1071,-816 "/>
<text text-anchor="middle" x="1027" y="-804" font-family="Helvetica,sans-Serif" font-size="10.00" fill="#000000"> </text>
<polyline fill="none" stroke="#bfbfbf" points="983,-797 1071,-797 "/>
<text text-anchor="middle" x="1027" y="-785" font-family="Helvetica,sans-Serif" font-size="10.00" fill="#000000"> </text>
</g>
<!-- Node12&#45;&gt;Node11 -->
<g id="edge13" class="edge">
<title>Node12&#45;&gt;Node11</title>
<path fill="none" stroke="#404040" d="M1026.1061,-777.8952C1025.5563,-760.3 1024.8266,-736.9527 1024.1351,-714.8235"/>
<polygon fill="none" stroke="#404040" points="1024.1311,-714.6932 1019.9456,-708.8211 1023.7562,-702.6991 1027.9417,-708.5712 1024.1311,-714.6932"/>
<text text-anchor="middle" x="1049" y="-729.5" font-family="Helvetica,sans-Serif" font-size="10.00" fill="#000000"> +lifetime</text>
</g>
<!-- Node13 -->
<g id="node13" class="node">
<title>Node13</title>
<polygon fill="none" stroke="#bfbfbf" points="1089,-761.5 1089,-851.5 1253,-851.5 1253,-761.5 1089,-761.5"/>
<text text-anchor="start" x="1097" y="-839.5" font-family="Helvetica,sans-Serif" font-size="10.00" fill="#000000">variant&lt; o2::framework</text>
<text text-anchor="start" x="1097" y="-828.5" font-family="Helvetica,sans-Serif" font-size="10.00" fill="#000000">::ConcreteDataMatcher,</text>
<text text-anchor="start" x="1097" y="-817.5" font-family="Helvetica,sans-Serif" font-size="10.00" fill="#000000"> o2::framework::data_matcher</text>
<text text-anchor="middle" x="1171" y="-806.5" font-family="Helvetica,sans-Serif" font-size="10.00" fill="#000000">::DataDescriptorMatcher &gt;</text>
<polyline fill="none" stroke="#bfbfbf" points="1089,-799.5 1253,-799.5 "/>
<text text-anchor="middle" x="1171" y="-787.5" font-family="Helvetica,sans-Serif" font-size="10.00" fill="#000000"> </text>
<polyline fill="none" stroke="#bfbfbf" points="1089,-780.5 1253,-780.5 "/>
<text text-anchor="middle" x="1171" y="-768.5" font-family="Helvetica,sans-Serif" font-size="10.00" fill="#000000"> </text>
</g>
<!-- Node13&#45;&gt;Node11 -->
<g id="edge14" class="edge">
<title>Node13&#45;&gt;Node11</title>
<path fill="none" stroke="#404040" d="M1128.7011,-761.0784C1114.4002,-745.7217 1098.1389,-728.2599 1082.6975,-711.6785"/>
<polygon fill="none" stroke="#404040" points="1082.399,-711.3579 1075.3827,-709.6931 1074.2209,-702.5761 1081.2372,-704.241 1082.399,-711.3579"/>
<text text-anchor="middle" x="1135" y="-729.5" font-family="Helvetica,sans-Serif" font-size="10.00" fill="#000000"> +matcher</text>
</g>
<!-- Node14 -->
<g id="node14" class="node">
<title>Node14</title>
<polygon fill="none" stroke="#bfbfbf" points="806,-436 806,-493 922,-493 922,-436 806,-436"/>
<text text-anchor="middle" x="864" y="-481" font-family="Helvetica,sans-Serif" font-size="10.00" fill="#000000">shared_ptr&lt; TH1F &gt;</text>
<polyline fill="none" stroke="#bfbfbf" points="806,-474 922,-474 "/>
<text text-anchor="middle" x="864" y="-462" font-family="Helvetica,sans-Serif" font-size="10.00" fill="#000000"> </text>
<polyline fill="none" stroke="#bfbfbf" points="806,-455 922,-455 "/>
<text text-anchor="middle" x="864" y="-443" font-family="Helvetica,sans-Serif" font-size="10.00" fill="#000000"> </text>
</g>
<!-- Node14&#45;&gt;Node7 -->
<g id="edge16" class="edge">
<title>Node14&#45;&gt;Node7</title>
<path fill="none" stroke="#404040" d="M838.1933,-435.9841C824.5561,-421.0119 807.4785,-402.4142 792,-386 776.9642,-370.0552 760.7793,-353.1604 745.1646,-336.9938"/>
<polygon fill="none" stroke="#404040" points="744.9026,-336.723 737.856,-335.1915 736.5593,-328.098 743.606,-329.6294 744.9026,-336.723"/>
<text text-anchor="middle" x="796" y="-360" font-family="Helvetica,sans-Serif" font-size="10.00" fill="#000000"> +object</text>
</g>
<!-- Node15&#45;&gt;Node7 -->
<g id="edge17" class="edge">
<title>Node15&#45;&gt;Node7</title>
<path fill="none" stroke="#ffa500" d="M629.6153,-376.5262C633.2635,-363.9967 637.0074,-351.1384 640.6309,-338.6937"/>
<polygon fill="#ffa500" stroke="#ffa500" points="626.1494,-375.9102 626.7141,-386.4899 632.8703,-377.8671 626.1494,-375.9102"/>
<text text-anchor="middle" x="660.5" y="-360" font-family="Helvetica,sans-Serif" font-size="10.00" fill="#000000"> &lt; TH1F &gt;</text>
</g>
<!-- Node16 -->
<g id="node16" class="node">
<title>Node16</title>
<polygon fill="none" stroke="#bfbfbf" points="565.5,-618 565.5,-675 662.5,-675 662.5,-618 565.5,-618"/>
<text text-anchor="middle" x="614" y="-663" font-family="Helvetica,sans-Serif" font-size="10.00" fill="#000000">shared_ptr&lt; T &gt;</text>
<polyline fill="none" stroke="#bfbfbf" points="565.5,-656 662.5,-656 "/>
<text text-anchor="middle" x="614" y="-644" font-family="Helvetica,sans-Serif" font-size="10.00" fill="#000000"> </text>
<polyline fill="none" stroke="#bfbfbf" points="565.5,-637 662.5,-637 "/>
<text text-anchor="middle" x="614" y="-625" font-family="Helvetica,sans-Serif" font-size="10.00" fill="#000000"> </text>
</g>
<!-- Node16&#45;&gt;Node15 -->
<g id="edge21" class="edge">
<title>Node16&#45;&gt;Node15</title>
<path fill="none" stroke="#404040" d="M612.4155,-617.6616C611.4725,-600.4991 610.219,-577.686 608.9682,-554.9212"/>
<polygon fill="none" stroke="#404040" points="608.9543,-554.6668 604.6311,-548.8953 608.2959,-542.6849 612.6191,-548.4564 608.9543,-554.6668"/>
<text text-anchor="middle" x="631" y="-564" font-family="Helvetica,sans-Serif" font-size="10.00" fill="#000000"> +object</text>
</g>
</g>
</svg>
