<?xml version="1.0" encoding="UTF-8" standalone="no"?>
<!DOCTYPE svg PUBLIC "-//W3C//DTD SVG 1.1//EN"
 "http://www.w3.org/Graphics/SVG/1.1/DTD/svg11.dtd">
<!-- Generated by graphviz version 2.40.1 (20161225.0304)
 -->
<!-- Title: /home/travis/build/AliceO2Group/AliceO2/Utilities/rANS/include/rANS/rans.h Pages: 1 -->
<svg width="1003pt" height="341pt"
 viewBox="0.00 0.00 1003.01 341.00" xmlns="http://www.w3.org/2000/svg" xmlns:xlink="http://www.w3.org/1999/xlink">
<g id="graph0" class="graph" transform="scale(1 1) rotate(0) translate(4 337)">
<title>/home/travis/build/AliceO2Group/AliceO2/Utilities/rANS/include/rANS/rans.h</title>
<!-- Node0 -->
<g id="node1" class="node">
<title>Node0</title>
<polygon fill="#bfbfbf" stroke="#000000" points="549,-280.5 549,-332.5 676,-332.5 676,-280.5 549,-280.5"/>
<text text-anchor="start" x="557" y="-320.5" font-family="Helvetica,sans-Serif" font-size="10.00" fill="#000000">/home/travis/build</text>
<text text-anchor="start" x="557" y="-309.5" font-family="Helvetica,sans-Serif" font-size="10.00" fill="#000000">/AliceO2Group/AliceO2</text>
<text text-anchor="start" x="557" y="-298.5" font-family="Helvetica,sans-Serif" font-size="10.00" fill="#000000">/Utilities/rANS/include</text>
<text text-anchor="middle" x="612.5" y="-287.5" font-family="Helvetica,sans-Serif" font-size="10.00" fill="#000000">/rANS/rans.h</text>
</g>
<!-- Node1 -->
<g id="node2" class="node">
<title>Node1</title>
<g id="a_node2"><a xlink:href="../../d0/d51/SymbolStatistics_8h.html" target="_top" xlink:title="Structure to depict the distribution of symbols in the source message. ">
<polygon fill="none" stroke="#000000" points="545.5,-112.5 545.5,-131.5 679.5,-131.5 679.5,-112.5 545.5,-112.5"/>
<text text-anchor="middle" x="612.5" y="-119.5" font-family="Helvetica,sans-Serif" font-size="10.00" fill="#000000">rANS/SymbolStatistics.h</text>
</a>
</g>
</g>
<!-- Node0&#45;&gt;Node1 -->
<g id="edge1" class="edge">
<title>Node0&#45;&gt;Node1</title>
<path fill="none" stroke="#191970" d="M612.5,-280.457C612.5,-243.3157 612.5,-175.9117 612.5,-142.2556"/>
<polygon fill="#191970" stroke="#191970" points="616.0001,-141.8634 612.5,-131.8635 609.0001,-141.8635 616.0001,-141.8634"/>
</g>
<!-- Node13 -->
<g id="node14" class="node">
<title>Node13</title>
<g id="a_node14"><a xlink:href="../../dd/d74/Utilities_2rANS_2include_2rANS_2Encoder_8h.html" target="_top" xlink:title="rANS/Encoder.h">
<polygon fill="none" stroke="#000000" points="358,-224.5 358,-243.5 449,-243.5 449,-224.5 358,-224.5"/>
<text text-anchor="middle" x="403.5" y="-231.5" font-family="Helvetica,sans-Serif" font-size="10.00" fill="#000000">rANS/Encoder.h</text>
</a>
</g>
</g>
<!-- Node0&#45;&gt;Node13 -->
<g id="edge14" class="edge">
<title>Node0&#45;&gt;Node13</title>
<path fill="none" stroke="#191970" d="M548.9419,-284.4523C513.5512,-272.1757 470.7189,-257.3175 440.735,-246.9165"/>
<polygon fill="#191970" stroke="#191970" points="441.6833,-243.5408 431.0885,-243.5702 439.3891,-250.1542 441.6833,-243.5408"/>
</g>
<!-- Node20 -->
<g id="node21" class="node">
<title>Node20</title>
<g id="a_node21"><a xlink:href="../../dc/d62/Utilities_2rANS_2include_2rANS_2Decoder_8h.html" target="_top" xlink:title="rANS/Decoder.h">
<polygon fill="none" stroke="#000000" points="675.5,-224.5 675.5,-243.5 767.5,-243.5 767.5,-224.5 675.5,-224.5"/>
<text text-anchor="middle" x="721.5" y="-231.5" font-family="Helvetica,sans-Serif" font-size="10.00" fill="#000000">rANS/Decoder.h</text>
</a>
</g>
</g>
<!-- Node0&#45;&gt;Node20 -->
<g id="edge35" class="edge">
<title>Node0&#45;&gt;Node20</title>
<path fill="none" stroke="#191970" d="M651.8515,-280.3258C667.5081,-269.912 684.9765,-258.2931 698.5025,-249.2965"/>
<polygon fill="#191970" stroke="#191970" points="700.7781,-251.9865 707.1661,-243.534 696.9014,-246.158 700.7781,-251.9865"/>
</g>
<!-- Node2 -->
<g id="node3" class="node">
<title>Node2</title>
<polygon fill="none" stroke="#bfbfbf" points="411.5,-56.5 411.5,-75.5 475.5,-75.5 475.5,-56.5 411.5,-56.5"/>
<text text-anchor="middle" x="443.5" y="-63.5" font-family="Helvetica,sans-Serif" font-size="10.00" fill="#000000">algorithm</text>
</g>
<!-- Node1&#45;&gt;Node2 -->
<g id="edge2" class="edge">
<title>Node1&#45;&gt;Node2</title>
<path fill="none" stroke="#191970" d="M583.4479,-112.3733C555.3457,-103.0613 512.5946,-88.8953 481.7393,-78.671"/>
<polygon fill="#191970" stroke="#191970" points="482.7664,-75.3243 472.173,-75.5011 480.5645,-81.969 482.7664,-75.3243"/>
</g>
<!-- Node3 -->
<g id="node4" class="node">
<title>Node3</title>
<polygon fill="none" stroke="#bfbfbf" points="263.5,-56.5 263.5,-75.5 315.5,-75.5 315.5,-56.5 263.5,-56.5"/>
<text text-anchor="middle" x="289.5" y="-63.5" font-family="Helvetica,sans-Serif" font-size="10.00" fill="#000000">cassert</text>
</g>
<!-- Node1&#45;&gt;Node3 -->
<g id="edge3" class="edge">
<title>Node1&#45;&gt;Node3</title>
<path fill="none" stroke="#191970" d="M545.3354,-112.8695C487.5887,-104.6027 402.208,-91.3862 328.5,-76 327.6019,-75.8125 326.6934,-75.618 325.778,-75.4176"/>
<polygon fill="#191970" stroke="#191970" points="326.3914,-71.9668 315.8576,-73.1025 324.8005,-78.7836 326.3914,-71.9668"/>
</g>
<!-- Node4 -->
<g id="node5" class="node">
<title>Node4</title>
<polygon fill="none" stroke="#bfbfbf" points="902.5,-56.5 902.5,-75.5 962.5,-75.5 962.5,-56.5 902.5,-56.5"/>
<text text-anchor="middle" x="932.5" y="-63.5" font-family="Helvetica,sans-Serif" font-size="10.00" fill="#000000">iostream</text>
</g>
<!-- Node1&#45;&gt;Node4 -->
<g id="edge4" class="edge">
<title>Node1&#45;&gt;Node4</title>
<path fill="none" stroke="#191970" d="M667.1464,-112.4369C731.0046,-101.2617 835.1681,-83.0331 892.1399,-73.063"/>
<polygon fill="#191970" stroke="#191970" points="892.9613,-76.4726 902.2082,-71.3011 891.7546,-69.5773 892.9613,-76.4726"/>
</g>
<!-- Node5 -->
<g id="node6" class="node">
<title>Node5</title>
<polygon fill="none" stroke="#bfbfbf" points="597.5,-56.5 597.5,-75.5 653.5,-75.5 653.5,-56.5 597.5,-56.5"/>
<text text-anchor="middle" x="625.5" y="-63.5" font-family="Helvetica,sans-Serif" font-size="10.00" fill="#000000">numeric</text>
</g>
<!-- Node1&#45;&gt;Node5 -->
<g id="edge5" class="edge">
<title>Node1&#45;&gt;Node5</title>
<path fill="none" stroke="#191970" d="M614.7644,-112.2455C616.4794,-104.8579 618.8912,-94.4689 620.9944,-85.4087"/>
<polygon fill="#191970" stroke="#191970" points="624.4095,-86.1751 623.2615,-75.6427 617.5908,-84.5922 624.4095,-86.1751"/>
</g>
<!-- Node6 -->
<g id="node7" class="node">
<title>Node6</title>
<polygon fill="none" stroke="#bfbfbf" points="494,-56.5 494,-75.5 541,-75.5 541,-56.5 494,-56.5"/>
<text text-anchor="middle" x="517.5" y="-63.5" font-family="Helvetica,sans-Serif" font-size="10.00" fill="#000000">vector</text>
</g>
<!-- Node1&#45;&gt;Node6 -->
<g id="edge6" class="edge">
<title>Node1&#45;&gt;Node6</title>
<path fill="none" stroke="#191970" d="M595.9523,-112.2455C581.2401,-103.5731 559.5112,-90.7645 542.6495,-80.825"/>
<polygon fill="#191970" stroke="#191970" points="544.2502,-77.7057 533.8581,-75.6427 540.6954,-83.736 544.2502,-77.7057"/>
</g>
<!-- Node7 -->
<g id="node8" class="node">
<title>Node7</title>
<polygon fill="none" stroke="#bfbfbf" points="477,-.5 477,-19.5 524,-19.5 524,-.5 477,-.5"/>
<text text-anchor="middle" x="500.5" y="-7.5" font-family="Helvetica,sans-Serif" font-size="10.00" fill="#000000">cmath</text>
</g>
<!-- Node1&#45;&gt;Node7 -->
<g id="edge7" class="edge">
<title>Node1&#45;&gt;Node7</title>
<path fill="none" stroke="#191970" d="M603.8818,-112.3945C592.0963,-99.3597 570.1666,-75.4631 550.5,-56 540.3844,-45.9891 528.6972,-35.1964 519.1669,-26.5827"/>
<polygon fill="#191970" stroke="#191970" points="521.2207,-23.7231 511.4407,-19.6485 516.5451,-28.9327 521.2207,-23.7231"/>
</g>
<!-- Node8 -->
<g id="node9" class="node">
<title>Node8</title>
<polygon fill="none" stroke="#bfbfbf" points="672,-56.5 672,-75.5 725,-75.5 725,-56.5 672,-56.5"/>
<text text-anchor="middle" x="698.5" y="-63.5" font-family="Helvetica,sans-Serif" font-size="10.00" fill="#000000">iterator</text>
</g>
<!-- Node1&#45;&gt;Node8 -->
<g id="edge8" class="edge">
<title>Node1&#45;&gt;Node8</title>
<path fill="none" stroke="#191970" d="M627.4801,-112.2455C640.6751,-103.6534 660.1051,-91.0014 675.3079,-81.1018"/>
<polygon fill="#191970" stroke="#191970" points="677.2215,-84.0325 683.6916,-75.6427 673.4017,-78.1665 677.2215,-84.0325"/>
</g>
<!-- Node9 -->
<g id="node10" class="node">
<title>Node9</title>
<polygon fill="none" stroke="#bfbfbf" points="743.5,-56.5 743.5,-75.5 851.5,-75.5 851.5,-56.5 743.5,-56.5"/>
<text text-anchor="middle" x="797.5" y="-63.5" font-family="Helvetica,sans-Serif" font-size="10.00" fill="#000000">fairlogger/Logger.h</text>
</g>
<!-- Node1&#45;&gt;Node9 -->
<g id="edge9" class="edge">
<title>Node1&#45;&gt;Node9</title>
<path fill="none" stroke="#191970" d="M644.3026,-112.3733C675.3317,-102.9807 722.6754,-88.6496 756.5147,-78.4064"/>
<polygon fill="#191970" stroke="#191970" points="757.5553,-81.7483 766.1124,-75.5011 755.5272,-75.0485 757.5553,-81.7483"/>
</g>
<!-- Node10 -->
<g id="node11" class="node">
<title>Node10</title>
<g id="a_node11"><a xlink:href="../../d4/da1/helper_8h.html" target="_top" xlink:title="various helper functions ">
<polygon fill="none" stroke="#000000" points="337.5,-56.5 337.5,-75.5 393.5,-75.5 393.5,-56.5 337.5,-56.5"/>
<text text-anchor="middle" x="365.5" y="-63.5" font-family="Helvetica,sans-Serif" font-size="10.00" fill="#000000">helper.h</text>
</a>
</g>
</g>
<!-- Node1&#45;&gt;Node10 -->
<g id="edge10" class="edge">
<title>Node1&#45;&gt;Node10</title>
<path fill="none" stroke="#191970" d="M566.0575,-112.4994C525.5715,-104.0661 465.0468,-91.0964 403.6105,-76.1928"/>
<polygon fill="#191970" stroke="#191970" points="404.2902,-72.756 393.7455,-73.7847 402.6302,-79.5563 404.2902,-72.756"/>
</g>
<!-- Node10&#45;&gt;Node7 -->
<g id="edge12" class="edge">
<title>Node10&#45;&gt;Node7</title>
<path fill="none" stroke="#191970" d="M388.7073,-56.3733C410.6699,-47.2629 443.8332,-33.5062 468.3401,-23.3404"/>
<polygon fill="#191970" stroke="#191970" points="469.6997,-26.5657 477.5955,-19.5011 467.0176,-20.0999 469.6997,-26.5657"/>
</g>
<!-- Node11 -->
<g id="node12" class="node">
<title>Node11</title>
<polygon fill="none" stroke="#bfbfbf" points="769,-.5 769,-19.5 822,-19.5 822,-.5 769,-.5"/>
<text text-anchor="middle" x="795.5" y="-7.5" font-family="Helvetica,sans-Serif" font-size="10.00" fill="#000000">cstddef</text>
</g>
<!-- Node10&#45;&gt;Node11 -->
<g id="edge11" class="edge">
<title>Node10&#45;&gt;Node11</title>
<path fill="none" stroke="#191970" d="M393.6818,-57.9237C396.6453,-57.2124 399.625,-56.5536 402.5,-56 532.107,-31.0416 688.5425,-17.6356 758.5273,-12.5002"/>
<polygon fill="#191970" stroke="#191970" points="758.8838,-15.9836 768.6065,-11.7742 758.3808,-9.0017 758.8838,-15.9836"/>
</g>
<!-- Node12 -->
<g id="node13" class="node">
<title>Node12</title>
<polygon fill="none" stroke="#bfbfbf" points="340.5,-.5 340.5,-19.5 390.5,-19.5 390.5,-.5 340.5,-.5"/>
<text text-anchor="middle" x="365.5" y="-7.5" font-family="Helvetica,sans-Serif" font-size="10.00" fill="#000000">chrono</text>
</g>
<!-- Node10&#45;&gt;Node12 -->
<g id="edge13" class="edge">
<title>Node10&#45;&gt;Node12</title>
<path fill="none" stroke="#191970" d="M365.5,-56.2455C365.5,-48.9382 365.5,-38.6944 365.5,-29.7046"/>
<polygon fill="#191970" stroke="#191970" points="369.0001,-29.6426 365.5,-19.6427 362.0001,-29.6427 369.0001,-29.6426"/>
</g>
<!-- Node13&#45;&gt;Node2 -->
<g id="edge16" class="edge">
<title>Node13&#45;&gt;Node2</title>
<path fill="none" stroke="#191970" d="M405.7652,-224.4862C412.1156,-197.8144 430.1877,-121.9117 438.8107,-85.695"/>
<polygon fill="#191970" stroke="#191970" points="442.2486,-86.3666 441.16,-75.8279 435.4389,-84.7452 442.2486,-86.3666"/>
</g>
<!-- Node13&#45;&gt;Node9 -->
<g id="edge17" class="edge">
<title>Node13&#45;&gt;Node9</title>
<path fill="none" stroke="#191970" d="M449.1223,-231.7266C541.2216,-226.6712 746.1487,-212.9317 811.5,-188 857.0208,-170.6337 916.2034,-153.3892 890.5,-112 880.9673,-96.6499 864.6258,-86.2666 848.2752,-79.3145"/>
<polygon fill="#191970" stroke="#191970" points="849.2877,-75.9534 838.6985,-75.6061 846.7599,-82.481 849.2877,-75.9534"/>
</g>
<!-- Node13&#45;&gt;Node10 -->
<g id="edge34" class="edge">
<title>Node13&#45;&gt;Node10</title>
<path fill="none" stroke="#191970" d="M401.3481,-224.4862C395.3152,-197.8144 378.1467,-121.9117 369.9548,-85.695"/>
<polygon fill="#191970" stroke="#191970" points="373.343,-84.8093 367.723,-75.8279 366.5155,-86.3537 373.343,-84.8093"/>
</g>
<!-- Node14 -->
<g id="node15" class="node">
<title>Node14</title>
<polygon fill="none" stroke="#bfbfbf" points="131.5,-168.5 131.5,-187.5 189.5,-187.5 189.5,-168.5 131.5,-168.5"/>
<text text-anchor="middle" x="160.5" y="-175.5" font-family="Helvetica,sans-Serif" font-size="10.00" fill="#000000">memory</text>
</g>
<!-- Node13&#45;&gt;Node14 -->
<g id="edge15" class="edge">
<title>Node13&#45;&gt;Node14</title>
<path fill="none" stroke="#191970" d="M361.74,-224.4262C321.2746,-215.142 258.1722,-200.6445 203.5,-188 202.2399,-187.7086 200.959,-187.4121 199.6657,-187.1125"/>
<polygon fill="#191970" stroke="#191970" points="200.1743,-183.6376 189.642,-184.7873 198.5924,-190.4566 200.1743,-183.6376"/>
</g>
<!-- Node15 -->
<g id="node16" class="node">
<title>Node15</title>
<g id="a_node16"><a xlink:href="../../d8/dd9/SymbolTable_8h.html" target="_top" xlink:title="Container for information needed to encode/decode a symbol of the alphabet. ">
<polygon fill="none" stroke="#000000" points="496.5,-168.5 496.5,-187.5 584.5,-187.5 584.5,-168.5 496.5,-168.5"/>
<text text-anchor="middle" x="540.5" y="-175.5" font-family="Helvetica,sans-Serif" font-size="10.00" fill="#000000">SymbolTable.h</text>
</a>
</g>
</g>
<!-- Node13&#45;&gt;Node15 -->
<g id="edge18" class="edge">
<title>Node13&#45;&gt;Node15</title>
<path fill="none" stroke="#191970" d="M427.0511,-224.3733C449.3391,-215.2629 482.9937,-201.5062 507.8637,-191.3404"/>
<polygon fill="#191970" stroke="#191970" points="509.3239,-194.5247 517.2562,-187.5011 506.6753,-188.0451 509.3239,-194.5247"/>
</g>
<!-- Node16 -->
<g id="node17" class="node">
<title>Node16</title>
<g id="a_node17"><a xlink:href="../../d2/d53/EncoderSymbol_8h.html" target="_top" xlink:title="Structure containing all relevant information to encode a symbol. ">
<polygon fill="none" stroke="#000000" points="160,-112.5 160,-131.5 261,-131.5 261,-112.5 160,-112.5"/>
<text text-anchor="middle" x="210.5" y="-119.5" font-family="Helvetica,sans-Serif" font-size="10.00" fill="#000000">EncoderSymbol.h</text>
</a>
</g>
</g>
<!-- Node13&#45;&gt;Node16 -->
<g id="edge22" class="edge">
<title>Node13&#45;&gt;Node16</title>
<path fill="none" stroke="#191970" d="M362.0839,-224.4426C335.6383,-217.1211 301.3955,-205.3021 274.5,-188 254.3023,-175.0066 235.7375,-154.4863 223.8639,-139.7761"/>
<polygon fill="#191970" stroke="#191970" points="226.6062,-137.6012 217.6843,-131.8871 221.0956,-141.9178 226.6062,-137.6012"/>
</g>
<!-- Node18 -->
<g id="node19" class="node">
<title>Node18</title>
<g id="a_node19"><a xlink:href="../../d5/d7a/Coder_8h.html" target="_top" xlink:title="Stateless class for coding and decoding symbols using rANS. ">
<polygon fill="none" stroke="#000000" points="284,-168.5 284,-187.5 337,-187.5 337,-168.5 284,-168.5"/>
<text text-anchor="middle" x="310.5" y="-175.5" font-family="Helvetica,sans-Serif" font-size="10.00" fill="#000000">Coder.h</text>
</a>
</g>
</g>
<!-- Node13&#45;&gt;Node18 -->
<g id="edge26" class="edge">
<title>Node13&#45;&gt;Node18</title>
<path fill="none" stroke="#191970" d="M387.3006,-224.2455C372.8982,-215.5731 351.6268,-202.7645 335.1201,-192.825"/>
<polygon fill="#191970" stroke="#191970" points="336.886,-189.8028 326.5137,-187.6427 333.275,-195.7996 336.886,-189.8028"/>
</g>
<!-- Node15&#45;&gt;Node1 -->
<g id="edge21" class="edge">
<title>Node15&#45;&gt;Node1</title>
<path fill="none" stroke="#191970" d="M553.0414,-168.2455C563.7787,-159.8943 579.4473,-147.7076 592.0047,-137.9408"/>
<polygon fill="#191970" stroke="#191970" points="594.3575,-140.5449 600.1023,-131.6427 590.0599,-135.0194 594.3575,-140.5449"/>
</g>
<!-- Node15&#45;&gt;Node6 -->
<g id="edge19" class="edge">
<title>Node15&#45;&gt;Node6</title>
<path fill="none" stroke="#191970" d="M538.539,-168.4509C534.7708,-150.1013 526.4517,-109.5908 521.4776,-85.3693"/>
<polygon fill="#191970" stroke="#191970" points="524.8961,-84.6164 519.456,-75.5249 518.0392,-86.0246 524.8961,-84.6164"/>
</g>
<!-- Node15&#45;&gt;Node9 -->
<g id="edge20" class="edge">
<title>Node15&#45;&gt;Node9</title>
<path fill="none" stroke="#191970" d="M580.4087,-168.4211C610.7559,-160.4686 653.1675,-147.9016 688.5,-132 720.2731,-117.7003 754.2083,-96.0141 775.6187,-81.4428"/>
<polygon fill="#191970" stroke="#191970" points="777.7379,-84.233 783.985,-75.6759 773.7651,-78.4696 777.7379,-84.233"/>
</g>
<!-- Node16&#45;&gt;Node3 -->
<g id="edge24" class="edge">
<title>Node16&#45;&gt;Node3</title>
<path fill="none" stroke="#191970" d="M224.2607,-112.2455C236.1552,-103.814 253.565,-91.4729 267.4085,-81.6598"/>
<polygon fill="#191970" stroke="#191970" points="269.7628,-84.2811 275.8969,-75.6427 265.7146,-78.5704 269.7628,-84.2811"/>
</g>
<!-- Node16&#45;&gt;Node10 -->
<g id="edge25" class="edge">
<title>Node16&#45;&gt;Node10</title>
<path fill="none" stroke="#191970" d="M237.1454,-112.3733C262.6964,-103.1419 301.4512,-89.1402 329.6909,-78.9375"/>
<polygon fill="#191970" stroke="#191970" points="330.9865,-82.1909 339.2022,-75.5011 328.6079,-75.6074 330.9865,-82.1909"/>
</g>
<!-- Node17 -->
<g id="node18" class="node">
<title>Node17</title>
<polygon fill="none" stroke="#bfbfbf" points="106.5,-56.5 106.5,-75.5 156.5,-75.5 156.5,-56.5 106.5,-56.5"/>
<text text-anchor="middle" x="131.5" y="-63.5" font-family="Helvetica,sans-Serif" font-size="10.00" fill="#000000">cstdint</text>
</g>
<!-- Node16&#45;&gt;Node17 -->
<g id="edge23" class="edge">
<title>Node16&#45;&gt;Node17</title>
<path fill="none" stroke="#191970" d="M196.7393,-112.2455C184.8448,-103.814 167.435,-91.4729 153.5915,-81.6598"/>
<polygon fill="#191970" stroke="#191970" points="155.2854,-78.5704 145.1031,-75.6427 151.2372,-84.2811 155.2854,-78.5704"/>
</g>
<!-- Node18&#45;&gt;Node3 -->
<g id="edge29" class="edge">
<title>Node18&#45;&gt;Node3</title>
<path fill="none" stroke="#191970" d="M308.7096,-168.4509C305.269,-150.1013 297.6733,-109.5908 293.1317,-85.3693"/>
<polygon fill="#191970" stroke="#191970" points="296.5689,-84.7086 291.2859,-75.5249 289.6888,-85.9986 296.5689,-84.7086"/>
</g>
<!-- Node18&#45;&gt;Node6 -->
<g id="edge27" class="edge">
<title>Node18&#45;&gt;Node6</title>
<path fill="none" stroke="#191970" d="M328.1487,-168.4509C364.507,-148.7788 447.94,-103.6363 490.8848,-80.4005"/>
<polygon fill="#191970" stroke="#191970" points="492.7664,-83.362 499.896,-75.5249 489.4352,-77.2054 492.7664,-83.362"/>
</g>
<!-- Node18&#45;&gt;Node10 -->
<g id="edge33" class="edge">
<title>Node18&#45;&gt;Node10</title>
<path fill="none" stroke="#191970" d="M315.1893,-168.4509C324.2814,-149.936 344.4531,-108.8591 356.3078,-84.7187"/>
<polygon fill="#191970" stroke="#191970" points="359.5563,-86.0438 360.8226,-75.5249 353.273,-82.9582 359.5563,-86.0438"/>
</g>
<!-- Node18&#45;&gt;Node16 -->
<g id="edge32" class="edge">
<title>Node18&#45;&gt;Node16</title>
<path fill="none" stroke="#191970" d="M293.0813,-168.2455C277.4515,-159.4928 254.2981,-146.527 236.4815,-136.5496"/>
<polygon fill="#191970" stroke="#191970" points="238.1543,-133.475 227.7191,-131.6427 234.734,-139.5825 238.1543,-133.475"/>
</g>
<!-- Node18&#45;&gt;Node17 -->
<g id="edge28" class="edge">
<title>Node18&#45;&gt;Node17</title>
<path fill="none" stroke="#191970" d="M283.7832,-173.5326C243.3304,-166.2538 169.2547,-150.7481 150.5,-132 138.2698,-119.7741 133.799,-100.2178 132.2211,-85.5609"/>
<polygon fill="#191970" stroke="#191970" points="135.7066,-85.2331 131.4977,-75.5102 128.7247,-85.7357 135.7066,-85.2331"/>
</g>
<!-- Node19 -->
<g id="node20" class="node">
<title>Node19</title>
<g id="a_node20"><a xlink:href="../../d7/d99/DecoderSymbol_8h.html" target="_top" xlink:title="Structure containing all relevant information for decoding a rANS encoded symbol. ...">
<polygon fill="none" stroke="#000000" points="0,-112.5 0,-131.5 103,-131.5 103,-112.5 0,-112.5"/>
<text text-anchor="middle" x="51.5" y="-119.5" font-family="Helvetica,sans-Serif" font-size="10.00" fill="#000000">DecoderSymbol.h</text>
</a>
</g>
</g>
<!-- Node18&#45;&gt;Node19 -->
<g id="edge30" class="edge">
<title>Node18&#45;&gt;Node19</title>
<path fill="none" stroke="#191970" d="M283.758,-172.2179C241.9024,-163.1681 160.0763,-145.476 105.588,-133.6947"/>
<polygon fill="#191970" stroke="#191970" points="106.2616,-130.2595 95.7478,-131.5671 104.7822,-137.1014 106.2616,-130.2595"/>
</g>
<!-- Node19&#45;&gt;Node17 -->
<g id="edge31" class="edge">
<title>Node19&#45;&gt;Node17</title>
<path fill="none" stroke="#191970" d="M65.4349,-112.2455C77.5947,-103.7337 95.4464,-91.2375 109.5285,-81.3801"/>
<polygon fill="#191970" stroke="#191970" points="111.5395,-84.2447 117.7248,-75.6427 107.5253,-78.51 111.5395,-84.2447"/>
</g>
<!-- Node20&#45;&gt;Node4 -->
<g id="edge38" class="edge">
<title>Node20&#45;&gt;Node4</title>
<path fill="none" stroke="#191970" d="M767.875,-231.0479C826.0788,-226.264 920.9252,-214.5279 942.5,-188 966.4119,-158.5985 952.1576,-110.9591 941.3067,-84.7576"/>
<polygon fill="#191970" stroke="#191970" points="944.4884,-83.2979 937.2627,-75.5494 938.0792,-86.1127 944.4884,-83.2979"/>
</g>
<!-- Node20&#45;&gt;Node9 -->
<g id="edge39" class="edge">
<title>Node20&#45;&gt;Node9</title>
<path fill="none" stroke="#191970" d="M767.6464,-230.0546C821.1236,-224.4143 904.3766,-211.9679 923.5,-188 944.5666,-161.5967 942.8606,-139.6786 923.5,-112 914.3765,-98.9568 879.0668,-86.7264 848.1396,-78.1602"/>
<polygon fill="#191970" stroke="#191970" points="848.8569,-74.7288 838.291,-75.5114 847.0388,-81.4886 848.8569,-74.7288"/>
</g>
<!-- Node20&#45;&gt;Node11 -->
<g id="edge36" class="edge">
<title>Node20&#45;&gt;Node11</title>
<path fill="none" stroke="#191970" d="M767.7126,-231.4808C829.7349,-227.0729 935.0757,-215.6386 960.5,-188 1000.3557,-144.6733 1007.4813,-102.5942 971.5,-56 954.6311,-34.1555 878.7569,-20.6971 832.3111,-14.3562"/>
<polygon fill="#191970" stroke="#191970" points="832.6878,-10.8756 822.3162,-13.0391 831.7732,-17.8156 832.6878,-10.8756"/>
</g>
<!-- Node20&#45;&gt;Node15 -->
<g id="edge40" class="edge">
<title>Node20&#45;&gt;Node15</title>
<path fill="none" stroke="#191970" d="M690.385,-224.3733C660.1571,-215.021 614.104,-200.7725 581.0261,-190.5385"/>
<polygon fill="#191970" stroke="#191970" points="581.7967,-187.1133 571.209,-187.5011 579.7277,-193.8005 581.7967,-187.1133"/>
</g>
<!-- Node20&#45;&gt;Node18 -->
<g id="edge48" class="edge">
<title>Node20&#45;&gt;Node18</title>
<path fill="none" stroke="#191970" d="M675.152,-227.6849C592.6443,-216.443 421.9432,-193.1845 347.0597,-182.9814"/>
<polygon fill="#191970" stroke="#191970" points="347.5293,-179.5131 337.1483,-181.6309 346.5842,-186.449 347.5293,-179.5131"/>
</g>
<!-- Node20&#45;&gt;Node19 -->
<g id="edge41" class="edge">
<title>Node20&#45;&gt;Node19</title>
<path fill="none" stroke="#191970" d="M675.3962,-232.072C593.8555,-228.0387 419.1478,-216.5917 274.5,-188 239.1695,-181.0164 144.7876,-151.7154 90.8127,-134.5926"/>
<polygon fill="#191970" stroke="#191970" points="91.8184,-131.2397 81.2279,-131.5452 89.6974,-137.9107 91.8184,-131.2397"/>
</g>
<!-- Node21 -->
<g id="node22" class="node">
<title>Node21</title>
<polygon fill="none" stroke="#bfbfbf" points="812,-112.5 812,-131.5 881,-131.5 881,-112.5 812,-112.5"/>
<text text-anchor="middle" x="846.5" y="-119.5" font-family="Helvetica,sans-Serif" font-size="10.00" fill="#000000">type_traits</text>
</g>
<!-- Node20&#45;&gt;Node21 -->
<g id="edge37" class="edge">
<title>Node20&#45;&gt;Node21</title>
<path fill="none" stroke="#191970" d="M750.6594,-224.3577C769.8021,-216.8581 794.3732,-204.8702 811.5,-188 824.8836,-174.817 834.3268,-155.4235 840.0041,-141.0675"/>
<polygon fill="#191970" stroke="#191970" points="843.2952,-142.2585 843.475,-131.6652 836.7284,-139.8343 843.2952,-142.2585"/>
</g>
<!-- Node22 -->
<g id="node23" class="node">
<title>Node22</title>
<g id="a_node23"><a xlink:href="../../dc/d3b/ReverseSymbolLookupTable_8h.html" target="_top" xlink:title="Maps CDF back to source symbol &#45; needed for the decoder. ">
<polygon fill="none" stroke="#000000" points="640.5,-168.5 640.5,-187.5 802.5,-187.5 802.5,-168.5 640.5,-168.5"/>
<text text-anchor="middle" x="721.5" y="-175.5" font-family="Helvetica,sans-Serif" font-size="10.00" fill="#000000">ReverseSymbolLookupTable.h</text>
</a>
</g>
</g>
<!-- Node20&#45;&gt;Node22 -->
<g id="edge42" class="edge">
<title>Node20&#45;&gt;Node22</title>
<path fill="none" stroke="#191970" d="M721.5,-224.2455C721.5,-216.9382 721.5,-206.6944 721.5,-197.7046"/>
<polygon fill="#191970" stroke="#191970" points="725.0001,-197.6426 721.5,-187.6427 718.0001,-197.6427 725.0001,-197.6426"/>
</g>
<!-- Node22&#45;&gt;Node1 -->
<g id="edge46" class="edge">
<title>Node22&#45;&gt;Node1</title>
<path fill="none" stroke="#191970" d="M702.5136,-168.2455C685.3208,-159.4125 659.7762,-146.2887 640.2868,-136.2758"/>
<polygon fill="#191970" stroke="#191970" points="641.763,-133.0993 631.2688,-131.6427 638.5641,-139.3257 641.763,-133.0993"/>
</g>
<!-- Node22&#45;&gt;Node6 -->
<g id="edge43" class="edge">
<title>Node22&#45;&gt;Node6</title>
<path fill="none" stroke="#191970" d="M719.3482,-168.3415C715.6182,-153.8862 706.5566,-126.7506 688.5,-112 667.5606,-94.8944 594.6653,-79.5783 551.0979,-71.6683"/>
<polygon fill="#191970" stroke="#191970" points="551.6857,-68.218 541.2271,-69.9116 550.4591,-75.1097 551.6857,-68.218"/>
</g>
<!-- Node22&#45;&gt;Node9 -->
<g id="edge45" class="edge">
<title>Node22&#45;&gt;Node9</title>
<path fill="none" stroke="#191970" d="M730.4605,-168.1541C738.5037,-159.0917 750.4083,-145.1079 759.5,-132 770.0686,-116.7629 780.4625,-98.4118 787.7011,-84.932"/>
<polygon fill="#191970" stroke="#191970" points="790.9984,-86.1831 792.572,-75.7057 784.8081,-82.9149 790.9984,-86.1831"/>
</g>
<!-- Node22&#45;&gt;Node10 -->
<g id="edge47" class="edge">
<title>Node22&#45;&gt;Node10</title>
<path fill="none" stroke="#191970" d="M676.5825,-168.48C638.847,-160.0905 583.6797,-146.9066 536.5,-132 486.9269,-116.3372 430.9836,-93.7859 396.9903,-79.5173"/>
<polygon fill="#191970" stroke="#191970" points="398.1664,-76.2147 387.5925,-75.5485 395.443,-82.6632 398.1664,-76.2147"/>
</g>
<!-- Node22&#45;&gt;Node21 -->
<g id="edge44" class="edge">
<title>Node22&#45;&gt;Node21</title>
<path fill="none" stroke="#191970" d="M742.9883,-168.3733C763.144,-159.3435 793.488,-145.7494 816.118,-135.6111"/>
<polygon fill="#191970" stroke="#191970" points="817.5971,-138.7838 825.2921,-131.5011 814.7351,-132.3955 817.5971,-138.7838"/>
</g>
</g>
</svg>
