<?xml version="1.0" encoding="UTF-8" standalone="no"?>
<!DOCTYPE svg PUBLIC "-//W3C//DTD SVG 1.1//EN"
 "http://www.w3.org/Graphics/SVG/1.1/DTD/svg11.dtd">
<!-- Generated by graphviz version 2.40.1 (20161225.0304)
 -->
<!-- Title: /home/travis/build/AliceO2Group/AliceO2/DataFormats/Detectors/TPC/include/DataFormatsTPC/CTF.h Pages: 1 -->
<svg width="1564pt" height="464pt"
 viewBox="0.00 0.00 1563.91 464.00" xmlns="http://www.w3.org/2000/svg" xmlns:xlink="http://www.w3.org/1999/xlink">
<g id="graph0" class="graph" transform="scale(1 1) rotate(0) translate(4 460)">
<title>/home/travis/build/AliceO2Group/AliceO2/DataFormats/Detectors/TPC/include/DataFormatsTPC/CTF.h</title>
<!-- Node0 -->
<g id="node1" class="node">
<title>Node0</title>
<polygon fill="#bfbfbf" stroke="#000000" points="1026.9058,-403.5 1026.9058,-455.5 1216.9058,-455.5 1216.9058,-403.5 1026.9058,-403.5"/>
<text text-anchor="start" x="1034.9058" y="-443.5" font-family="Helvetica,sans-Serif" font-size="10.00" fill="#000000">/home/travis/build</text>
<text text-anchor="start" x="1034.9058" y="-432.5" font-family="Helvetica,sans-Serif" font-size="10.00" fill="#000000">/AliceO2Group/AliceO2</text>
<text text-anchor="start" x="1034.9058" y="-421.5" font-family="Helvetica,sans-Serif" font-size="10.00" fill="#000000">/DataFormats/Detectors</text>
<text text-anchor="middle" x="1121.9058" y="-410.5" font-family="Helvetica,sans-Serif" font-size="10.00" fill="#000000">/TPC/include/DataFormatsTPC/CTF.h</text>
</g>
<!-- Node1 -->
<g id="node2" class="node">
<title>Node1</title>
<g id="a_node2"><a xlink:href="../../da/d91/EncodedBlocks_8h.html" target="_top" xlink:title="DetectorsCommonDataFormats\l/EncodedBlocks.h">
<polygon fill="none" stroke="#000000" points="929.4058,-336.5 929.4058,-366.5 1100.4058,-366.5 1100.4058,-336.5 929.4058,-336.5"/>
<text text-anchor="start" x="937.4058" y="-354.5" font-family="Helvetica,sans-Serif" font-size="10.00" fill="#000000">DetectorsCommonDataFormats</text>
<text text-anchor="middle" x="1014.9058" y="-343.5" font-family="Helvetica,sans-Serif" font-size="10.00" fill="#000000">/EncodedBlocks.h</text>
</a>
</g>
</g>
<!-- Node0&#45;&gt;Node1 -->
<g id="edge1" class="edge">
<title>Node0&#45;&gt;Node1</title>
<path fill="none" stroke="#191970" d="M1085.9787,-403.3101C1072.2331,-393.29 1056.7465,-382.0007 1043.7464,-372.524"/>
<polygon fill="#191970" stroke="#191970" points="1045.7485,-369.6522 1035.6059,-366.5897 1041.6249,-375.3088 1045.7485,-369.6522"/>
</g>
<!-- Node30 -->
<g id="node31" class="node">
<title>Node30</title>
<g id="a_node31"><a xlink:href="../../d2/d7d/CompressedClusters_8h.html" target="_top" xlink:title="Container to store compressed TPC cluster data. ">
<polygon fill="none" stroke="#000000" points="1148.9058,-336.5 1148.9058,-366.5 1310.9058,-366.5 1310.9058,-336.5 1148.9058,-336.5"/>
<text text-anchor="start" x="1156.9058" y="-354.5" font-family="Helvetica,sans-Serif" font-size="10.00" fill="#000000">DataFormatsTPC/Compressed</text>
<text text-anchor="middle" x="1229.9058" y="-343.5" font-family="Helvetica,sans-Serif" font-size="10.00" fill="#000000">Clusters.h</text>
</a>
</g>
</g>
<!-- Node0&#45;&gt;Node30 -->
<g id="edge57" class="edge">
<title>Node0&#45;&gt;Node30</title>
<path fill="none" stroke="#191970" d="M1158.1687,-403.3101C1172.0428,-393.29 1187.6742,-382.0007 1200.7957,-372.524"/>
<polygon fill="#191970" stroke="#191970" points="1202.9548,-375.2821 1209.0124,-366.5897 1198.8563,-369.6073 1202.9548,-375.2821"/>
</g>
<!-- Node2 -->
<g id="node3" class="node">
<title>Node2</title>
<polygon fill="none" stroke="#bfbfbf" points="965.4058,-112.5 965.4058,-131.5 1034.4058,-131.5 1034.4058,-112.5 965.4058,-112.5"/>
<text text-anchor="middle" x="999.9058" y="-119.5" font-family="Helvetica,sans-Serif" font-size="10.00" fill="#000000">type_traits</text>
</g>
<!-- Node1&#45;&gt;Node2 -->
<g id="edge2" class="edge">
<title>Node1&#45;&gt;Node2</title>
<path fill="none" stroke="#191970" d="M1044.8624,-336.3925C1058.5246,-327.7636 1073.3193,-315.5426 1080.9058,-300 1084.8049,-292.0119 1082.9916,-288.6407 1080.9058,-280 1067.7137,-225.3499 1032.2062,-168.3743 1012.8755,-140.1249"/>
<polygon fill="#191970" stroke="#191970" points="1015.5858,-137.8925 1006.9957,-131.6908 1009.8435,-141.8958 1015.5858,-137.8925"/>
</g>
<!-- Node3 -->
<g id="node4" class="node">
<title>Node3</title>
<polygon fill="none" stroke="#bfbfbf" points="1164.4058,-224.5 1164.4058,-243.5 1223.4058,-243.5 1223.4058,-224.5 1164.4058,-224.5"/>
<text text-anchor="middle" x="1193.9058" y="-231.5" font-family="Helvetica,sans-Serif" font-size="10.00" fill="#000000">Rtypes.h</text>
</g>
<!-- Node1&#45;&gt;Node3 -->
<g id="edge3" class="edge">
<title>Node1&#45;&gt;Node3</title>
<path fill="none" stroke="#191970" d="M1048.8213,-336.3344C1068.6862,-326.8951 1093.9144,-313.927 1114.9058,-300 1137.2722,-285.1609 1160.5855,-265.0171 1176.0367,-250.9002"/>
<polygon fill="#191970" stroke="#191970" points="1178.7983,-253.1129 1183.7558,-243.7495 1174.0412,-247.9777 1178.7983,-253.1129"/>
</g>
<!-- Node4 -->
<g id="node5" class="node">
<title>Node4</title>
<g id="a_node5"><a xlink:href="../../d4/de7/rans_8h.html" target="_top" xlink:title="header for public api ">
<polygon fill="none" stroke="#000000" points="564.9058,-280.5 564.9058,-299.5 638.9058,-299.5 638.9058,-280.5 564.9058,-280.5"/>
<text text-anchor="middle" x="601.9058" y="-287.5" font-family="Helvetica,sans-Serif" font-size="10.00" fill="#000000">rANS/rans.h</text>
</a>
</g>
</g>
<!-- Node1&#45;&gt;Node4 -->
<g id="edge4" class="edge">
<title>Node1&#45;&gt;Node4</title>
<path fill="none" stroke="#191970" d="M929.332,-338.7572C844.3827,-326.1073 717.278,-307.1801 649.1147,-297.0299"/>
<polygon fill="#191970" stroke="#191970" points="649.5034,-293.5493 639.0969,-295.5381 648.4723,-300.4729 649.5034,-293.5493"/>
</g>
<!-- Node26 -->
<g id="node27" class="node">
<title>Node26</title>
<polygon fill="none" stroke="#bfbfbf" points="722.9058,-280.5 722.9058,-299.5 774.9058,-299.5 774.9058,-280.5 722.9058,-280.5"/>
<text text-anchor="middle" x="748.9058" y="-287.5" font-family="Helvetica,sans-Serif" font-size="10.00" fill="#000000">TTree.h</text>
</g>
<!-- Node1&#45;&gt;Node26 -->
<g id="edge53" class="edge">
<title>Node1&#45;&gt;Node26</title>
<path fill="none" stroke="#191970" d="M942.3349,-336.4684C899.1052,-327.2457 842.9626,-314.8029 784.94,-300.1668"/>
<polygon fill="#191970" stroke="#191970" points="785.7879,-296.7711 775.234,-297.7022 784.065,-303.5558 785.7879,-296.7711"/>
</g>
<!-- Node27 -->
<g id="node28" class="node">
<title>Node27</title>
<g id="a_node28"><a xlink:href="../../d4/d8f/StringUtils_8h.html" target="_top" xlink:title="CommonUtils/StringUtils.h">
<polygon fill="none" stroke="#000000" points="792.9058,-280.5 792.9058,-299.5 938.9058,-299.5 938.9058,-280.5 792.9058,-280.5"/>
<text text-anchor="middle" x="865.9058" y="-287.5" font-family="Helvetica,sans-Serif" font-size="10.00" fill="#000000">CommonUtils/StringUtils.h</text>
</a>
</g>
</g>
<!-- Node1&#45;&gt;Node27 -->
<g id="edge54" class="edge">
<title>Node1&#45;&gt;Node27</title>
<path fill="none" stroke="#191970" d="M978.4563,-336.4554C954.0315,-326.374 922.1477,-313.2139 898.5538,-303.4755"/>
<polygon fill="#191970" stroke="#191970" points="899.5745,-300.1104 888.9955,-299.5303 896.9037,-306.5809 899.5745,-300.1104"/>
</g>
<!-- Node29 -->
<g id="node30" class="node">
<title>Node29</title>
<g id="a_node30"><a xlink:href="../../dd/da4/Logger_8h.html" target="_top" xlink:title="Framework/Logger.h">
<polygon fill="none" stroke="#000000" points="957.4058,-280.5 957.4058,-299.5 1072.4058,-299.5 1072.4058,-280.5 957.4058,-280.5"/>
<text text-anchor="middle" x="1014.9058" y="-287.5" font-family="Helvetica,sans-Serif" font-size="10.00" fill="#000000">Framework/Logger.h</text>
</a>
</g>
</g>
<!-- Node1&#45;&gt;Node29 -->
<g id="edge56" class="edge">
<title>Node1&#45;&gt;Node29</title>
<path fill="none" stroke="#191970" d="M1014.9058,-336.2977C1014.9058,-328.3834 1014.9058,-318.6043 1014.9058,-310.0759"/>
<polygon fill="#191970" stroke="#191970" points="1018.4059,-309.8469 1014.9058,-299.8469 1011.4059,-309.847 1018.4059,-309.8469"/>
</g>
<!-- Node5 -->
<g id="node6" class="node">
<title>Node5</title>
<g id="a_node6"><a xlink:href="../../d0/d51/SymbolStatistics_8h.html" target="_top" xlink:title="Structure to depict the distribution of symbols in the source message. ">
<polygon fill="none" stroke="#000000" points="508.9058,-112.5 508.9058,-131.5 642.9058,-131.5 642.9058,-112.5 508.9058,-112.5"/>
<text text-anchor="middle" x="575.9058" y="-119.5" font-family="Helvetica,sans-Serif" font-size="10.00" fill="#000000">rANS/SymbolStatistics.h</text>
</a>
</g>
</g>
<!-- Node4&#45;&gt;Node5 -->
<g id="edge5" class="edge">
<title>Node4&#45;&gt;Node5</title>
<path fill="none" stroke="#191970" d="M595.8573,-280.352C585.246,-262.7918 563.6661,-224.0841 555.9058,-188 552.4154,-171.7699 558.5731,-153.7595 564.9516,-140.6584"/>
<polygon fill="#191970" stroke="#191970" points="568.1068,-142.1797 569.7162,-131.7078 561.9277,-138.8904 568.1068,-142.1797"/>
</g>
<!-- Node17 -->
<g id="node18" class="node">
<title>Node17</title>
<g id="a_node18"><a xlink:href="../../dd/d74/Utilities_2rANS_2include_2rANS_2Encoder_8h.html" target="_top" xlink:title="rANS/Encoder.h">
<polygon fill="none" stroke="#000000" points="370.4058,-224.5 370.4058,-243.5 461.4058,-243.5 461.4058,-224.5 370.4058,-224.5"/>
<text text-anchor="middle" x="415.9058" y="-231.5" font-family="Helvetica,sans-Serif" font-size="10.00" fill="#000000">rANS/Encoder.h</text>
</a>
</g>
</g>
<!-- Node4&#45;&gt;Node17 -->
<g id="edge18" class="edge">
<title>Node4&#45;&gt;Node17</title>
<path fill="none" stroke="#191970" d="M569.9313,-280.3733C538.7345,-270.9807 491.1349,-256.6496 457.1126,-246.4064"/>
<polygon fill="#191970" stroke="#191970" points="458.0476,-243.0327 447.4631,-243.5011 456.0295,-249.7355 458.0476,-243.0327"/>
</g>
<!-- Node24 -->
<g id="node25" class="node">
<title>Node24</title>
<g id="a_node25"><a xlink:href="../../dc/d62/Utilities_2rANS_2include_2rANS_2Decoder_8h.html" target="_top" xlink:title="rANS/Decoder.h">
<polygon fill="none" stroke="#000000" points="705.9058,-224.5 705.9058,-243.5 797.9058,-243.5 797.9058,-224.5 705.9058,-224.5"/>
<text text-anchor="middle" x="751.9058" y="-231.5" font-family="Helvetica,sans-Serif" font-size="10.00" fill="#000000">rANS/Decoder.h</text>
</a>
</g>
</g>
<!-- Node4&#45;&gt;Node24 -->
<g id="edge39" class="edge">
<title>Node4&#45;&gt;Node24</title>
<path fill="none" stroke="#191970" d="M627.6918,-280.3733C652.3105,-271.1822 689.5959,-257.2624 716.8933,-247.0713"/>
<polygon fill="#191970" stroke="#191970" points="718.3121,-250.2777 726.4564,-243.5011 715.8638,-243.7198 718.3121,-250.2777"/>
</g>
<!-- Node6 -->
<g id="node7" class="node">
<title>Node6</title>
<polygon fill="none" stroke="#bfbfbf" points="255.9058,-56.5 255.9058,-75.5 319.9058,-75.5 319.9058,-56.5 255.9058,-56.5"/>
<text text-anchor="middle" x="287.9058" y="-63.5" font-family="Helvetica,sans-Serif" font-size="10.00" fill="#000000">algorithm</text>
</g>
<!-- Node5&#45;&gt;Node6 -->
<g id="edge6" class="edge">
<title>Node5&#45;&gt;Node6</title>
<path fill="none" stroke="#191970" d="M522.0031,-112.4315C472.4858,-103.5007 397.1134,-89.5517 331.9058,-76 331.3066,-75.8755 330.703,-75.7492 330.0958,-75.6215"/>
<polygon fill="#191970" stroke="#191970" points="330.5902,-72.1476 320.0765,-73.4564 329.1116,-78.9897 330.5902,-72.1476"/>
</g>
<!-- Node7 -->
<g id="node8" class="node">
<title>Node7</title>
<polygon fill="none" stroke="#bfbfbf" points="340.9058,-56.5 340.9058,-75.5 392.9058,-75.5 392.9058,-56.5 340.9058,-56.5"/>
<text text-anchor="middle" x="366.9058" y="-63.5" font-family="Helvetica,sans-Serif" font-size="10.00" fill="#000000">cassert</text>
</g>
<!-- Node5&#45;&gt;Node7 -->
<g id="edge7" class="edge">
<title>Node5&#45;&gt;Node7</title>
<path fill="none" stroke="#191970" d="M539.9775,-112.3733C501.6223,-102.0963 441.2015,-85.907 402.843,-75.6291"/>
<polygon fill="#191970" stroke="#191970" points="403.6848,-72.2313 393.1197,-73.0238 401.8731,-78.9927 403.6848,-72.2313"/>
</g>
<!-- Node8 -->
<g id="node9" class="node">
<title>Node8</title>
<polygon fill="none" stroke="#bfbfbf" points="900.9058,-56.5 900.9058,-75.5 960.9058,-75.5 960.9058,-56.5 900.9058,-56.5"/>
<text text-anchor="middle" x="930.9058" y="-63.5" font-family="Helvetica,sans-Serif" font-size="10.00" fill="#000000">iostream</text>
</g>
<!-- Node5&#45;&gt;Node8 -->
<g id="edge8" class="edge">
<title>Node5&#45;&gt;Node8</title>
<path fill="none" stroke="#191970" d="M642.9553,-113.4566C705.898,-105.1042 802.5791,-91.4205 885.9058,-76 887.3814,-75.7269 888.8821,-75.4402 890.3966,-75.1433"/>
<polygon fill="#191970" stroke="#191970" points="891.376,-78.5153 900.4662,-73.0729 889.9662,-71.6587 891.376,-78.5153"/>
</g>
<!-- Node9 -->
<g id="node10" class="node">
<title>Node9</title>
<polygon fill="none" stroke="#bfbfbf" points="610.9058,-56.5 610.9058,-75.5 666.9058,-75.5 666.9058,-56.5 610.9058,-56.5"/>
<text text-anchor="middle" x="638.9058" y="-63.5" font-family="Helvetica,sans-Serif" font-size="10.00" fill="#000000">numeric</text>
</g>
<!-- Node5&#45;&gt;Node9 -->
<g id="edge9" class="edge">
<title>Node5&#45;&gt;Node9</title>
<path fill="none" stroke="#191970" d="M586.8796,-112.2455C596.094,-104.0549 609.459,-92.1749 620.3355,-82.5069"/>
<polygon fill="#191970" stroke="#191970" points="622.909,-84.9023 628.0578,-75.6427 618.2584,-79.6704 622.909,-84.9023"/>
</g>
<!-- Node10 -->
<g id="node11" class="node">
<title>Node10</title>
<polygon fill="none" stroke="#bfbfbf" points="685.4058,-56.5 685.4058,-75.5 732.4058,-75.5 732.4058,-56.5 685.4058,-56.5"/>
<text text-anchor="middle" x="708.9058" y="-63.5" font-family="Helvetica,sans-Serif" font-size="10.00" fill="#000000">vector</text>
</g>
<!-- Node5&#45;&gt;Node10 -->
<g id="edge10" class="edge">
<title>Node5&#45;&gt;Node10</title>
<path fill="none" stroke="#191970" d="M598.7694,-112.3733C620.3108,-103.3032 652.7896,-89.6279 676.9014,-79.4755"/>
<polygon fill="#191970" stroke="#191970" points="678.4825,-82.6075 686.3407,-75.5011 675.7661,-76.156 678.4825,-82.6075"/>
</g>
<!-- Node11 -->
<g id="node12" class="node">
<title>Node11</title>
<polygon fill="none" stroke="#bfbfbf" points="487.4058,-.5 487.4058,-19.5 534.4058,-19.5 534.4058,-.5 487.4058,-.5"/>
<text text-anchor="middle" x="510.9058" y="-7.5" font-family="Helvetica,sans-Serif" font-size="10.00" fill="#000000">cmath</text>
</g>
<!-- Node5&#45;&gt;Node11 -->
<g id="edge11" class="edge">
<title>Node5&#45;&gt;Node11</title>
<path fill="none" stroke="#191970" d="M563.2035,-112.3768C552.8254,-103.8772 538.5117,-90.5924 529.9058,-76 521.4827,-61.7174 516.6041,-43.4765 513.9047,-29.7922"/>
<polygon fill="#191970" stroke="#191970" points="517.2857,-28.8061 512.1198,-19.556 510.3897,-30.0086 517.2857,-28.8061"/>
</g>
<!-- Node12 -->
<g id="node13" class="node">
<title>Node12</title>
<polygon fill="none" stroke="#bfbfbf" points="539.4058,-56.5 539.4058,-75.5 592.4058,-75.5 592.4058,-56.5 539.4058,-56.5"/>
<text text-anchor="middle" x="565.9058" y="-63.5" font-family="Helvetica,sans-Serif" font-size="10.00" fill="#000000">iterator</text>
</g>
<!-- Node5&#45;&gt;Node12 -->
<g id="edge12" class="edge">
<title>Node5&#45;&gt;Node12</title>
<path fill="none" stroke="#191970" d="M574.164,-112.2455C572.8591,-104.9382 571.0298,-94.6944 569.4245,-85.7046"/>
<polygon fill="#191970" stroke="#191970" points="572.8312,-84.8717 567.6277,-75.6427 565.9402,-86.1022 572.8312,-84.8717"/>
</g>
<!-- Node13 -->
<g id="node14" class="node">
<title>Node13</title>
<polygon fill="none" stroke="#bfbfbf" points="768.9058,-56.5 768.9058,-75.5 876.9058,-75.5 876.9058,-56.5 768.9058,-56.5"/>
<text text-anchor="middle" x="822.9058" y="-63.5" font-family="Helvetica,sans-Serif" font-size="10.00" fill="#000000">fairlogger/Logger.h</text>
</g>
<!-- Node5&#45;&gt;Node13 -->
<g id="edge13" class="edge">
<title>Node5&#45;&gt;Node13</title>
<path fill="none" stroke="#191970" d="M618.086,-112.4369C660.3581,-102.8529 725.512,-88.0812 770.9475,-77.78"/>
<polygon fill="#191970" stroke="#191970" points="771.9211,-81.1482 780.8996,-75.5237 770.3732,-74.3215 771.9211,-81.1482"/>
</g>
<!-- Node14 -->
<g id="node15" class="node">
<title>Node14</title>
<g id="a_node15"><a xlink:href="../../d4/da1/helper_8h.html" target="_top" xlink:title="various helper functions ">
<polygon fill="none" stroke="#000000" points="421.9058,-56.5 421.9058,-75.5 477.9058,-75.5 477.9058,-56.5 421.9058,-56.5"/>
<text text-anchor="middle" x="449.9058" y="-63.5" font-family="Helvetica,sans-Serif" font-size="10.00" fill="#000000">helper.h</text>
</a>
</g>
</g>
<!-- Node5&#45;&gt;Node14 -->
<g id="edge14" class="edge">
<title>Node5&#45;&gt;Node14</title>
<path fill="none" stroke="#191970" d="M554.2457,-112.3733C533.9287,-103.3435 503.3419,-89.7494 480.5308,-79.6111"/>
<polygon fill="#191970" stroke="#191970" points="481.843,-76.3642 471.2834,-75.5011 479,-82.7609 481.843,-76.3642"/>
</g>
<!-- Node14&#45;&gt;Node11 -->
<g id="edge16" class="edge">
<title>Node14&#45;&gt;Node11</title>
<path fill="none" stroke="#191970" d="M460.5312,-56.2455C469.4532,-48.0549 482.3939,-36.1749 492.9251,-26.5069"/>
<polygon fill="#191970" stroke="#191970" points="495.4026,-28.9837 500.4022,-19.6427 490.6687,-23.8271 495.4026,-28.9837"/>
</g>
<!-- Node15 -->
<g id="node16" class="node">
<title>Node15</title>
<polygon fill="none" stroke="#bfbfbf" points="794.4058,-.5 794.4058,-19.5 847.4058,-19.5 847.4058,-.5 794.4058,-.5"/>
<text text-anchor="middle" x="820.9058" y="-7.5" font-family="Helvetica,sans-Serif" font-size="10.00" fill="#000000">cstddef</text>
</g>
<!-- Node14&#45;&gt;Node15 -->
<g id="edge15" class="edge">
<title>Node14&#45;&gt;Node15</title>
<path fill="none" stroke="#191970" d="M478.0956,-61.7449C544.3373,-51.7462 709.8919,-26.7568 784.0126,-15.5688"/>
<polygon fill="#191970" stroke="#191970" points="784.8967,-18.9751 794.2623,-14.0217 783.8519,-12.0535 784.8967,-18.9751"/>
</g>
<!-- Node16 -->
<g id="node17" class="node">
<title>Node16</title>
<polygon fill="none" stroke="#bfbfbf" points="418.9058,-.5 418.9058,-19.5 468.9058,-19.5 468.9058,-.5 418.9058,-.5"/>
<text text-anchor="middle" x="443.9058" y="-7.5" font-family="Helvetica,sans-Serif" font-size="10.00" fill="#000000">chrono</text>
</g>
<!-- Node14&#45;&gt;Node16 -->
<g id="edge17" class="edge">
<title>Node14&#45;&gt;Node16</title>
<path fill="none" stroke="#191970" d="M448.8607,-56.2455C448.0778,-48.9382 446.9802,-38.6944 446.017,-29.7046"/>
<polygon fill="#191970" stroke="#191970" points="449.4845,-29.2129 444.939,-19.6427 442.5243,-29.9587 449.4845,-29.2129"/>
</g>
<!-- Node17&#45;&gt;Node6 -->
<g id="edge20" class="edge">
<title>Node17&#45;&gt;Node6</title>
<path fill="none" stroke="#191970" d="M370.1264,-227.6007C283.9832,-214.4991 103.2478,-181.611 67.9058,-132 2.1973,-39.7623 -102.0434,-149.8034 242.9058,-76 243.796,-75.8095 244.696,-75.6163 245.603,-75.4208"/>
<polygon fill="#191970" stroke="#191970" points="246.4479,-78.8189 255.4741,-73.2711 244.9584,-71.9792 246.4479,-78.8189"/>
</g>
<!-- Node17&#45;&gt;Node13 -->
<g id="edge21" class="edge">
<title>Node17&#45;&gt;Node13</title>
<path fill="none" stroke="#191970" d="M461.4234,-232.4545C566.0821,-228.4331 816.809,-215.9528 841.9058,-188 867.5567,-159.4302 848.0116,-111.1149 833.9583,-84.6712"/>
<polygon fill="#191970" stroke="#191970" points="836.8773,-82.7197 828.9468,-75.6941 830.7652,-86.1318 836.8773,-82.7197"/>
</g>
<!-- Node17&#45;&gt;Node14 -->
<g id="edge38" class="edge">
<title>Node17&#45;&gt;Node14</title>
<path fill="none" stroke="#191970" d="M417.8312,-224.4862C423.2291,-197.8144 438.5904,-121.9117 445.9199,-85.695"/>
<polygon fill="#191970" stroke="#191970" points="449.3636,-86.3235 447.9169,-75.8279 442.5027,-84.9349 449.3636,-86.3235"/>
</g>
<!-- Node18 -->
<g id="node19" class="node">
<title>Node18</title>
<polygon fill="none" stroke="#bfbfbf" points="246.9058,-168.5 246.9058,-187.5 304.9058,-187.5 304.9058,-168.5 246.9058,-168.5"/>
<text text-anchor="middle" x="275.9058" y="-175.5" font-family="Helvetica,sans-Serif" font-size="10.00" fill="#000000">memory</text>
</g>
<!-- Node17&#45;&gt;Node18 -->
<g id="edge19" class="edge">
<title>Node17&#45;&gt;Node18</title>
<path fill="none" stroke="#191970" d="M391.839,-224.3733C369.063,-215.2629 334.6714,-201.5062 309.2568,-191.3404"/>
<polygon fill="#191970" stroke="#191970" points="310.2433,-187.9654 299.6586,-187.5011 307.6435,-194.4648 310.2433,-187.9654"/>
</g>
<!-- Node19 -->
<g id="node20" class="node">
<title>Node19</title>
<g id="a_node20"><a xlink:href="../../d8/dd9/SymbolTable_8h.html" target="_top" xlink:title="Container for information needed to encode/decode a symbol of the alphabet. ">
<polygon fill="none" stroke="#000000" points="564.9058,-168.5 564.9058,-187.5 652.9058,-187.5 652.9058,-168.5 564.9058,-168.5"/>
<text text-anchor="middle" x="608.9058" y="-175.5" font-family="Helvetica,sans-Serif" font-size="10.00" fill="#000000">SymbolTable.h</text>
</a>
</g>
</g>
<!-- Node17&#45;&gt;Node19 -->
<g id="edge22" class="edge">
<title>Node17&#45;&gt;Node19</title>
<path fill="none" stroke="#191970" d="M449.0837,-224.3733C481.4545,-214.9807 530.8456,-200.6496 566.1482,-190.4064"/>
<polygon fill="#191970" stroke="#191970" points="567.5323,-193.6492 576.1609,-187.5011 565.5817,-186.9264 567.5323,-193.6492"/>
</g>
<!-- Node20 -->
<g id="node21" class="node">
<title>Node20</title>
<g id="a_node21"><a xlink:href="../../d2/d53/EncoderSymbol_8h.html" target="_top" xlink:title="Structure containing all relevant information to encode a symbol. ">
<polygon fill="none" stroke="#000000" points="237.4058,-112.5 237.4058,-131.5 338.4058,-131.5 338.4058,-112.5 237.4058,-112.5"/>
<text text-anchor="middle" x="287.9058" y="-119.5" font-family="Helvetica,sans-Serif" font-size="10.00" fill="#000000">EncoderSymbol.h</text>
</a>
</g>
</g>
<!-- Node17&#45;&gt;Node20 -->
<g id="edge26" class="edge">
<title>Node17&#45;&gt;Node20</title>
<path fill="none" stroke="#191970" d="M370.1028,-228.5261C322.8937,-221.8311 253.98,-208.7562 237.9058,-188 224.5485,-170.752 244.5986,-150.7598 263.1419,-137.3383"/>
<polygon fill="#191970" stroke="#191970" points="265.1536,-140.2028 271.4304,-131.6674 261.2009,-134.4256 265.1536,-140.2028"/>
</g>
<!-- Node22 -->
<g id="node23" class="node">
<title>Node22</title>
<g id="a_node23"><a xlink:href="../../d5/d7a/Coder_8h.html" target="_top" xlink:title="Stateless class for coding and decoding symbols using rANS. ">
<polygon fill="none" stroke="#000000" points="361.4058,-168.5 361.4058,-187.5 414.4058,-187.5 414.4058,-168.5 361.4058,-168.5"/>
<text text-anchor="middle" x="387.9058" y="-175.5" font-family="Helvetica,sans-Serif" font-size="10.00" fill="#000000">Coder.h</text>
</a>
</g>
</g>
<!-- Node17&#45;&gt;Node22 -->
<g id="edge30" class="edge">
<title>Node17&#45;&gt;Node22</title>
<path fill="none" stroke="#191970" d="M411.0286,-224.2455C407.2545,-216.6973 401.9137,-206.0158 397.3157,-196.8197"/>
<polygon fill="#191970" stroke="#191970" points="400.3299,-195.0217 392.7272,-187.6427 394.0689,-198.1522 400.3299,-195.0217"/>
</g>
<!-- Node19&#45;&gt;Node5 -->
<g id="edge25" class="edge">
<title>Node19&#45;&gt;Node5</title>
<path fill="none" stroke="#191970" d="M603.1577,-168.2455C598.6623,-160.617 592.281,-149.7881 586.8234,-140.5267"/>
<polygon fill="#191970" stroke="#191970" points="589.6805,-138.4811 581.5881,-131.6427 583.6497,-142.035 589.6805,-138.4811"/>
</g>
<!-- Node19&#45;&gt;Node10 -->
<g id="edge23" class="edge">
<title>Node19&#45;&gt;Node10</title>
<path fill="none" stroke="#191970" d="M633.4928,-168.3384C650.0621,-160.704 671.2987,-148.5661 684.9058,-132 695.8973,-118.6184 702.0799,-99.7696 705.4064,-85.6391"/>
<polygon fill="#191970" stroke="#191970" points="708.9027,-86.0143 707.4991,-75.5129 702.0476,-84.5976 708.9027,-86.0143"/>
</g>
<!-- Node19&#45;&gt;Node13 -->
<g id="edge24" class="edge">
<title>Node19&#45;&gt;Node13</title>
<path fill="none" stroke="#191970" d="M630.0688,-168.3276C649.6473,-159.2691 679.476,-145.1876 704.9058,-132 737.4661,-115.1146 774.2408,-94.2529 797.9542,-80.56"/>
<polygon fill="#191970" stroke="#191970" points="799.7688,-83.5538 806.6668,-75.5121 796.2595,-77.4969 799.7688,-83.5538"/>
</g>
<!-- Node20&#45;&gt;Node7 -->
<g id="edge28" class="edge">
<title>Node20&#45;&gt;Node7</title>
<path fill="none" stroke="#191970" d="M301.6666,-112.2455C313.5611,-103.814 330.9708,-91.4729 344.8144,-81.6598"/>
<polygon fill="#191970" stroke="#191970" points="347.1686,-84.2811 353.3028,-75.6427 343.1205,-78.5704 347.1686,-84.2811"/>
</g>
<!-- Node20&#45;&gt;Node14 -->
<g id="edge29" class="edge">
<title>Node20&#45;&gt;Node14</title>
<path fill="none" stroke="#191970" d="M315.7546,-112.3733C342.5762,-103.1016 383.3186,-89.0178 412.8656,-78.804"/>
<polygon fill="#191970" stroke="#191970" points="414.1127,-82.0762 422.4204,-75.5011 411.8257,-75.4603 414.1127,-82.0762"/>
</g>
<!-- Node21 -->
<g id="node22" class="node">
<title>Node21</title>
<polygon fill="none" stroke="#bfbfbf" points="183.9058,-56.5 183.9058,-75.5 233.9058,-75.5 233.9058,-56.5 183.9058,-56.5"/>
<text text-anchor="middle" x="208.9058" y="-63.5" font-family="Helvetica,sans-Serif" font-size="10.00" fill="#000000">cstdint</text>
</g>
<!-- Node20&#45;&gt;Node21 -->
<g id="edge27" class="edge">
<title>Node20&#45;&gt;Node21</title>
<path fill="none" stroke="#191970" d="M274.1451,-112.2455C262.2506,-103.814 244.8408,-91.4729 230.9973,-81.6598"/>
<polygon fill="#191970" stroke="#191970" points="232.6912,-78.5704 222.5089,-75.6427 228.643,-84.2811 232.6912,-78.5704"/>
</g>
<!-- Node22&#45;&gt;Node7 -->
<g id="edge33" class="edge">
<title>Node22&#45;&gt;Node7</title>
<path fill="none" stroke="#191970" d="M386.1154,-168.4509C382.6748,-150.1013 375.0791,-109.5908 370.5376,-85.3693"/>
<polygon fill="#191970" stroke="#191970" points="373.9748,-84.7086 368.6918,-75.5249 367.0947,-85.9986 373.9748,-84.7086"/>
</g>
<!-- Node22&#45;&gt;Node10 -->
<g id="edge31" class="edge">
<title>Node22&#45;&gt;Node10</title>
<path fill="none" stroke="#191970" d="M414.4665,-175.6518C473.0637,-170.1097 611.4273,-154.9339 651.9058,-132 671.7596,-120.7515 687.9931,-99.871 697.9875,-84.5991"/>
<polygon fill="#191970" stroke="#191970" points="701.0588,-86.2885 703.3807,-75.9512 695.1192,-82.5842 701.0588,-86.2885"/>
</g>
<!-- Node22&#45;&gt;Node14 -->
<g id="edge37" class="edge">
<title>Node22&#45;&gt;Node14</title>
<path fill="none" stroke="#191970" d="M393.1919,-168.4509C403.487,-149.8533 426.3835,-108.4919 439.7221,-84.3964"/>
<polygon fill="#191970" stroke="#191970" points="442.8521,-85.969 444.6331,-75.5249 436.7278,-82.5787 442.8521,-85.969"/>
</g>
<!-- Node22&#45;&gt;Node20 -->
<g id="edge36" class="edge">
<title>Node22&#45;&gt;Node20</title>
<path fill="none" stroke="#191970" d="M370.4872,-168.2455C354.8573,-159.4928 331.704,-146.527 313.8873,-136.5496"/>
<polygon fill="#191970" stroke="#191970" points="315.5601,-133.475 305.1249,-131.6427 312.1398,-139.5825 315.5601,-133.475"/>
</g>
<!-- Node22&#45;&gt;Node21 -->
<g id="edge32" class="edge">
<title>Node22&#45;&gt;Node21</title>
<path fill="none" stroke="#191970" d="M361.4054,-171.0965C317.1944,-159.4793 232.7223,-136.8147 227.9058,-132 215.6757,-119.7741 211.2048,-100.2178 209.6269,-85.5609"/>
<polygon fill="#191970" stroke="#191970" points="213.1125,-85.2331 208.9035,-75.5102 206.1305,-85.7357 213.1125,-85.2331"/>
</g>
<!-- Node23 -->
<g id="node24" class="node">
<title>Node23</title>
<g id="a_node24"><a xlink:href="../../d7/d99/DecoderSymbol_8h.html" target="_top" xlink:title="Structure containing all relevant information for decoding a rANS encoded symbol. ...">
<polygon fill="none" stroke="#000000" points="77.4058,-112.5 77.4058,-131.5 180.4058,-131.5 180.4058,-112.5 77.4058,-112.5"/>
<text text-anchor="middle" x="128.9058" y="-119.5" font-family="Helvetica,sans-Serif" font-size="10.00" fill="#000000">DecoderSymbol.h</text>
</a>
</g>
</g>
<!-- Node22&#45;&gt;Node23 -->
<g id="edge34" class="edge">
<title>Node22&#45;&gt;Node23</title>
<path fill="none" stroke="#191970" d="M361.028,-171.3171C356.3269,-170.1846 351.4782,-169.0397 346.9058,-168 292.4932,-155.6267 230.178,-142.5909 186.1462,-133.5686"/>
<polygon fill="#191970" stroke="#191970" points="186.7003,-130.1096 176.2019,-131.5355 185.2981,-136.9677 186.7003,-130.1096"/>
</g>
<!-- Node23&#45;&gt;Node21 -->
<g id="edge35" class="edge">
<title>Node23&#45;&gt;Node21</title>
<path fill="none" stroke="#191970" d="M142.8408,-112.2455C155.0005,-103.7337 172.8523,-91.2375 186.9343,-81.3801"/>
<polygon fill="#191970" stroke="#191970" points="188.9454,-84.2447 195.1306,-75.6427 184.9311,-78.51 188.9454,-84.2447"/>
</g>
<!-- Node24&#45;&gt;Node2 -->
<g id="edge41" class="edge">
<title>Node24&#45;&gt;Node2</title>
<path fill="none" stroke="#191970" d="M798.3562,-227.067C848.9966,-218.852 926.1337,-204.218 950.9058,-188 968.7316,-176.3297 982.4312,-155.8241 990.7545,-140.7577"/>
<polygon fill="#191970" stroke="#191970" points="993.911,-142.2742 995.4371,-131.7899 987.706,-139.0342 993.911,-142.2742"/>
</g>
<!-- Node24&#45;&gt;Node8 -->
<g id="edge42" class="edge">
<title>Node24&#45;&gt;Node8</title>
<path fill="none" stroke="#191970" d="M796.6778,-224.4158C833.2447,-215.7414 881.062,-202.1842 894.9058,-188 922.1688,-160.0668 928.9464,-112.5488 930.53,-85.8055"/>
<polygon fill="#191970" stroke="#191970" points="934.0303,-85.8663 930.9352,-75.7337 927.0359,-85.5848 934.0303,-85.8663"/>
</g>
<!-- Node24&#45;&gt;Node13 -->
<g id="edge43" class="edge">
<title>Node24&#45;&gt;Node13</title>
<path fill="none" stroke="#191970" d="M791.422,-224.442C823.5195,-215.7844 865.0301,-202.2371 874.9058,-188 894.1579,-160.2458 888.78,-142.7969 874.9058,-112 869.3362,-99.6369 858.6195,-89.2563 848.3552,-81.5033"/>
<polygon fill="#191970" stroke="#191970" points="850.1608,-78.4948 839.9625,-75.623 846.144,-84.2277 850.1608,-78.4948"/>
</g>
<!-- Node24&#45;&gt;Node15 -->
<g id="edge40" class="edge">
<title>Node24&#45;&gt;Node15</title>
<path fill="none" stroke="#191970" d="M798.009,-227.2584C854.0803,-218.5894 945.0637,-202.8746 975.9058,-188 1010.8623,-171.1411 1026.4704,-167.1575 1042.9058,-132 1079.3848,-53.9669 930.0872,-23.9237 857.9363,-14.1153"/>
<polygon fill="#191970" stroke="#191970" points="858.2492,-10.6267 847.8821,-12.8117 857.349,-17.5686 858.2492,-10.6267"/>
</g>
<!-- Node24&#45;&gt;Node19 -->
<g id="edge44" class="edge">
<title>Node24&#45;&gt;Node19</title>
<path fill="none" stroke="#191970" d="M727.3233,-224.3733C703.9563,-215.2226 668.6196,-201.3844 642.6274,-191.2057"/>
<polygon fill="#191970" stroke="#191970" points="643.7554,-187.8886 633.1676,-187.5011 641.2028,-194.4066 643.7554,-187.8886"/>
</g>
<!-- Node24&#45;&gt;Node22 -->
<g id="edge52" class="edge">
<title>Node24&#45;&gt;Node22</title>
<path fill="none" stroke="#191970" d="M705.805,-226.9076C632.6247,-215.6491 491.3395,-193.9129 424.5675,-183.6403"/>
<polygon fill="#191970" stroke="#191970" points="424.9286,-180.1547 414.5126,-182.0934 423.8641,-187.0733 424.9286,-180.1547"/>
</g>
<!-- Node24&#45;&gt;Node23 -->
<g id="edge45" class="edge">
<title>Node24&#45;&gt;Node23</title>
<path fill="none" stroke="#191970" d="M705.6879,-230.8343C615.0262,-224.2725 417.0267,-208.1077 351.9058,-188 333.6701,-182.3693 331.74,-174.7963 313.9058,-168 273.9055,-152.7566 227.1009,-141.1742 190.5781,-133.4444"/>
<polygon fill="#191970" stroke="#191970" points="191.0661,-129.9712 180.5636,-131.3666 189.644,-136.8252 191.0661,-129.9712"/>
</g>
<!-- Node25 -->
<g id="node26" class="node">
<title>Node25</title>
<g id="a_node26"><a xlink:href="../../dc/d3b/ReverseSymbolLookupTable_8h.html" target="_top" xlink:title="Maps CDF back to source symbol &#45; needed for the decoder. ">
<polygon fill="none" stroke="#000000" points="670.9058,-168.5 670.9058,-187.5 832.9058,-187.5 832.9058,-168.5 670.9058,-168.5"/>
<text text-anchor="middle" x="751.9058" y="-175.5" font-family="Helvetica,sans-Serif" font-size="10.00" fill="#000000">ReverseSymbolLookupTable.h</text>
</a>
</g>
</g>
<!-- Node24&#45;&gt;Node25 -->
<g id="edge46" class="edge">
<title>Node24&#45;&gt;Node25</title>
<path fill="none" stroke="#191970" d="M751.9058,-224.2455C751.9058,-216.9382 751.9058,-206.6944 751.9058,-197.7046"/>
<polygon fill="#191970" stroke="#191970" points="755.4059,-197.6426 751.9058,-187.6427 748.4059,-197.6427 755.4059,-197.6426"/>
</g>
<!-- Node25&#45;&gt;Node2 -->
<g id="edge48" class="edge">
<title>Node25&#45;&gt;Node2</title>
<path fill="none" stroke="#191970" d="M794.2568,-168.4369C839.1438,-158.3011 909.7268,-142.363 955.4119,-132.047"/>
<polygon fill="#191970" stroke="#191970" points="956.3448,-135.4246 965.3282,-129.8078 954.8029,-128.5965 956.3448,-135.4246"/>
</g>
<!-- Node25&#45;&gt;Node5 -->
<g id="edge50" class="edge">
<title>Node25&#45;&gt;Node5</title>
<path fill="none" stroke="#191970" d="M721.6504,-168.3733C692.2575,-159.021 647.4766,-144.7725 615.3124,-134.5385"/>
<polygon fill="#191970" stroke="#191970" points="616.357,-131.198 605.7665,-131.5011 614.2345,-137.8685 616.357,-131.198"/>
</g>
<!-- Node25&#45;&gt;Node10 -->
<g id="edge47" class="edge">
<title>Node25&#45;&gt;Node10</title>
<path fill="none" stroke="#191970" d="M748.2397,-168.4509C741.163,-150.0186 725.5013,-109.2254 716.217,-85.043"/>
<polygon fill="#191970" stroke="#191970" points="719.4144,-83.606 712.5627,-75.5249 712.8795,-86.115 719.4144,-83.606"/>
</g>
<!-- Node25&#45;&gt;Node13 -->
<g id="edge49" class="edge">
<title>Node25&#45;&gt;Node13</title>
<path fill="none" stroke="#191970" d="M757.9593,-168.4509C769.8012,-149.7707 796.2024,-108.1238 811.4469,-84.0761"/>
<polygon fill="#191970" stroke="#191970" points="814.4697,-85.8448 816.8677,-75.5249 808.5575,-82.0969 814.4697,-85.8448"/>
</g>
<!-- Node25&#45;&gt;Node14 -->
<g id="edge51" class="edge">
<title>Node25&#45;&gt;Node14</title>
<path fill="none" stroke="#191970" d="M685.8823,-168.4801C616.6127,-158.0917 515.602,-141.656 499.9058,-132 481.6262,-120.7547 467.662,-100.1783 459.1969,-84.9792"/>
<polygon fill="#191970" stroke="#191970" points="462.1871,-83.1451 454.4382,-75.9197 455.99,-86.4003 462.1871,-83.1451"/>
</g>
<!-- Node28 -->
<g id="node29" class="node">
<title>Node28</title>
<polygon fill="none" stroke="#bfbfbf" points="837.9058,-224.5 837.9058,-243.5 893.9058,-243.5 893.9058,-224.5 837.9058,-224.5"/>
<text text-anchor="middle" x="865.9058" y="-231.5" font-family="Helvetica,sans-Serif" font-size="10.00" fill="#000000">sstream</text>
</g>
<!-- Node27&#45;&gt;Node28 -->
<g id="edge55" class="edge">
<title>Node27&#45;&gt;Node28</title>
<path fill="none" stroke="#191970" d="M865.9058,-280.2455C865.9058,-272.9382 865.9058,-262.6944 865.9058,-253.7046"/>
<polygon fill="#191970" stroke="#191970" points="869.4059,-253.6426 865.9058,-243.6427 862.4059,-253.6427 869.4059,-253.6426"/>
</g>
<!-- Node31 -->
<g id="node32" class="node">
<title>Node31</title>
<g id="a_node32"><a xlink:href="../../df/d21/GPUCommonDef_8h.html" target="_top" xlink:title="GPUCommonDef.h">
<polygon fill="none" stroke="#000000" points="1310.4058,-280.5 1310.4058,-299.5 1417.4058,-299.5 1417.4058,-280.5 1310.4058,-280.5"/>
<text text-anchor="middle" x="1363.9058" y="-287.5" font-family="Helvetica,sans-Serif" font-size="10.00" fill="#000000">GPUCommonDef.h</text>
</a>
</g>
</g>
<!-- Node30&#45;&gt;Node31 -->
<g id="edge58" class="edge">
<title>Node30&#45;&gt;Node31</title>
<path fill="none" stroke="#191970" d="M1262.6859,-336.4554C1284.4558,-326.464 1312.8144,-313.4487 1333.9745,-303.7372"/>
<polygon fill="#191970" stroke="#191970" points="1335.512,-306.8826 1343.1406,-299.5303 1332.5921,-300.5206 1335.512,-306.8826"/>
</g>
<!-- Node34 -->
<g id="node35" class="node">
<title>Node34</title>
<g id="a_node35"><a xlink:href="../../d2/d45/GPUCommonRtypes_8h.html" target="_top" xlink:title="GPUCommonRtypes.h">
<polygon fill="none" stroke="#000000" points="1167.4058,-280.5 1167.4058,-299.5 1292.4058,-299.5 1292.4058,-280.5 1167.4058,-280.5"/>
<text text-anchor="middle" x="1229.9058" y="-287.5" font-family="Helvetica,sans-Serif" font-size="10.00" fill="#000000">GPUCommonRtypes.h</text>
</a>
</g>
</g>
<!-- Node30&#45;&gt;Node34 -->
<g id="edge61" class="edge">
<title>Node30&#45;&gt;Node34</title>
<path fill="none" stroke="#191970" d="M1229.9058,-336.2977C1229.9058,-328.3834 1229.9058,-318.6043 1229.9058,-310.0759"/>
<polygon fill="#191970" stroke="#191970" points="1233.4059,-309.8469 1229.9058,-299.8469 1226.4059,-309.847 1233.4059,-309.8469"/>
</g>
<!-- Node32 -->
<g id="node33" class="node">
<title>Node32</title>
<g id="a_node33"><a xlink:href="../../d5/d93/GPUCommonDefSettings_8h.html" target="_top" xlink:title="GPUCommonDefSettings.h">
<polygon fill="none" stroke="#000000" points="1265.9058,-224.5 1265.9058,-243.5 1413.9058,-243.5 1413.9058,-224.5 1265.9058,-224.5"/>
<text text-anchor="middle" x="1339.9058" y="-231.5" font-family="Helvetica,sans-Serif" font-size="10.00" fill="#000000">GPUCommonDefSettings.h</text>
</a>
</g>
</g>
<!-- Node31&#45;&gt;Node32 -->
<g id="edge59" class="edge">
<title>Node31&#45;&gt;Node32</title>
<path fill="none" stroke="#191970" d="M1359.7254,-280.2455C1356.5248,-272.7776 1352.0098,-262.2427 1348.0974,-253.1137"/>
<polygon fill="#191970" stroke="#191970" points="1351.1947,-251.4554 1344.0384,-243.6427 1344.7607,-254.2129 1351.1947,-251.4554"/>
</g>
<!-- Node33 -->
<g id="node34" class="node">
<title>Node33</title>
<g id="a_node34"><a xlink:href="../../da/d5a/GPUCommonDefAPI_8h.html" target="_top" xlink:title="GPUCommonDefAPI.h">
<polygon fill="none" stroke="#000000" points="1431.9058,-224.5 1431.9058,-243.5 1555.9058,-243.5 1555.9058,-224.5 1431.9058,-224.5"/>
<text text-anchor="middle" x="1493.9058" y="-231.5" font-family="Helvetica,sans-Serif" font-size="10.00" fill="#000000">GPUCommonDefAPI.h</text>
</a>
</g>
</g>
<!-- Node31&#45;&gt;Node33 -->
<g id="edge60" class="edge">
<title>Node31&#45;&gt;Node33</title>
<path fill="none" stroke="#191970" d="M1386.2536,-280.3733C1407.3092,-271.3032 1439.0554,-257.6279 1462.6233,-247.4755"/>
<polygon fill="#191970" stroke="#191970" points="1464.0502,-250.6719 1471.8497,-243.5011 1461.2808,-244.243 1464.0502,-250.6719"/>
</g>
<!-- Node34&#45;&gt;Node3 -->
<g id="edge62" class="edge">
<title>Node34&#45;&gt;Node3</title>
<path fill="none" stroke="#191970" d="M1223.6351,-280.2455C1218.6794,-272.5367 1211.6229,-261.5598 1205.6282,-252.2348"/>
<polygon fill="#191970" stroke="#191970" points="1208.4564,-250.1618 1200.1047,-243.6427 1202.5682,-253.9471 1208.4564,-250.1618"/>
</g>
</g>
</svg>
