<?xml version="1.0" encoding="UTF-8" standalone="no"?>
<!DOCTYPE svg PUBLIC "-//W3C//DTD SVG 1.1//EN"
 "http://www.w3.org/Graphics/SVG/1.1/DTD/svg11.dtd">
<!-- Generated by graphviz version 2.40.1 (20161225.0304)
 -->
<!-- Title: /home/travis/build/AliceO2Group/AliceO2/Utilities/rANS/include/rANS/Encoder.h Pages: 1 -->
<!--zoomable 285 -->
<svg id="main" version="1.1" xmlns="http://www.w3.org/2000/svg" xmlns:xlink="http://www.w3.org/1999/xlink" xml:space="preserve" onload="init(evt)">
<style type="text/css"><![CDATA[
.edge:hover path { stroke: red; }
.edge:hover polygon { stroke: red; fill: red; }
]]></style>
<script type="text/javascript"><![CDATA[
var edges = document.getElementsByTagName('g');
if (edges && edges.length) {
  for (var i=0;i<edges.length;i++) {
    if (edges[i].id.substr(0,4)=='edge') {
      edges[i].setAttribute('class','edge');
    }
  }
}
]]></script>
        <defs>
                <circle id="rim" cx="0" cy="0" r="7"/>
                <circle id="rim2" cx="0" cy="0" r="3.5"/>
                <g id="zoomPlus">
                        <use xlink:href="#rim" fill="#404040">
                                <set attributeName="fill" to="#808080" begin="zoomplus.mouseover" end="zoomplus.mouseout"/>
                        </use>
                        <path d="M-4,0h8M0,-4v8" fill="none" stroke="white" stroke-width="1.5" pointer-events="none"/>
                </g>
                <g id="zoomMin">
                        <use xlink:href="#rim" fill="#404040">
                                <set attributeName="fill" to="#808080" begin="zoomminus.mouseover" end="zoomminus.mouseout"/>
                        </use>
                        <path d="M-4,0h8" fill="none" stroke="white" stroke-width="1.5" pointer-events="none"/>
                </g>
                <g id="dirArrow">
                        <path fill="none" stroke="white" stroke-width="1.5" d="M0,-3.0v7 M-2.5,-0.5L0,-3.0L2.5,-0.5"/>
                </g>
               <g id="resetDef">
                       <use xlink:href="#rim2" fill="#404040">
                               <set attributeName="fill" to="#808080" begin="reset.mouseover" end="reset.mouseout"/>
                       </use>
               </g>
        </defs>

<script type="text/javascript">
var viewWidth = 867;
var viewHeight = 285;
var sectionId = 'dynsection-0';
</script>
<script xlink:href="../../svgpan.js"/>
<svg id="graph" class="graph">
<g id="viewport">
<title>/home/travis/build/AliceO2Group/AliceO2/Utilities/rANS/include/rANS/Encoder.h</title>
<!-- Node0 -->
<g id="node1" class="node">
<title>Node0</title>
<polygon fill="#bfbfbf" stroke="#000000" points="271.5,-224.5 271.5,-276.5 398.5,-276.5 398.5,-224.5 271.5,-224.5"/>
<text text-anchor="start" x="279.5" y="-264.5" font-family="Helvetica,sans-Serif" font-size="10.00" fill="#000000">/home/travis/build</text>
<text text-anchor="start" x="279.5" y="-253.5" font-family="Helvetica,sans-Serif" font-size="10.00" fill="#000000">/AliceO2Group/AliceO2</text>
<text text-anchor="start" x="279.5" y="-242.5" font-family="Helvetica,sans-Serif" font-size="10.00" fill="#000000">/Utilities/rANS/include</text>
<text text-anchor="middle" x="335" y="-231.5" font-family="Helvetica,sans-Serif" font-size="10.00" fill="#000000">/rANS/Encoder.h</text>
</g>
<!-- Node1 -->
<g id="node2" class="node">
<title>Node1</title>
<polygon fill="none" stroke="#bfbfbf" points="91,-168.5 91,-187.5 149,-187.5 149,-168.5 91,-168.5"/>
<text text-anchor="middle" x="120" y="-175.5" font-family="Helvetica,sans-Serif" font-size="10.00" fill="#000000">memory</text>
</g>
<!-- Node0&#45;&gt;Node1 -->
<g id="edge1" class="edge">
<title>Node0&#45;&gt;Node1</title>
<path fill="none" stroke="#191970" d="M271.3656,-229.0419C234.4938,-216.6084 189.3118,-201.3726 157.9574,-190.7996"/>
<polygon fill="#191970" stroke="#191970" points="158.8855,-187.419 148.2914,-187.5401 156.6488,-194.052 158.8855,-187.419"/>
</g>
<!-- Node2 -->
<g id="node3" class="node">
<title>Node2</title>
<polygon fill="none" stroke="#bfbfbf" points="0,-56.5 0,-75.5 64,-75.5 64,-56.5 0,-56.5"/>
<text text-anchor="middle" x="32" y="-63.5" font-family="Helvetica,sans-Serif" font-size="10.00" fill="#000000">algorithm</text>
</g>
<!-- Node0&#45;&gt;Node2 -->
<g id="edge2" class="edge">
<title>Node0&#45;&gt;Node2</title>
<path fill="none" stroke="#191970" d="M292.2301,-224.457C227.884,-185.2759 108.2292,-112.4168 56.6777,-81.0265"/>
<polygon fill="#191970" stroke="#191970" points="58.2346,-77.8767 47.8731,-75.6653 54.594,-83.8556 58.2346,-77.8767"/>
</g>
<!-- Node3 -->
<g id="node4" class="node">
<title>Node3</title>
<polygon fill="none" stroke="#bfbfbf" points="82,-56.5 82,-75.5 190,-75.5 190,-56.5 82,-56.5"/>
<text text-anchor="middle" x="136" y="-63.5" font-family="Helvetica,sans-Serif" font-size="10.00" fill="#000000">fairlogger/Logger.h</text>
</g>
<!-- Node0&#45;&gt;Node3 -->
<g id="edge3" class="edge">
<title>Node0&#45;&gt;Node3</title>
<path fill="none" stroke="#191970" d="M308.9802,-224.4129C280.5321,-196.1441 233.3435,-149.9877 191,-112 179.5944,-101.7677 166.4411,-90.7402 155.8578,-82.0479"/>
<polygon fill="#191970" stroke="#191970" points="157.9639,-79.2491 148.0037,-75.6374 153.5377,-84.6721 157.9639,-79.2491"/>
</g>
<!-- Node4 -->
<g id="node5" class="node">
<title>Node4</title>
<g id="a_node5"><a xlink:href="../../d8/dd9/SymbolTable_8h.html" target="_top" xlink:title="Container for information needed to encode/decode a symbol of the alphabet. ">
<polygon fill="none" stroke="#000000" points="291,-168.5 291,-187.5 379,-187.5 379,-168.5 291,-168.5"/>
<text text-anchor="middle" x="335" y="-175.5" font-family="Helvetica,sans-Serif" font-size="10.00" fill="#000000">SymbolTable.h</text>
</a>
</g>
</g>
<!-- Node0&#45;&gt;Node4 -->
<g id="edge4" class="edge">
<title>Node0&#45;&gt;Node4</title>
<path fill="none" stroke="#191970" d="M335,-224.3258C335,-215.5142 335,-205.8397 335,-197.621"/>
<polygon fill="#191970" stroke="#191970" points="338.5001,-197.534 335,-187.534 331.5001,-197.534 338.5001,-197.534"/>
</g>
<!-- Node12 -->
<g id="node13" class="node">
<title>Node12</title>
<g id="a_node13"><a xlink:href="../../d4/da1/helper_8h.html" target="_top" xlink:title="various helper functions ">
<polygon fill="none" stroke="#000000" points="535,-56.5 535,-75.5 591,-75.5 591,-56.5 535,-56.5"/>
<text text-anchor="middle" x="563" y="-63.5" font-family="Helvetica,sans-Serif" font-size="10.00" fill="#000000">helper.h</text>
</a>
</g>
</g>
<!-- Node0&#45;&gt;Node12 -->
<g id="edge32" class="edge">
<title>Node0&#45;&gt;Node12</title>
<path fill="none" stroke="#191970" d="M367.1833,-224.457C414.8853,-185.856 502.9825,-114.5668 542.6743,-82.4477"/>
<polygon fill="#191970" stroke="#191970" points="545.239,-84.8748 550.811,-75.8635 540.8357,-79.4332 545.239,-84.8748"/>
</g>
<!-- Node15 -->
<g id="node16" class="node">
<title>Node15</title>
<g id="a_node16"><a xlink:href="../../d2/d53/EncoderSymbol_8h.html" target="_top" xlink:title="Structure containing all relevant information to encode a symbol. ">
<polygon fill="none" stroke="#000000" points="559.5,-112.5 559.5,-131.5 660.5,-131.5 660.5,-112.5 559.5,-112.5"/>
<text text-anchor="middle" x="610" y="-119.5" font-family="Helvetica,sans-Serif" font-size="10.00" fill="#000000">EncoderSymbol.h</text>
</a>
</g>
</g>
<!-- Node0&#45;&gt;Node15 -->
<g id="edge20" class="edge">
<title>Node0&#45;&gt;Node15</title>
<path fill="none" stroke="#191970" d="M391.0774,-224.3653C415.0798,-213.1737 443.4179,-199.9533 469,-188 507.3327,-170.089 551.5086,-149.4038 580.0478,-136.0346"/>
<polygon fill="#191970" stroke="#191970" points="581.8845,-139.0393 589.4552,-131.6275 578.9148,-132.7004 581.8845,-139.0393"/>
</g>
<!-- Node17 -->
<g id="node18" class="node">
<title>Node17</title>
<g id="a_node18"><a xlink:href="../../d5/d7a/Coder_8h.html" target="_top" xlink:title="Stateless class for coding and decoding symbols using rANS. ">
<polygon fill="none" stroke="#000000" points="583.5,-168.5 583.5,-187.5 636.5,-187.5 636.5,-168.5 583.5,-168.5"/>
<text text-anchor="middle" x="610" y="-175.5" font-family="Helvetica,sans-Serif" font-size="10.00" fill="#000000">Coder.h</text>
</a>
</g>
</g>
<!-- Node0&#45;&gt;Node17 -->
<g id="edge24" class="edge">
<title>Node0&#45;&gt;Node17</title>
<path fill="none" stroke="#191970" d="M398.7817,-233.6848C453.099,-219.3648 529.207,-199.3 573.6834,-187.5744"/>
<polygon fill="#191970" stroke="#191970" points="574.6984,-190.9264 583.4758,-184.9927 572.9139,-184.1577 574.6984,-190.9264"/>
</g>
<!-- Node4&#45;&gt;Node3 -->
<g id="edge6" class="edge">
<title>Node4&#45;&gt;Node3</title>
<path fill="none" stroke="#191970" d="M320.5242,-168.3571C300.3626,-155.0729 262.5231,-130.6688 229,-112 208.3621,-100.5069 184.4636,-88.7177 166.0608,-79.9517"/>
<polygon fill="#191970" stroke="#191970" points="167.5212,-76.7707 156.9847,-75.6608 164.5293,-83.0991 167.5212,-76.7707"/>
</g>
<!-- Node5 -->
<g id="node6" class="node">
<title>Node5</title>
<polygon fill="none" stroke="#bfbfbf" points="469.5,-56.5 469.5,-75.5 516.5,-75.5 516.5,-56.5 469.5,-56.5"/>
<text text-anchor="middle" x="493" y="-63.5" font-family="Helvetica,sans-Serif" font-size="10.00" fill="#000000">vector</text>
</g>
<!-- Node4&#45;&gt;Node5 -->
<g id="edge5" class="edge">
<title>Node4&#45;&gt;Node5</title>
<path fill="none" stroke="#191970" d="M348.471,-168.4509C375.7563,-149.1094 437.7754,-105.1465 471.0064,-81.5904"/>
<polygon fill="#191970" stroke="#191970" points="473.429,-84.1633 479.5631,-75.5249 469.3808,-78.4526 473.429,-84.1633"/>
</g>
<!-- Node6 -->
<g id="node7" class="node">
<title>Node6</title>
<g id="a_node7"><a xlink:href="../../d0/d51/SymbolStatistics_8h.html" target="_top" xlink:title="Structure to depict the distribution of symbols in the source message. ">
<polygon fill="none" stroke="#000000" points="281.5,-112.5 281.5,-131.5 388.5,-131.5 388.5,-112.5 281.5,-112.5"/>
<text text-anchor="middle" x="335" y="-119.5" font-family="Helvetica,sans-Serif" font-size="10.00" fill="#000000">SymbolStatistics.h</text>
</a>
</g>
</g>
<!-- Node4&#45;&gt;Node6 -->
<g id="edge7" class="edge">
<title>Node4&#45;&gt;Node6</title>
<path fill="none" stroke="#191970" d="M335,-168.2455C335,-160.9382 335,-150.6944 335,-141.7046"/>
<polygon fill="#191970" stroke="#191970" points="338.5001,-141.6426 335,-131.6427 331.5001,-141.6427 338.5001,-141.6426"/>
</g>
<!-- Node6&#45;&gt;Node2 -->
<g id="edge8" class="edge">
<title>Node6&#45;&gt;Node2</title>
<path fill="none" stroke="#191970" d="M281.3634,-113.637C230.4462,-105.4604 151.5553,-92.1786 74.1104,-76.1341"/>
<polygon fill="#191970" stroke="#191970" points="74.6881,-72.6793 64.1837,-74.0604 73.2567,-79.5314 74.6881,-72.6793"/>
</g>
<!-- Node6&#45;&gt;Node3 -->
<g id="edge15" class="edge">
<title>Node6&#45;&gt;Node3</title>
<path fill="none" stroke="#191970" d="M300.7907,-112.3733C267.2703,-102.9404 216.0495,-88.5265 179.619,-78.2747"/>
<polygon fill="#191970" stroke="#191970" points="180.3372,-74.8409 169.7629,-75.5011 178.4409,-81.5792 180.3372,-74.8409"/>
</g>
<!-- Node6&#45;&gt;Node5 -->
<g id="edge12" class="edge">
<title>Node6&#45;&gt;Node5</title>
<path fill="none" stroke="#191970" d="M362.1612,-112.3733C389.1538,-102.8062 430.6025,-88.1156 459.5945,-77.8399"/>
<polygon fill="#191970" stroke="#191970" points="461.0295,-81.0447 469.2857,-74.4051 458.691,-74.4469 461.0295,-81.0447"/>
</g>
<!-- Node7 -->
<g id="node8" class="node">
<title>Node7</title>
<polygon fill="none" stroke="#bfbfbf" points="609,-56.5 609,-75.5 661,-75.5 661,-56.5 609,-56.5"/>
<text text-anchor="middle" x="635" y="-63.5" font-family="Helvetica,sans-Serif" font-size="10.00" fill="#000000">cassert</text>
</g>
<!-- Node6&#45;&gt;Node7 -->
<g id="edge9" class="edge">
<title>Node6&#45;&gt;Node7</title>
<path fill="none" stroke="#191970" d="M388.6284,-114.4048C440.1916,-106.7175 520.4799,-93.7424 598.684,-76.1237"/>
<polygon fill="#191970" stroke="#191970" points="599.7335,-79.4743 608.7045,-73.8376 598.1765,-72.6496 599.7335,-79.4743"/>
</g>
<!-- Node8 -->
<g id="node9" class="node">
<title>Node8</title>
<polygon fill="none" stroke="#bfbfbf" points="208,-56.5 208,-75.5 268,-75.5 268,-56.5 208,-56.5"/>
<text text-anchor="middle" x="238" y="-63.5" font-family="Helvetica,sans-Serif" font-size="10.00" fill="#000000">iostream</text>
</g>
<!-- Node6&#45;&gt;Node8 -->
<g id="edge10" class="edge">
<title>Node6&#45;&gt;Node8</title>
<path fill="none" stroke="#191970" d="M318.1039,-112.2455C303.082,-103.5731 280.8957,-90.7645 263.679,-80.825"/>
<polygon fill="#191970" stroke="#191970" points="265.1128,-77.6114 254.7025,-75.6427 261.6129,-83.6737 265.1128,-77.6114"/>
</g>
<!-- Node9 -->
<g id="node10" class="node">
<title>Node9</title>
<polygon fill="none" stroke="#bfbfbf" points="286,-56.5 286,-75.5 342,-75.5 342,-56.5 286,-56.5"/>
<text text-anchor="middle" x="314" y="-63.5" font-family="Helvetica,sans-Serif" font-size="10.00" fill="#000000">numeric</text>
</g>
<!-- Node6&#45;&gt;Node9 -->
<g id="edge11" class="edge">
<title>Node6&#45;&gt;Node9</title>
<path fill="none" stroke="#191970" d="M331.3421,-112.2455C328.5416,-104.7776 324.591,-94.2427 321.1676,-85.1137"/>
<polygon fill="#191970" stroke="#191970" points="324.4045,-83.777 317.616,-75.6427 317.8501,-86.2349 324.4045,-83.777"/>
</g>
<!-- Node10 -->
<g id="node11" class="node">
<title>Node10</title>
<polygon fill="none" stroke="#bfbfbf" points="409.5,-.5 409.5,-19.5 456.5,-19.5 456.5,-.5 409.5,-.5"/>
<text text-anchor="middle" x="433" y="-7.5" font-family="Helvetica,sans-Serif" font-size="10.00" fill="#000000">cmath</text>
</g>
<!-- Node6&#45;&gt;Node10 -->
<g id="edge13" class="edge">
<title>Node6&#45;&gt;Node10</title>
<path fill="none" stroke="#191970" d="M342.4653,-112.409C352.6838,-99.3908 371.7316,-75.5127 389,-56 397.7476,-46.1155 407.9103,-35.4414 416.2636,-26.8661"/>
<polygon fill="#191970" stroke="#191970" points="418.8262,-29.2518 423.3337,-19.6636 413.8308,-24.3481 418.8262,-29.2518"/>
</g>
<!-- Node11 -->
<g id="node12" class="node">
<title>Node11</title>
<polygon fill="none" stroke="#bfbfbf" points="398.5,-56.5 398.5,-75.5 451.5,-75.5 451.5,-56.5 398.5,-56.5"/>
<text text-anchor="middle" x="425" y="-63.5" font-family="Helvetica,sans-Serif" font-size="10.00" fill="#000000">iterator</text>
</g>
<!-- Node6&#45;&gt;Node11 -->
<g id="edge14" class="edge">
<title>Node6&#45;&gt;Node11</title>
<path fill="none" stroke="#191970" d="M350.6768,-112.2455C364.4856,-103.6534 384.8193,-91.0014 400.7292,-81.1018"/>
<polygon fill="#191970" stroke="#191970" points="402.8613,-83.8974 409.5028,-75.6427 399.1632,-77.954 402.8613,-83.8974"/>
</g>
<!-- Node6&#45;&gt;Node12 -->
<g id="edge16" class="edge">
<title>Node6&#45;&gt;Node12</title>
<path fill="none" stroke="#191970" d="M375.4575,-112.4501C413.9619,-103.3032 473.5029,-89.0084 525,-76 525.0992,-75.9749 525.1986,-75.9498 525.2981,-75.9247"/>
<polygon fill="#191970" stroke="#191970" points="525.9775,-79.3638 534.7943,-73.4889 524.2383,-72.5833 525.9775,-79.3638"/>
</g>
<!-- Node12&#45;&gt;Node10 -->
<g id="edge18" class="edge">
<title>Node12&#45;&gt;Node10</title>
<path fill="none" stroke="#191970" d="M540.6522,-56.3733C519.5967,-47.3032 487.8505,-33.6279 464.2825,-23.4755"/>
<polygon fill="#191970" stroke="#191970" points="465.625,-20.243 455.0562,-19.5011 462.8556,-26.6719 465.625,-20.243"/>
</g>
<!-- Node13 -->
<g id="node14" class="node">
<title>Node13</title>
<polygon fill="none" stroke="#bfbfbf" points="571.5,-.5 571.5,-19.5 624.5,-19.5 624.5,-.5 571.5,-.5"/>
<text text-anchor="middle" x="598" y="-7.5" font-family="Helvetica,sans-Serif" font-size="10.00" fill="#000000">cstddef</text>
</g>
<!-- Node12&#45;&gt;Node13 -->
<g id="edge17" class="edge">
<title>Node12&#45;&gt;Node13</title>
<path fill="none" stroke="#191970" d="M569.0965,-56.2455C573.9145,-48.5367 580.7751,-37.5598 586.6032,-28.2348"/>
<polygon fill="#191970" stroke="#191970" points="589.6413,-29.9777 591.9733,-19.6427 583.7053,-26.2677 589.6413,-29.9777"/>
</g>
<!-- Node14 -->
<g id="node15" class="node">
<title>Node14</title>
<polygon fill="none" stroke="#bfbfbf" points="503,-.5 503,-19.5 553,-19.5 553,-.5 503,-.5"/>
<text text-anchor="middle" x="528" y="-7.5" font-family="Helvetica,sans-Serif" font-size="10.00" fill="#000000">chrono</text>
</g>
<!-- Node12&#45;&gt;Node14 -->
<g id="edge19" class="edge">
<title>Node12&#45;&gt;Node14</title>
<path fill="none" stroke="#191970" d="M556.9035,-56.2455C552.0855,-48.5367 545.2249,-37.5598 539.3968,-28.2348"/>
<polygon fill="#191970" stroke="#191970" points="542.2947,-26.2677 534.0267,-19.6427 536.3587,-29.9777 542.2947,-26.2677"/>
</g>
<!-- Node15&#45;&gt;Node7 -->
<g id="edge22" class="edge">
<title>Node15&#45;&gt;Node7</title>
<path fill="none" stroke="#191970" d="M614.3547,-112.2455C617.7244,-104.6973 622.493,-94.0158 626.5983,-84.8197"/>
<polygon fill="#191970" stroke="#191970" points="629.8147,-86.2009 630.6952,-75.6427 623.4227,-83.3473 629.8147,-86.2009"/>
</g>
<!-- Node15&#45;&gt;Node12 -->
<g id="edge23" class="edge">
<title>Node15&#45;&gt;Node12</title>
<path fill="none" stroke="#191970" d="M601.8132,-112.2455C595.1411,-104.2958 585.5521,-92.8706 577.5747,-83.3656"/>
<polygon fill="#191970" stroke="#191970" points="580.2026,-81.0524 571.093,-75.6427 574.8408,-85.5525 580.2026,-81.0524"/>
</g>
<!-- Node16 -->
<g id="node17" class="node">
<title>Node16</title>
<polygon fill="none" stroke="#bfbfbf" points="702,-56.5 702,-75.5 752,-75.5 752,-56.5 702,-56.5"/>
<text text-anchor="middle" x="727" y="-63.5" font-family="Helvetica,sans-Serif" font-size="10.00" fill="#000000">cstdint</text>
</g>
<!-- Node15&#45;&gt;Node16 -->
<g id="edge21" class="edge">
<title>Node15&#45;&gt;Node16</title>
<path fill="none" stroke="#191970" d="M630.113,-112.3733C648.8103,-103.4241 676.8744,-89.9917 697.9934,-79.8835"/>
<polygon fill="#191970" stroke="#191970" points="699.6405,-82.9755 707.1494,-75.5011 696.6183,-76.6614 699.6405,-82.9755"/>
</g>
<!-- Node17&#45;&gt;Node5 -->
<g id="edge25" class="edge">
<title>Node17&#45;&gt;Node5</title>
<path fill="none" stroke="#191970" d="M592.9266,-168.387C578.6817,-159.8935 558.3106,-146.6121 543,-132 527.9601,-117.6463 513.9556,-98.4461 504.6167,-84.4565"/>
<polygon fill="#191970" stroke="#191970" points="507.3266,-82.2034 498.9413,-75.7275 501.458,-86.0191 507.3266,-82.2034"/>
</g>
<!-- Node17&#45;&gt;Node7 -->
<g id="edge27" class="edge">
<title>Node17&#45;&gt;Node7</title>
<path fill="none" stroke="#191970" d="M630.1561,-168.4543C643.8815,-160.7394 660.9635,-148.4561 669,-132 677.1502,-115.311 665.3536,-96.4993 653.4829,-83.2419"/>
<polygon fill="#191970" stroke="#191970" points="655.7277,-80.5285 646.2597,-75.7737 650.6961,-85.395 655.7277,-80.5285"/>
</g>
<!-- Node17&#45;&gt;Node12 -->
<g id="edge31" class="edge">
<title>Node17&#45;&gt;Node12</title>
<path fill="none" stroke="#191970" d="M589.2148,-168.3756C575.313,-160.6917 558.1309,-148.4793 550,-132 542.7527,-117.3115 547.3481,-98.908 552.9854,-85.2685"/>
<polygon fill="#191970" stroke="#191970" points="556.2941,-86.4525 557.3204,-75.9075 549.9422,-83.5109 556.2941,-86.4525"/>
</g>
<!-- Node17&#45;&gt;Node15 -->
<g id="edge30" class="edge">
<title>Node17&#45;&gt;Node15</title>
<path fill="none" stroke="#191970" d="M610,-168.2455C610,-160.9382 610,-150.6944 610,-141.7046"/>
<polygon fill="#191970" stroke="#191970" points="613.5001,-141.6426 610,-131.6427 606.5001,-141.6427 613.5001,-141.6426"/>
</g>
<!-- Node17&#45;&gt;Node16 -->
<g id="edge26" class="edge">
<title>Node17&#45;&gt;Node16</title>
<path fill="none" stroke="#191970" d="M630.8354,-168.4815C646.9422,-160.4009 669.1006,-147.6382 685,-132 698.8692,-118.3586 710.3667,-99.3208 717.8046,-85.1958"/>
<polygon fill="#191970" stroke="#191970" points="721.1015,-86.4311 722.479,-75.9262 714.8512,-83.2793 721.1015,-86.4311"/>
</g>
<!-- Node18 -->
<g id="node19" class="node">
<title>Node18</title>
<g id="a_node19"><a xlink:href="../../d7/d99/DecoderSymbol_8h.html" target="_top" xlink:title="Structure containing all relevant information for decoding a rANS encoded symbol. ...">
<polygon fill="none" stroke="#000000" points="755.5,-112.5 755.5,-131.5 858.5,-131.5 858.5,-112.5 755.5,-112.5"/>
<text text-anchor="middle" x="807" y="-119.5" font-family="Helvetica,sans-Serif" font-size="10.00" fill="#000000">DecoderSymbol.h</text>
</a>
</g>
</g>
<!-- Node17&#45;&gt;Node18 -->
<g id="edge28" class="edge">
<title>Node17&#45;&gt;Node18</title>
<path fill="none" stroke="#191970" d="M636.5683,-170.4476C669.0582,-161.2119 724.5061,-145.45 763.308,-134.4201"/>
<polygon fill="#191970" stroke="#191970" points="764.6213,-137.6855 773.2832,-131.5845 762.7072,-130.9522 764.6213,-137.6855"/>
</g>
<!-- Node18&#45;&gt;Node16 -->
<g id="edge29" class="edge">
<title>Node18&#45;&gt;Node16</title>
<path fill="none" stroke="#191970" d="M793.0651,-112.2455C780.9053,-103.7337 763.0536,-91.2375 748.9715,-81.3801"/>
<polygon fill="#191970" stroke="#191970" points="750.9747,-78.51 740.7752,-75.6427 746.9605,-84.2447 750.9747,-78.51"/>
</g>
</g>
</svg>
        <g id="navigator" transform="translate(0 0)" fill="#404254">
                <rect fill="#f2f5e9" fill-opacity="0.5" stroke="#606060" stroke-width=".5" x="0" y="0" width="60" height="60"/>
                <use id="zoomplus" xlink:href="#zoomPlus" x="17" y="9" onmousedown="handleZoom(evt,'in')"/>
                <use id="zoomminus" xlink:href="#zoomMin" x="42" y="9" onmousedown="handleZoom(evt,'out')"/>
                <use id="reset" xlink:href="#resetDef" x="30" y="36" onmousedown="handleReset()"/>
                <g id="arrowUp" xlink:href="#dirArrow" transform="translate(30 24)" onmousedown="handlePan(0,-1)">
                  <use xlink:href="#rim" fill="#404040">
                        <set attributeName="fill" to="#808080" begin="arrowUp.mouseover" end="arrowUp.mouseout"/>
                  </use>
                  <path fill="none" stroke="white" stroke-width="1.5" d="M0,-3.0v7 M-2.5,-0.5L0,-3.0L2.5,-0.5"/>
                </g>
                <g id="arrowRight" xlink:href="#dirArrow" transform="rotate(90) translate(36 -43)" onmousedown="handlePan(1,0)">
                  <use xlink:href="#rim" fill="#404040">
                        <set attributeName="fill" to="#808080" begin="arrowRight.mouseover" end="arrowRight.mouseout"/>
                  </use>
                  <path fill="none" stroke="white" stroke-width="1.5" d="M0,-3.0v7 M-2.5,-0.5L0,-3.0L2.5,-0.5"/>
                </g>
                <g id="arrowDown" xlink:href="#dirArrow" transform="rotate(180) translate(-30 -48)" onmousedown="handlePan(0,1)">
                  <use xlink:href="#rim" fill="#404040">
                        <set attributeName="fill" to="#808080" begin="arrowDown.mouseover" end="arrowDown.mouseout"/>
                  </use>
                  <path fill="none" stroke="white" stroke-width="1.5" d="M0,-3.0v7 M-2.5,-0.5L0,-3.0L2.5,-0.5"/>
                </g>
                <g id="arrowLeft" xlink:href="#dirArrow" transform="rotate(270) translate(-36 17)" onmousedown="handlePan(-1,0)">
                  <use xlink:href="#rim" fill="#404040">
                        <set attributeName="fill" to="#808080" begin="arrowLeft.mouseover" end="arrowLeft.mouseout"/>
                  </use>
                  <path fill="none" stroke="white" stroke-width="1.5" d="M0,-3.0v7 M-2.5,-0.5L0,-3.0L2.5,-0.5"/>
                </g>
        </g>
        <svg viewBox="0 0 15 15" width="100%" height="30px" preserveAspectRatio="xMaxYMin meet">
         <g id="arrow_out" transform="scale(0.3 0.3)">
          <a xlink:href="Utilities_2rANS_2include_2rANS_2Encoder_8h__incl_org.svg" target="_base">
           <rect id="button" ry="5" rx="5" y="6" x="6" height="38" width="38"
                fill="#f2f5e9" fill-opacity="0.5" stroke="#606060" stroke-width="1.0"/>
           <path id="arrow"
             d="M 11.500037,31.436501 C 11.940474,20.09759 22.043105,11.32322 32.158766,21.979434 L 37.068811,17.246167 C 37.068811,17.246167 37.088388,32 37.088388,32 L 22.160133,31.978069 C 22.160133,31.978069 26.997745,27.140456 26.997745,27.140456 C 18.528582,18.264221 13.291696,25.230495 11.500037,31.436501 z"
             style="fill:#404040;"/>
          </a>
         </g>
        </svg>
</svg>
