<?xml version="1.0" encoding="UTF-8" standalone="no"?>
<!DOCTYPE svg PUBLIC "-//W3C//DTD SVG 1.1//EN"
 "http://www.w3.org/Graphics/SVG/1.1/DTD/svg11.dtd">
<!-- Generated by graphviz version 2.40.1 (20161225.0304)
 -->
<!-- Title: /home/travis/build/AliceO2Group/AliceO2/DataFormats/Detectors/ITSMFT/common/src/CTF.cxx Pages: 1 -->
<svg width="1376pt" height="520pt"
 viewBox="0.00 0.00 1375.50 520.00" xmlns="http://www.w3.org/2000/svg" xmlns:xlink="http://www.w3.org/1999/xlink">
<g id="graph0" class="graph" transform="scale(1 1) rotate(0) translate(4 516)">
<title>/home/travis/build/AliceO2Group/AliceO2/DataFormats/Detectors/ITSMFT/common/src/CTF.cxx</title>
<!-- Node0 -->
<g id="node1" class="node">
<title>Node0</title>
<polygon fill="#bfbfbf" stroke="#000000" points="147,-459.5 147,-511.5 304,-511.5 304,-459.5 147,-459.5"/>
<text text-anchor="start" x="155" y="-499.5" font-family="Helvetica,sans-Serif" font-size="10.00" fill="#000000">/home/travis/build</text>
<text text-anchor="start" x="155" y="-488.5" font-family="Helvetica,sans-Serif" font-size="10.00" fill="#000000">/AliceO2Group/AliceO2</text>
<text text-anchor="start" x="155" y="-477.5" font-family="Helvetica,sans-Serif" font-size="10.00" fill="#000000">/DataFormats/Detectors</text>
<text text-anchor="middle" x="225.5" y="-466.5" font-family="Helvetica,sans-Serif" font-size="10.00" fill="#000000">/ITSMFT/common/src/CTF.cxx</text>
</g>
<!-- Node1 -->
<g id="node2" class="node">
<title>Node1</title>
<polygon fill="none" stroke="#bfbfbf" points="0,-403.5 0,-422.5 65,-422.5 65,-403.5 0,-403.5"/>
<text text-anchor="middle" x="32.5" y="-410.5" font-family="Helvetica,sans-Serif" font-size="10.00" fill="#000000">stdexcept</text>
</g>
<!-- Node0&#45;&gt;Node1 -->
<g id="edge1" class="edge">
<title>Node0&#45;&gt;Node1</title>
<path fill="none" stroke="#191970" d="M156.0952,-459.4283C126.0808,-448.1534 92.2609,-435.449 67.5959,-426.1837"/>
<polygon fill="#191970" stroke="#191970" points="68.5484,-422.8027 57.9562,-422.5626 66.0867,-429.3556 68.5484,-422.8027"/>
</g>
<!-- Node2 -->
<g id="node3" class="node">
<title>Node2</title>
<polygon fill="none" stroke="#bfbfbf" points="83.5,-403.5 83.5,-422.5 133.5,-422.5 133.5,-403.5 83.5,-403.5"/>
<text text-anchor="middle" x="108.5" y="-410.5" font-family="Helvetica,sans-Serif" font-size="10.00" fill="#000000">cstring</text>
</g>
<!-- Node0&#45;&gt;Node2 -->
<g id="edge2" class="edge">
<title>Node0&#45;&gt;Node2</title>
<path fill="none" stroke="#191970" d="M183.2603,-459.3258C166.293,-448.8119 147.3433,-437.0696 132.7677,-428.0377"/>
<polygon fill="#191970" stroke="#191970" points="134.2298,-424.8262 123.8859,-422.534 130.5427,-430.7765 134.2298,-424.8262"/>
</g>
<!-- Node3 -->
<g id="node4" class="node">
<title>Node3</title>
<g id="a_node4"><a xlink:href="../../dd/da4/Logger_8h.html" target="_top" xlink:title="Framework/Logger.h">
<polygon fill="none" stroke="#000000" points="104,-280.5 104,-299.5 219,-299.5 219,-280.5 104,-280.5"/>
<text text-anchor="middle" x="161.5" y="-287.5" font-family="Helvetica,sans-Serif" font-size="10.00" fill="#000000">Framework/Logger.h</text>
</a>
</g>
</g>
<!-- Node0&#45;&gt;Node3 -->
<g id="edge3" class="edge">
<title>Node0&#45;&gt;Node3</title>
<path fill="none" stroke="#191970" d="M216.8687,-459.134C203.82,-419.2745 179.3728,-344.5958 167.8355,-309.353"/>
<polygon fill="#191970" stroke="#191970" points="171.1339,-308.1786 164.6964,-299.7639 164.4813,-310.3565 171.1339,-308.1786"/>
</g>
<!-- Node4 -->
<g id="node5" class="node">
<title>Node4</title>
<g id="a_node5"><a xlink:href="../../dc/d8e/ITSMFT_2common_2include_2DataFormatsITSMFT_2CTF_8h.html" target="_top" xlink:title="DataFormatsITSMFT/CTF.h">
<polygon fill="none" stroke="#000000" points="219,-403.5 219,-422.5 362,-422.5 362,-403.5 219,-403.5"/>
<text text-anchor="middle" x="290.5" y="-410.5" font-family="Helvetica,sans-Serif" font-size="10.00" fill="#000000">DataFormatsITSMFT/CTF.h</text>
</a>
</g>
</g>
<!-- Node0&#45;&gt;Node4 -->
<g id="edge4" class="edge">
<title>Node0&#45;&gt;Node4</title>
<path fill="none" stroke="#191970" d="M248.9665,-459.3258C257.6746,-449.613 267.3226,-438.8518 275.1263,-430.1476"/>
<polygon fill="#191970" stroke="#191970" points="277.8828,-432.3161 281.9523,-422.534 272.6708,-427.6433 277.8828,-432.3161"/>
</g>
<!-- Node33 -->
<g id="node34" class="node">
<title>Node33</title>
<g id="a_node34"><a xlink:href="../../d0/dc6/ITSMFT_2common_2include_2DataFormatsITSMFT_2ROFRecord_8h.html" target="_top" xlink:title="DataFormatsITSMFT/ROFRecord.h">
<polygon fill="none" stroke="#000000" points="791,-403.5 791,-422.5 970,-422.5 970,-403.5 791,-403.5"/>
<text text-anchor="middle" x="880.5" y="-410.5" font-family="Helvetica,sans-Serif" font-size="10.00" fill="#000000">DataFormatsITSMFT/ROFRecord.h</text>
</a>
</g>
</g>
<!-- Node0&#45;&gt;Node33 -->
<g id="edge63" class="edge">
<title>Node0&#45;&gt;Node33</title>
<path fill="none" stroke="#191970" d="M304.1827,-476.7908C424.686,-463.4527 654.6189,-438.0021 784.6679,-423.6074"/>
<polygon fill="#191970" stroke="#191970" points="785.0707,-427.0843 794.6249,-422.5053 784.3005,-420.1267 785.0707,-427.0843"/>
</g>
<!-- Node40 -->
<g id="node41" class="node">
<title>Node40</title>
<g id="a_node41"><a xlink:href="../../df/de4/CompCluster_8h.html" target="_top" xlink:title="Definition of the ITSMFT compact cluster. ">
<polygon fill="none" stroke="#000000" points="1179.5,-342 1179.5,-361 1367.5,-361 1367.5,-342 1179.5,-342"/>
<text text-anchor="middle" x="1273.5" y="-349" font-family="Helvetica,sans-Serif" font-size="10.00" fill="#000000">DataFormatsITSMFT/CompCluster.h</text>
</a>
</g>
</g>
<!-- Node0&#45;&gt;Node40 -->
<g id="edge74" class="edge">
<title>Node0&#45;&gt;Node40</title>
<path fill="none" stroke="#191970" d="M304.1409,-483.0156C441.8086,-477.77 735.0896,-462.6018 979.5,-423 1070.4841,-408.2578 1174.8626,-380.1348 1231.5311,-363.8993"/>
<polygon fill="#191970" stroke="#191970" points="1232.5703,-367.2423 1241.2093,-361.1089 1230.6311,-360.5163 1232.5703,-367.2423"/>
</g>
<!-- Node5 -->
<g id="node6" class="node">
<title>Node5</title>
<polygon fill="none" stroke="#bfbfbf" points="228,-56.5 228,-75.5 275,-75.5 275,-56.5 228,-56.5"/>
<text text-anchor="middle" x="251.5" y="-63.5" font-family="Helvetica,sans-Serif" font-size="10.00" fill="#000000">vector</text>
</g>
<!-- Node4&#45;&gt;Node5 -->
<g id="edge5" class="edge">
<title>Node4&#45;&gt;Node5</title>
<path fill="none" stroke="#191970" d="M251.9573,-403.3796C205.1568,-389.3984 128.297,-358.4966 94.5,-300 62.8354,-245.1943 -46.7959,-333.6485 153.5,-112 170.5793,-93.1 197.0433,-81.3188 218.1675,-74.4162"/>
<polygon fill="#191970" stroke="#191970" points="219.2001,-77.7605 227.7437,-71.4948 217.1575,-71.0651 219.2001,-77.7605"/>
</g>
<!-- Node6 -->
<g id="node7" class="node">
<title>Node6</title>
<polygon fill="none" stroke="#bfbfbf" points="824,-224.5 824,-243.5 883,-243.5 883,-224.5 824,-224.5"/>
<text text-anchor="middle" x="853.5" y="-231.5" font-family="Helvetica,sans-Serif" font-size="10.00" fill="#000000">Rtypes.h</text>
</g>
<!-- Node4&#45;&gt;Node6 -->
<g id="edge6" class="edge">
<title>Node4&#45;&gt;Node6</title>
<path fill="none" stroke="#191970" d="M320.7693,-403.3762C415.691,-373.1968 707.5145,-280.4146 814.046,-246.544"/>
<polygon fill="#191970" stroke="#191970" points="815.2949,-249.8196 823.7643,-243.4542 813.1739,-243.1487 815.2949,-249.8196"/>
</g>
<!-- Node7 -->
<g id="node8" class="node">
<title>Node7</title>
<g id="a_node8"><a xlink:href="../../da/d91/EncodedBlocks_8h.html" target="_top" xlink:title="DetectorsCommonDataFormats\l/EncodedBlocks.h">
<polygon fill="none" stroke="#000000" points="233,-336.5 233,-366.5 404,-366.5 404,-336.5 233,-336.5"/>
<text text-anchor="start" x="241" y="-354.5" font-family="Helvetica,sans-Serif" font-size="10.00" fill="#000000">DetectorsCommonDataFormats</text>
<text text-anchor="middle" x="318.5" y="-343.5" font-family="Helvetica,sans-Serif" font-size="10.00" fill="#000000">/EncodedBlocks.h</text>
</a>
</g>
</g>
<!-- Node4&#45;&gt;Node7 -->
<g id="edge7" class="edge">
<title>Node4&#45;&gt;Node7</title>
<path fill="none" stroke="#191970" d="M294.875,-403.3906C298.2434,-395.9922 303.0526,-385.4291 307.4538,-375.7623"/>
<polygon fill="#191970" stroke="#191970" points="310.6922,-377.096 311.6504,-366.5446 304.3214,-374.1954 310.6922,-377.096"/>
</g>
<!-- Node7&#45;&gt;Node3 -->
<g id="edge62" class="edge">
<title>Node7&#45;&gt;Node3</title>
<path fill="none" stroke="#191970" d="M280.0935,-336.4554C254.1274,-326.284 220.161,-312.9787 195.237,-303.2155"/>
<polygon fill="#191970" stroke="#191970" points="196.4171,-299.9188 185.8294,-299.5303 193.864,-306.4366 196.4171,-299.9188"/>
</g>
<!-- Node7&#45;&gt;Node6 -->
<g id="edge9" class="edge">
<title>Node7&#45;&gt;Node6</title>
<path fill="none" stroke="#191970" d="M404.108,-341.4881C460.2623,-333.5301 534.8091,-320.3054 598.5,-300 618.5813,-293.5978 621.4945,-286.6354 641.5,-280 713.1309,-256.2417 736.2025,-261.2991 813.9629,-244.0075"/>
<polygon fill="#191970" stroke="#191970" points="814.7508,-247.4178 823.7239,-241.7846 813.1964,-240.5926 814.7508,-247.4178"/>
</g>
<!-- Node8 -->
<g id="node9" class="node">
<title>Node8</title>
<polygon fill="none" stroke="#bfbfbf" points="170,-112.5 170,-131.5 239,-131.5 239,-112.5 170,-112.5"/>
<text text-anchor="middle" x="204.5" y="-119.5" font-family="Helvetica,sans-Serif" font-size="10.00" fill="#000000">type_traits</text>
</g>
<!-- Node7&#45;&gt;Node8 -->
<g id="edge8" class="edge">
<title>Node7&#45;&gt;Node8</title>
<path fill="none" stroke="#191970" d="M302.3709,-336.4698C292.7033,-326.7856 280.7305,-313.5157 272.5,-300 240.1921,-246.9456 218.6947,-175.9556 209.531,-141.8848"/>
<polygon fill="#191970" stroke="#191970" points="212.8161,-140.6131 206.8983,-131.825 206.0441,-142.3853 212.8161,-140.6131"/>
</g>
<!-- Node9 -->
<g id="node10" class="node">
<title>Node9</title>
<g id="a_node10"><a xlink:href="../../d4/de7/rans_8h.html" target="_top" xlink:title="header for public api ">
<polygon fill="none" stroke="#000000" points="281.5,-280.5 281.5,-299.5 355.5,-299.5 355.5,-280.5 281.5,-280.5"/>
<text text-anchor="middle" x="318.5" y="-287.5" font-family="Helvetica,sans-Serif" font-size="10.00" fill="#000000">rANS/rans.h</text>
</a>
</g>
</g>
<!-- Node7&#45;&gt;Node9 -->
<g id="edge10" class="edge">
<title>Node7&#45;&gt;Node9</title>
<path fill="none" stroke="#191970" d="M318.5,-336.2977C318.5,-328.3834 318.5,-318.6043 318.5,-310.0759"/>
<polygon fill="#191970" stroke="#191970" points="322.0001,-309.8469 318.5,-299.8469 315.0001,-309.847 322.0001,-309.8469"/>
</g>
<!-- Node30 -->
<g id="node31" class="node">
<title>Node30</title>
<polygon fill="none" stroke="#bfbfbf" points="537.5,-280.5 537.5,-299.5 589.5,-299.5 589.5,-280.5 537.5,-280.5"/>
<text text-anchor="middle" x="563.5" y="-287.5" font-family="Helvetica,sans-Serif" font-size="10.00" fill="#000000">TTree.h</text>
</g>
<!-- Node7&#45;&gt;Node30 -->
<g id="edge59" class="edge">
<title>Node7&#45;&gt;Node30</title>
<path fill="none" stroke="#191970" d="M382.5314,-336.4611C421.8496,-327.0723 473.458,-314.4747 527.4142,-300.2262"/>
<polygon fill="#191970" stroke="#191970" points="528.3878,-303.589 537.1562,-297.6422 526.5931,-296.823 528.3878,-303.589"/>
</g>
<!-- Node31 -->
<g id="node32" class="node">
<title>Node31</title>
<g id="a_node32"><a xlink:href="../../d4/d8f/StringUtils_8h.html" target="_top" xlink:title="CommonUtils/StringUtils.h">
<polygon fill="none" stroke="#000000" points="373.5,-280.5 373.5,-299.5 519.5,-299.5 519.5,-280.5 373.5,-280.5"/>
<text text-anchor="middle" x="446.5" y="-287.5" font-family="Helvetica,sans-Serif" font-size="10.00" fill="#000000">CommonUtils/StringUtils.h</text>
</a>
</g>
</g>
<!-- Node7&#45;&gt;Node31 -->
<g id="edge60" class="edge">
<title>Node7&#45;&gt;Node31</title>
<path fill="none" stroke="#191970" d="M349.8123,-336.4554C370.5138,-326.509 397.4523,-313.5659 417.6353,-303.8686"/>
<polygon fill="#191970" stroke="#191970" points="419.1667,-307.0159 426.6645,-299.5303 416.1352,-300.7064 419.1667,-307.0159"/>
</g>
<!-- Node10 -->
<g id="node11" class="node">
<title>Node10</title>
<g id="a_node11"><a xlink:href="../../d0/d51/SymbolStatistics_8h.html" target="_top" xlink:title="Structure to depict the distribution of symbols in the source message. ">
<polygon fill="none" stroke="#000000" points="371.5,-112.5 371.5,-131.5 505.5,-131.5 505.5,-112.5 371.5,-112.5"/>
<text text-anchor="middle" x="438.5" y="-119.5" font-family="Helvetica,sans-Serif" font-size="10.00" fill="#000000">rANS/SymbolStatistics.h</text>
</a>
</g>
</g>
<!-- Node9&#45;&gt;Node10 -->
<g id="edge11" class="edge">
<title>Node9&#45;&gt;Node10</title>
<path fill="none" stroke="#191970" d="M317.6679,-280.2757C316.2873,-257.948 315.9285,-202.3009 342.5,-168 354.3414,-152.714 372.5386,-142.2392 389.9186,-135.1962"/>
<polygon fill="#191970" stroke="#191970" points="391.3079,-138.4134 399.4446,-131.6278 388.8522,-131.8582 391.3079,-138.4134"/>
</g>
<!-- Node21 -->
<g id="node22" class="node">
<title>Node21</title>
<g id="a_node22"><a xlink:href="../../dd/d74/Utilities_2rANS_2include_2rANS_2Encoder_8h.html" target="_top" xlink:title="rANS/Encoder.h">
<polygon fill="none" stroke="#000000" points="640,-224.5 640,-243.5 731,-243.5 731,-224.5 640,-224.5"/>
<text text-anchor="middle" x="685.5" y="-231.5" font-family="Helvetica,sans-Serif" font-size="10.00" fill="#000000">rANS/Encoder.h</text>
</a>
</g>
</g>
<!-- Node9&#45;&gt;Node21 -->
<g id="edge24" class="edge">
<title>Node9&#45;&gt;Node21</title>
<path fill="none" stroke="#191970" d="M355.6115,-281.6931C358.6136,-281.0941 361.6044,-280.5215 364.5,-280 457.005,-263.3392 565.3816,-248.8447 629.5831,-240.7773"/>
<polygon fill="#191970" stroke="#191970" points="630.3954,-244.2031 639.8843,-239.4904 629.5276,-237.2571 630.3954,-244.2031"/>
</g>
<!-- Node28 -->
<g id="node29" class="node">
<title>Node28</title>
<g id="a_node29"><a xlink:href="../../dc/d62/Utilities_2rANS_2include_2rANS_2Decoder_8h.html" target="_top" xlink:title="rANS/Decoder.h">
<polygon fill="none" stroke="#000000" points="386.5,-224.5 386.5,-243.5 478.5,-243.5 478.5,-224.5 386.5,-224.5"/>
<text text-anchor="middle" x="432.5" y="-231.5" font-family="Helvetica,sans-Serif" font-size="10.00" fill="#000000">rANS/Decoder.h</text>
</a>
</g>
</g>
<!-- Node9&#45;&gt;Node28 -->
<g id="edge45" class="edge">
<title>Node9&#45;&gt;Node28</title>
<path fill="none" stroke="#191970" d="M338.0973,-280.3733C356.2331,-271.4644 383.4135,-258.1127 403.9587,-248.0203"/>
<polygon fill="#191970" stroke="#191970" points="405.7261,-251.0517 413.1584,-243.5011 402.6397,-244.7688 405.7261,-251.0517"/>
</g>
<!-- Node10&#45;&gt;Node5 -->
<g id="edge16" class="edge">
<title>Node10&#45;&gt;Node5</title>
<path fill="none" stroke="#191970" d="M406.3389,-112.4339C377.1239,-103.7351 332.5902,-90.453 284.8721,-76.1042"/>
<polygon fill="#191970" stroke="#191970" points="285.874,-72.7507 275.2896,-73.2213 283.8573,-79.4539 285.874,-72.7507"/>
</g>
<!-- Node11 -->
<g id="node12" class="node">
<title>Node11</title>
<polygon fill="none" stroke="#bfbfbf" points="681.5,-56.5 681.5,-75.5 745.5,-75.5 745.5,-56.5 681.5,-56.5"/>
<text text-anchor="middle" x="713.5" y="-63.5" font-family="Helvetica,sans-Serif" font-size="10.00" fill="#000000">algorithm</text>
</g>
<!-- Node10&#45;&gt;Node11 -->
<g id="edge12" class="edge">
<title>Node10&#45;&gt;Node11</title>
<path fill="none" stroke="#191970" d="M490.6857,-112.4395C535.9728,-103.9849 603.5319,-90.9956 671.3048,-76.1948"/>
<polygon fill="#191970" stroke="#191970" points="672.2869,-79.5626 681.303,-73.9983 670.7849,-72.7256 672.2869,-79.5626"/>
</g>
<!-- Node12 -->
<g id="node13" class="node">
<title>Node12</title>
<polygon fill="none" stroke="#bfbfbf" points="763.5,-56.5 763.5,-75.5 815.5,-75.5 815.5,-56.5 763.5,-56.5"/>
<text text-anchor="middle" x="789.5" y="-63.5" font-family="Helvetica,sans-Serif" font-size="10.00" fill="#000000">cassert</text>
</g>
<!-- Node10&#45;&gt;Node12 -->
<g id="edge13" class="edge">
<title>Node10&#45;&gt;Node12</title>
<path fill="none" stroke="#191970" d="M505.5422,-114.8777C567.5672,-107.6905 662.4409,-95.1842 753.3069,-76.0356"/>
<polygon fill="#191970" stroke="#191970" points="754.1746,-79.4292 763.2219,-73.9159 752.7111,-72.5839 754.1746,-79.4292"/>
</g>
<!-- Node13 -->
<g id="node14" class="node">
<title>Node13</title>
<polygon fill="none" stroke="#bfbfbf" points="293.5,-56.5 293.5,-75.5 353.5,-75.5 353.5,-56.5 293.5,-56.5"/>
<text text-anchor="middle" x="323.5" y="-63.5" font-family="Helvetica,sans-Serif" font-size="10.00" fill="#000000">iostream</text>
</g>
<!-- Node10&#45;&gt;Node13 -->
<g id="edge14" class="edge">
<title>Node10&#45;&gt;Node13</title>
<path fill="none" stroke="#191970" d="M418.7308,-112.3733C400.3531,-103.4241 372.7688,-89.9917 352.0107,-79.8835"/>
<polygon fill="#191970" stroke="#191970" points="353.5343,-76.7325 343.0112,-75.5011 350.4696,-83.026 353.5343,-76.7325"/>
</g>
<!-- Node14 -->
<g id="node15" class="node">
<title>Node14</title>
<polygon fill="none" stroke="#bfbfbf" points="443.5,-56.5 443.5,-75.5 499.5,-75.5 499.5,-56.5 443.5,-56.5"/>
<text text-anchor="middle" x="471.5" y="-63.5" font-family="Helvetica,sans-Serif" font-size="10.00" fill="#000000">numeric</text>
</g>
<!-- Node10&#45;&gt;Node14 -->
<g id="edge15" class="edge">
<title>Node10&#45;&gt;Node14</title>
<path fill="none" stroke="#191970" d="M444.2482,-112.2455C448.7435,-104.617 455.1248,-93.7881 460.5825,-84.5267"/>
<polygon fill="#191970" stroke="#191970" points="463.7561,-86.035 465.8177,-75.6427 457.7253,-82.4811 463.7561,-86.035"/>
</g>
<!-- Node15 -->
<g id="node16" class="node">
<title>Node15</title>
<polygon fill="none" stroke="#bfbfbf" points="871,-.5 871,-19.5 918,-19.5 918,-.5 871,-.5"/>
<text text-anchor="middle" x="894.5" y="-7.5" font-family="Helvetica,sans-Serif" font-size="10.00" fill="#000000">cmath</text>
</g>
<!-- Node10&#45;&gt;Node15 -->
<g id="edge17" class="edge">
<title>Node10&#45;&gt;Node15</title>
<path fill="none" stroke="#191970" d="M452.3976,-112.4549C476.8301,-95.8554 526.759,-62.7876 546.5,-56 676.6314,-11.2565 721.4107,-46.7966 860.6481,-19.7834"/>
<polygon fill="#191970" stroke="#191970" points="861.7281,-23.1361 870.8388,-17.7283 860.3443,-16.2742 861.7281,-23.1361"/>
</g>
<!-- Node16 -->
<g id="node17" class="node">
<title>Node16</title>
<polygon fill="none" stroke="#bfbfbf" points="372,-56.5 372,-75.5 425,-75.5 425,-56.5 372,-56.5"/>
<text text-anchor="middle" x="398.5" y="-63.5" font-family="Helvetica,sans-Serif" font-size="10.00" fill="#000000">iterator</text>
</g>
<!-- Node10&#45;&gt;Node16 -->
<g id="edge18" class="edge">
<title>Node10&#45;&gt;Node16</title>
<path fill="none" stroke="#191970" d="M431.5325,-112.2455C425.9689,-104.4564 418.022,-93.3308 411.3171,-83.9439"/>
<polygon fill="#191970" stroke="#191970" points="414.0481,-81.7457 405.3876,-75.6427 408.352,-85.8144 414.0481,-81.7457"/>
</g>
<!-- Node17 -->
<g id="node18" class="node">
<title>Node17</title>
<polygon fill="none" stroke="#bfbfbf" points="555.5,-56.5 555.5,-75.5 663.5,-75.5 663.5,-56.5 555.5,-56.5"/>
<text text-anchor="middle" x="609.5" y="-63.5" font-family="Helvetica,sans-Serif" font-size="10.00" fill="#000000">fairlogger/Logger.h</text>
</g>
<!-- Node10&#45;&gt;Node17 -->
<g id="edge19" class="edge">
<title>Node10&#45;&gt;Node17</title>
<path fill="none" stroke="#191970" d="M467.8959,-112.3733C496.3307,-103.0613 539.5877,-88.8953 570.8081,-78.671"/>
<polygon fill="#191970" stroke="#191970" points="572.0736,-81.9396 580.4876,-75.5011 569.895,-75.2872 572.0736,-81.9396"/>
</g>
<!-- Node18 -->
<g id="node19" class="node">
<title>Node18</title>
<g id="a_node19"><a xlink:href="../../d4/da1/helper_8h.html" target="_top" xlink:title="various helper functions ">
<polygon fill="none" stroke="#000000" points="833.5,-56.5 833.5,-75.5 889.5,-75.5 889.5,-56.5 833.5,-56.5"/>
<text text-anchor="middle" x="861.5" y="-63.5" font-family="Helvetica,sans-Serif" font-size="10.00" fill="#000000">helper.h</text>
</a>
</g>
</g>
<!-- Node10&#45;&gt;Node18 -->
<g id="edge20" class="edge">
<title>Node10&#45;&gt;Node18</title>
<path fill="none" stroke="#191970" d="M505.7685,-115.1762C595.2473,-105.904 749.7616,-89.1644 823.1026,-75.9871"/>
<polygon fill="#191970" stroke="#191970" points="824.1343,-79.3547 833.317,-74.0701 822.843,-72.4748 824.1343,-79.3547"/>
</g>
<!-- Node18&#45;&gt;Node15 -->
<g id="edge22" class="edge">
<title>Node18&#45;&gt;Node15</title>
<path fill="none" stroke="#191970" d="M867.2482,-56.2455C871.7435,-48.617 878.1248,-37.7881 883.5825,-28.5267"/>
<polygon fill="#191970" stroke="#191970" points="886.7561,-30.035 888.8177,-19.6427 880.7253,-26.4811 886.7561,-30.035"/>
</g>
<!-- Node19 -->
<g id="node20" class="node">
<title>Node19</title>
<polygon fill="none" stroke="#bfbfbf" points="421,-.5 421,-19.5 474,-19.5 474,-.5 421,-.5"/>
<text text-anchor="middle" x="447.5" y="-7.5" font-family="Helvetica,sans-Serif" font-size="10.00" fill="#000000">cstddef</text>
</g>
<!-- Node18&#45;&gt;Node19 -->
<g id="edge21" class="edge">
<title>Node18&#45;&gt;Node19</title>
<path fill="none" stroke="#191970" d="M833.3154,-57.9382C830.3524,-57.224 827.3736,-56.5607 824.5,-56 701.0255,-31.9088 552.1938,-18.1765 484.3855,-12.7439"/>
<polygon fill="#191970" stroke="#191970" points="484.4586,-9.2389 474.2146,-11.943 483.909,-16.2173 484.4586,-9.2389"/>
</g>
<!-- Node20 -->
<g id="node21" class="node">
<title>Node20</title>
<polygon fill="none" stroke="#bfbfbf" points="802.5,-.5 802.5,-19.5 852.5,-19.5 852.5,-.5 802.5,-.5"/>
<text text-anchor="middle" x="827.5" y="-7.5" font-family="Helvetica,sans-Serif" font-size="10.00" fill="#000000">chrono</text>
</g>
<!-- Node18&#45;&gt;Node20 -->
<g id="edge23" class="edge">
<title>Node18&#45;&gt;Node20</title>
<path fill="none" stroke="#191970" d="M855.5777,-56.2455C850.8973,-48.5367 844.2327,-37.5598 838.5711,-28.2348"/>
<polygon fill="#191970" stroke="#191970" points="841.5361,-26.3741 833.3545,-19.6427 835.5525,-30.007 841.5361,-26.3741"/>
</g>
<!-- Node21&#45;&gt;Node11 -->
<g id="edge26" class="edge">
<title>Node21&#45;&gt;Node11</title>
<path fill="none" stroke="#191970" d="M689.0271,-224.2631C692.2317,-215.0427 696.851,-200.7503 699.5,-188 706.9128,-152.3205 710.6681,-109.8975 712.3453,-85.6427"/>
<polygon fill="#191970" stroke="#191970" points="715.843,-85.7889 712.992,-75.5849 708.8574,-85.3396 715.843,-85.7889"/>
</g>
<!-- Node21&#45;&gt;Node17 -->
<g id="edge27" class="edge">
<title>Node21&#45;&gt;Node17</title>
<path fill="none" stroke="#191970" d="M685.6388,-224.4177C685.5401,-202.8507 682.9666,-149.4579 661.5,-112 654.6641,-100.0718 643.5967,-89.641 633.4256,-81.7413"/>
<polygon fill="#191970" stroke="#191970" points="635.3417,-78.8063 625.2052,-75.7235 631.2068,-84.4546 635.3417,-78.8063"/>
</g>
<!-- Node21&#45;&gt;Node18 -->
<g id="edge44" class="edge">
<title>Node21&#45;&gt;Node18</title>
<path fill="none" stroke="#191970" d="M731.1049,-225.6288C734.2831,-225.0699 737.4385,-224.5221 740.5,-224 902.4431,-196.3832 1007.8138,-268.9827 1098.5,-132 1103.4068,-124.5882 1104.155,-118.8581 1098.5,-112 1085.9338,-96.7603 963.3694,-79.0223 899.615,-70.7285"/>
<polygon fill="#191970" stroke="#191970" points="899.908,-67.2374 889.5432,-69.4332 899.0151,-74.1802 899.908,-67.2374"/>
</g>
<!-- Node22 -->
<g id="node23" class="node">
<title>Node22</title>
<polygon fill="none" stroke="#bfbfbf" points="899.5,-168.5 899.5,-187.5 957.5,-187.5 957.5,-168.5 899.5,-168.5"/>
<text text-anchor="middle" x="928.5" y="-175.5" font-family="Helvetica,sans-Serif" font-size="10.00" fill="#000000">memory</text>
</g>
<!-- Node21&#45;&gt;Node22 -->
<g id="edge25" class="edge">
<title>Node21&#45;&gt;Node22</title>
<path fill="none" stroke="#191970" d="M727.26,-224.4262C767.7254,-215.142 830.8278,-200.6445 885.5,-188 886.7601,-187.7086 888.041,-187.4121 889.3343,-187.1125"/>
<polygon fill="#191970" stroke="#191970" points="890.4076,-190.4566 899.358,-184.7873 888.8257,-183.6376 890.4076,-190.4566"/>
</g>
<!-- Node23 -->
<g id="node24" class="node">
<title>Node23</title>
<g id="a_node24"><a xlink:href="../../d8/dd9/SymbolTable_8h.html" target="_top" xlink:title="Container for information needed to encode/decode a symbol of the alphabet. ">
<polygon fill="none" stroke="#000000" points="531.5,-168.5 531.5,-187.5 619.5,-187.5 619.5,-168.5 531.5,-168.5"/>
<text text-anchor="middle" x="575.5" y="-175.5" font-family="Helvetica,sans-Serif" font-size="10.00" fill="#000000">SymbolTable.h</text>
</a>
</g>
</g>
<!-- Node21&#45;&gt;Node23 -->
<g id="edge28" class="edge">
<title>Node21&#45;&gt;Node23</title>
<path fill="none" stroke="#191970" d="M666.3395,-224.2455C648.9889,-215.4125 623.2099,-202.2887 603.5417,-192.2758"/>
<polygon fill="#191970" stroke="#191970" points="604.9405,-189.0605 594.441,-187.6427 601.7647,-195.2986 604.9405,-189.0605"/>
</g>
<!-- Node24 -->
<g id="node25" class="node">
<title>Node24</title>
<g id="a_node25"><a xlink:href="../../d2/d53/EncoderSymbol_8h.html" target="_top" xlink:title="Structure containing all relevant information to encode a symbol. ">
<polygon fill="none" stroke="#000000" points="828,-112.5 828,-131.5 929,-131.5 929,-112.5 828,-112.5"/>
<text text-anchor="middle" x="878.5" y="-119.5" font-family="Helvetica,sans-Serif" font-size="10.00" fill="#000000">EncoderSymbol.h</text>
</a>
</g>
</g>
<!-- Node21&#45;&gt;Node24 -->
<g id="edge32" class="edge">
<title>Node21&#45;&gt;Node24</title>
<path fill="none" stroke="#191970" d="M726.9161,-224.4426C753.3617,-217.1211 787.6045,-205.3021 814.5,-188 834.6977,-175.0066 853.2625,-154.4863 865.1361,-139.7761"/>
<polygon fill="#191970" stroke="#191970" points="867.9044,-141.9178 871.3157,-131.8871 862.3938,-137.6012 867.9044,-141.9178"/>
</g>
<!-- Node26 -->
<g id="node27" class="node">
<title>Node26</title>
<g id="a_node27"><a xlink:href="../../d5/d7a/Coder_8h.html" target="_top" xlink:title="Stateless class for coding and decoding symbols using rANS. ">
<polygon fill="none" stroke="#000000" points="752,-168.5 752,-187.5 805,-187.5 805,-168.5 752,-168.5"/>
<text text-anchor="middle" x="778.5" y="-175.5" font-family="Helvetica,sans-Serif" font-size="10.00" fill="#000000">Coder.h</text>
</a>
</g>
</g>
<!-- Node21&#45;&gt;Node26 -->
<g id="edge36" class="edge">
<title>Node21&#45;&gt;Node26</title>
<path fill="none" stroke="#191970" d="M701.6994,-224.2455C716.1018,-215.5731 737.3732,-202.7645 753.8799,-192.825"/>
<polygon fill="#191970" stroke="#191970" points="755.725,-195.7996 762.4863,-187.6427 752.114,-189.8028 755.725,-195.7996"/>
</g>
<!-- Node23&#45;&gt;Node5 -->
<g id="edge29" class="edge">
<title>Node23&#45;&gt;Node5</title>
<path fill="none" stroke="#191970" d="M531.2549,-169.6448C528.2922,-169.0875 525.353,-168.5352 522.5,-168 436.7389,-151.9109 408.3218,-169.4292 329.5,-132 304.893,-120.3152 281.7409,-98.9003 267.1525,-83.6331"/>
<polygon fill="#191970" stroke="#191970" points="269.3376,-80.8417 259.9739,-75.8846 264.2026,-85.599 269.3376,-80.8417"/>
</g>
<!-- Node23&#45;&gt;Node10 -->
<g id="edge31" class="edge">
<title>Node23&#45;&gt;Node10</title>
<path fill="none" stroke="#191970" d="M551.9489,-168.3733C529.6609,-159.2629 496.0063,-145.5062 471.1363,-135.3404"/>
<polygon fill="#191970" stroke="#191970" points="472.3247,-132.0451 461.7438,-131.5011 469.6761,-138.5247 472.3247,-132.0451"/>
</g>
<!-- Node23&#45;&gt;Node17 -->
<g id="edge30" class="edge">
<title>Node23&#45;&gt;Node17</title>
<path fill="none" stroke="#191970" d="M578.3988,-168.4509C583.9692,-150.1013 596.2671,-109.5908 603.62,-85.3693"/>
<polygon fill="#191970" stroke="#191970" points="607.0527,-86.1104 606.6085,-75.5249 600.3545,-84.077 607.0527,-86.1104"/>
</g>
<!-- Node24&#45;&gt;Node12 -->
<g id="edge34" class="edge">
<title>Node24&#45;&gt;Node12</title>
<path fill="none" stroke="#191970" d="M862.9974,-112.2455C849.342,-103.6534 829.2343,-91.0014 813.5011,-81.1018"/>
<polygon fill="#191970" stroke="#191970" points="815.1529,-78.006 804.825,-75.6427 811.4249,-83.9307 815.1529,-78.006"/>
</g>
<!-- Node24&#45;&gt;Node18 -->
<g id="edge35" class="edge">
<title>Node24&#45;&gt;Node18</title>
<path fill="none" stroke="#191970" d="M875.5388,-112.2455C873.2962,-104.8579 870.1423,-94.4689 867.3919,-85.4087"/>
<polygon fill="#191970" stroke="#191970" points="870.6812,-84.1948 864.4272,-75.6427 863.983,-86.2282 870.6812,-84.1948"/>
</g>
<!-- Node25 -->
<g id="node26" class="node">
<title>Node25</title>
<polygon fill="none" stroke="#bfbfbf" points="972.5,-56.5 972.5,-75.5 1022.5,-75.5 1022.5,-56.5 972.5,-56.5"/>
<text text-anchor="middle" x="997.5" y="-63.5" font-family="Helvetica,sans-Serif" font-size="10.00" fill="#000000">cstdint</text>
</g>
<!-- Node24&#45;&gt;Node25 -->
<g id="edge33" class="edge">
<title>Node24&#45;&gt;Node25</title>
<path fill="none" stroke="#191970" d="M898.9568,-112.3733C917.9738,-103.4241 946.5175,-89.9917 967.9976,-79.8835"/>
<polygon fill="#191970" stroke="#191970" points="969.7522,-82.926 977.3101,-75.5011 966.7716,-76.5923 969.7522,-82.926"/>
</g>
<!-- Node26&#45;&gt;Node5 -->
<g id="edge37" class="edge">
<title>Node26&#45;&gt;Node5</title>
<path fill="none" stroke="#191970" d="M751.8604,-175.7152C665.9138,-168.2524 399.4037,-144.3641 362.5,-132 361.327,-131.607 308.9667,-100.3583 276.5877,-81.0049"/>
<polygon fill="#191970" stroke="#191970" points="278.0307,-77.7899 267.6516,-75.6625 274.4387,-83.798 278.0307,-77.7899"/>
</g>
<!-- Node26&#45;&gt;Node12 -->
<g id="edge39" class="edge">
<title>Node26&#45;&gt;Node12</title>
<path fill="none" stroke="#191970" d="M779.4379,-168.4509C781.2319,-150.184 785.183,-109.9553 787.5654,-85.6976"/>
<polygon fill="#191970" stroke="#191970" points="791.0702,-85.8191 788.5645,-75.5249 784.1038,-85.1349 791.0702,-85.8191"/>
</g>
<!-- Node26&#45;&gt;Node18 -->
<g id="edge43" class="edge">
<title>Node26&#45;&gt;Node18</title>
<path fill="none" stroke="#191970" d="M783.8115,-168.2382C791.1658,-155.0264 805.1715,-130.9297 819.5,-112 827.1169,-101.9372 836.5175,-91.4894 844.4926,-83.0989"/>
<polygon fill="#191970" stroke="#191970" points="847.1536,-85.3823 851.5974,-75.7645 842.1257,-80.5119 847.1536,-85.3823"/>
</g>
<!-- Node26&#45;&gt;Node24 -->
<g id="edge42" class="edge">
<title>Node26&#45;&gt;Node24</title>
<path fill="none" stroke="#191970" d="M795.9187,-168.2455C811.5485,-159.4928 834.7019,-146.527 852.5185,-136.5496"/>
<polygon fill="#191970" stroke="#191970" points="854.266,-139.5825 861.2809,-131.6427 850.8457,-133.475 854.266,-139.5825"/>
</g>
<!-- Node26&#45;&gt;Node25 -->
<g id="edge38" class="edge">
<title>Node26&#45;&gt;Node25</title>
<path fill="none" stroke="#191970" d="M805.2933,-171.1659C847.8124,-160.1913 927.1176,-139.1464 938.5,-132 958.1182,-119.6828 975.0868,-98.992 985.7256,-84.0568"/>
<polygon fill="#191970" stroke="#191970" points="988.7356,-85.8559 991.4988,-75.6277 982.9603,-81.9003 988.7356,-85.8559"/>
</g>
<!-- Node27 -->
<g id="node28" class="node">
<title>Node27</title>
<g id="a_node28"><a xlink:href="../../d7/d99/DecoderSymbol_8h.html" target="_top" xlink:title="Structure containing all relevant information for decoding a rANS encoded symbol. ...">
<polygon fill="none" stroke="#000000" points="986,-112.5 986,-131.5 1089,-131.5 1089,-112.5 986,-112.5"/>
<text text-anchor="middle" x="1037.5" y="-119.5" font-family="Helvetica,sans-Serif" font-size="10.00" fill="#000000">DecoderSymbol.h</text>
</a>
</g>
</g>
<!-- Node26&#45;&gt;Node27 -->
<g id="edge40" class="edge">
<title>Node26&#45;&gt;Node27</title>
<path fill="none" stroke="#191970" d="M805.3779,-171.3171C810.0789,-170.1846 814.9276,-169.0397 819.5,-168 873.9126,-155.6267 936.2278,-142.5909 980.2596,-133.5686"/>
<polygon fill="#191970" stroke="#191970" points="981.1077,-136.9677 990.204,-131.5355 979.7055,-130.1096 981.1077,-136.9677"/>
</g>
<!-- Node27&#45;&gt;Node25 -->
<g id="edge41" class="edge">
<title>Node27&#45;&gt;Node25</title>
<path fill="none" stroke="#191970" d="M1030.5325,-112.2455C1024.9689,-104.4564 1017.022,-93.3308 1010.3171,-83.9439"/>
<polygon fill="#191970" stroke="#191970" points="1013.0481,-81.7457 1004.3876,-75.6427 1007.352,-85.8144 1013.0481,-81.7457"/>
</g>
<!-- Node28&#45;&gt;Node8 -->
<g id="edge47" class="edge">
<title>Node28&#45;&gt;Node8</title>
<path fill="none" stroke="#191970" d="M413.0608,-224.4509C372.7616,-204.6548 279.9564,-159.0663 232.9262,-135.9638"/>
<polygon fill="#191970" stroke="#191970" points="234.4087,-132.7925 223.8899,-131.5249 231.3223,-139.0754 234.4087,-132.7925"/>
</g>
<!-- Node28&#45;&gt;Node13 -->
<g id="edge48" class="edge">
<title>Node28&#45;&gt;Node13</title>
<path fill="none" stroke="#191970" d="M390.4798,-224.4688C320.9797,-207.7496 187.0906,-171.1718 160.5,-132 155.5076,-124.6455 155.1356,-119.0877 160.5,-112 164.3127,-106.9624 236.4902,-87.9517 283.5084,-76.003"/>
<polygon fill="#191970" stroke="#191970" points="284.5797,-79.3422 293.415,-73.4951 282.8618,-72.5563 284.5797,-79.3422"/>
</g>
<!-- Node28&#45;&gt;Node17 -->
<g id="edge49" class="edge">
<title>Node28&#45;&gt;Node17</title>
<path fill="none" stroke="#191970" d="M478.6686,-229.693C530.6139,-223.7801 610.1562,-211.1475 628.5,-188 652.229,-158.0571 633.7076,-110.6726 620.2646,-84.6463"/>
<polygon fill="#191970" stroke="#191970" points="623.3077,-82.9158 615.4598,-75.7981 617.1562,-86.2563 623.3077,-82.9158"/>
</g>
<!-- Node28&#45;&gt;Node19 -->
<g id="edge46" class="edge">
<title>Node28&#45;&gt;Node19</title>
<path fill="none" stroke="#191970" d="M386.1024,-227.3499C330.7998,-218.898 242.1367,-203.5318 212.5,-188 174.6246,-168.1506 135.681,-150.8719 153.5,-112 169.3898,-77.3368 184.2427,-72.747 218.5,-56 281.497,-25.2034 363.8734,-15.0232 410.7051,-11.6591"/>
<polygon fill="#191970" stroke="#191970" points="410.9463,-15.1509 420.6971,-11.0069 410.4903,-8.1658 410.9463,-15.1509"/>
</g>
<!-- Node28&#45;&gt;Node23 -->
<g id="edge50" class="edge">
<title>Node28&#45;&gt;Node23</title>
<path fill="none" stroke="#191970" d="M457.0826,-224.3733C480.4496,-215.2226 515.7862,-201.3844 541.7784,-191.2057"/>
<polygon fill="#191970" stroke="#191970" points="543.203,-194.4066 551.2382,-187.5011 540.6505,-187.8886 543.203,-194.4066"/>
</g>
<!-- Node28&#45;&gt;Node26 -->
<g id="edge58" class="edge">
<title>Node28&#45;&gt;Node26</title>
<path fill="none" stroke="#191970" d="M478.8041,-226.5057C548.403,-215.2411 678.5625,-194.1749 741.9435,-183.9167"/>
<polygon fill="#191970" stroke="#191970" points="742.5736,-187.3603 751.8859,-182.3075 741.4552,-180.4502 742.5736,-187.3603"/>
</g>
<!-- Node28&#45;&gt;Node27 -->
<g id="edge51" class="edge">
<title>Node28&#45;&gt;Node27</title>
<path fill="none" stroke="#191970" d="M478.7682,-230.9471C551.0244,-225.6157 694.7884,-212.7402 814.5,-188 849.6757,-180.7304 943.6772,-151.6842 997.7421,-134.6434"/>
<polygon fill="#191970" stroke="#191970" points="998.8676,-137.9584 1007.3492,-131.6092 996.7594,-131.2834 998.8676,-137.9584"/>
</g>
<!-- Node29 -->
<g id="node30" class="node">
<title>Node29</title>
<g id="a_node30"><a xlink:href="../../dc/d3b/ReverseSymbolLookupTable_8h.html" target="_top" xlink:title="Maps CDF back to source symbol &#45; needed for the decoder. ">
<polygon fill="none" stroke="#000000" points="351.5,-168.5 351.5,-187.5 513.5,-187.5 513.5,-168.5 351.5,-168.5"/>
<text text-anchor="middle" x="432.5" y="-175.5" font-family="Helvetica,sans-Serif" font-size="10.00" fill="#000000">ReverseSymbolLookupTable.h</text>
</a>
</g>
</g>
<!-- Node28&#45;&gt;Node29 -->
<g id="edge52" class="edge">
<title>Node28&#45;&gt;Node29</title>
<path fill="none" stroke="#191970" d="M432.5,-224.2455C432.5,-216.9382 432.5,-206.6944 432.5,-197.7046"/>
<polygon fill="#191970" stroke="#191970" points="436.0001,-197.6426 432.5,-187.6427 429.0001,-197.6427 436.0001,-197.6426"/>
</g>
<!-- Node29&#45;&gt;Node5 -->
<g id="edge53" class="edge">
<title>Node29&#45;&gt;Node5</title>
<path fill="none" stroke="#191970" d="M373.1097,-168.4303C346.044,-161.7483 314.8998,-150.5631 291.5,-132 276.1273,-119.8048 265.2524,-99.9626 258.7602,-85.214"/>
<polygon fill="#191970" stroke="#191970" points="261.8343,-83.485 254.8058,-75.5571 255.3564,-86.1376 261.8343,-83.485"/>
</g>
<!-- Node29&#45;&gt;Node8 -->
<g id="edge54" class="edge">
<title>Node29&#45;&gt;Node8</title>
<path fill="none" stroke="#191970" d="M393.5645,-168.4369C353.4975,-158.5959 291.1607,-143.2851 249.1269,-132.961"/>
<polygon fill="#191970" stroke="#191970" points="249.7137,-129.5012 239.1675,-130.5148 248.044,-136.2991 249.7137,-129.5012"/>
</g>
<!-- Node29&#45;&gt;Node10 -->
<g id="edge56" class="edge">
<title>Node29&#45;&gt;Node10</title>
<path fill="none" stroke="#191970" d="M433.5451,-168.2455C434.328,-160.9382 435.4256,-150.6944 436.3888,-141.7046"/>
<polygon fill="#191970" stroke="#191970" points="439.8815,-141.9587 437.4669,-131.6427 432.9214,-141.2129 439.8815,-141.9587"/>
</g>
<!-- Node29&#45;&gt;Node17 -->
<g id="edge55" class="edge">
<title>Node29&#45;&gt;Node17</title>
<path fill="none" stroke="#191970" d="M450.7048,-168.4372C467.5165,-159.4544 493.0531,-145.4225 514.5,-132 540.5122,-115.7204 569.3172,-95.3613 588.3139,-81.5924"/>
<polygon fill="#191970" stroke="#191970" points="590.5313,-84.3073 596.5514,-75.5889 586.4084,-78.6502 590.5313,-84.3073"/>
</g>
<!-- Node29&#45;&gt;Node18 -->
<g id="edge57" class="edge">
<title>Node29&#45;&gt;Node18</title>
<path fill="none" stroke="#191970" d="M469.552,-168.4827C537.5203,-150.9973 686.9453,-112.4322 823.4229,-76.2703"/>
<polygon fill="#191970" stroke="#191970" points="824.4566,-79.6172 833.2256,-73.6711 822.6625,-72.851 824.4566,-79.6172"/>
</g>
<!-- Node32 -->
<g id="node33" class="node">
<title>Node32</title>
<polygon fill="none" stroke="#bfbfbf" points="749.5,-224.5 749.5,-243.5 805.5,-243.5 805.5,-224.5 749.5,-224.5"/>
<text text-anchor="middle" x="777.5" y="-231.5" font-family="Helvetica,sans-Serif" font-size="10.00" fill="#000000">sstream</text>
</g>
<!-- Node31&#45;&gt;Node32 -->
<g id="edge61" class="edge">
<title>Node31&#45;&gt;Node32</title>
<path fill="none" stroke="#191970" d="M519.6985,-280.7997C577.0941,-273.0676 659.1286,-260.8793 739.5033,-244.0389"/>
<polygon fill="#191970" stroke="#191970" points="740.2389,-247.4608 749.2951,-241.9621 738.7865,-240.6131 740.2389,-247.4608"/>
</g>
<!-- Node34 -->
<g id="node35" class="node">
<title>Node34</title>
<g id="a_node35"><a xlink:href="../../de/d64/RangeReference_8h.html" target="_top" xlink:title="Class to refer to the 1st entry and N elements of some group in the continuous container. ">
<polygon fill="none" stroke="#000000" points="683.5,-342 683.5,-361 893.5,-361 893.5,-342 683.5,-342"/>
<text text-anchor="middle" x="788.5" y="-349" font-family="Helvetica,sans-Serif" font-size="10.00" fill="#000000">CommonDataFormat/RangeReference.h</text>
</a>
</g>
</g>
<!-- Node33&#45;&gt;Node34 -->
<g id="edge64" class="edge">
<title>Node33&#45;&gt;Node34</title>
<path fill="none" stroke="#191970" d="M866.125,-403.3906C851.4069,-393.5519 828.3168,-378.1167 811.1411,-366.6351"/>
<polygon fill="#191970" stroke="#191970" points="813.0327,-363.6896 802.7741,-361.0419 809.1425,-369.5091 813.0327,-363.6896"/>
</g>
<!-- Node36 -->
<g id="node37" class="node">
<title>Node36</title>
<g id="a_node37"><a xlink:href="../../d9/d80/InteractionRecord_8h.html" target="_top" xlink:title="CommonDataFormat/Interaction\lRecord.h">
<polygon fill="none" stroke="#000000" points="911.5,-336.5 911.5,-366.5 1085.5,-366.5 1085.5,-336.5 911.5,-336.5"/>
<text text-anchor="start" x="919.5" y="-354.5" font-family="Helvetica,sans-Serif" font-size="10.00" fill="#000000">CommonDataFormat/Interaction</text>
<text text-anchor="middle" x="998.5" y="-343.5" font-family="Helvetica,sans-Serif" font-size="10.00" fill="#000000">Record.h</text>
</a>
</g>
</g>
<!-- Node33&#45;&gt;Node36 -->
<g id="edge67" class="edge">
<title>Node33&#45;&gt;Node36</title>
<path fill="none" stroke="#191970" d="M898.9375,-403.3906C915.4249,-394.7976 940.1032,-381.9356 960.7648,-371.1671"/>
<polygon fill="#191970" stroke="#191970" points="962.3837,-374.2702 969.634,-366.5446 959.1484,-368.0627 962.3837,-374.2702"/>
</g>
<!-- Node39 -->
<g id="node40" class="node">
<title>Node39</title>
<polygon fill="none" stroke="#bfbfbf" points="1104,-342 1104,-361 1161,-361 1161,-342 1104,-342"/>
<text text-anchor="middle" x="1132.5" y="-349" font-family="Helvetica,sans-Serif" font-size="10.00" fill="#000000">gsl/span</text>
</g>
<!-- Node33&#45;&gt;Node39 -->
<g id="edge73" class="edge">
<title>Node33&#45;&gt;Node39</title>
<path fill="none" stroke="#191970" d="M937.9725,-403.4791C981.4637,-395.5953 1042.3957,-383.0899 1094.5,-367 1096.7976,-366.2905 1099.1499,-365.4987 1101.5024,-364.6585"/>
<polygon fill="#191970" stroke="#191970" points="1102.9411,-367.8558 1111.036,-361.0203 1100.4453,-361.3158 1102.9411,-367.8558"/>
</g>
<!-- Node35 -->
<g id="node36" class="node">
<title>Node35</title>
<g id="a_node36"><a xlink:href="../../d2/d45/GPUCommonRtypes_8h.html" target="_top" xlink:title="GPUCommonRtypes.h">
<polygon fill="none" stroke="#000000" points="726,-280.5 726,-299.5 851,-299.5 851,-280.5 726,-280.5"/>
<text text-anchor="middle" x="788.5" y="-287.5" font-family="Helvetica,sans-Serif" font-size="10.00" fill="#000000">GPUCommonRtypes.h</text>
</a>
</g>
</g>
<!-- Node34&#45;&gt;Node35 -->
<g id="edge65" class="edge">
<title>Node34&#45;&gt;Node35</title>
<path fill="none" stroke="#191970" d="M788.5,-341.8906C788.5,-333.3657 788.5,-320.6392 788.5,-309.9235"/>
<polygon fill="#191970" stroke="#191970" points="792.0001,-309.7448 788.5,-299.7449 785.0001,-309.7449 792.0001,-309.7448"/>
</g>
<!-- Node35&#45;&gt;Node6 -->
<g id="edge66" class="edge">
<title>Node35&#45;&gt;Node6</title>
<path fill="none" stroke="#191970" d="M799.8221,-280.2455C809.4223,-271.9746 823.3892,-259.9416 834.6695,-250.2232"/>
<polygon fill="#191970" stroke="#191970" points="837.016,-252.8214 842.3076,-243.6427 832.447,-247.5182 837.016,-252.8214"/>
</g>
<!-- Node36&#45;&gt;Node15 -->
<g id="edge70" class="edge">
<title>Node36&#45;&gt;Node15</title>
<path fill="none" stroke="#191970" d="M1064.4265,-336.4746C1093.7763,-328.1856 1128.0561,-316.2245 1156.5,-300 1195.0689,-278.0002 1231.5,-278.4022 1231.5,-234 1231.5,-234 1231.5,-234 1231.5,-122 1231.5,-58.5242 1013.4723,-24.7007 928.1547,-13.895"/>
<polygon fill="#191970" stroke="#191970" points="928.5514,-10.4175 918.1972,-12.6626 927.6915,-17.3645 928.5514,-10.4175"/>
</g>
<!-- Node36&#45;&gt;Node25 -->
<g id="edge71" class="edge">
<title>Node36&#45;&gt;Node25</title>
<path fill="none" stroke="#191970" d="M1076.1622,-336.4271C1098.1976,-328.7692 1120.5159,-317.2628 1136.5,-300 1157.2387,-277.6023 1155.5,-264.5246 1155.5,-234 1155.5,-234 1155.5,-234 1155.5,-178 1155.5,-118.0131 1078.7618,-87.2405 1032.2448,-74.0975"/>
<polygon fill="#191970" stroke="#191970" points="1033.1016,-70.7036 1022.5356,-71.4845 1031.2824,-77.4631 1033.1016,-70.7036"/>
</g>
<!-- Node36&#45;&gt;Node35 -->
<g id="edge68" class="edge">
<title>Node36&#45;&gt;Node35</title>
<path fill="none" stroke="#191970" d="M947.1282,-336.4554C911.4745,-326.0139 864.5439,-312.27 830.9968,-302.4455"/>
<polygon fill="#191970" stroke="#191970" points="831.6232,-298.982 821.0425,-299.5303 829.6558,-305.6998 831.6232,-298.982"/>
</g>
<!-- Node37 -->
<g id="node38" class="node">
<title>Node37</title>
<polygon fill="none" stroke="#bfbfbf" points="1078,-280.5 1078,-299.5 1127,-299.5 1127,-280.5 1078,-280.5"/>
<text text-anchor="middle" x="1102.5" y="-287.5" font-family="Helvetica,sans-Serif" font-size="10.00" fill="#000000">iosfwd</text>
</g>
<!-- Node36&#45;&gt;Node37 -->
<g id="edge69" class="edge">
<title>Node36&#45;&gt;Node37</title>
<path fill="none" stroke="#191970" d="M1023.9413,-336.4554C1040.2284,-326.8241 1061.2673,-314.3828 1077.473,-304.7996"/>
<polygon fill="#191970" stroke="#191970" points="1079.5576,-307.6331 1086.3837,-299.5303 1075.9945,-301.6078 1079.5576,-307.6331"/>
</g>
<!-- Node38 -->
<g id="node39" class="node">
<title>Node38</title>
<g id="a_node39"><a xlink:href="../../d4/dc6/LHCConstants_8h.html" target="_top" xlink:title="Header to collect LHC related constants. ">
<polygon fill="none" stroke="#000000" points="869.5,-280.5 869.5,-299.5 1059.5,-299.5 1059.5,-280.5 869.5,-280.5"/>
<text text-anchor="middle" x="964.5" y="-287.5" font-family="Helvetica,sans-Serif" font-size="10.00" fill="#000000">CommonConstants/LHCConstants.h</text>
</a>
</g>
</g>
<!-- Node36&#45;&gt;Node38 -->
<g id="edge72" class="edge">
<title>Node36&#45;&gt;Node38</title>
<path fill="none" stroke="#191970" d="M990.0955,-336.2977C985.4743,-327.9388 979.7031,-317.4997 974.8111,-308.6509"/>
<polygon fill="#191970" stroke="#191970" points="977.8452,-306.9051 969.9438,-299.8469 971.7191,-310.292 977.8452,-306.9051"/>
</g>
<!-- Node40&#45;&gt;Node6 -->
<g id="edge75" class="edge">
<title>Node40&#45;&gt;Node6</title>
<path fill="none" stroke="#191970" d="M1258.9933,-341.9182C1234.717,-326.3567 1183.852,-295.7484 1136.5,-280 1052.6346,-252.108 948.9657,-240.7782 893.3078,-236.4537"/>
<polygon fill="#191970" stroke="#191970" points="893.3941,-232.9506 883.1629,-235.7023 892.877,-239.9315 893.3941,-232.9506"/>
</g>
</g>
</svg>
