<?xml version="1.0" encoding="UTF-8" standalone="no"?>
<!DOCTYPE svg PUBLIC "-//W3C//DTD SVG 1.1//EN"
 "http://www.w3.org/Graphics/SVG/1.1/DTD/svg11.dtd">
<!-- Generated by graphviz version 2.40.1 (20161225.0304)
 -->
<!-- Title: /home/travis/build/AliceO2Group/AliceO2/DataFormats/Detectors/ITSMFT/common/include/DataFormatsITSMFT/CTF.h Pages: 1 -->
<!--zoomable 475 -->
<svg id="main" version="1.1" xmlns="http://www.w3.org/2000/svg" xmlns:xlink="http://www.w3.org/1999/xlink" xml:space="preserve" onload="init(evt)">
<style type="text/css"><![CDATA[
.edge:hover path { stroke: red; }
.edge:hover polygon { stroke: red; fill: red; }
]]></style>
<script type="text/javascript"><![CDATA[
var edges = document.getElementsByTagName('g');
if (edges && edges.length) {
  for (var i=0;i<edges.length;i++) {
    if (edges[i].id.substr(0,4)=='edge') {
      edges[i].setAttribute('class','edge');
    }
  }
}
]]></script>
        <defs>
                <circle id="rim" cx="0" cy="0" r="7"/>
                <circle id="rim2" cx="0" cy="0" r="3.5"/>
                <g id="zoomPlus">
                        <use xlink:href="#rim" fill="#404040">
                                <set attributeName="fill" to="#808080" begin="zoomplus.mouseover" end="zoomplus.mouseout"/>
                        </use>
                        <path d="M-4,0h8M0,-4v8" fill="none" stroke="white" stroke-width="1.5" pointer-events="none"/>
                </g>
                <g id="zoomMin">
                        <use xlink:href="#rim" fill="#404040">
                                <set attributeName="fill" to="#808080" begin="zoomminus.mouseover" end="zoomminus.mouseout"/>
                        </use>
                        <path d="M-4,0h8" fill="none" stroke="white" stroke-width="1.5" pointer-events="none"/>
                </g>
                <g id="dirArrow">
                        <path fill="none" stroke="white" stroke-width="1.5" d="M0,-3.0v7 M-2.5,-0.5L0,-3.0L2.5,-0.5"/>
                </g>
               <g id="resetDef">
                       <use xlink:href="#rim2" fill="#404040">
                               <set attributeName="fill" to="#808080" begin="reset.mouseover" end="reset.mouseout"/>
                       </use>
               </g>
        </defs>

<script type="text/javascript">
var viewWidth = 1208;
var viewHeight = 475;
var sectionId = 'dynsection-0';
</script>
<script xlink:href="../../svgpan.js"/>
<svg id="graph" class="graph">
<g id="viewport">
<title>/home/travis/build/AliceO2Group/AliceO2/DataFormats/Detectors/ITSMFT/common/include/DataFormatsITSMFT/CTF.h</title>
<!-- Node0 -->
<g id="node1" class="node">
<title>Node0</title>
<polygon fill="#bfbfbf" stroke="#000000" points="0,-403.5 0,-466.5 146,-466.5 146,-403.5 0,-403.5"/>
<text text-anchor="start" x="8" y="-454.5" font-family="Helvetica,sans-Serif" font-size="10.00" fill="#000000">/home/travis/build</text>
<text text-anchor="start" x="8" y="-443.5" font-family="Helvetica,sans-Serif" font-size="10.00" fill="#000000">/AliceO2Group/AliceO2</text>
<text text-anchor="start" x="8" y="-432.5" font-family="Helvetica,sans-Serif" font-size="10.00" fill="#000000">/DataFormats/Detectors</text>
<text text-anchor="start" x="8" y="-421.5" font-family="Helvetica,sans-Serif" font-size="10.00" fill="#000000">/ITSMFT/common/include</text>
<text text-anchor="middle" x="73" y="-410.5" font-family="Helvetica,sans-Serif" font-size="10.00" fill="#000000">/DataFormatsITSMFT/CTF.h</text>
</g>
<!-- Node1 -->
<g id="node2" class="node">
<title>Node1</title>
<polygon fill="none" stroke="#bfbfbf" points="313.5,-56.5 313.5,-75.5 360.5,-75.5 360.5,-56.5 313.5,-56.5"/>
<text text-anchor="middle" x="337" y="-63.5" font-family="Helvetica,sans-Serif" font-size="10.00" fill="#000000">vector</text>
</g>
<!-- Node0&#45;&gt;Node1 -->
<g id="edge1" class="edge">
<title>Node0&#45;&gt;Node1</title>
<path fill="none" stroke="#191970" d="M52.2245,-403.3365C35.582,-374.888 15,-331.347 15,-290 15,-290 15,-290 15,-234 15,-105.0326 220.5464,-74.9041 303.191,-68.0026"/>
<polygon fill="#191970" stroke="#191970" points="303.6208,-71.4799 313.3226,-67.2225 303.0834,-64.5006 303.6208,-71.4799"/>
</g>
<!-- Node2 -->
<g id="node3" class="node">
<title>Node2</title>
<polygon fill="none" stroke="#bfbfbf" points="43.5,-280.5 43.5,-299.5 102.5,-299.5 102.5,-280.5 43.5,-280.5"/>
<text text-anchor="middle" x="73" y="-287.5" font-family="Helvetica,sans-Serif" font-size="10.00" fill="#000000">Rtypes.h</text>
</g>
<!-- Node0&#45;&gt;Node2 -->
<g id="edge2" class="edge">
<title>Node0&#45;&gt;Node2</title>
<path fill="none" stroke="#191970" d="M73,-403.1791C73,-374.6799 73,-333.7812 73,-309.7465"/>
<polygon fill="#191970" stroke="#191970" points="76.5001,-309.7125 73,-299.7125 69.5001,-309.7125 76.5001,-309.7125"/>
</g>
<!-- Node3 -->
<g id="node4" class="node">
<title>Node3</title>
<g id="a_node4"><a xlink:href="../../da/d91/EncodedBlocks_8h.html" target="_top" xlink:title="DetectorsCommonDataFormats\l/EncodedBlocks.h">
<polygon fill="none" stroke="#000000" points="178.5,-336.5 178.5,-366.5 349.5,-366.5 349.5,-336.5 178.5,-336.5"/>
<text text-anchor="start" x="186.5" y="-354.5" font-family="Helvetica,sans-Serif" font-size="10.00" fill="#000000">DetectorsCommonDataFormats</text>
<text text-anchor="middle" x="264" y="-343.5" font-family="Helvetica,sans-Serif" font-size="10.00" fill="#000000">/EncodedBlocks.h</text>
</a>
</g>
</g>
<!-- Node0&#45;&gt;Node3 -->
<g id="edge3" class="edge">
<title>Node0&#45;&gt;Node3</title>
<path fill="none" stroke="#191970" d="M145.2089,-403.4322C170.5362,-392.3598 198.1911,-380.2699 220.4402,-370.5431"/>
<polygon fill="#191970" stroke="#191970" points="221.8614,-373.7418 229.6221,-366.5291 219.0574,-367.3279 221.8614,-373.7418"/>
</g>
<!-- Node3&#45;&gt;Node2 -->
<g id="edge5" class="edge">
<title>Node3&#45;&gt;Node2</title>
<path fill="none" stroke="#191970" d="M217.2761,-336.4554C185.1277,-326.104 142.8989,-312.5067 112.4436,-302.7004"/>
<polygon fill="#191970" stroke="#191970" points="113.1897,-299.2638 102.5982,-299.5303 111.0442,-305.9269 113.1897,-299.2638"/>
</g>
<!-- Node4 -->
<g id="node5" class="node">
<title>Node4</title>
<polygon fill="none" stroke="#bfbfbf" points="200.5,-112.5 200.5,-131.5 269.5,-131.5 269.5,-112.5 200.5,-112.5"/>
<text text-anchor="middle" x="235" y="-119.5" font-family="Helvetica,sans-Serif" font-size="10.00" fill="#000000">type_traits</text>
</g>
<!-- Node3&#45;&gt;Node4 -->
<g id="edge4" class="edge">
<title>Node3&#45;&gt;Node4</title>
<path fill="none" stroke="#191970" d="M349.6259,-341.8431C402.2881,-333.941 462.7176,-320.6433 479,-300 484.5049,-293.0208 484.0415,-287.3209 479,-280 446.487,-232.7869 271.5768,-234.4626 238,-188 228.4578,-174.7958 228.5804,-155.9275 230.5807,-141.7446"/>
<polygon fill="#191970" stroke="#191970" points="234.0849,-142.0385 232.4388,-131.5724 227.1988,-140.7807 234.0849,-142.0385"/>
</g>
<!-- Node5 -->
<g id="node6" class="node">
<title>Node5</title>
<g id="a_node6"><a xlink:href="../../d4/de7/rans_8h.html" target="_top" xlink:title="header for public api ">
<polygon fill="none" stroke="#000000" points="582,-280.5 582,-299.5 656,-299.5 656,-280.5 582,-280.5"/>
<text text-anchor="middle" x="619" y="-287.5" font-family="Helvetica,sans-Serif" font-size="10.00" fill="#000000">rANS/rans.h</text>
</a>
</g>
</g>
<!-- Node3&#45;&gt;Node5 -->
<g id="edge6" class="edge">
<title>Node3&#45;&gt;Node5</title>
<path fill="none" stroke="#191970" d="M349.9356,-336.6126C419.6729,-324.5313 515.3773,-307.9515 571.8516,-298.168"/>
<polygon fill="#191970" stroke="#191970" points="572.6691,-301.5786 581.9249,-296.4229 571.4742,-294.6813 572.6691,-301.5786"/>
</g>
<!-- Node26 -->
<g id="node27" class="node">
<title>Node26</title>
<polygon fill="none" stroke="#bfbfbf" points="121,-280.5 121,-299.5 173,-299.5 173,-280.5 121,-280.5"/>
<text text-anchor="middle" x="147" y="-287.5" font-family="Helvetica,sans-Serif" font-size="10.00" fill="#000000">TTree.h</text>
</g>
<!-- Node3&#45;&gt;Node26 -->
<g id="edge55" class="edge">
<title>Node3&#45;&gt;Node26</title>
<path fill="none" stroke="#191970" d="M235.3786,-336.4554C216.713,-326.644 192.5001,-313.9167 174.1388,-304.2653"/>
<polygon fill="#191970" stroke="#191970" points="175.611,-301.0851 165.1308,-299.5303 172.354,-307.2812 175.611,-301.0851"/>
</g>
<!-- Node27 -->
<g id="node28" class="node">
<title>Node27</title>
<g id="a_node28"><a xlink:href="../../d4/d8f/StringUtils_8h.html" target="_top" xlink:title="CommonUtils/StringUtils.h">
<polygon fill="none" stroke="#000000" points="191,-280.5 191,-299.5 337,-299.5 337,-280.5 191,-280.5"/>
<text text-anchor="middle" x="264" y="-287.5" font-family="Helvetica,sans-Serif" font-size="10.00" fill="#000000">CommonUtils/StringUtils.h</text>
</a>
</g>
</g>
<!-- Node3&#45;&gt;Node27 -->
<g id="edge56" class="edge">
<title>Node3&#45;&gt;Node27</title>
<path fill="none" stroke="#191970" d="M264,-336.2977C264,-328.3834 264,-318.6043 264,-310.0759"/>
<polygon fill="#191970" stroke="#191970" points="267.5001,-309.8469 264,-299.8469 260.5001,-309.847 267.5001,-309.8469"/>
</g>
<!-- Node29 -->
<g id="node30" class="node">
<title>Node29</title>
<g id="a_node30"><a xlink:href="../../dd/da4/Logger_8h.html" target="_top" xlink:title="Framework/Logger.h">
<polygon fill="none" stroke="#000000" points="355.5,-280.5 355.5,-299.5 470.5,-299.5 470.5,-280.5 355.5,-280.5"/>
<text text-anchor="middle" x="413" y="-287.5" font-family="Helvetica,sans-Serif" font-size="10.00" fill="#000000">Framework/Logger.h</text>
</a>
</g>
</g>
<!-- Node3&#45;&gt;Node29 -->
<g id="edge58" class="edge">
<title>Node3&#45;&gt;Node29</title>
<path fill="none" stroke="#191970" d="M300.4495,-336.4554C324.8744,-326.374 356.7581,-313.2139 380.3521,-303.4755"/>
<polygon fill="#191970" stroke="#191970" points="382.0021,-306.5809 389.9103,-299.5303 379.3313,-300.1104 382.0021,-306.5809"/>
</g>
<!-- Node6 -->
<g id="node7" class="node">
<title>Node6</title>
<g id="a_node7"><a xlink:href="../../d0/d51/SymbolStatistics_8h.html" target="_top" xlink:title="Structure to depict the distribution of symbols in the source message. ">
<polygon fill="none" stroke="#000000" points="595,-112.5 595,-131.5 729,-131.5 729,-112.5 595,-112.5"/>
<text text-anchor="middle" x="662" y="-119.5" font-family="Helvetica,sans-Serif" font-size="10.00" fill="#000000">rANS/SymbolStatistics.h</text>
</a>
</g>
</g>
<!-- Node5&#45;&gt;Node6 -->
<g id="edge7" class="edge">
<title>Node5&#45;&gt;Node6</title>
<path fill="none" stroke="#191970" d="M621.4351,-280.4862C628.2618,-253.8144 647.6893,-177.9117 656.959,-141.695"/>
<polygon fill="#191970" stroke="#191970" points="660.3956,-142.3835 659.4845,-131.8279 653.6142,-140.6477 660.3956,-142.3835"/>
</g>
<!-- Node17 -->
<g id="node18" class="node">
<title>Node17</title>
<g id="a_node18"><a xlink:href="../../dd/d74/Utilities_2rANS_2include_2rANS_2Encoder_8h.html" target="_top" xlink:title="rANS/Encoder.h">
<polygon fill="none" stroke="#000000" points="776.5,-224.5 776.5,-243.5 867.5,-243.5 867.5,-224.5 776.5,-224.5"/>
<text text-anchor="middle" x="822" y="-231.5" font-family="Helvetica,sans-Serif" font-size="10.00" fill="#000000">rANS/Encoder.h</text>
</a>
</g>
</g>
<!-- Node5&#45;&gt;Node17 -->
<g id="edge20" class="edge">
<title>Node5&#45;&gt;Node17</title>
<path fill="none" stroke="#191970" d="M653.8969,-280.3733C688.0911,-270.9404 740.3415,-256.5265 777.5042,-246.2747"/>
<polygon fill="#191970" stroke="#191970" points="778.8493,-249.5345 787.5584,-243.5011 776.9877,-242.7865 778.8493,-249.5345"/>
</g>
<!-- Node24 -->
<g id="node25" class="node">
<title>Node24</title>
<g id="a_node25"><a xlink:href="../../dc/d62/Utilities_2rANS_2include_2rANS_2Decoder_8h.html" target="_top" xlink:title="rANS/Decoder.h">
<polygon fill="none" stroke="#000000" points="445,-224.5 445,-243.5 537,-243.5 537,-224.5 445,-224.5"/>
<text text-anchor="middle" x="491" y="-231.5" font-family="Helvetica,sans-Serif" font-size="10.00" fill="#000000">rANS/Decoder.h</text>
</a>
</g>
</g>
<!-- Node5&#45;&gt;Node24 -->
<g id="edge41" class="edge">
<title>Node5&#45;&gt;Node24</title>
<path fill="none" stroke="#191970" d="M596.996,-280.3733C576.3565,-271.3435 545.2842,-257.7494 522.1111,-247.6111"/>
<polygon fill="#191970" stroke="#191970" points="523.2813,-244.3028 512.7169,-243.5011 520.4755,-250.7159 523.2813,-244.3028"/>
</g>
<!-- Node6&#45;&gt;Node1 -->
<g id="edge12" class="edge">
<title>Node6&#45;&gt;Node1</title>
<path fill="none" stroke="#191970" d="M594.814,-114.0942C537.5703,-106.7482 453.0234,-94.4601 370.4812,-75.8462"/>
<polygon fill="#191970" stroke="#191970" points="371.2167,-72.4241 360.688,-73.6053 369.6553,-79.2477 371.2167,-72.4241"/>
</g>
<!-- Node7 -->
<g id="node8" class="node">
<title>Node7</title>
<polygon fill="none" stroke="#bfbfbf" points="1136,-56.5 1136,-75.5 1200,-75.5 1200,-56.5 1136,-56.5"/>
<text text-anchor="middle" x="1168" y="-63.5" font-family="Helvetica,sans-Serif" font-size="10.00" fill="#000000">algorithm</text>
</g>
<!-- Node6&#45;&gt;Node7 -->
<g id="edge8" class="edge">
<title>Node6&#45;&gt;Node7</title>
<path fill="none" stroke="#191970" d="M729.2436,-116.3042C816.5112,-108.6247 973.4305,-93.8358 1107,-76 1112.9967,-75.1992 1119.3105,-74.2662 1125.5109,-73.298"/>
<polygon fill="#191970" stroke="#191970" points="1126.4436,-76.6932 1135.7625,-71.6525 1125.3342,-69.7816 1126.4436,-76.6932"/>
</g>
<!-- Node8 -->
<g id="node9" class="node">
<title>Node8</title>
<polygon fill="none" stroke="#bfbfbf" points="1046,-56.5 1046,-75.5 1098,-75.5 1098,-56.5 1046,-56.5"/>
<text text-anchor="middle" x="1072" y="-63.5" font-family="Helvetica,sans-Serif" font-size="10.00" fill="#000000">cassert</text>
</g>
<!-- Node6&#45;&gt;Node8 -->
<g id="edge9" class="edge">
<title>Node6&#45;&gt;Node8</title>
<path fill="none" stroke="#191970" d="M729.2173,-115.4289C802.6608,-107.8073 923.6429,-93.9567 1027,-76 1029.8829,-75.4991 1032.8603,-74.9374 1035.8463,-74.3423"/>
<polygon fill="#191970" stroke="#191970" points="1036.8392,-77.7102 1045.9072,-72.2309 1035.4015,-70.8595 1036.8392,-77.7102"/>
</g>
<!-- Node9 -->
<g id="node10" class="node">
<title>Node9</title>
<polygon fill="none" stroke="#bfbfbf" points="505,-56.5 505,-75.5 565,-75.5 565,-56.5 505,-56.5"/>
<text text-anchor="middle" x="535" y="-63.5" font-family="Helvetica,sans-Serif" font-size="10.00" fill="#000000">iostream</text>
</g>
<!-- Node6&#45;&gt;Node9 -->
<g id="edge10" class="edge">
<title>Node6&#45;&gt;Node9</title>
<path fill="none" stroke="#191970" d="M640.1679,-112.3733C619.6897,-103.3435 588.8601,-89.7494 565.8681,-79.6111"/>
<polygon fill="#191970" stroke="#191970" points="567.1093,-76.3333 556.5472,-75.5011 564.285,-82.7383 567.1093,-76.3333"/>
</g>
<!-- Node10 -->
<g id="node11" class="node">
<title>Node10</title>
<polygon fill="none" stroke="#bfbfbf" points="583,-56.5 583,-75.5 639,-75.5 639,-56.5 583,-56.5"/>
<text text-anchor="middle" x="611" y="-63.5" font-family="Helvetica,sans-Serif" font-size="10.00" fill="#000000">numeric</text>
</g>
<!-- Node6&#45;&gt;Node10 -->
<g id="edge11" class="edge">
<title>Node6&#45;&gt;Node10</title>
<path fill="none" stroke="#191970" d="M653.1165,-112.2455C645.8034,-104.2155 635.2609,-92.6394 626.5533,-83.0781"/>
<polygon fill="#191970" stroke="#191970" points="629.1028,-80.6795 619.7817,-75.6427 623.9273,-85.3928 629.1028,-80.6795"/>
</g>
<!-- Node11 -->
<g id="node12" class="node">
<title>Node11</title>
<polygon fill="none" stroke="#bfbfbf" points="715.5,-.5 715.5,-19.5 762.5,-19.5 762.5,-.5 715.5,-.5"/>
<text text-anchor="middle" x="739" y="-7.5" font-family="Helvetica,sans-Serif" font-size="10.00" fill="#000000">cmath</text>
</g>
<!-- Node6&#45;&gt;Node11 -->
<g id="edge13" class="edge">
<title>Node6&#45;&gt;Node11</title>
<path fill="none" stroke="#191970" d="M679.1383,-112.454C692.1599,-104.3582 709.5561,-91.5886 720,-76 729.3215,-62.0868 734.1338,-43.5736 736.579,-29.6961"/>
<polygon fill="#191970" stroke="#191970" points="740.0506,-30.1455 738.0733,-19.7368 733.1281,-29.1067 740.0506,-30.1455"/>
</g>
<!-- Node12 -->
<g id="node13" class="node">
<title>Node12</title>
<polygon fill="none" stroke="#bfbfbf" points="657.5,-56.5 657.5,-75.5 710.5,-75.5 710.5,-56.5 657.5,-56.5"/>
<text text-anchor="middle" x="684" y="-63.5" font-family="Helvetica,sans-Serif" font-size="10.00" fill="#000000">iterator</text>
</g>
<!-- Node6&#45;&gt;Node12 -->
<g id="edge14" class="edge">
<title>Node6&#45;&gt;Node12</title>
<path fill="none" stroke="#191970" d="M665.8321,-112.2455C668.7659,-104.7776 672.9047,-94.2427 676.491,-85.1137"/>
<polygon fill="#191970" stroke="#191970" points="679.8129,-86.23 680.2118,-75.6427 673.2976,-83.6704 679.8129,-86.23"/>
</g>
<!-- Node13 -->
<g id="node14" class="node">
<title>Node13</title>
<polygon fill="none" stroke="#bfbfbf" points="379,-56.5 379,-75.5 487,-75.5 487,-56.5 379,-56.5"/>
<text text-anchor="middle" x="433" y="-63.5" font-family="Helvetica,sans-Serif" font-size="10.00" fill="#000000">fairlogger/Logger.h</text>
</g>
<!-- Node6&#45;&gt;Node13 -->
<g id="edge15" class="edge">
<title>Node6&#45;&gt;Node13</title>
<path fill="none" stroke="#191970" d="M622.8937,-112.4369C583.8668,-102.8932 523.8035,-88.2052 481.7038,-77.9101"/>
<polygon fill="#191970" stroke="#191970" points="482.4902,-74.4993 471.945,-75.5237 480.8274,-81.299 482.4902,-74.4993"/>
</g>
<!-- Node14 -->
<g id="node15" class="node">
<title>Node14</title>
<g id="a_node15"><a xlink:href="../../d4/da1/helper_8h.html" target="_top" xlink:title="various helper functions ">
<polygon fill="none" stroke="#000000" points="767,-56.5 767,-75.5 823,-75.5 823,-56.5 767,-56.5"/>
<text text-anchor="middle" x="795" y="-63.5" font-family="Helvetica,sans-Serif" font-size="10.00" fill="#000000">helper.h</text>
</a>
</g>
</g>
<!-- Node6&#45;&gt;Node14 -->
<g id="edge16" class="edge">
<title>Node6&#45;&gt;Node14</title>
<path fill="none" stroke="#191970" d="M684.8635,-112.3733C706.405,-103.3032 738.8838,-89.6279 762.9956,-79.4755"/>
<polygon fill="#191970" stroke="#191970" points="764.5767,-82.6075 772.4348,-75.5011 761.8603,-76.156 764.5767,-82.6075"/>
</g>
<!-- Node14&#45;&gt;Node11 -->
<g id="edge18" class="edge">
<title>Node14&#45;&gt;Node11</title>
<path fill="none" stroke="#191970" d="M785.2455,-56.2455C777.1352,-48.1352 765.4075,-36.4075 755.7919,-26.7919"/>
<polygon fill="#191970" stroke="#191970" points="758.1887,-24.2389 748.6427,-19.6427 753.2389,-29.1887 758.1887,-24.2389"/>
</g>
<!-- Node15 -->
<g id="node16" class="node">
<title>Node15</title>
<polygon fill="none" stroke="#bfbfbf" points="376.5,-.5 376.5,-19.5 429.5,-19.5 429.5,-.5 376.5,-.5"/>
<text text-anchor="middle" x="403" y="-7.5" font-family="Helvetica,sans-Serif" font-size="10.00" fill="#000000">cstddef</text>
</g>
<!-- Node14&#45;&gt;Node15 -->
<g id="edge17" class="edge">
<title>Node14&#45;&gt;Node15</title>
<path fill="none" stroke="#191970" d="M766.8083,-61.9726C697.3113,-52.0445 517.7847,-26.3978 439.9272,-15.2753"/>
<polygon fill="#191970" stroke="#191970" points="440.0325,-11.7549 429.638,-13.8054 439.0425,-18.6845 440.0325,-11.7549"/>
</g>
<!-- Node16 -->
<g id="node17" class="node">
<title>Node16</title>
<polygon fill="none" stroke="#bfbfbf" points="781,-.5 781,-19.5 831,-19.5 831,-.5 781,-.5"/>
<text text-anchor="middle" x="806" y="-7.5" font-family="Helvetica,sans-Serif" font-size="10.00" fill="#000000">chrono</text>
</g>
<!-- Node14&#45;&gt;Node16 -->
<g id="edge19" class="edge">
<title>Node14&#45;&gt;Node16</title>
<path fill="none" stroke="#191970" d="M796.9161,-56.2455C798.3514,-48.9382 800.3636,-38.6944 802.1295,-29.7046"/>
<polygon fill="#191970" stroke="#191970" points="805.6127,-30.1298 804.1059,-19.6427 798.744,-28.7805 805.6127,-30.1298"/>
</g>
<!-- Node17&#45;&gt;Node7 -->
<g id="edge22" class="edge">
<title>Node17&#45;&gt;Node7</title>
<path fill="none" stroke="#191970" d="M867.7915,-225.3771C948.0288,-209.3749 1109.2132,-172.962 1148,-132 1159.808,-119.5299 1164.6626,-100.3138 1166.6489,-85.8263"/>
<polygon fill="#191970" stroke="#191970" points="1170.1324,-86.1655 1167.6764,-75.8593 1163.1693,-85.4476 1170.1324,-86.1655"/>
</g>
<!-- Node17&#45;&gt;Node13 -->
<g id="edge23" class="edge">
<title>Node17&#45;&gt;Node13</title>
<path fill="none" stroke="#191970" d="M799.9711,-224.4862C734.5987,-196.2534 541.5002,-112.8587 464.8653,-79.7619"/>
<polygon fill="#191970" stroke="#191970" points="465.8376,-76.3694 455.2694,-75.6177 463.0622,-82.7957 465.8376,-76.3694"/>
</g>
<!-- Node17&#45;&gt;Node14 -->
<g id="edge40" class="edge">
<title>Node17&#45;&gt;Node14</title>
<path fill="none" stroke="#191970" d="M820.471,-224.4862C816.2029,-197.9293 804.0908,-122.5651 798.2409,-86.1655"/>
<polygon fill="#191970" stroke="#191970" points="801.622,-85.1458 796.5795,-75.8279 794.7107,-86.2566 801.622,-85.1458"/>
</g>
<!-- Node18 -->
<g id="node19" class="node">
<title>Node18</title>
<polygon fill="none" stroke="#bfbfbf" points="895,-168.5 895,-187.5 953,-187.5 953,-168.5 895,-168.5"/>
<text text-anchor="middle" x="924" y="-175.5" font-family="Helvetica,sans-Serif" font-size="10.00" fill="#000000">memory</text>
</g>
<!-- Node17&#45;&gt;Node18 -->
<g id="edge21" class="edge">
<title>Node17&#45;&gt;Node18</title>
<path fill="none" stroke="#191970" d="M839.767,-224.2455C855.7095,-215.4928 879.3259,-202.527 897.4989,-192.5496"/>
<polygon fill="#191970" stroke="#191970" points="899.3552,-195.5233 906.4366,-187.6427 895.9863,-189.3873 899.3552,-195.5233"/>
</g>
<!-- Node19 -->
<g id="node20" class="node">
<title>Node19</title>
<g id="a_node20"><a xlink:href="../../d8/dd9/SymbolTable_8h.html" target="_top" xlink:title="Container for information needed to encode/decode a symbol of the alphabet. ">
<polygon fill="none" stroke="#000000" points="519,-168.5 519,-187.5 607,-187.5 607,-168.5 519,-168.5"/>
<text text-anchor="middle" x="563" y="-175.5" font-family="Helvetica,sans-Serif" font-size="10.00" fill="#000000">SymbolTable.h</text>
</a>
</g>
</g>
<!-- Node17&#45;&gt;Node19 -->
<g id="edge24" class="edge">
<title>Node17&#45;&gt;Node19</title>
<path fill="none" stroke="#191970" d="M777.7706,-224.4369C733.2585,-214.8127 664.551,-199.957 616.8831,-189.6504"/>
<polygon fill="#191970" stroke="#191970" points="617.5608,-186.2161 607.047,-187.5237 616.0814,-193.058 617.5608,-186.2161"/>
</g>
<!-- Node20 -->
<g id="node21" class="node">
<title>Node20</title>
<g id="a_node21"><a xlink:href="../../d2/d53/EncoderSymbol_8h.html" target="_top" xlink:title="Structure containing all relevant information to encode a symbol. ">
<polygon fill="none" stroke="#000000" points="1021.5,-112.5 1021.5,-131.5 1122.5,-131.5 1122.5,-112.5 1021.5,-112.5"/>
<text text-anchor="middle" x="1072" y="-119.5" font-family="Helvetica,sans-Serif" font-size="10.00" fill="#000000">EncoderSymbol.h</text>
</a>
</g>
</g>
<!-- Node17&#45;&gt;Node20 -->
<g id="edge28" class="edge">
<title>Node17&#45;&gt;Node20</title>
<path fill="none" stroke="#191970" d="M858.5167,-224.4244C887.2723,-216.3123 928.0313,-203.5352 962,-188 993.8991,-173.4113 1028.1838,-151.7917 1049.8445,-137.3145"/>
<polygon fill="#191970" stroke="#191970" points="1051.9883,-140.09 1058.311,-131.5886 1048.0667,-134.2915 1051.9883,-140.09"/>
</g>
<!-- Node22 -->
<g id="node23" class="node">
<title>Node22</title>
<g id="a_node23"><a xlink:href="../../d5/d7a/Coder_8h.html" target="_top" xlink:title="Stateless class for coding and decoding symbols using rANS. ">
<polygon fill="none" stroke="#000000" points="823.5,-168.5 823.5,-187.5 876.5,-187.5 876.5,-168.5 823.5,-168.5"/>
<text text-anchor="middle" x="850" y="-175.5" font-family="Helvetica,sans-Serif" font-size="10.00" fill="#000000">Coder.h</text>
</a>
</g>
</g>
<!-- Node17&#45;&gt;Node22 -->
<g id="edge32" class="edge">
<title>Node17&#45;&gt;Node22</title>
<path fill="none" stroke="#191970" d="M826.8772,-224.2455C830.6513,-216.6973 835.9921,-206.0158 840.5901,-196.8197"/>
<polygon fill="#191970" stroke="#191970" points="843.837,-198.1522 845.1787,-187.6427 837.576,-195.0217 843.837,-198.1522"/>
</g>
<!-- Node19&#45;&gt;Node1 -->
<g id="edge25" class="edge">
<title>Node19&#45;&gt;Node1</title>
<path fill="none" stroke="#191970" d="M543.7314,-168.4509C503.869,-148.6961 412.1784,-103.2565 365.4695,-80.1088"/>
<polygon fill="#191970" stroke="#191970" points="366.7341,-76.8293 356.2199,-75.5249 363.6258,-83.1014 366.7341,-76.8293"/>
</g>
<!-- Node19&#45;&gt;Node6 -->
<g id="edge27" class="edge">
<title>Node19&#45;&gt;Node6</title>
<path fill="none" stroke="#191970" d="M580.2445,-168.2455C595.5761,-159.5731 618.2199,-146.7645 635.7916,-136.825"/>
<polygon fill="#191970" stroke="#191970" points="637.9724,-139.6126 644.9531,-131.6427 634.5259,-133.5198 637.9724,-139.6126"/>
</g>
<!-- Node19&#45;&gt;Node13 -->
<g id="edge26" class="edge">
<title>Node19&#45;&gt;Node13</title>
<path fill="none" stroke="#191970" d="M551.9163,-168.4509C529.6582,-149.2747 479.3081,-105.8962 451.8022,-82.1988"/>
<polygon fill="#191970" stroke="#191970" points="453.9163,-79.4004 444.0557,-75.5249 449.3473,-84.7036 453.9163,-79.4004"/>
</g>
<!-- Node20&#45;&gt;Node8 -->
<g id="edge30" class="edge">
<title>Node20&#45;&gt;Node8</title>
<path fill="none" stroke="#191970" d="M1072,-112.2455C1072,-104.9382 1072,-94.6944 1072,-85.7046"/>
<polygon fill="#191970" stroke="#191970" points="1075.5001,-85.6426 1072,-75.6427 1068.5001,-85.6427 1075.5001,-85.6426"/>
</g>
<!-- Node20&#45;&gt;Node14 -->
<g id="edge31" class="edge">
<title>Node20&#45;&gt;Node14</title>
<path fill="none" stroke="#191970" d="M1024.6967,-112.4369C970.5995,-101.5003 883.0867,-83.8081 833.1502,-73.7127"/>
<polygon fill="#191970" stroke="#191970" points="833.5854,-70.2299 823.0901,-71.6789 832.1983,-77.0911 833.5854,-70.2299"/>
</g>
<!-- Node21 -->
<g id="node22" class="node">
<title>Node21</title>
<polygon fill="none" stroke="#bfbfbf" points="968,-56.5 968,-75.5 1018,-75.5 1018,-56.5 968,-56.5"/>
<text text-anchor="middle" x="993" y="-63.5" font-family="Helvetica,sans-Serif" font-size="10.00" fill="#000000">cstdint</text>
</g>
<!-- Node20&#45;&gt;Node21 -->
<g id="edge29" class="edge">
<title>Node20&#45;&gt;Node21</title>
<path fill="none" stroke="#191970" d="M1058.2393,-112.2455C1046.3448,-103.814 1028.935,-91.4729 1015.0915,-81.6598"/>
<polygon fill="#191970" stroke="#191970" points="1016.7854,-78.5704 1006.6031,-75.6427 1012.7372,-84.2811 1016.7854,-78.5704"/>
</g>
<!-- Node22&#45;&gt;Node1 -->
<g id="edge33" class="edge">
<title>Node22&#45;&gt;Node1</title>
<path fill="none" stroke="#191970" d="M823.2559,-174.075C775.4253,-166.8922 672.1687,-150.645 586,-132 492.193,-111.7023 467.0724,-103.3721 370.6357,-76.1127"/>
<polygon fill="#191970" stroke="#191970" points="371.3341,-72.6732 360.7593,-73.3255 369.4327,-79.41 371.3341,-72.6732"/>
</g>
<!-- Node22&#45;&gt;Node8 -->
<g id="edge35" class="edge">
<title>Node22&#45;&gt;Node8</title>
<path fill="none" stroke="#191970" d="M876.6444,-170.197C879.784,-169.397 882.9536,-168.6434 886,-168 940.0566,-156.584 1095.8721,-173.7997 1132,-132 1147.4859,-114.083 1123.0579,-94.0195 1100.8773,-80.768"/>
<polygon fill="#191970" stroke="#191970" points="1102.3725,-77.5922 1091.9476,-75.7021 1098.9184,-83.6807 1102.3725,-77.5922"/>
</g>
<!-- Node22&#45;&gt;Node14 -->
<g id="edge39" class="edge">
<title>Node22&#45;&gt;Node14</title>
<path fill="none" stroke="#191970" d="M845.3107,-168.4509C836.2186,-149.936 816.0469,-108.8591 804.1922,-84.7187"/>
<polygon fill="#191970" stroke="#191970" points="807.227,-82.9582 799.6774,-75.5249 800.9437,-86.0438 807.227,-82.9582"/>
</g>
<!-- Node22&#45;&gt;Node20 -->
<g id="edge38" class="edge">
<title>Node22&#45;&gt;Node20</title>
<path fill="none" stroke="#191970" d="M876.7134,-170.4884C879.8406,-169.6361 882.9884,-168.7905 886,-168 931.879,-155.9573 984.3559,-143.0586 1021.8463,-133.9937"/>
<polygon fill="#191970" stroke="#191970" points="1023.1051,-137.2905 1032.0051,-131.5425 1021.4631,-130.4858 1023.1051,-137.2905"/>
</g>
<!-- Node22&#45;&gt;Node21 -->
<g id="edge34" class="edge">
<title>Node22&#45;&gt;Node21</title>
<path fill="none" stroke="#191970" d="M876.7467,-169.5009C911.0961,-158.3712 967.1287,-139.4065 974,-132 985.5182,-119.5847 990.104,-100.63 991.9043,-86.2137"/>
<polygon fill="#191970" stroke="#191970" points="995.4275,-86.1082 992.8302,-75.8367 988.4552,-85.4861 995.4275,-86.1082"/>
</g>
<!-- Node23 -->
<g id="node24" class="node">
<title>Node23</title>
<g id="a_node24"><a xlink:href="../../d7/d99/DecoderSymbol_8h.html" target="_top" xlink:title="Structure containing all relevant information for decoding a rANS encoded symbol. ...">
<polygon fill="none" stroke="#000000" points="861.5,-112.5 861.5,-131.5 964.5,-131.5 964.5,-112.5 861.5,-112.5"/>
<text text-anchor="middle" x="913" y="-119.5" font-family="Helvetica,sans-Serif" font-size="10.00" fill="#000000">DecoderSymbol.h</text>
</a>
</g>
</g>
<!-- Node22&#45;&gt;Node23 -->
<g id="edge36" class="edge">
<title>Node22&#45;&gt;Node23</title>
<path fill="none" stroke="#191970" d="M860.9738,-168.2455C870.1882,-160.0549 883.5532,-148.1749 894.4297,-138.5069"/>
<polygon fill="#191970" stroke="#191970" points="897.0032,-140.9023 902.152,-131.6427 892.3526,-135.6704 897.0032,-140.9023"/>
</g>
<!-- Node23&#45;&gt;Node21 -->
<g id="edge37" class="edge">
<title>Node23&#45;&gt;Node21</title>
<path fill="none" stroke="#191970" d="M926.9349,-112.2455C939.0947,-103.7337 956.9464,-91.2375 971.0285,-81.3801"/>
<polygon fill="#191970" stroke="#191970" points="973.0395,-84.2447 979.2248,-75.6427 969.0253,-78.51 973.0395,-84.2447"/>
</g>
<!-- Node24&#45;&gt;Node4 -->
<g id="edge43" class="edge">
<title>Node24&#45;&gt;Node4</title>
<path fill="none" stroke="#191970" d="M444.9579,-227.6887C380.0511,-218.3997 267.953,-200.7686 254,-188 241.2425,-176.3254 236.8418,-156.6958 235.4238,-141.8717"/>
<polygon fill="#191970" stroke="#191970" points="238.9061,-141.4637 234.8318,-131.6836 231.9179,-141.8699 238.9061,-141.4637"/>
</g>
<!-- Node24&#45;&gt;Node9 -->
<g id="edge44" class="edge">
<title>Node24&#45;&gt;Node9</title>
<path fill="none" stroke="#191970" d="M493.4917,-224.4862C500.4772,-197.8144 520.3565,-121.9117 529.8418,-85.695"/>
<polygon fill="#191970" stroke="#191970" points="533.2782,-86.3884 532.426,-75.8279 526.5066,-84.6148 533.2782,-86.3884"/>
</g>
<!-- Node24&#45;&gt;Node13 -->
<g id="edge45" class="edge">
<title>Node24&#45;&gt;Node13</title>
<path fill="none" stroke="#191970" d="M487.7155,-224.4862C478.5073,-197.8144 452.3029,-121.9117 439.7995,-85.695"/>
<polygon fill="#191970" stroke="#191970" points="442.9648,-84.1382 436.393,-75.8279 436.348,-86.4226 442.9648,-84.1382"/>
</g>
<!-- Node24&#45;&gt;Node15 -->
<g id="edge42" class="edge">
<title>Node24&#45;&gt;Node15</title>
<path fill="none" stroke="#191970" d="M444.9511,-229.4073C381.8644,-222.481 272.4543,-208.0121 238,-188 209.9026,-171.6802 202.115,-162.5329 191,-132 162.9407,-54.9207 297.9287,-24.7015 365.8835,-14.5106"/>
<polygon fill="#191970" stroke="#191970" points="366.7731,-17.9193 376.179,-13.0429 365.7851,-10.9893 366.7731,-17.9193"/>
</g>
<!-- Node24&#45;&gt;Node19 -->
<g id="edge46" class="edge">
<title>Node24&#45;&gt;Node19</title>
<path fill="none" stroke="#191970" d="M503.5414,-224.2455C514.2787,-215.8943 529.9473,-203.7076 542.5047,-193.9408"/>
<polygon fill="#191970" stroke="#191970" points="544.8575,-196.5449 550.6023,-187.6427 540.5599,-191.0194 544.8575,-196.5449"/>
</g>
<!-- Node24&#45;&gt;Node22 -->
<g id="edge54" class="edge">
<title>Node24&#45;&gt;Node22</title>
<path fill="none" stroke="#191970" d="M537.198,-226.7936C609.461,-215.5214 747.7567,-193.9488 813.5203,-183.6904"/>
<polygon fill="#191970" stroke="#191970" points="814.0899,-187.144 823.431,-182.1445 813.011,-180.2276 814.0899,-187.144"/>
</g>
<!-- Node24&#45;&gt;Node23 -->
<g id="edge47" class="edge">
<title>Node24&#45;&gt;Node23</title>
<path fill="none" stroke="#191970" d="M526.9795,-224.4509C603.5928,-204.1176 782.7347,-156.5728 867.283,-134.1334"/>
<polygon fill="#191970" stroke="#191970" points="868.3441,-137.4731 877.1116,-131.5249 866.5483,-130.7073 868.3441,-137.4731"/>
</g>
<!-- Node25 -->
<g id="node26" class="node">
<title>Node25</title>
<g id="a_node26"><a xlink:href="../../dc/d3b/ReverseSymbolLookupTable_8h.html" target="_top" xlink:title="Maps CDF back to source symbol &#45; needed for the decoder. ">
<polygon fill="none" stroke="#000000" points="263,-168.5 263,-187.5 425,-187.5 425,-168.5 263,-168.5"/>
<text text-anchor="middle" x="344" y="-175.5" font-family="Helvetica,sans-Serif" font-size="10.00" fill="#000000">ReverseSymbolLookupTable.h</text>
</a>
</g>
</g>
<!-- Node24&#45;&gt;Node25 -->
<g id="edge48" class="edge">
<title>Node24&#45;&gt;Node25</title>
<path fill="none" stroke="#191970" d="M465.7298,-224.3733C441.6034,-215.1822 405.0638,-201.2624 378.3123,-191.0713"/>
<polygon fill="#191970" stroke="#191970" points="379.5313,-187.7904 368.9404,-187.5011 377.0393,-194.3318 379.5313,-187.7904"/>
</g>
<!-- Node25&#45;&gt;Node1 -->
<g id="edge49" class="edge">
<title>Node25&#45;&gt;Node1</title>
<path fill="none" stroke="#191970" d="M338.7682,-168.4788C334.1047,-159.4109 327.6231,-145.2215 325,-132 321.9192,-116.4711 325.4938,-98.8243 329.5245,-85.6874"/>
<polygon fill="#191970" stroke="#191970" points="332.9614,-86.4532 332.8813,-75.8586 326.3371,-84.1907 332.9614,-86.4532"/>
</g>
<!-- Node25&#45;&gt;Node4 -->
<g id="edge50" class="edge">
<title>Node25&#45;&gt;Node4</title>
<path fill="none" stroke="#191970" d="M325.0136,-168.2455C307.8208,-159.4125 282.2762,-146.2887 262.7868,-136.2758"/>
<polygon fill="#191970" stroke="#191970" points="264.263,-133.0993 253.7688,-131.6427 261.0641,-139.3257 264.263,-133.0993"/>
</g>
<!-- Node25&#45;&gt;Node6 -->
<g id="edge52" class="edge">
<title>Node25&#45;&gt;Node6</title>
<path fill="none" stroke="#191970" d="M398.3048,-168.4369C453.6427,-158.6918 539.4383,-143.5832 598.0339,-133.2645"/>
<polygon fill="#191970" stroke="#191970" points="598.6777,-136.705 607.9192,-131.5237 597.4637,-129.8111 598.6777,-136.705"/>
</g>
<!-- Node25&#45;&gt;Node13 -->
<g id="edge51" class="edge">
<title>Node25&#45;&gt;Node13</title>
<path fill="none" stroke="#191970" d="M344.7111,-168.1117C346.1439,-154.3218 350.4127,-129.0888 363,-112 372.8802,-98.5864 387.936,-87.9661 401.5564,-80.3252"/>
<polygon fill="#191970" stroke="#191970" points="403.4644,-83.2759 410.6754,-75.5137 400.1977,-77.0848 403.4644,-83.2759"/>
</g>
<!-- Node25&#45;&gt;Node14 -->
<g id="edge53" class="edge">
<title>Node25&#45;&gt;Node14</title>
<path fill="none" stroke="#191970" d="M425.2578,-171.6761C532.5294,-162.8439 711.0357,-146.2901 738,-132 758.384,-121.1972 774.6963,-99.8718 784.5623,-84.3775"/>
<polygon fill="#191970" stroke="#191970" points="787.6723,-85.9983 789.851,-75.6298 781.682,-82.3766 787.6723,-85.9983"/>
</g>
<!-- Node28 -->
<g id="node29" class="node">
<title>Node28</title>
<polygon fill="none" stroke="#bfbfbf" points="236,-224.5 236,-243.5 292,-243.5 292,-224.5 236,-224.5"/>
<text text-anchor="middle" x="264" y="-231.5" font-family="Helvetica,sans-Serif" font-size="10.00" fill="#000000">sstream</text>
</g>
<!-- Node27&#45;&gt;Node28 -->
<g id="edge57" class="edge">
<title>Node27&#45;&gt;Node28</title>
<path fill="none" stroke="#191970" d="M264,-280.2455C264,-272.9382 264,-262.6944 264,-253.7046"/>
<polygon fill="#191970" stroke="#191970" points="267.5001,-253.6426 264,-243.6427 260.5001,-253.6427 267.5001,-253.6426"/>
</g>
</g>
</svg>
        <g id="navigator" transform="translate(0 0)" fill="#404254">
                <rect fill="#f2f5e9" fill-opacity="0.5" stroke="#606060" stroke-width=".5" x="0" y="0" width="60" height="60"/>
                <use id="zoomplus" xlink:href="#zoomPlus" x="17" y="9" onmousedown="handleZoom(evt,'in')"/>
                <use id="zoomminus" xlink:href="#zoomMin" x="42" y="9" onmousedown="handleZoom(evt,'out')"/>
                <use id="reset" xlink:href="#resetDef" x="30" y="36" onmousedown="handleReset()"/>
                <g id="arrowUp" xlink:href="#dirArrow" transform="translate(30 24)" onmousedown="handlePan(0,-1)">
                  <use xlink:href="#rim" fill="#404040">
                        <set attributeName="fill" to="#808080" begin="arrowUp.mouseover" end="arrowUp.mouseout"/>
                  </use>
                  <path fill="none" stroke="white" stroke-width="1.5" d="M0,-3.0v7 M-2.5,-0.5L0,-3.0L2.5,-0.5"/>
                </g>
                <g id="arrowRight" xlink:href="#dirArrow" transform="rotate(90) translate(36 -43)" onmousedown="handlePan(1,0)">
                  <use xlink:href="#rim" fill="#404040">
                        <set attributeName="fill" to="#808080" begin="arrowRight.mouseover" end="arrowRight.mouseout"/>
                  </use>
                  <path fill="none" stroke="white" stroke-width="1.5" d="M0,-3.0v7 M-2.5,-0.5L0,-3.0L2.5,-0.5"/>
                </g>
                <g id="arrowDown" xlink:href="#dirArrow" transform="rotate(180) translate(-30 -48)" onmousedown="handlePan(0,1)">
                  <use xlink:href="#rim" fill="#404040">
                        <set attributeName="fill" to="#808080" begin="arrowDown.mouseover" end="arrowDown.mouseout"/>
                  </use>
                  <path fill="none" stroke="white" stroke-width="1.5" d="M0,-3.0v7 M-2.5,-0.5L0,-3.0L2.5,-0.5"/>
                </g>
                <g id="arrowLeft" xlink:href="#dirArrow" transform="rotate(270) translate(-36 17)" onmousedown="handlePan(-1,0)">
                  <use xlink:href="#rim" fill="#404040">
                        <set attributeName="fill" to="#808080" begin="arrowLeft.mouseover" end="arrowLeft.mouseout"/>
                  </use>
                  <path fill="none" stroke="white" stroke-width="1.5" d="M0,-3.0v7 M-2.5,-0.5L0,-3.0L2.5,-0.5"/>
                </g>
        </g>
        <svg viewBox="0 0 15 15" width="100%" height="30px" preserveAspectRatio="xMaxYMin meet">
         <g id="arrow_out" transform="scale(0.3 0.3)">
          <a xlink:href="ITSMFT_2common_2include_2DataFormatsITSMFT_2CTF_8h__incl_org.svg" target="_base">
           <rect id="button" ry="5" rx="5" y="6" x="6" height="38" width="38"
                fill="#f2f5e9" fill-opacity="0.5" stroke="#606060" stroke-width="1.0"/>
           <path id="arrow"
             d="M 11.500037,31.436501 C 11.940474,20.09759 22.043105,11.32322 32.158766,21.979434 L 37.068811,17.246167 C 37.068811,17.246167 37.088388,32 37.088388,32 L 22.160133,31.978069 C 22.160133,31.978069 26.997745,27.140456 26.997745,27.140456 C 18.528582,18.264221 13.291696,25.230495 11.500037,31.436501 z"
             style="fill:#404040;"/>
          </a>
         </g>
        </svg>
</svg>
