<?xml version="1.0" encoding="UTF-8" standalone="no"?>
<!DOCTYPE svg PUBLIC "-//W3C//DTD SVG 1.1//EN"
 "http://www.w3.org/Graphics/SVG/1.1/DTD/svg11.dtd">
<!-- Generated by graphviz version 2.40.1 (20161225.0304)
 -->
<!-- Title: o2::base::BaseDPLDigitizer Pages: 1 -->
<svg width="2421pt" height="628pt"
 viewBox="0.00 0.00 2421.00 628.00" xmlns="http://www.w3.org/2000/svg" xmlns:xlink="http://www.w3.org/1999/xlink">
<g id="graph0" class="graph" transform="scale(1 1) rotate(0) translate(4 624)">
<title>o2::base::BaseDPLDigitizer</title>
<!-- Node0 -->
<g id="node1" class="node">
<title>Node0</title>
<polygon fill="#bfbfbf" stroke="#000000" points="1135,-518.5 1135,-619.5 1283,-619.5 1283,-518.5 1135,-518.5"/>
<text text-anchor="middle" x="1209" y="-607.5" font-family="Helvetica,sans-Serif" font-size="10.00" fill="#000000">o2::base::BaseDPLDigitizer</text>
<polyline fill="none" stroke="#000000" points="1135,-600.5 1283,-600.5 "/>
<text text-anchor="middle" x="1209" y="-588.5" font-family="Helvetica,sans-Serif" font-size="10.00" fill="#000000"> </text>
<polyline fill="none" stroke="#000000" points="1135,-581.5 1283,-581.5 "/>
<text text-anchor="start" x="1143" y="-569.5" font-family="Helvetica,sans-Serif" font-size="10.00" fill="#000000">+ BaseDPLDigitizer()</text>
<text text-anchor="start" x="1143" y="-558.5" font-family="Helvetica,sans-Serif" font-size="10.00" fill="#000000">+ ~BaseDPLDigitizer()</text>
<text text-anchor="start" x="1143" y="-547.5" font-family="Helvetica,sans-Serif" font-size="10.00" fill="#000000">+ BaseDPLDigitizer()</text>
<text text-anchor="start" x="1143" y="-536.5" font-family="Helvetica,sans-Serif" font-size="10.00" fill="#000000">+ init()</text>
<text text-anchor="start" x="1143" y="-525.5" font-family="Helvetica,sans-Serif" font-size="10.00" fill="#000000">+ initDigitizerTask()</text>
</g>
<!-- Node1 -->
<g id="node2" class="node">
<title>Node1</title>
<g id="a_node2"><a xlink:href="../../d2/d9d/classo2_1_1cpv_1_1DigitizerSpec.html" target="_top" xlink:title="Task for CPV digitization in the data processing layer. ">
<polygon fill="none" stroke="#000000" points="0,-254 0,-344 122,-344 122,-254 0,-254"/>
<text text-anchor="middle" x="61" y="-332" font-family="Helvetica,sans-Serif" font-size="10.00" fill="#000000">o2::cpv::DigitizerSpec</text>
<polyline fill="none" stroke="#000000" points="0,-325 122,-325 "/>
<text text-anchor="middle" x="61" y="-313" font-family="Helvetica,sans-Serif" font-size="10.00" fill="#000000"> </text>
<polyline fill="none" stroke="#000000" points="0,-306 122,-306 "/>
<text text-anchor="start" x="8" y="-294" font-family="Helvetica,sans-Serif" font-size="10.00" fill="#000000">+ DigitizerSpec()</text>
<text text-anchor="start" x="8" y="-283" font-family="Helvetica,sans-Serif" font-size="10.00" fill="#000000">+ ~DigitizerSpec()</text>
<text text-anchor="start" x="8" y="-272" font-family="Helvetica,sans-Serif" font-size="10.00" fill="#000000">+ initDigitizerTask()</text>
<text text-anchor="start" x="8" y="-261" font-family="Helvetica,sans-Serif" font-size="10.00" fill="#000000">+ run()</text>
</a>
</g>
</g>
<!-- Node0&#45;&gt;Node1 -->
<g id="edge1" class="edge">
<title>Node0&#45;&gt;Node1</title>
<path fill="none" stroke="#191970" d="M1124.6766,-567.3062C884.6472,-561.781 209.8838,-541.1002 131,-482 87.8515,-449.6729 71.2995,-387.2255 64.9504,-344.3473"/>
<polygon fill="none" stroke="#191970" points="1124.6705,-570.8069 1134.7475,-567.535 1124.8296,-563.8087 1124.6705,-570.8069"/>
</g>
<!-- Node2 -->
<g id="node3" class="node">
<title>Node2</title>
<g id="a_node3"><a xlink:href="../../df/d27/classo2_1_1emcal_1_1DigitizerSpec.html" target="_top" xlink:title="Create new digitizer spec. ">
<polygon fill="none" stroke="#000000" points="140.5,-254 140.5,-344 275.5,-344 275.5,-254 140.5,-254"/>
<text text-anchor="middle" x="208" y="-332" font-family="Helvetica,sans-Serif" font-size="10.00" fill="#000000">o2::emcal::DigitizerSpec</text>
<polyline fill="none" stroke="#000000" points="140.5,-325 275.5,-325 "/>
<text text-anchor="middle" x="208" y="-313" font-family="Helvetica,sans-Serif" font-size="10.00" fill="#000000"> </text>
<polyline fill="none" stroke="#000000" points="140.5,-306 275.5,-306 "/>
<text text-anchor="start" x="148.5" y="-294" font-family="Helvetica,sans-Serif" font-size="10.00" fill="#000000">+ DigitizerSpec()</text>
<text text-anchor="start" x="148.5" y="-283" font-family="Helvetica,sans-Serif" font-size="10.00" fill="#000000">+ ~DigitizerSpec()</text>
<text text-anchor="start" x="148.5" y="-272" font-family="Helvetica,sans-Serif" font-size="10.00" fill="#000000">+ initDigitizerTask()</text>
<text text-anchor="start" x="148.5" y="-261" font-family="Helvetica,sans-Serif" font-size="10.00" fill="#000000">+ run()</text>
</a>
</g>
</g>
<!-- Node0&#45;&gt;Node2 -->
<g id="edge2" class="edge">
<title>Node0&#45;&gt;Node2</title>
<path fill="none" stroke="#191970" d="M1124.6846,-565.9594C909.4475,-557.515 351.8938,-531.1017 285,-482 240.9583,-449.6723 221.9358,-387.225 213.8344,-344.3471"/>
<polygon fill="none" stroke="#191970" points="1124.8519,-569.4685 1134.9805,-566.3599 1125.1241,-562.4738 1124.8519,-569.4685"/>
</g>
<!-- Node3 -->
<g id="node4" class="node">
<title>Node3</title>
<g id="a_node4"><a xlink:href="../../db/d20/classo2_1_1fdd_1_1FDDDPLDigitizerTask.html" target="_top" xlink:title="{o2::fdd::FDDDPLDigitizerTask\n||+ initDigitizerTask()\l+ run()\l}">
<polygon fill="none" stroke="#000000" points="294,-265 294,-333 452,-333 452,-265 294,-265"/>
<text text-anchor="middle" x="373" y="-321" font-family="Helvetica,sans-Serif" font-size="10.00" fill="#000000">o2::fdd::FDDDPLDigitizerTask</text>
<polyline fill="none" stroke="#000000" points="294,-314 452,-314 "/>
<text text-anchor="middle" x="373" y="-302" font-family="Helvetica,sans-Serif" font-size="10.00" fill="#000000"> </text>
<polyline fill="none" stroke="#000000" points="294,-295 452,-295 "/>
<text text-anchor="start" x="302" y="-283" font-family="Helvetica,sans-Serif" font-size="10.00" fill="#000000">+ initDigitizerTask()</text>
<text text-anchor="start" x="302" y="-272" font-family="Helvetica,sans-Serif" font-size="10.00" fill="#000000">+ run()</text>
</a>
</g>
</g>
<!-- Node0&#45;&gt;Node3 -->
<g id="edge3" class="edge">
<title>Node0&#45;&gt;Node3</title>
<path fill="none" stroke="#191970" d="M1124.4989,-563.7504C940.1791,-551.6496 514.1923,-519.9085 461,-482 411.3339,-446.6045 388.6068,-375.4757 379.0904,-333.0739"/>
<polygon fill="none" stroke="#191970" points="1124.4828,-567.2567 1134.6896,-564.4156 1124.9388,-560.2716 1124.4828,-567.2567"/>
</g>
<!-- Node4 -->
<g id="node5" class="node">
<title>Node4</title>
<g id="a_node5"><a xlink:href="../../d8/d99/classo2_1_1ft0_1_1FT0DPLDigitizerTask.html" target="_top" xlink:title="{o2::ft0::FT0DPLDigitizerTask\n|# mFinished\l# mDigitsCh\l# mDigitsBC\l# mContinuous\l# mFairTimeUnitInNS\l# mDigitizer\l# mROMode\l# mSimChains\l|+ FT0DPLDigitizerTask()\l+ FT0DPLDigitizerTask()\l+ ~FT0DPLDigitizerTask()\l+ initDigitizerTask()\l+ run()\l}">
<polygon fill="none" stroke="#000000" points="470.5,-210 470.5,-388 623.5,-388 623.5,-210 470.5,-210"/>
<text text-anchor="middle" x="547" y="-376" font-family="Helvetica,sans-Serif" font-size="10.00" fill="#000000">o2::ft0::FT0DPLDigitizerTask</text>
<polyline fill="none" stroke="#000000" points="470.5,-369 623.5,-369 "/>
<text text-anchor="start" x="478.5" y="-357" font-family="Helvetica,sans-Serif" font-size="10.00" fill="#000000"># mFinished</text>
<text text-anchor="start" x="478.5" y="-346" font-family="Helvetica,sans-Serif" font-size="10.00" fill="#000000"># mDigitsCh</text>
<text text-anchor="start" x="478.5" y="-335" font-family="Helvetica,sans-Serif" font-size="10.00" fill="#000000"># mDigitsBC</text>
<text text-anchor="start" x="478.5" y="-324" font-family="Helvetica,sans-Serif" font-size="10.00" fill="#000000"># mContinuous</text>
<text text-anchor="start" x="478.5" y="-313" font-family="Helvetica,sans-Serif" font-size="10.00" fill="#000000"># mFairTimeUnitInNS</text>
<text text-anchor="start" x="478.5" y="-302" font-family="Helvetica,sans-Serif" font-size="10.00" fill="#000000"># mDigitizer</text>
<text text-anchor="start" x="478.5" y="-291" font-family="Helvetica,sans-Serif" font-size="10.00" fill="#000000"># mROMode</text>
<text text-anchor="start" x="478.5" y="-280" font-family="Helvetica,sans-Serif" font-size="10.00" fill="#000000"># mSimChains</text>
<polyline fill="none" stroke="#000000" points="470.5,-273 623.5,-273 "/>
<text text-anchor="start" x="478.5" y="-261" font-family="Helvetica,sans-Serif" font-size="10.00" fill="#000000">+ FT0DPLDigitizerTask()</text>
<text text-anchor="start" x="478.5" y="-250" font-family="Helvetica,sans-Serif" font-size="10.00" fill="#000000">+ FT0DPLDigitizerTask()</text>
<text text-anchor="start" x="478.5" y="-239" font-family="Helvetica,sans-Serif" font-size="10.00" fill="#000000">+ ~FT0DPLDigitizerTask()</text>
<text text-anchor="start" x="478.5" y="-228" font-family="Helvetica,sans-Serif" font-size="10.00" fill="#000000">+ initDigitizerTask()</text>
<text text-anchor="start" x="478.5" y="-217" font-family="Helvetica,sans-Serif" font-size="10.00" fill="#000000">+ run()</text>
</a>
</g>
</g>
<!-- Node0&#45;&gt;Node4 -->
<g id="edge4" class="edge">
<title>Node0&#45;&gt;Node4</title>
<path fill="none" stroke="#191970" d="M1124.6258,-565.8657C983.9013,-559.0917 709.1812,-538.8025 633,-482 602.3248,-459.1278 582.1805,-422.5567 569.1605,-388.0987"/>
<polygon fill="none" stroke="#191970" points="1124.7807,-569.3767 1134.9337,-566.3492 1125.1087,-562.3844 1124.7807,-569.3767"/>
</g>
<!-- Node5 -->
<g id="node6" class="node">
<title>Node5</title>
<g id="a_node6"><a xlink:href="../../d1/d36/classo2_1_1fv0_1_1FV0DPLDigitizerTask.html" target="_top" xlink:title="{o2::fv0::FV0DPLDigitizerTask\n||+ FV0DPLDigitizerTask()\l+ ~FV0DPLDigitizerTask()\l+ initDigitizerTask()\l+ run()\l}">
<polygon fill="none" stroke="#000000" points="642,-254 642,-344 798,-344 798,-254 642,-254"/>
<text text-anchor="middle" x="720" y="-332" font-family="Helvetica,sans-Serif" font-size="10.00" fill="#000000">o2::fv0::FV0DPLDigitizerTask</text>
<polyline fill="none" stroke="#000000" points="642,-325 798,-325 "/>
<text text-anchor="middle" x="720" y="-313" font-family="Helvetica,sans-Serif" font-size="10.00" fill="#000000"> </text>
<polyline fill="none" stroke="#000000" points="642,-306 798,-306 "/>
<text text-anchor="start" x="650" y="-294" font-family="Helvetica,sans-Serif" font-size="10.00" fill="#000000">+ FV0DPLDigitizerTask()</text>
<text text-anchor="start" x="650" y="-283" font-family="Helvetica,sans-Serif" font-size="10.00" fill="#000000">+ ~FV0DPLDigitizerTask()</text>
<text text-anchor="start" x="650" y="-272" font-family="Helvetica,sans-Serif" font-size="10.00" fill="#000000">+ initDigitizerTask()</text>
<text text-anchor="start" x="650" y="-261" font-family="Helvetica,sans-Serif" font-size="10.00" fill="#000000">+ run()</text>
</a>
</g>
</g>
<!-- Node0&#45;&gt;Node5 -->
<g id="edge5" class="edge">
<title>Node0&#45;&gt;Node5</title>
<path fill="none" stroke="#191970" d="M1124.6809,-559.4755C1022.0104,-546.4078 856.3014,-520.1183 808,-482 764.4139,-447.6029 741.15,-386.2624 729.7003,-344.1513"/>
<polygon fill="none" stroke="#191970" points="1124.3629,-562.963 1134.7213,-560.7369 1125.2356,-556.0176 1124.3629,-562.963"/>
</g>
<!-- Node6 -->
<g id="node7" class="node">
<title>Node6</title>
<g id="a_node7"><a xlink:href="../../db/d9c/classo2_1_1hmpid_1_1HMPIDDPLDigitizerTask.html" target="_top" xlink:title="{o2::hmpid::HMPIDDPLDigitizerTask\n||+ HMPIDDPLDigitizerTask()\l+ initDigitizerTask()\l+ run()\l}">
<polygon fill="none" stroke="#000000" points="816.5,-259.5 816.5,-338.5 1001.5,-338.5 1001.5,-259.5 816.5,-259.5"/>
<text text-anchor="middle" x="909" y="-326.5" font-family="Helvetica,sans-Serif" font-size="10.00" fill="#000000">o2::hmpid::HMPIDDPLDigitizerTask</text>
<polyline fill="none" stroke="#000000" points="816.5,-319.5 1001.5,-319.5 "/>
<text text-anchor="middle" x="909" y="-307.5" font-family="Helvetica,sans-Serif" font-size="10.00" fill="#000000"> </text>
<polyline fill="none" stroke="#000000" points="816.5,-300.5 1001.5,-300.5 "/>
<text text-anchor="start" x="824.5" y="-288.5" font-family="Helvetica,sans-Serif" font-size="10.00" fill="#000000">+ HMPIDDPLDigitizerTask()</text>
<text text-anchor="start" x="824.5" y="-277.5" font-family="Helvetica,sans-Serif" font-size="10.00" fill="#000000">+ initDigitizerTask()</text>
<text text-anchor="start" x="824.5" y="-266.5" font-family="Helvetica,sans-Serif" font-size="10.00" fill="#000000">+ run()</text>
</a>
</g>
</g>
<!-- Node0&#45;&gt;Node6 -->
<g id="edge6" class="edge">
<title>Node0&#45;&gt;Node6</title>
<path fill="none" stroke="#191970" d="M1125.1583,-546.061C1086.6765,-532.3157 1042.492,-511.6274 1010,-482 966.4263,-442.2679 937.4751,-379.2412 922.1397,-338.5023"/>
<polygon fill="none" stroke="#191970" points="1124.2136,-549.4378 1134.8084,-549.4072 1126.5069,-542.8242 1124.2136,-549.4378"/>
</g>
<!-- Node7 -->
<g id="node8" class="node">
<title>Node7</title>
<g id="a_node8"><a xlink:href="../../dd/d3a/classo2_1_1itsmft_1_1ITSMFTDPLDigitizerTask.html" target="_top" xlink:title="{o2::itsmft::ITSMFTDPLDigitizerTask\n|# mWithMCTruth\l# mFinished\l# mID\l# mOrigin\l# mDigitizer\l# mDigits\l# mDigitsAccum\l# mROFRecords\l# mROFRecordsAccum\l# mHits\l# mHitsP\l# mLabels\l# mLabelsAccum\l# mMC2ROFRecordsAccum\l# mSimChains\l# mQEDChain\l# mQEDEntryTimeBinNS\l# mLastQEDTime\l# mLastQEDTimeNS\l# mLastQEDEntry\l# mFixMC2ROF\l# mROMode\l# QEDSourceID\l|+ initDigitizerTask()\l+ setDigitizationOptions()\l+ run()\l# ITSMFTDPLDigitizerTask()\l# processQED()\l# setupQEDChain()\l# accumulate()\l}">
<polygon fill="none" stroke="#000000" points="1019,-116.5 1019,-481.5 1205,-481.5 1205,-116.5 1019,-116.5"/>
<text text-anchor="middle" x="1112" y="-469.5" font-family="Helvetica,sans-Serif" font-size="10.00" fill="#000000">o2::itsmft::ITSMFTDPLDigitizerTask</text>
<polyline fill="none" stroke="#000000" points="1019,-462.5 1205,-462.5 "/>
<text text-anchor="start" x="1027" y="-450.5" font-family="Helvetica,sans-Serif" font-size="10.00" fill="#000000"># mWithMCTruth</text>
<text text-anchor="start" x="1027" y="-439.5" font-family="Helvetica,sans-Serif" font-size="10.00" fill="#000000"># mFinished</text>
<text text-anchor="start" x="1027" y="-428.5" font-family="Helvetica,sans-Serif" font-size="10.00" fill="#000000"># mID</text>
<text text-anchor="start" x="1027" y="-417.5" font-family="Helvetica,sans-Serif" font-size="10.00" fill="#000000"># mOrigin</text>
<text text-anchor="start" x="1027" y="-406.5" font-family="Helvetica,sans-Serif" font-size="10.00" fill="#000000"># mDigitizer</text>
<text text-anchor="start" x="1027" y="-395.5" font-family="Helvetica,sans-Serif" font-size="10.00" fill="#000000"># mDigits</text>
<text text-anchor="start" x="1027" y="-384.5" font-family="Helvetica,sans-Serif" font-size="10.00" fill="#000000"># mDigitsAccum</text>
<text text-anchor="start" x="1027" y="-373.5" font-family="Helvetica,sans-Serif" font-size="10.00" fill="#000000"># mROFRecords</text>
<text text-anchor="start" x="1027" y="-362.5" font-family="Helvetica,sans-Serif" font-size="10.00" fill="#000000"># mROFRecordsAccum</text>
<text text-anchor="start" x="1027" y="-351.5" font-family="Helvetica,sans-Serif" font-size="10.00" fill="#000000"># mHits</text>
<text text-anchor="start" x="1027" y="-340.5" font-family="Helvetica,sans-Serif" font-size="10.00" fill="#000000"># mHitsP</text>
<text text-anchor="start" x="1027" y="-329.5" font-family="Helvetica,sans-Serif" font-size="10.00" fill="#000000"># mLabels</text>
<text text-anchor="start" x="1027" y="-318.5" font-family="Helvetica,sans-Serif" font-size="10.00" fill="#000000"># mLabelsAccum</text>
<text text-anchor="start" x="1027" y="-307.5" font-family="Helvetica,sans-Serif" font-size="10.00" fill="#000000"># mMC2ROFRecordsAccum</text>
<text text-anchor="start" x="1027" y="-296.5" font-family="Helvetica,sans-Serif" font-size="10.00" fill="#000000"># mSimChains</text>
<text text-anchor="start" x="1027" y="-285.5" font-family="Helvetica,sans-Serif" font-size="10.00" fill="#000000"># mQEDChain</text>
<text text-anchor="start" x="1027" y="-274.5" font-family="Helvetica,sans-Serif" font-size="10.00" fill="#000000"># mQEDEntryTimeBinNS</text>
<text text-anchor="start" x="1027" y="-263.5" font-family="Helvetica,sans-Serif" font-size="10.00" fill="#000000"># mLastQEDTime</text>
<text text-anchor="start" x="1027" y="-252.5" font-family="Helvetica,sans-Serif" font-size="10.00" fill="#000000"># mLastQEDTimeNS</text>
<text text-anchor="start" x="1027" y="-241.5" font-family="Helvetica,sans-Serif" font-size="10.00" fill="#000000"># mLastQEDEntry</text>
<text text-anchor="start" x="1027" y="-230.5" font-family="Helvetica,sans-Serif" font-size="10.00" fill="#000000"># mFixMC2ROF</text>
<text text-anchor="start" x="1027" y="-219.5" font-family="Helvetica,sans-Serif" font-size="10.00" fill="#000000"># mROMode</text>
<text text-anchor="start" x="1027" y="-208.5" font-family="Helvetica,sans-Serif" font-size="10.00" fill="#000000"># QEDSourceID</text>
<polyline fill="none" stroke="#000000" points="1019,-201.5 1205,-201.5 "/>
<text text-anchor="start" x="1027" y="-189.5" font-family="Helvetica,sans-Serif" font-size="10.00" fill="#000000">+ initDigitizerTask()</text>
<text text-anchor="start" x="1027" y="-178.5" font-family="Helvetica,sans-Serif" font-size="10.00" fill="#000000">+ setDigitizationOptions()</text>
<text text-anchor="start" x="1027" y="-167.5" font-family="Helvetica,sans-Serif" font-size="10.00" fill="#000000">+ run()</text>
<text text-anchor="start" x="1027" y="-156.5" font-family="Helvetica,sans-Serif" font-size="10.00" fill="#000000"># ITSMFTDPLDigitizerTask()</text>
<text text-anchor="start" x="1027" y="-145.5" font-family="Helvetica,sans-Serif" font-size="10.00" fill="#000000"># processQED()</text>
<text text-anchor="start" x="1027" y="-134.5" font-family="Helvetica,sans-Serif" font-size="10.00" fill="#000000"># setupQEDChain()</text>
<text text-anchor="start" x="1027" y="-123.5" font-family="Helvetica,sans-Serif" font-size="10.00" fill="#000000"># accumulate()</text>
</a>
</g>
</g>
<!-- Node0&#45;&gt;Node7 -->
<g id="edge7" class="edge">
<title>Node0&#45;&gt;Node7</title>
<path fill="none" stroke="#8b1a1a" d="M1187.3702,-508.7932C1184.2887,-500.216 1180.9958,-491.0501 1177.5728,-481.5223"/>
<polygon fill="none" stroke="#8b1a1a" points="1184.0801,-509.9873 1190.755,-518.2151 1190.6678,-507.6206 1184.0801,-509.9873"/>
</g>
<!-- Node10 -->
<g id="node11" class="node">
<title>Node10</title>
<g id="a_node11"><a xlink:href="../../d9/d0d/classo2_1_1mch_1_1MCHDPLDigitizerTask.html" target="_top" xlink:title="{o2::mch::MCHDPLDigitizerTask\n||+ MCHDPLDigitizerTask()\l+ initDigitizerTask()\l+ run()\l}">
<polygon fill="none" stroke="#000000" points="1223,-259.5 1223,-338.5 1389,-338.5 1389,-259.5 1223,-259.5"/>
<text text-anchor="middle" x="1306" y="-326.5" font-family="Helvetica,sans-Serif" font-size="10.00" fill="#000000">o2::mch::MCHDPLDigitizerTask</text>
<polyline fill="none" stroke="#000000" points="1223,-319.5 1389,-319.5 "/>
<text text-anchor="middle" x="1306" y="-307.5" font-family="Helvetica,sans-Serif" font-size="10.00" fill="#000000"> </text>
<polyline fill="none" stroke="#000000" points="1223,-300.5 1389,-300.5 "/>
<text text-anchor="start" x="1231" y="-288.5" font-family="Helvetica,sans-Serif" font-size="10.00" fill="#000000">+ MCHDPLDigitizerTask()</text>
<text text-anchor="start" x="1231" y="-277.5" font-family="Helvetica,sans-Serif" font-size="10.00" fill="#000000">+ initDigitizerTask()</text>
<text text-anchor="start" x="1231" y="-266.5" font-family="Helvetica,sans-Serif" font-size="10.00" fill="#000000">+ run()</text>
</a>
</g>
</g>
<!-- Node0&#45;&gt;Node10 -->
<g id="edge10" class="edge">
<title>Node0&#45;&gt;Node10</title>
<path fill="none" stroke="#191970" d="M1230.6332,-508.7837C1249.2848,-456.8671 1275.681,-383.393 1291.776,-338.5925"/>
<polygon fill="none" stroke="#191970" points="1227.3322,-507.6206 1227.245,-518.2151 1233.9199,-509.9873 1227.3322,-507.6206"/>
</g>
<!-- Node11 -->
<g id="node12" class="node">
<title>Node11</title>
<g id="a_node12"><a xlink:href="../../d1/d9e/classo2_1_1mid_1_1MIDDPLDigitizerTask.html" target="_top" xlink:title="{o2::mid::MIDDPLDigitizerTask\n||+ MIDDPLDigitizerTask()\l+ initDigitizerTask()\l+ run()\l}">
<polygon fill="none" stroke="#000000" points="1407,-259.5 1407,-338.5 1567,-338.5 1567,-259.5 1407,-259.5"/>
<text text-anchor="middle" x="1487" y="-326.5" font-family="Helvetica,sans-Serif" font-size="10.00" fill="#000000">o2::mid::MIDDPLDigitizerTask</text>
<polyline fill="none" stroke="#000000" points="1407,-319.5 1567,-319.5 "/>
<text text-anchor="middle" x="1487" y="-307.5" font-family="Helvetica,sans-Serif" font-size="10.00" fill="#000000"> </text>
<polyline fill="none" stroke="#000000" points="1407,-300.5 1567,-300.5 "/>
<text text-anchor="start" x="1415" y="-288.5" font-family="Helvetica,sans-Serif" font-size="10.00" fill="#000000">+ MIDDPLDigitizerTask()</text>
<text text-anchor="start" x="1415" y="-277.5" font-family="Helvetica,sans-Serif" font-size="10.00" fill="#000000">+ initDigitizerTask()</text>
<text text-anchor="start" x="1415" y="-266.5" font-family="Helvetica,sans-Serif" font-size="10.00" fill="#000000">+ run()</text>
</a>
</g>
</g>
<!-- Node0&#45;&gt;Node11 -->
<g id="edge11" class="edge">
<title>Node0&#45;&gt;Node11</title>
<path fill="none" stroke="#191970" d="M1292.8175,-544.5847C1328.6535,-530.8191 1368.8555,-510.5314 1398,-482 1438.8976,-441.9627 1463.6744,-379.315 1476.3557,-338.7061"/>
<polygon fill="none" stroke="#191970" points="1291.4754,-541.3496 1283.326,-548.12 1293.9187,-547.9093 1291.4754,-541.3496"/>
</g>
<!-- Node12 -->
<g id="node13" class="node">
<title>Node12</title>
<g id="a_node13"><a xlink:href="../../d7/de6/classo2_1_1phos_1_1DigitizerSpec.html" target="_top" xlink:title="Task for PHOS digitization in the data processing layer. ">
<polygon fill="none" stroke="#000000" points="1585,-254 1585,-344 1713,-344 1713,-254 1585,-254"/>
<text text-anchor="middle" x="1649" y="-332" font-family="Helvetica,sans-Serif" font-size="10.00" fill="#000000">o2::phos::DigitizerSpec</text>
<polyline fill="none" stroke="#000000" points="1585,-325 1713,-325 "/>
<text text-anchor="middle" x="1649" y="-313" font-family="Helvetica,sans-Serif" font-size="10.00" fill="#000000"> </text>
<polyline fill="none" stroke="#000000" points="1585,-306 1713,-306 "/>
<text text-anchor="start" x="1593" y="-294" font-family="Helvetica,sans-Serif" font-size="10.00" fill="#000000">+ DigitizerSpec()</text>
<text text-anchor="start" x="1593" y="-283" font-family="Helvetica,sans-Serif" font-size="10.00" fill="#000000">+ ~DigitizerSpec()</text>
<text text-anchor="start" x="1593" y="-272" font-family="Helvetica,sans-Serif" font-size="10.00" fill="#000000">+ initDigitizerTask()</text>
<text text-anchor="start" x="1593" y="-261" font-family="Helvetica,sans-Serif" font-size="10.00" fill="#000000">+ run()</text>
</a>
</g>
</g>
<!-- Node0&#45;&gt;Node12 -->
<g id="edge12" class="edge">
<title>Node0&#45;&gt;Node12</title>
<path fill="none" stroke="#191970" d="M1293.4982,-558.115C1388.2694,-544.3636 1534.2083,-518.0665 1576,-482 1616.6559,-446.9137 1634.9011,-386.0341 1642.9325,-344.1947"/>
<polygon fill="none" stroke="#191970" points="1292.7529,-554.686 1283.3499,-559.5681 1293.7451,-561.6153 1292.7529,-554.686"/>
</g>
<!-- Node13 -->
<g id="node14" class="node">
<title>Node13</title>
<g id="a_node14"><a xlink:href="../../d0/d34/classo2_1_1tof_1_1TOFDPLDigitizerTask.html" target="_top" xlink:title="{o2::tof::TOFDPLDigitizerTask\n||+ TOFDPLDigitizerTask()\l+ initDigitizerTask()\l+ run()\l}">
<polygon fill="none" stroke="#000000" points="1731.5,-259.5 1731.5,-338.5 1886.5,-338.5 1886.5,-259.5 1731.5,-259.5"/>
<text text-anchor="middle" x="1809" y="-326.5" font-family="Helvetica,sans-Serif" font-size="10.00" fill="#000000">o2::tof::TOFDPLDigitizerTask</text>
<polyline fill="none" stroke="#000000" points="1731.5,-319.5 1886.5,-319.5 "/>
<text text-anchor="middle" x="1809" y="-307.5" font-family="Helvetica,sans-Serif" font-size="10.00" fill="#000000"> </text>
<polyline fill="none" stroke="#000000" points="1731.5,-300.5 1886.5,-300.5 "/>
<text text-anchor="start" x="1739.5" y="-288.5" font-family="Helvetica,sans-Serif" font-size="10.00" fill="#000000">+ TOFDPLDigitizerTask()</text>
<text text-anchor="start" x="1739.5" y="-277.5" font-family="Helvetica,sans-Serif" font-size="10.00" fill="#000000">+ initDigitizerTask()</text>
<text text-anchor="start" x="1739.5" y="-266.5" font-family="Helvetica,sans-Serif" font-size="10.00" fill="#000000">+ run()</text>
</a>
</g>
</g>
<!-- Node0&#45;&gt;Node13 -->
<g id="edge13" class="edge">
<title>Node0&#45;&gt;Node13</title>
<path fill="none" stroke="#191970" d="M1293.1613,-564.0525C1420.9028,-555.0247 1655.8835,-532.002 1722,-482 1768.2958,-446.9878 1791.055,-381.0866 1801.3855,-338.659"/>
<polygon fill="none" stroke="#191970" points="1292.7585,-560.572 1283.0246,-564.7554 1293.2428,-567.5552 1292.7585,-560.572"/>
</g>
<!-- Node14 -->
<g id="node15" class="node">
<title>Node14</title>
<g id="a_node15"><a xlink:href="../../dc/d44/classo2_1_1tpc_1_1TPCDPLDigitizerTask.html" target="_top" xlink:title="{o2::tpc::TPCDPLDigitizerTask\n||+ TPCDPLDigitizerTask()\l+ initDigitizerTask()\l+ run()\l+ process()\l}">
<polygon fill="none" stroke="#000000" points="1905,-254 1905,-344 2061,-344 2061,-254 1905,-254"/>
<text text-anchor="middle" x="1983" y="-332" font-family="Helvetica,sans-Serif" font-size="10.00" fill="#000000">o2::tpc::TPCDPLDigitizerTask</text>
<polyline fill="none" stroke="#000000" points="1905,-325 2061,-325 "/>
<text text-anchor="middle" x="1983" y="-313" font-family="Helvetica,sans-Serif" font-size="10.00" fill="#000000"> </text>
<polyline fill="none" stroke="#000000" points="1905,-306 2061,-306 "/>
<text text-anchor="start" x="1913" y="-294" font-family="Helvetica,sans-Serif" font-size="10.00" fill="#000000">+ TPCDPLDigitizerTask()</text>
<text text-anchor="start" x="1913" y="-283" font-family="Helvetica,sans-Serif" font-size="10.00" fill="#000000">+ initDigitizerTask()</text>
<text text-anchor="start" x="1913" y="-272" font-family="Helvetica,sans-Serif" font-size="10.00" fill="#000000">+ run()</text>
<text text-anchor="start" x="1913" y="-261" font-family="Helvetica,sans-Serif" font-size="10.00" fill="#000000">+ process()</text>
</a>
</g>
</g>
<!-- Node0&#45;&gt;Node14 -->
<g id="edge14" class="edge">
<title>Node0&#45;&gt;Node14</title>
<path fill="none" stroke="#191970" d="M1293.1688,-562.863C1465.8284,-549.6274 1847.9568,-516.7714 1896,-482 1941.1689,-449.3089 1963.7561,-386.9483 1974.4093,-344.1889"/>
<polygon fill="none" stroke="#191970" points="1292.809,-559.3802 1283.1041,-563.6305 1293.3413,-566.3599 1292.809,-559.3802"/>
</g>
<!-- Node15 -->
<g id="node16" class="node">
<title>Node15</title>
<g id="a_node16"><a xlink:href="../../d0/dab/classo2_1_1trd_1_1TRDDPLDigitizerTask.html" target="_top" xlink:title="{o2::trd::TRDDPLDigitizerTask\n||+ TRDDPLDigitizerTask()\l+ initDigitizerTask()\l+ run()\l}">
<polygon fill="none" stroke="#000000" points="2079,-259.5 2079,-338.5 2235,-338.5 2235,-259.5 2079,-259.5"/>
<text text-anchor="middle" x="2157" y="-326.5" font-family="Helvetica,sans-Serif" font-size="10.00" fill="#000000">o2::trd::TRDDPLDigitizerTask</text>
<polyline fill="none" stroke="#000000" points="2079,-319.5 2235,-319.5 "/>
<text text-anchor="middle" x="2157" y="-307.5" font-family="Helvetica,sans-Serif" font-size="10.00" fill="#000000"> </text>
<polyline fill="none" stroke="#000000" points="2079,-300.5 2235,-300.5 "/>
<text text-anchor="start" x="2087" y="-288.5" font-family="Helvetica,sans-Serif" font-size="10.00" fill="#000000">+ TRDDPLDigitizerTask()</text>
<text text-anchor="start" x="2087" y="-277.5" font-family="Helvetica,sans-Serif" font-size="10.00" fill="#000000">+ initDigitizerTask()</text>
<text text-anchor="start" x="2087" y="-266.5" font-family="Helvetica,sans-Serif" font-size="10.00" fill="#000000">+ run()</text>
</a>
</g>
</g>
<!-- Node0&#45;&gt;Node15 -->
<g id="edge15" class="edge">
<title>Node0&#45;&gt;Node15</title>
<path fill="none" stroke="#191970" d="M1293.2235,-565.1608C1497.536,-555.192 2007.3494,-526.1485 2070,-482 2117.5911,-448.4636 2140.0094,-381.8053 2149.9121,-338.867"/>
<polygon fill="none" stroke="#191970" points="1292.9597,-561.6693 1283.1408,-565.6493 1293.2985,-568.6611 1292.9597,-561.6693"/>
</g>
<!-- Node16 -->
<g id="node17" class="node">
<title>Node16</title>
<g id="a_node17"><a xlink:href="../../df/d4d/classo2_1_1zdc_1_1ZDCDPLDigitizerTask.html" target="_top" xlink:title="{o2::zdc::ZDCDPLDigitizerTask\n||+ ZDCDPLDigitizerTask()\l+ initDigitizerTask()\l+ run()\l}">
<polygon fill="none" stroke="#000000" points="2253,-259.5 2253,-338.5 2413,-338.5 2413,-259.5 2253,-259.5"/>
<text text-anchor="middle" x="2333" y="-326.5" font-family="Helvetica,sans-Serif" font-size="10.00" fill="#000000">o2::zdc::ZDCDPLDigitizerTask</text>
<polyline fill="none" stroke="#000000" points="2253,-319.5 2413,-319.5 "/>
<text text-anchor="middle" x="2333" y="-307.5" font-family="Helvetica,sans-Serif" font-size="10.00" fill="#000000"> </text>
<polyline fill="none" stroke="#000000" points="2253,-300.5 2413,-300.5 "/>
<text text-anchor="start" x="2261" y="-288.5" font-family="Helvetica,sans-Serif" font-size="10.00" fill="#000000">+ ZDCDPLDigitizerTask()</text>
<text text-anchor="start" x="2261" y="-277.5" font-family="Helvetica,sans-Serif" font-size="10.00" fill="#000000">+ initDigitizerTask()</text>
<text text-anchor="start" x="2261" y="-266.5" font-family="Helvetica,sans-Serif" font-size="10.00" fill="#000000">+ run()</text>
</a>
</g>
</g>
<!-- Node0&#45;&gt;Node16 -->
<g id="edge16" class="edge">
<title>Node0&#45;&gt;Node16</title>
<path fill="none" stroke="#191970" d="M1293.344,-566.6559C1526.2657,-559.5253 2166.3311,-535.2502 2244,-482 2292.3695,-448.8377 2315.4317,-381.7365 2325.6691,-338.6547"/>
<polygon fill="none" stroke="#191970" points="1293.1184,-563.1611 1283.2291,-566.9626 1293.3306,-570.1578 1293.1184,-563.1611"/>
</g>
<!-- Node8 -->
<g id="node9" class="node">
<title>Node8</title>
<g id="a_node9"><a xlink:href="../../da/d25/classo2_1_1itsmft_1_1ITSDPLDigitizerTask.html" target="_top" xlink:title="{o2::itsmft::ITSDPLDigitizerTask\n|+ DETID\l+ DETOR\l|+ ITSDPLDigitizerTask()\l+ setDigitizationOptions()\l}">
<polygon fill="none" stroke="#000000" points="934.5,-.5 934.5,-79.5 1101.5,-79.5 1101.5,-.5 934.5,-.5"/>
<text text-anchor="middle" x="1018" y="-67.5" font-family="Helvetica,sans-Serif" font-size="10.00" fill="#000000">o2::itsmft::ITSDPLDigitizerTask</text>
<polyline fill="none" stroke="#000000" points="934.5,-60.5 1101.5,-60.5 "/>
<text text-anchor="start" x="942.5" y="-48.5" font-family="Helvetica,sans-Serif" font-size="10.00" fill="#000000">+ DETID</text>
<text text-anchor="start" x="942.5" y="-37.5" font-family="Helvetica,sans-Serif" font-size="10.00" fill="#000000">+ DETOR</text>
<polyline fill="none" stroke="#000000" points="934.5,-30.5 1101.5,-30.5 "/>
<text text-anchor="start" x="942.5" y="-18.5" font-family="Helvetica,sans-Serif" font-size="10.00" fill="#000000">+ ITSDPLDigitizerTask()</text>
<text text-anchor="start" x="942.5" y="-7.5" font-family="Helvetica,sans-Serif" font-size="10.00" fill="#000000">+ setDigitizationOptions()</text>
</a>
</g>
</g>
<!-- Node7&#45;&gt;Node8 -->
<g id="edge8" class="edge">
<title>Node7&#45;&gt;Node8</title>
<path fill="none" stroke="#191970" d="M1042.2255,-106.7489C1038.6761,-96.9693 1035.3553,-87.8194 1032.3789,-79.6185"/>
<polygon fill="none" stroke="#191970" points="1038.993,-108.1017 1045.6947,-116.3077 1045.573,-105.7136 1038.993,-108.1017"/>
</g>
<!-- Node9 -->
<g id="node10" class="node">
<title>Node9</title>
<g id="a_node10"><a xlink:href="../../d2/dc2/classo2_1_1itsmft_1_1MFTDPLDigitizerTask.html" target="_top" xlink:title="{o2::itsmft::MFTDPLDigitizerTask\n|+ DETID\l+ DETOR\l|+ MFTDPLDigitizerTask()\l+ setDigitizationOptions()\l}">
<polygon fill="none" stroke="#000000" points="1119.5,-.5 1119.5,-79.5 1290.5,-79.5 1290.5,-.5 1119.5,-.5"/>
<text text-anchor="middle" x="1205" y="-67.5" font-family="Helvetica,sans-Serif" font-size="10.00" fill="#000000">o2::itsmft::MFTDPLDigitizerTask</text>
<polyline fill="none" stroke="#000000" points="1119.5,-60.5 1290.5,-60.5 "/>
<text text-anchor="start" x="1127.5" y="-48.5" font-family="Helvetica,sans-Serif" font-size="10.00" fill="#000000">+ DETID</text>
<text text-anchor="start" x="1127.5" y="-37.5" font-family="Helvetica,sans-Serif" font-size="10.00" fill="#000000">+ DETOR</text>
<polyline fill="none" stroke="#000000" points="1119.5,-30.5 1290.5,-30.5 "/>
<text text-anchor="start" x="1127.5" y="-18.5" font-family="Helvetica,sans-Serif" font-size="10.00" fill="#000000">+ MFTDPLDigitizerTask()</text>
<text text-anchor="start" x="1127.5" y="-7.5" font-family="Helvetica,sans-Serif" font-size="10.00" fill="#000000">+ setDigitizationOptions()</text>
</a>
</g>
</g>
<!-- Node7&#45;&gt;Node9 -->
<g id="edge9" class="edge">
<title>Node7&#45;&gt;Node9</title>
<path fill="none" stroke="#191970" d="M1181.0322,-106.7489C1184.5438,-96.9693 1187.8293,-87.8194 1190.7741,-79.6185"/>
<polygon fill="none" stroke="#191970" points="1177.6854,-105.7132 1177.5999,-116.3077 1184.2736,-108.0789 1177.6854,-105.7132"/>
</g>
</g>
</svg>
