<?xml version="1.0" encoding="UTF-8" standalone="no"?>
<!DOCTYPE svg PUBLIC "-//W3C//DTD SVG 1.1//EN"
 "http://www.w3.org/Graphics/SVG/1.1/DTD/svg11.dtd">
<!-- Generated by graphviz version 2.40.1 (20161225.0304)
 -->
<!-- Title: /home/travis/build/AliceO2Group/AliceO2/Utilities/rANS/include/rANS/SymbolTable.h Pages: 1 -->
<svg width="746pt" height="229pt"
 viewBox="0.00 0.00 746.00 229.00" xmlns="http://www.w3.org/2000/svg" xmlns:xlink="http://www.w3.org/1999/xlink">
<g id="graph0" class="graph" transform="scale(1 1) rotate(0) translate(4 225)">
<title>/home/travis/build/AliceO2Group/AliceO2/Utilities/rANS/include/rANS/SymbolTable.h</title>
<!-- Node0 -->
<g id="node1" class="node">
<title>Node0</title>
<polygon fill="#bfbfbf" stroke="#000000" points="56,-168.5 56,-220.5 183,-220.5 183,-168.5 56,-168.5"/>
<text text-anchor="start" x="64" y="-208.5" font-family="Helvetica,sans-Serif" font-size="10.00" fill="#000000">/home/travis/build</text>
<text text-anchor="start" x="64" y="-197.5" font-family="Helvetica,sans-Serif" font-size="10.00" fill="#000000">/AliceO2Group/AliceO2</text>
<text text-anchor="start" x="64" y="-186.5" font-family="Helvetica,sans-Serif" font-size="10.00" fill="#000000">/Utilities/rANS/include</text>
<text text-anchor="middle" x="119.5" y="-175.5" font-family="Helvetica,sans-Serif" font-size="10.00" fill="#000000">/rANS/SymbolTable.h</text>
</g>
<!-- Node1 -->
<g id="node2" class="node">
<title>Node1</title>
<polygon fill="none" stroke="#bfbfbf" points="0,-56.5 0,-75.5 47,-75.5 47,-56.5 0,-56.5"/>
<text text-anchor="middle" x="23.5" y="-63.5" font-family="Helvetica,sans-Serif" font-size="10.00" fill="#000000">vector</text>
</g>
<!-- Node0&#45;&gt;Node1 -->
<g id="edge1" class="edge">
<title>Node0&#45;&gt;Node1</title>
<path fill="none" stroke="#191970" d="M100.073,-168.4961C81.1968,-143.2295 53.0515,-105.5559 36.6591,-83.614"/>
<polygon fill="#191970" stroke="#191970" points="39.3969,-81.4306 30.6079,-75.5142 33.789,-85.6202 39.3969,-81.4306"/>
</g>
<!-- Node2 -->
<g id="node3" class="node">
<title>Node2</title>
<polygon fill="none" stroke="#bfbfbf" points="65.5,-56.5 65.5,-75.5 173.5,-75.5 173.5,-56.5 65.5,-56.5"/>
<text text-anchor="middle" x="119.5" y="-63.5" font-family="Helvetica,sans-Serif" font-size="10.00" fill="#000000">fairlogger/Logger.h</text>
</g>
<!-- Node0&#45;&gt;Node2 -->
<g id="edge2" class="edge">
<title>Node0&#45;&gt;Node2</title>
<path fill="none" stroke="#191970" d="M119.5,-168.4961C119.5,-144.0156 119.5,-107.8881 119.5,-85.7068"/>
<polygon fill="#191970" stroke="#191970" points="123.0001,-85.5141 119.5,-75.5142 116.0001,-85.5142 123.0001,-85.5141"/>
</g>
<!-- Node3 -->
<g id="node4" class="node">
<title>Node3</title>
<g id="a_node4"><a xlink:href="../../d0/d51/SymbolStatistics_8h.html" target="_top" xlink:title="Structure to depict the distribution of symbols in the source message. ">
<polygon fill="none" stroke="#000000" points="280,-112.5 280,-131.5 387,-131.5 387,-112.5 280,-112.5"/>
<text text-anchor="middle" x="333.5" y="-119.5" font-family="Helvetica,sans-Serif" font-size="10.00" fill="#000000">SymbolStatistics.h</text>
</a>
</g>
</g>
<!-- Node0&#45;&gt;Node3 -->
<g id="edge3" class="edge">
<title>Node0&#45;&gt;Node3</title>
<path fill="none" stroke="#191970" d="M183.1277,-172.9439C219.8151,-160.5148 264.6913,-145.3114 295.8219,-134.7648"/>
<polygon fill="#191970" stroke="#191970" points="297.0703,-138.0373 305.4184,-131.5136 294.8241,-131.4075 297.0703,-138.0373"/>
</g>
<!-- Node3&#45;&gt;Node1 -->
<g id="edge8" class="edge">
<title>Node3&#45;&gt;Node1</title>
<path fill="none" stroke="#191970" d="M279.992,-115.2121C226.038,-107.8982 140.2478,-94.9889 57.0603,-75.8803"/>
<polygon fill="#191970" stroke="#191970" points="57.7269,-72.4419 47.1935,-73.5813 56.1384,-79.2593 57.7269,-72.4419"/>
</g>
<!-- Node3&#45;&gt;Node2 -->
<g id="edge11" class="edge">
<title>Node3&#45;&gt;Node2</title>
<path fill="none" stroke="#191970" d="M296.7121,-112.3733C260.4339,-102.8799 204.8764,-88.3415 165.6554,-78.0781"/>
<polygon fill="#191970" stroke="#191970" points="166.3682,-74.6468 155.8079,-75.5011 164.596,-81.4188 166.3682,-74.6468"/>
</g>
<!-- Node4 -->
<g id="node5" class="node">
<title>Node4</title>
<polygon fill="none" stroke="#bfbfbf" points="263.5,-56.5 263.5,-75.5 327.5,-75.5 327.5,-56.5 263.5,-56.5"/>
<text text-anchor="middle" x="295.5" y="-63.5" font-family="Helvetica,sans-Serif" font-size="10.00" fill="#000000">algorithm</text>
</g>
<!-- Node3&#45;&gt;Node4 -->
<g id="edge4" class="edge">
<title>Node3&#45;&gt;Node4</title>
<path fill="none" stroke="#191970" d="M326.8809,-112.2455C321.5954,-104.4564 314.0459,-93.3308 307.6762,-83.9439"/>
<polygon fill="#191970" stroke="#191970" points="310.5545,-81.9522 302.0432,-75.6427 304.7621,-85.8827 310.5545,-81.9522"/>
</g>
<!-- Node5 -->
<g id="node6" class="node">
<title>Node5</title>
<polygon fill="none" stroke="#bfbfbf" points="345.5,-56.5 345.5,-75.5 397.5,-75.5 397.5,-56.5 345.5,-56.5"/>
<text text-anchor="middle" x="371.5" y="-63.5" font-family="Helvetica,sans-Serif" font-size="10.00" fill="#000000">cassert</text>
</g>
<!-- Node3&#45;&gt;Node5 -->
<g id="edge5" class="edge">
<title>Node3&#45;&gt;Node5</title>
<path fill="none" stroke="#191970" d="M340.1191,-112.2455C345.4046,-104.4564 352.9541,-93.3308 359.3238,-83.9439"/>
<polygon fill="#191970" stroke="#191970" points="362.2379,-85.8827 364.9568,-75.6427 356.4455,-81.9522 362.2379,-85.8827"/>
</g>
<!-- Node6 -->
<g id="node7" class="node">
<title>Node6</title>
<polygon fill="none" stroke="#bfbfbf" points="415.5,-56.5 415.5,-75.5 475.5,-75.5 475.5,-56.5 415.5,-56.5"/>
<text text-anchor="middle" x="445.5" y="-63.5" font-family="Helvetica,sans-Serif" font-size="10.00" fill="#000000">iostream</text>
</g>
<!-- Node3&#45;&gt;Node6 -->
<g id="edge6" class="edge">
<title>Node3&#45;&gt;Node6</title>
<path fill="none" stroke="#191970" d="M352.7535,-112.3733C370.5712,-103.4644 397.2747,-90.1127 417.4594,-80.0203"/>
<polygon fill="#191970" stroke="#191970" points="419.1187,-83.1038 426.4978,-75.5011 415.9882,-76.8428 419.1187,-83.1038"/>
</g>
<!-- Node7 -->
<g id="node8" class="node">
<title>Node7</title>
<polygon fill="none" stroke="#bfbfbf" points="493.5,-56.5 493.5,-75.5 549.5,-75.5 549.5,-56.5 493.5,-56.5"/>
<text text-anchor="middle" x="521.5" y="-63.5" font-family="Helvetica,sans-Serif" font-size="10.00" fill="#000000">numeric</text>
</g>
<!-- Node3&#45;&gt;Node7 -->
<g id="edge7" class="edge">
<title>Node3&#45;&gt;Node7</title>
<path fill="none" stroke="#191970" d="M365.8184,-112.3733C398.4972,-102.6391 448.983,-87.6008 483.5456,-77.3056"/>
<polygon fill="#191970" stroke="#191970" points="484.6983,-80.6143 493.283,-74.4051 482.6999,-73.9055 484.6983,-80.6143"/>
</g>
<!-- Node8 -->
<g id="node9" class="node">
<title>Node8</title>
<polygon fill="none" stroke="#bfbfbf" points="551,-.5 551,-19.5 598,-19.5 598,-.5 551,-.5"/>
<text text-anchor="middle" x="574.5" y="-7.5" font-family="Helvetica,sans-Serif" font-size="10.00" fill="#000000">cmath</text>
</g>
<!-- Node3&#45;&gt;Node8 -->
<g id="edge9" class="edge">
<title>Node3&#45;&gt;Node8</title>
<path fill="none" stroke="#191970" d="M387.2233,-117.593C445.8241,-111.6825 534.5014,-99.1459 558.5,-76 570.8079,-64.1295 574.3055,-44.5259 575.0251,-29.7612"/>
<polygon fill="#191970" stroke="#191970" points="578.5263,-29.659 575.1338,-19.622 571.5267,-29.5839 578.5263,-29.659"/>
</g>
<!-- Node9 -->
<g id="node10" class="node">
<title>Node9</title>
<polygon fill="none" stroke="#bfbfbf" points="192,-56.5 192,-75.5 245,-75.5 245,-56.5 192,-56.5"/>
<text text-anchor="middle" x="218.5" y="-63.5" font-family="Helvetica,sans-Serif" font-size="10.00" fill="#000000">iterator</text>
</g>
<!-- Node3&#45;&gt;Node9 -->
<g id="edge10" class="edge">
<title>Node3&#45;&gt;Node9</title>
<path fill="none" stroke="#191970" d="M313.7308,-112.3733C295.3531,-103.4241 267.7688,-89.9917 247.0107,-79.8835"/>
<polygon fill="#191970" stroke="#191970" points="248.5343,-76.7325 238.0112,-75.5011 245.4696,-83.026 248.5343,-76.7325"/>
</g>
<!-- Node10 -->
<g id="node11" class="node">
<title>Node10</title>
<g id="a_node11"><a xlink:href="../../d4/da1/helper_8h.html" target="_top" xlink:title="various helper functions ">
<polygon fill="none" stroke="#000000" points="610.5,-56.5 610.5,-75.5 666.5,-75.5 666.5,-56.5 610.5,-56.5"/>
<text text-anchor="middle" x="638.5" y="-63.5" font-family="Helvetica,sans-Serif" font-size="10.00" fill="#000000">helper.h</text>
</a>
</g>
</g>
<!-- Node3&#45;&gt;Node10 -->
<g id="edge12" class="edge">
<title>Node3&#45;&gt;Node10</title>
<path fill="none" stroke="#191970" d="M387.4587,-112.9161C439.7237,-103.9907 521.1716,-89.7474 591.5,-76 594.34,-75.4449 597.2733,-74.8565 600.2224,-74.2543"/>
<polygon fill="#191970" stroke="#191970" points="601.1196,-77.6427 610.1979,-72.1806 599.6948,-70.7892 601.1196,-77.6427"/>
</g>
<!-- Node10&#45;&gt;Node8 -->
<g id="edge14" class="edge">
<title>Node10&#45;&gt;Node8</title>
<path fill="none" stroke="#191970" d="M627.3521,-56.2455C617.9913,-48.0549 604.4142,-36.1749 593.3651,-26.5069"/>
<polygon fill="#191970" stroke="#191970" points="595.3508,-23.5937 585.5202,-19.6427 590.7412,-28.8618 595.3508,-23.5937"/>
</g>
<!-- Node11 -->
<g id="node12" class="node">
<title>Node11</title>
<polygon fill="none" stroke="#bfbfbf" points="685,-.5 685,-19.5 738,-19.5 738,-.5 685,-.5"/>
<text text-anchor="middle" x="711.5" y="-7.5" font-family="Helvetica,sans-Serif" font-size="10.00" fill="#000000">cstddef</text>
</g>
<!-- Node10&#45;&gt;Node11 -->
<g id="edge13" class="edge">
<title>Node10&#45;&gt;Node11</title>
<path fill="none" stroke="#191970" d="M651.2156,-56.2455C662.102,-47.8943 677.9883,-35.7076 690.72,-25.9408"/>
<polygon fill="#191970" stroke="#191970" points="693.1261,-28.5063 698.9301,-19.6427 688.8654,-22.9523 693.1261,-28.5063"/>
</g>
<!-- Node12 -->
<g id="node13" class="node">
<title>Node12</title>
<polygon fill="none" stroke="#bfbfbf" points="616.5,-.5 616.5,-19.5 666.5,-19.5 666.5,-.5 616.5,-.5"/>
<text text-anchor="middle" x="641.5" y="-7.5" font-family="Helvetica,sans-Serif" font-size="10.00" fill="#000000">chrono</text>
</g>
<!-- Node10&#45;&gt;Node12 -->
<g id="edge15" class="edge">
<title>Node10&#45;&gt;Node12</title>
<path fill="none" stroke="#191970" d="M639.0226,-56.2455C639.414,-48.9382 639.9628,-38.6944 640.4444,-29.7046"/>
<polygon fill="#191970" stroke="#191970" points="643.9434,-29.8156 640.9834,-19.6427 636.9534,-29.4411 643.9434,-29.8156"/>
</g>
</g>
</svg>
