<?xml version="1.0" encoding="UTF-8" standalone="no"?>
<!DOCTYPE svg PUBLIC "-//W3C//DTD SVG 1.1//EN"
 "http://www.w3.org/Graphics/SVG/1.1/DTD/svg11.dtd">
<!-- Generated by graphviz version 2.40.1 (20161225.0304)
 -->
<!-- Title: o2::raw::RawFileWriter::LinkData Pages: 1 -->
<!--zoomable 991 -->
<svg id="main" version="1.1" xmlns="http://www.w3.org/2000/svg" xmlns:xlink="http://www.w3.org/1999/xlink" xml:space="preserve" onload="init(evt)">
<style type="text/css"><![CDATA[
.edge:hover path { stroke: red; }
.edge:hover polygon { stroke: red; fill: red; }
]]></style>
<script type="text/javascript"><![CDATA[
var edges = document.getElementsByTagName('g');
if (edges && edges.length) {
  for (var i=0;i<edges.length;i++) {
    if (edges[i].id.substr(0,4)=='edge') {
      edges[i].setAttribute('class','edge');
    }
  }
}
]]></script>
        <defs>
                <circle id="rim" cx="0" cy="0" r="7"/>
                <circle id="rim2" cx="0" cy="0" r="3.5"/>
                <g id="zoomPlus">
                        <use xlink:href="#rim" fill="#404040">
                                <set attributeName="fill" to="#808080" begin="zoomplus.mouseover" end="zoomplus.mouseout"/>
                        </use>
                        <path d="M-4,0h8M0,-4v8" fill="none" stroke="white" stroke-width="1.5" pointer-events="none"/>
                </g>
                <g id="zoomMin">
                        <use xlink:href="#rim" fill="#404040">
                                <set attributeName="fill" to="#808080" begin="zoomminus.mouseover" end="zoomminus.mouseout"/>
                        </use>
                        <path d="M-4,0h8" fill="none" stroke="white" stroke-width="1.5" pointer-events="none"/>
                </g>
                <g id="dirArrow">
                        <path fill="none" stroke="white" stroke-width="1.5" d="M0,-3.0v7 M-2.5,-0.5L0,-3.0L2.5,-0.5"/>
                </g>
               <g id="resetDef">
                       <use xlink:href="#rim2" fill="#404040">
                               <set attributeName="fill" to="#808080" begin="reset.mouseover" end="reset.mouseout"/>
                       </use>
               </g>
        </defs>

<script type="text/javascript">
var viewWidth = 1499;
var viewHeight = 991;
var sectionId = 'dynsection-0';
</script>
<script xlink:href="../../svgpan.js"/>
<svg id="graph" class="graph">
<g id="viewport">
<title>o2::raw::RawFileWriter::LinkData</title>
<!-- Node1 -->
<g id="node1" class="node">
<title>Node1</title>
<polygon fill="#bfbfbf" stroke="#000000" points="740.7151,-.5 740.7151,-266.5 902.7151,-266.5 902.7151,-.5 740.7151,-.5"/>
<text text-anchor="start" x="748.7151" y="-254.5" font-family="Helvetica,sans-Serif" font-size="10.00" fill="#000000">o2::raw::RawFileWriter</text>
<text text-anchor="middle" x="821.7151" y="-243.5" font-family="Helvetica,sans-Serif" font-size="10.00" fill="#000000">::LinkData</text>
<polyline fill="none" stroke="#000000" points="740.7151,-236.5 902.7151,-236.5 "/>
<text text-anchor="middle" x="821.7151" y="-224.5" font-family="Helvetica,sans-Serif" font-size="10.00" fill="#000000"> </text>
<polyline fill="none" stroke="#000000" points="740.7151,-217.5 902.7151,-217.5 "/>
<text text-anchor="start" x="748.7151" y="-205.5" font-family="Helvetica,sans-Serif" font-size="10.00" fill="#000000">+ LinkData()</text>
<text text-anchor="start" x="748.7151" y="-194.5" font-family="Helvetica,sans-Serif" font-size="10.00" fill="#000000">+ ~LinkData()</text>
<text text-anchor="start" x="748.7151" y="-183.5" font-family="Helvetica,sans-Serif" font-size="10.00" fill="#000000">+ LinkData()</text>
<text text-anchor="start" x="748.7151" y="-172.5" font-family="Helvetica,sans-Serif" font-size="10.00" fill="#000000">+ operator=()</text>
<text text-anchor="start" x="748.7151" y="-161.5" font-family="Helvetica,sans-Serif" font-size="10.00" fill="#000000">+ close()</text>
<text text-anchor="start" x="748.7151" y="-150.5" font-family="Helvetica,sans-Serif" font-size="10.00" fill="#000000">+ print()</text>
<text text-anchor="start" x="748.7151" y="-139.5" font-family="Helvetica,sans-Serif" font-size="10.00" fill="#000000">+ addData()</text>
<text text-anchor="start" x="748.7151" y="-128.5" font-family="Helvetica,sans-Serif" font-size="10.00" fill="#000000">+ getLastRDH()</text>
<text text-anchor="start" x="748.7151" y="-117.5" font-family="Helvetica,sans-Serif" font-size="10.00" fill="#000000">+ describe()</text>
<text text-anchor="start" x="748.7151" y="-106.5" font-family="Helvetica,sans-Serif" font-size="10.00" fill="#000000"># openHBFPage()</text>
<text text-anchor="start" x="748.7151" y="-95.5" font-family="Helvetica,sans-Serif" font-size="10.00" fill="#000000"># addHBFPage()</text>
<text text-anchor="start" x="748.7151" y="-84.5" font-family="Helvetica,sans-Serif" font-size="10.00" fill="#000000"># closeHBFPage()</text>
<text text-anchor="start" x="748.7151" y="-73.5" font-family="Helvetica,sans-Serif" font-size="10.00" fill="#000000"># flushSuperPage()</text>
<text text-anchor="start" x="748.7151" y="-62.5" font-family="Helvetica,sans-Serif" font-size="10.00" fill="#000000"># fillEmptyHBHs()</text>
<text text-anchor="start" x="748.7151" y="-51.5" font-family="Helvetica,sans-Serif" font-size="10.00" fill="#000000"># addPreformattedCRUPage()</text>
<text text-anchor="start" x="748.7151" y="-40.5" font-family="Helvetica,sans-Serif" font-size="10.00" fill="#000000"># cacheData()</text>
<text text-anchor="start" x="748.7151" y="-29.5" font-family="Helvetica,sans-Serif" font-size="10.00" fill="#000000"># expandBufferBy()</text>
<text text-anchor="start" x="748.7151" y="-18.5" font-family="Helvetica,sans-Serif" font-size="10.00" fill="#000000"># pushBack()</text>
<text text-anchor="start" x="748.7151" y="-7.5" font-family="Helvetica,sans-Serif" font-size="10.00" fill="#000000"># pushBack()</text>
</g>
<!-- Node2 -->
<g id="node2" class="node">
<title>Node2</title>
<g id="a_node2"><a xlink:href="../../dd/dfc/structo2_1_1raw_1_1RawFileWriter_1_1PayloadCache.html" target="_top" xlink:title="===================================================================================== ...">
<polygon fill="none" stroke="#000000" points="109.2151,-534.5 109.2151,-602.5 234.2151,-602.5 234.2151,-534.5 109.2151,-534.5"/>
<text text-anchor="start" x="117.2151" y="-590.5" font-family="Helvetica,sans-Serif" font-size="10.00" fill="#000000">o2::raw::RawFileWriter</text>
<text text-anchor="middle" x="171.7151" y="-579.5" font-family="Helvetica,sans-Serif" font-size="10.00" fill="#000000">::PayloadCache</text>
<polyline fill="none" stroke="#000000" points="109.2151,-572.5 234.2151,-572.5 "/>
<text text-anchor="middle" x="171.7151" y="-560.5" font-family="Helvetica,sans-Serif" font-size="10.00" fill="#000000"> </text>
<polyline fill="none" stroke="#000000" points="109.2151,-553.5 234.2151,-553.5 "/>
<text text-anchor="start" x="117.2151" y="-541.5" font-family="Helvetica,sans-Serif" font-size="10.00" fill="#000000">+ ClassDefNV()</text>
</a>
</g>
</g>
<!-- Node2&#45;&gt;Node1 -->
<g id="edge1" class="edge">
<title>Node2&#45;&gt;Node1</title>
<path fill="none" stroke="#404040" d="M161.7719,-534.1857C147.1123,-475.7103 127.3961,-356.1846 186.7151,-285 255.3514,-202.6345 569.3678,-159.2651 728.5809,-142.2391"/>
<polygon fill="none" stroke="#404040" points="728.7682,-142.2195 734.316,-137.6127 740.7021,-140.9619 735.1544,-145.5687 728.7682,-142.2195"/>
<text text-anchor="middle" x="221.7151" y="-299" font-family="Helvetica,sans-Serif" font-size="10.00" fill="#000000"> +cacheBuffer</text>
</g>
<!-- Node3 -->
<g id="node3" class="node">
<title>Node3</title>
<polygon fill="none" stroke="#bfbfbf" points="34.2151,-925.5 34.2151,-982.5 125.2151,-982.5 125.2151,-925.5 34.2151,-925.5"/>
<text text-anchor="middle" x="79.7151" y="-970.5" font-family="Helvetica,sans-Serif" font-size="10.00" fill="#000000">vector&lt; char &gt;</text>
<polyline fill="none" stroke="#bfbfbf" points="34.2151,-963.5 125.2151,-963.5 "/>
<text text-anchor="middle" x="79.7151" y="-951.5" font-family="Helvetica,sans-Serif" font-size="10.00" fill="#000000"> </text>
<polyline fill="none" stroke="#bfbfbf" points="34.2151,-944.5 125.2151,-944.5 "/>
<text text-anchor="middle" x="79.7151" y="-932.5" font-family="Helvetica,sans-Serif" font-size="10.00" fill="#000000"> </text>
</g>
<!-- Node3&#45;&gt;Node1 -->
<g id="edge12" class="edge">
<title>Node3&#45;&gt;Node1</title>
<path fill="none" stroke="#404040" d="M68.4937,-925.3156C33.9376,-831.8965 -61.4381,-531.1799 59.7151,-336 130.6193,-221.7722 541.3738,-163.614 728.6743,-142.7346"/>
<polygon fill="none" stroke="#404040" points="728.7544,-142.7258 734.2807,-138.0934 740.6823,-141.413 735.156,-146.0454 728.7544,-142.7258"/>
<text text-anchor="middle" x="79.7151" y="-566" font-family="Helvetica,sans-Serif" font-size="10.00" fill="#000000"> +buffer</text>
</g>
<!-- Node3&#45;&gt;Node2 -->
<g id="edge2" class="edge">
<title>Node3&#45;&gt;Node2</title>
<path fill="none" stroke="#404040" d="M86.5549,-925.3398C102.379,-859.0335 141.6228,-694.5935 160.807,-614.2073"/>
<polygon fill="none" stroke="#404040" points="160.8113,-614.1889 158.3134,-607.4243 163.597,-602.5167 166.0949,-609.2814 160.8113,-614.1889"/>
<text text-anchor="middle" x="135.2151" y="-860.5" font-family="Helvetica,sans-Serif" font-size="10.00" fill="#000000"> +payload</text>
</g>
<!-- Node4 -->
<g id="node4" class="node">
<title>Node4</title>
<polygon fill="none" stroke="#bfbfbf" points="166.7151,-925.5 166.7151,-982.5 204.7151,-982.5 204.7151,-925.5 166.7151,-925.5"/>
<text text-anchor="middle" x="185.7151" y="-970.5" font-family="Helvetica,sans-Serif" font-size="10.00" fill="#000000">bool</text>
<polyline fill="none" stroke="#bfbfbf" points="166.7151,-963.5 204.7151,-963.5 "/>
<text text-anchor="middle" x="185.7151" y="-951.5" font-family="Helvetica,sans-Serif" font-size="10.00" fill="#000000"> </text>
<polyline fill="none" stroke="#bfbfbf" points="166.7151,-944.5 204.7151,-944.5 "/>
<text text-anchor="middle" x="185.7151" y="-932.5" font-family="Helvetica,sans-Serif" font-size="10.00" fill="#000000"> </text>
</g>
<!-- Node4&#45;&gt;Node1 -->
<g id="edge17" class="edge">
<title>Node4&#45;&gt;Node1</title>
<path fill="none" stroke="#404040" d="M204.8885,-947.1421C221.7975,-939.9731 245.4491,-926.9518 256.7151,-907 319.1601,-796.4113 209.7667,-441.3354 280.7151,-336 332.1255,-259.6723 587.8672,-188.7095 728.5486,-154.6475"/>
<polygon fill="none" stroke="#404040" points="728.8804,-154.5679 733.7797,-149.2767 740.5483,-151.764 735.6489,-157.0552 728.8804,-154.5679"/>
<text text-anchor="middle" x="312.7151" y="-566" font-family="Helvetica,sans-Serif" font-size="10.00" fill="#000000"> +startOfRun</text>
</g>
<!-- Node4&#45;&gt;Node2 -->
<g id="edge3" class="edge">
<title>Node4&#45;&gt;Node2</title>
<path fill="none" stroke="#404040" d="M182.2856,-925.1984C181.6732,-919.1921 181.1064,-912.8952 180.7151,-907 173.7975,-802.7886 172.1468,-680.1967 171.7843,-614.923"/>
<polygon fill="none" stroke="#404040" points="171.7832,-614.6548 167.7555,-608.6733 171.7278,-602.6549 175.7554,-608.6364 171.7832,-614.6548"/>
<text text-anchor="middle" x="218.7151" y="-860.5" font-family="Helvetica,sans-Serif" font-size="10.00" fill="#000000"> +preformatted</text>
</g>
<!-- Node5 -->
<g id="node5" class="node">
<title>Node5</title>
<g id="a_node5"><a xlink:href="../../d1/d21/structo2_1_1InteractionRecord.html" target="_top" xlink:title="{o2::InteractionRecord\n||+ InteractionRecord()\l+ InteractionRecord()\l+ InteractionRecord()\l+ InteractionRecord()\l+ clear()\l+ isDummy()\l+ setFromNS()\l+ bc2ns()\l+ operator==()\l+ operator!=()\l+ differenceInBC()\l+ toLong()\l+ setFromLong()\l+ operator\&gt;()\l+ operator\&gt;=()\l+ operator\&lt;()\l+ operator\&lt;=()\l+ operator&#45;&#45;()\l+ operator&#45;&#45;()\l+ operator++()\l+ operator++()\l+ operator+=()\l+ operator&#45;=()\l+ operator+=()\l+ operator&#45;=()\l+ operator+()\l+ operator&#45;()\l+ operator+()\l+ operator&#45;()\l+ print()\l+ ClassDefNV()\l+ bc2ns()\l+ ns2bc()\l}">
<polygon fill="none" stroke="#000000" points="441.2151,-364 441.2151,-773 562.2151,-773 562.2151,-364 441.2151,-364"/>
<text text-anchor="middle" x="501.7151" y="-761" font-family="Helvetica,sans-Serif" font-size="10.00" fill="#000000">o2::InteractionRecord</text>
<polyline fill="none" stroke="#000000" points="441.2151,-754 562.2151,-754 "/>
<text text-anchor="middle" x="501.7151" y="-742" font-family="Helvetica,sans-Serif" font-size="10.00" fill="#000000"> </text>
<polyline fill="none" stroke="#000000" points="441.2151,-735 562.2151,-735 "/>
<text text-anchor="start" x="449.2151" y="-723" font-family="Helvetica,sans-Serif" font-size="10.00" fill="#000000">+ InteractionRecord()</text>
<text text-anchor="start" x="449.2151" y="-712" font-family="Helvetica,sans-Serif" font-size="10.00" fill="#000000">+ InteractionRecord()</text>
<text text-anchor="start" x="449.2151" y="-701" font-family="Helvetica,sans-Serif" font-size="10.00" fill="#000000">+ InteractionRecord()</text>
<text text-anchor="start" x="449.2151" y="-690" font-family="Helvetica,sans-Serif" font-size="10.00" fill="#000000">+ InteractionRecord()</text>
<text text-anchor="start" x="449.2151" y="-679" font-family="Helvetica,sans-Serif" font-size="10.00" fill="#000000">+ clear()</text>
<text text-anchor="start" x="449.2151" y="-668" font-family="Helvetica,sans-Serif" font-size="10.00" fill="#000000">+ isDummy()</text>
<text text-anchor="start" x="449.2151" y="-657" font-family="Helvetica,sans-Serif" font-size="10.00" fill="#000000">+ setFromNS()</text>
<text text-anchor="start" x="449.2151" y="-646" font-family="Helvetica,sans-Serif" font-size="10.00" fill="#000000">+ bc2ns()</text>
<text text-anchor="start" x="449.2151" y="-635" font-family="Helvetica,sans-Serif" font-size="10.00" fill="#000000">+ operator==()</text>
<text text-anchor="start" x="449.2151" y="-624" font-family="Helvetica,sans-Serif" font-size="10.00" fill="#000000">+ operator!=()</text>
<text text-anchor="start" x="449.2151" y="-613" font-family="Helvetica,sans-Serif" font-size="10.00" fill="#000000">+ differenceInBC()</text>
<text text-anchor="start" x="449.2151" y="-602" font-family="Helvetica,sans-Serif" font-size="10.00" fill="#000000">+ toLong()</text>
<text text-anchor="start" x="449.2151" y="-591" font-family="Helvetica,sans-Serif" font-size="10.00" fill="#000000">+ setFromLong()</text>
<text text-anchor="start" x="449.2151" y="-580" font-family="Helvetica,sans-Serif" font-size="10.00" fill="#000000">+ operator&gt;()</text>
<text text-anchor="start" x="449.2151" y="-569" font-family="Helvetica,sans-Serif" font-size="10.00" fill="#000000">+ operator&gt;=()</text>
<text text-anchor="start" x="449.2151" y="-558" font-family="Helvetica,sans-Serif" font-size="10.00" fill="#000000">+ operator&lt;()</text>
<text text-anchor="start" x="449.2151" y="-547" font-family="Helvetica,sans-Serif" font-size="10.00" fill="#000000">+ operator&lt;=()</text>
<text text-anchor="start" x="449.2151" y="-536" font-family="Helvetica,sans-Serif" font-size="10.00" fill="#000000">+ operator&#45;&#45;()</text>
<text text-anchor="start" x="449.2151" y="-525" font-family="Helvetica,sans-Serif" font-size="10.00" fill="#000000">+ operator&#45;&#45;()</text>
<text text-anchor="start" x="449.2151" y="-514" font-family="Helvetica,sans-Serif" font-size="10.00" fill="#000000">+ operator++()</text>
<text text-anchor="start" x="449.2151" y="-503" font-family="Helvetica,sans-Serif" font-size="10.00" fill="#000000">+ operator++()</text>
<text text-anchor="start" x="449.2151" y="-492" font-family="Helvetica,sans-Serif" font-size="10.00" fill="#000000">+ operator+=()</text>
<text text-anchor="start" x="449.2151" y="-481" font-family="Helvetica,sans-Serif" font-size="10.00" fill="#000000">+ operator&#45;=()</text>
<text text-anchor="start" x="449.2151" y="-470" font-family="Helvetica,sans-Serif" font-size="10.00" fill="#000000">+ operator+=()</text>
<text text-anchor="start" x="449.2151" y="-459" font-family="Helvetica,sans-Serif" font-size="10.00" fill="#000000">+ operator&#45;=()</text>
<text text-anchor="start" x="449.2151" y="-448" font-family="Helvetica,sans-Serif" font-size="10.00" fill="#000000">+ operator+()</text>
<text text-anchor="start" x="449.2151" y="-437" font-family="Helvetica,sans-Serif" font-size="10.00" fill="#000000">+ operator&#45;()</text>
<text text-anchor="start" x="449.2151" y="-426" font-family="Helvetica,sans-Serif" font-size="10.00" fill="#000000">+ operator+()</text>
<text text-anchor="start" x="449.2151" y="-415" font-family="Helvetica,sans-Serif" font-size="10.00" fill="#000000">+ operator&#45;()</text>
<text text-anchor="start" x="449.2151" y="-404" font-family="Helvetica,sans-Serif" font-size="10.00" fill="#000000">+ print()</text>
<text text-anchor="start" x="449.2151" y="-393" font-family="Helvetica,sans-Serif" font-size="10.00" fill="#000000">+ ClassDefNV()</text>
<text text-anchor="start" x="449.2151" y="-382" font-family="Helvetica,sans-Serif" font-size="10.00" fill="#000000">+ bc2ns()</text>
<text text-anchor="start" x="449.2151" y="-371" font-family="Helvetica,sans-Serif" font-size="10.00" fill="#000000">+ ns2bc()</text>
</a>
</g>
</g>
<!-- Node5&#45;&gt;Node1 -->
<g id="edge4" class="edge">
<title>Node5&#45;&gt;Node1</title>
<path fill="none" stroke="#404040" d="M497.3475,-363.9523C503.5714,-335.8174 513.7676,-308.5462 529.7151,-285 575.6383,-217.1955 661.7269,-177.8175 728.5783,-156.2942"/>
<polygon fill="none" stroke="#404040" points="728.943,-156.1805 733.4802,-150.5757 740.399,-152.6081 735.8618,-158.213 728.943,-156.1805"/>
<text text-anchor="middle" x="557.2151" y="-299" font-family="Helvetica,sans-Serif" font-size="10.00" fill="#000000"> +updateIR</text>
</g>
<!-- Node6 -->
<g id="node6" class="node">
<title>Node6</title>
<polygon fill="none" stroke="#bfbfbf" points="465.7151,-925.5 465.7151,-982.5 515.7151,-982.5 515.7151,-925.5 465.7151,-925.5"/>
<text text-anchor="middle" x="490.7151" y="-970.5" font-family="Helvetica,sans-Serif" font-size="10.00" fill="#000000">double</text>
<polyline fill="none" stroke="#bfbfbf" points="465.7151,-963.5 515.7151,-963.5 "/>
<text text-anchor="middle" x="490.7151" y="-951.5" font-family="Helvetica,sans-Serif" font-size="10.00" fill="#000000"> </text>
<polyline fill="none" stroke="#bfbfbf" points="465.7151,-944.5 515.7151,-944.5 "/>
<text text-anchor="middle" x="490.7151" y="-932.5" font-family="Helvetica,sans-Serif" font-size="10.00" fill="#000000"> </text>
</g>
<!-- Node6&#45;&gt;Node5 -->
<g id="edge5" class="edge">
<title>Node6&#45;&gt;Node5</title>
<path fill="none" stroke="#404040" d="M490.6577,-925.2903C490.667,-897.958 490.8476,-855.6704 491.7151,-819 491.974,-808.0557 492.2786,-796.8438 492.6174,-785.5226"/>
<polygon fill="none" stroke="#404040" points="492.6273,-785.1967 488.8145,-779.0761 492.9978,-773.2024 496.8107,-779.3231 492.6273,-785.1967"/>
<text text-anchor="middle" x="529.7151" y="-860.5" font-family="Helvetica,sans-Serif" font-size="10.00" fill="#000000"> +DummyTime</text>
</g>
<!-- Node7 -->
<g id="node7" class="node">
<title>Node7</title>
<polygon fill="none" stroke="#bfbfbf" points="358.7151,-925.5 358.7151,-982.5 414.7151,-982.5 414.7151,-925.5 358.7151,-925.5"/>
<text text-anchor="middle" x="386.7151" y="-970.5" font-family="Helvetica,sans-Serif" font-size="10.00" fill="#000000">uint16_t</text>
<polyline fill="none" stroke="#bfbfbf" points="358.7151,-963.5 414.7151,-963.5 "/>
<text text-anchor="middle" x="386.7151" y="-951.5" font-family="Helvetica,sans-Serif" font-size="10.00" fill="#000000"> </text>
<polyline fill="none" stroke="#bfbfbf" points="358.7151,-944.5 414.7151,-944.5 "/>
<text text-anchor="middle" x="386.7151" y="-932.5" font-family="Helvetica,sans-Serif" font-size="10.00" fill="#000000"> </text>
</g>
<!-- Node7&#45;&gt;Node1 -->
<g id="edge8" class="edge">
<title>Node7&#45;&gt;Node1</title>
<path fill="none" stroke="#404040" d="M382.3417,-925.1995C366.4936,-816.8511 316.2539,-434.8788 379.7151,-336 456.4281,-216.4737 623.2512,-166.5883 728.5864,-146.4342"/>
<polygon fill="none" stroke="#404040" points="728.6825,-146.4165 733.855,-141.392 740.4824,-144.2342 735.3099,-149.2586 728.6825,-146.4165"/>
<text text-anchor="middle" x="405.7151" y="-566" font-family="Helvetica,sans-Serif" font-size="10.00" fill="#000000"> +pageCnt</text>
</g>
<!-- Node7&#45;&gt;Node5 -->
<g id="edge6" class="edge">
<title>Node7&#45;&gt;Node5</title>
<path fill="none" stroke="#404040" d="M393.9307,-925.4531C400.9488,-898.0579 412.0792,-855.5674 422.7151,-819 427.4492,-802.7237 432.4741,-785.8927 437.6056,-769.0112"/>
<polygon fill="none" stroke="#404040" points="437.6701,-768.7995 435.5957,-761.8932 441.1729,-757.3221 443.2473,-764.2284 437.6701,-768.7995"/>
<text text-anchor="middle" x="454.7151" y="-866" font-family="Helvetica,sans-Serif" font-size="10.00" fill="#000000"> +DummyBC</text>
<text text-anchor="middle" x="454.7151" y="-855" font-family="Helvetica,sans-Serif" font-size="10.00" fill="#000000">+bc</text>
</g>
<!-- Node8 -->
<g id="node8" class="node">
<title>Node8</title>
<g id="a_node8"><a xlink:href="../../d3/d87/classuint32__t.html" target="_top" xlink:title="{uint32_t\n||}">
<polygon fill="none" stroke="#000000" points="604.7151,-925.5 604.7151,-982.5 660.7151,-982.5 660.7151,-925.5 604.7151,-925.5"/>
<text text-anchor="middle" x="632.7151" y="-970.5" font-family="Helvetica,sans-Serif" font-size="10.00" fill="#000000">uint32_t</text>
<polyline fill="none" stroke="#000000" points="604.7151,-963.5 660.7151,-963.5 "/>
<text text-anchor="middle" x="632.7151" y="-951.5" font-family="Helvetica,sans-Serif" font-size="10.00" fill="#000000"> </text>
<polyline fill="none" stroke="#000000" points="604.7151,-944.5 660.7151,-944.5 "/>
<text text-anchor="middle" x="632.7151" y="-932.5" font-family="Helvetica,sans-Serif" font-size="10.00" fill="#000000"> </text>
</a>
</g>
</g>
<!-- Node8&#45;&gt;Node1 -->
<g id="edge15" class="edge">
<title>Node8&#45;&gt;Node1</title>
<path fill="none" stroke="#404040" d="M654.5049,-925.4101C657.8889,-919.5969 660.8704,-913.3188 662.7151,-907 673.6759,-869.4562 685.6704,-850.666 662.7151,-819 647.6193,-798.1758 622.811,-821.8242 607.7151,-801 577.3907,-759.1685 587.2862,-383.4563 607.7151,-336 633.0163,-277.2254 684.6937,-227.5363 730.9263,-192.0886"/>
<polygon fill="none" stroke="#404040" points="731.106,-191.9535 733.4982,-185.1507 740.6978,-184.7425 738.3056,-191.5452 731.106,-191.9535"/>
<text text-anchor="middle" x="633.7151" y="-566" font-family="Helvetica,sans-Serif" font-size="10.00" fill="#000000"> +subspec</text>
</g>
<!-- Node8&#45;&gt;Node5 -->
<g id="edge7" class="edge">
<title>Node8&#45;&gt;Node5</title>
<path fill="none" stroke="#404040" d="M604.5864,-926.8219C599.3923,-920.6979 594.4403,-913.9427 590.7151,-907 571.6024,-871.3787 577.9759,-858.101 567.7151,-819 564.8133,-807.9421 561.8371,-796.6104 558.8297,-785.1682"/>
<polygon fill="none" stroke="#404040" points="558.7374,-784.8167 553.3433,-780.0309 555.6864,-773.2111 561.0804,-777.9969 558.7374,-784.8167"/>
<text text-anchor="middle" x="626.7151" y="-866" font-family="Helvetica,sans-Serif" font-size="10.00" fill="#000000"> +orbit</text>
<text text-anchor="middle" x="626.7151" y="-855" font-family="Helvetica,sans-Serif" font-size="10.00" fill="#000000">+DummyOrbit</text>
</g>
<!-- Node9 -->
<g id="node9" class="node">
<title>Node9</title>
<g id="a_node9"><a xlink:href="../../d0/d0d/classo2_1_1raw_1_1RawFileWriter.html" target="_top" xlink:title="{o2::raw::RawFileWriter\n||+ RawFileWriter()\l+ ~RawFileWriter()\l+ useCaching()\l+ writeConfFile()\l+ close()\l+ registerLink()\l+ registerLink()\l+ setOrigin()\l+ getOrigin()\l+ getLinkWithSubSpec()\l+ getLinkWithSubSpec()\l+ addData()\l+ addData()\l+ setContinuousReadout()\l+ setTriggeredReadout()\l+ setContinuousReadout()\l+ isContinuousReadout()\l+ isTriggeredReadout()\l+ isReadOutModeSet()\l+ isLinkRegistered()\l+ setVerbosity()\l+ getVerbosity()\l+ getNOutputFiles()\l+ getOutputFileName()\l+ getSuperPageSize()\l+ setSuperPageSize()\l+ getIRMax()\l+ getHBFUtils()\l+ setCarryOverCallBack()\l+ setEmptyPageCallBack()\l+ carryOverMethod()\l+ emptyHBFMethod()\l+ getUsedRDHVersion()\l+ useRDHVersion()\l+ getDontFillEmptyHBF()\l+ setDontFillEmptyHBF()\l+ getAddSeparateHBFStopPage()\l+ setAddSeparateHBFStopPage()\l}">
<polygon fill="none" stroke="#000000" points="668.7151,-336.5 668.7151,-800.5 846.7151,-800.5 846.7151,-336.5 668.7151,-336.5"/>
<text text-anchor="middle" x="757.7151" y="-788.5" font-family="Helvetica,sans-Serif" font-size="10.00" fill="#000000">o2::raw::RawFileWriter</text>
<polyline fill="none" stroke="#000000" points="668.7151,-781.5 846.7151,-781.5 "/>
<text text-anchor="middle" x="757.7151" y="-769.5" font-family="Helvetica,sans-Serif" font-size="10.00" fill="#000000"> </text>
<polyline fill="none" stroke="#000000" points="668.7151,-762.5 846.7151,-762.5 "/>
<text text-anchor="start" x="676.7151" y="-750.5" font-family="Helvetica,sans-Serif" font-size="10.00" fill="#000000">+ RawFileWriter()</text>
<text text-anchor="start" x="676.7151" y="-739.5" font-family="Helvetica,sans-Serif" font-size="10.00" fill="#000000">+ ~RawFileWriter()</text>
<text text-anchor="start" x="676.7151" y="-728.5" font-family="Helvetica,sans-Serif" font-size="10.00" fill="#000000">+ useCaching()</text>
<text text-anchor="start" x="676.7151" y="-717.5" font-family="Helvetica,sans-Serif" font-size="10.00" fill="#000000">+ writeConfFile()</text>
<text text-anchor="start" x="676.7151" y="-706.5" font-family="Helvetica,sans-Serif" font-size="10.00" fill="#000000">+ close()</text>
<text text-anchor="start" x="676.7151" y="-695.5" font-family="Helvetica,sans-Serif" font-size="10.00" fill="#000000">+ registerLink()</text>
<text text-anchor="start" x="676.7151" y="-684.5" font-family="Helvetica,sans-Serif" font-size="10.00" fill="#000000">+ registerLink()</text>
<text text-anchor="start" x="676.7151" y="-673.5" font-family="Helvetica,sans-Serif" font-size="10.00" fill="#000000">+ setOrigin()</text>
<text text-anchor="start" x="676.7151" y="-662.5" font-family="Helvetica,sans-Serif" font-size="10.00" fill="#000000">+ getOrigin()</text>
<text text-anchor="start" x="676.7151" y="-651.5" font-family="Helvetica,sans-Serif" font-size="10.00" fill="#000000">+ getLinkWithSubSpec()</text>
<text text-anchor="start" x="676.7151" y="-640.5" font-family="Helvetica,sans-Serif" font-size="10.00" fill="#000000">+ getLinkWithSubSpec()</text>
<text text-anchor="start" x="676.7151" y="-629.5" font-family="Helvetica,sans-Serif" font-size="10.00" fill="#000000">+ addData()</text>
<text text-anchor="start" x="676.7151" y="-618.5" font-family="Helvetica,sans-Serif" font-size="10.00" fill="#000000">+ addData()</text>
<text text-anchor="start" x="676.7151" y="-607.5" font-family="Helvetica,sans-Serif" font-size="10.00" fill="#000000">+ setContinuousReadout()</text>
<text text-anchor="start" x="676.7151" y="-596.5" font-family="Helvetica,sans-Serif" font-size="10.00" fill="#000000">+ setTriggeredReadout()</text>
<text text-anchor="start" x="676.7151" y="-585.5" font-family="Helvetica,sans-Serif" font-size="10.00" fill="#000000">+ setContinuousReadout()</text>
<text text-anchor="start" x="676.7151" y="-574.5" font-family="Helvetica,sans-Serif" font-size="10.00" fill="#000000">+ isContinuousReadout()</text>
<text text-anchor="start" x="676.7151" y="-563.5" font-family="Helvetica,sans-Serif" font-size="10.00" fill="#000000">+ isTriggeredReadout()</text>
<text text-anchor="start" x="676.7151" y="-552.5" font-family="Helvetica,sans-Serif" font-size="10.00" fill="#000000">+ isReadOutModeSet()</text>
<text text-anchor="start" x="676.7151" y="-541.5" font-family="Helvetica,sans-Serif" font-size="10.00" fill="#000000">+ isLinkRegistered()</text>
<text text-anchor="start" x="676.7151" y="-530.5" font-family="Helvetica,sans-Serif" font-size="10.00" fill="#000000">+ setVerbosity()</text>
<text text-anchor="start" x="676.7151" y="-519.5" font-family="Helvetica,sans-Serif" font-size="10.00" fill="#000000">+ getVerbosity()</text>
<text text-anchor="start" x="676.7151" y="-508.5" font-family="Helvetica,sans-Serif" font-size="10.00" fill="#000000">+ getNOutputFiles()</text>
<text text-anchor="start" x="676.7151" y="-497.5" font-family="Helvetica,sans-Serif" font-size="10.00" fill="#000000">+ getOutputFileName()</text>
<text text-anchor="start" x="676.7151" y="-486.5" font-family="Helvetica,sans-Serif" font-size="10.00" fill="#000000">+ getSuperPageSize()</text>
<text text-anchor="start" x="676.7151" y="-475.5" font-family="Helvetica,sans-Serif" font-size="10.00" fill="#000000">+ setSuperPageSize()</text>
<text text-anchor="start" x="676.7151" y="-464.5" font-family="Helvetica,sans-Serif" font-size="10.00" fill="#000000">+ getIRMax()</text>
<text text-anchor="start" x="676.7151" y="-453.5" font-family="Helvetica,sans-Serif" font-size="10.00" fill="#000000">+ getHBFUtils()</text>
<text text-anchor="start" x="676.7151" y="-442.5" font-family="Helvetica,sans-Serif" font-size="10.00" fill="#000000">+ setCarryOverCallBack()</text>
<text text-anchor="start" x="676.7151" y="-431.5" font-family="Helvetica,sans-Serif" font-size="10.00" fill="#000000">+ setEmptyPageCallBack()</text>
<text text-anchor="start" x="676.7151" y="-420.5" font-family="Helvetica,sans-Serif" font-size="10.00" fill="#000000">+ carryOverMethod()</text>
<text text-anchor="start" x="676.7151" y="-409.5" font-family="Helvetica,sans-Serif" font-size="10.00" fill="#000000">+ emptyHBFMethod()</text>
<text text-anchor="start" x="676.7151" y="-398.5" font-family="Helvetica,sans-Serif" font-size="10.00" fill="#000000">+ getUsedRDHVersion()</text>
<text text-anchor="start" x="676.7151" y="-387.5" font-family="Helvetica,sans-Serif" font-size="10.00" fill="#000000">+ useRDHVersion()</text>
<text text-anchor="start" x="676.7151" y="-376.5" font-family="Helvetica,sans-Serif" font-size="10.00" fill="#000000">+ getDontFillEmptyHBF()</text>
<text text-anchor="start" x="676.7151" y="-365.5" font-family="Helvetica,sans-Serif" font-size="10.00" fill="#000000">+ setDontFillEmptyHBF()</text>
<text text-anchor="start" x="676.7151" y="-354.5" font-family="Helvetica,sans-Serif" font-size="10.00" fill="#000000">+ getAddSeparateHBFStopPage()</text>
<text text-anchor="start" x="676.7151" y="-343.5" font-family="Helvetica,sans-Serif" font-size="10.00" fill="#000000">+ setAddSeparateHBFStopPage()</text>
</a>
</g>
</g>
<!-- Node9&#45;&gt;Node1 -->
<g id="edge9" class="edge">
<title>Node9&#45;&gt;Node1</title>
<path fill="none" stroke="#404040" d="M791.8699,-336.3541C794.7531,-316.7574 797.6129,-297.32 800.355,-278.6821"/>
<polygon fill="none" stroke="#404040" points="800.3922,-278.4284 797.3082,-271.91 802.139,-266.5562 805.223,-273.0745 800.3922,-278.4284"/>
<text text-anchor="middle" x="819.7151" y="-299" font-family="Helvetica,sans-Serif" font-size="10.00" fill="#000000"> +writer</text>
</g>
<!-- Node10 -->
<g id="node10" class="node">
<title>Node10</title>
<polygon fill="none" stroke="#bfbfbf" points="864.7151,-540 864.7151,-597 914.7151,-597 914.7151,-540 864.7151,-540"/>
<text text-anchor="middle" x="889.7151" y="-585" font-family="Helvetica,sans-Serif" font-size="10.00" fill="#000000">uint8_t</text>
<polyline fill="none" stroke="#bfbfbf" points="864.7151,-578 914.7151,-578 "/>
<text text-anchor="middle" x="889.7151" y="-566" font-family="Helvetica,sans-Serif" font-size="10.00" fill="#000000"> </text>
<polyline fill="none" stroke="#bfbfbf" points="864.7151,-559 914.7151,-559 "/>
<text text-anchor="middle" x="889.7151" y="-547" font-family="Helvetica,sans-Serif" font-size="10.00" fill="#000000"> </text>
</g>
<!-- Node10&#45;&gt;Node1 -->
<g id="edge10" class="edge">
<title>Node10&#45;&gt;Node1</title>
<path fill="none" stroke="#404040" d="M885.7222,-539.8359C879.5593,-495.9161 867.2342,-409.3459 855.7151,-336 852.7952,-317.4081 849.6337,-297.8724 846.4544,-278.573"/>
<polygon fill="none" stroke="#404040" points="846.4319,-278.4367 841.5068,-273.1695 844.4745,-266.5974 849.3996,-271.8646 846.4319,-278.4367"/>
<text text-anchor="middle" x="894.2151" y="-299" font-family="Helvetica,sans-Serif" font-size="10.00" fill="#000000"> +packetCounter</text>
</g>
<!-- Node11 -->
<g id="node11" class="node">
<title>Node11</title>
<polygon fill="none" stroke="#bfbfbf" points="933.2151,-540 933.2151,-597 1050.2151,-597 1050.2151,-540 933.2151,-540"/>
<text text-anchor="middle" x="991.7151" y="-585" font-family="Helvetica,sans-Serif" font-size="10.00" fill="#000000">unique_ptr&lt; TTree &gt;</text>
<polyline fill="none" stroke="#bfbfbf" points="933.2151,-578 1050.2151,-578 "/>
<text text-anchor="middle" x="991.7151" y="-566" font-family="Helvetica,sans-Serif" font-size="10.00" fill="#000000"> </text>
<polyline fill="none" stroke="#bfbfbf" points="933.2151,-559 1050.2151,-559 "/>
<text text-anchor="middle" x="991.7151" y="-547" font-family="Helvetica,sans-Serif" font-size="10.00" fill="#000000"> </text>
</g>
<!-- Node11&#45;&gt;Node1 -->
<g id="edge11" class="edge">
<title>Node11&#45;&gt;Node1</title>
<path fill="none" stroke="#404040" d="M990.9243,-539.8174C988.5212,-487.0974 978.824,-372.2083 939.7151,-285 931.8071,-267.3659 921.4299,-249.9497 910.1074,-233.557"/>
<polygon fill="none" stroke="#404040" points="909.9029,-233.2694 903.166,-230.6975 902.949,-223.4897 909.6859,-226.0616 909.9029,-233.2694"/>
<text text-anchor="middle" x="982.2151" y="-299" font-family="Helvetica,sans-Serif" font-size="10.00" fill="#000000"> +cacheTree</text>
</g>
<!-- Node12 -->
<g id="node12" class="node">
<title>Node12</title>
<polygon fill="none" stroke="#bfbfbf" points="1068.7151,-540 1068.7151,-597 1116.7151,-597 1116.7151,-540 1068.7151,-540"/>
<text text-anchor="middle" x="1092.7151" y="-585" font-family="Helvetica,sans-Serif" font-size="10.00" fill="#000000">mutex</text>
<polyline fill="none" stroke="#bfbfbf" points="1068.7151,-578 1116.7151,-578 "/>
<text text-anchor="middle" x="1092.7151" y="-566" font-family="Helvetica,sans-Serif" font-size="10.00" fill="#000000"> </text>
<polyline fill="none" stroke="#bfbfbf" points="1068.7151,-559 1116.7151,-559 "/>
<text text-anchor="middle" x="1092.7151" y="-547" font-family="Helvetica,sans-Serif" font-size="10.00" fill="#000000"> </text>
</g>
<!-- Node12&#45;&gt;Node1 -->
<g id="edge13" class="edge">
<title>Node12&#45;&gt;Node1</title>
<path fill="none" stroke="#404040" d="M1093.375,-539.9571C1093.3827,-494.7124 1089.1207,-404.6267 1058.7151,-336 1029.5726,-270.2241 966.7911,-218.1569 913.1639,-183.2972"/>
<polygon fill="none" stroke="#404040" points="913.0419,-183.2195 905.8324,-183.3697 902.9208,-176.7725 910.1304,-176.6223 913.0419,-183.2195"/>
<text text-anchor="middle" x="1063.2151" y="-299" font-family="Helvetica,sans-Serif" font-size="10.00" fill="#000000"> +mtx</text>
</g>
<!-- Node13 -->
<g id="node13" class="node">
<title>Node13</title>
<polygon fill="none" stroke="#bfbfbf" points="1135.2151,-540 1135.2151,-597 1180.2151,-597 1180.2151,-540 1135.2151,-540"/>
<text text-anchor="middle" x="1157.7151" y="-585" font-family="Helvetica,sans-Serif" font-size="10.00" fill="#000000">size_t</text>
<polyline fill="none" stroke="#bfbfbf" points="1135.2151,-578 1180.2151,-578 "/>
<text text-anchor="middle" x="1157.7151" y="-566" font-family="Helvetica,sans-Serif" font-size="10.00" fill="#000000"> </text>
<polyline fill="none" stroke="#bfbfbf" points="1135.2151,-559 1180.2151,-559 "/>
<text text-anchor="middle" x="1157.7151" y="-547" font-family="Helvetica,sans-Serif" font-size="10.00" fill="#000000"> </text>
</g>
<!-- Node13&#45;&gt;Node1 -->
<g id="edge14" class="edge">
<title>Node13&#45;&gt;Node1</title>
<path fill="none" stroke="#404040" d="M1158.7775,-539.9263C1159.3896,-494.6393 1156.1919,-404.4968 1125.7151,-336 1086.9117,-248.7889 988.6404,-194.1262 914.2483,-163.8869"/>
<polygon fill="none" stroke="#404040" points="914.1462,-163.8465 907.0941,-165.3524 902.9917,-159.4219 910.0438,-157.916 914.1462,-163.8465"/>
<text text-anchor="middle" x="1151.7151" y="-310" font-family="Helvetica,sans-Serif" font-size="10.00" fill="#000000"> +nRDHWritten</text>
<text text-anchor="middle" x="1151.7151" y="-299" font-family="Helvetica,sans-Serif" font-size="10.00" fill="#000000">+nBytesWritten</text>
<text text-anchor="middle" x="1151.7151" y="-288" font-family="Helvetica,sans-Serif" font-size="10.00" fill="#000000">+nTFWritten</text>
</g>
<!-- Node14 -->
<g id="node14" class="node">
<title>Node14</title>
<polygon fill="none" stroke="#bfbfbf" points="1216.2151,-540 1216.2151,-597 1245.2151,-597 1245.2151,-540 1216.2151,-540"/>
<text text-anchor="middle" x="1230.7151" y="-585" font-family="Helvetica,sans-Serif" font-size="10.00" fill="#000000">int</text>
<polyline fill="none" stroke="#bfbfbf" points="1216.2151,-578 1245.2151,-578 "/>
<text text-anchor="middle" x="1230.7151" y="-566" font-family="Helvetica,sans-Serif" font-size="10.00" fill="#000000"> </text>
<polyline fill="none" stroke="#bfbfbf" points="1216.2151,-559 1245.2151,-559 "/>
<text text-anchor="middle" x="1230.7151" y="-547" font-family="Helvetica,sans-Serif" font-size="10.00" fill="#000000"> </text>
</g>
<!-- Node14&#45;&gt;Node1 -->
<g id="edge16" class="edge">
<title>Node14&#45;&gt;Node1</title>
<path fill="none" stroke="#404040" d="M1235.7916,-539.6644C1243.8621,-484.127 1253.2455,-361.0972 1194.7151,-285 1127.5625,-197.6928 1001.7421,-160.4655 914.9296,-144.7458"/>
<polygon fill="none" stroke="#404040" points="914.7725,-144.7187 908.177,-147.6342 902.949,-142.6675 909.5445,-139.7519 914.7725,-144.7187"/>
<text text-anchor="middle" x="1252.7151" y="-310" font-family="Helvetica,sans-Serif" font-size="10.00" fill="#000000"> +counter</text>
<text text-anchor="middle" x="1252.7151" y="-299" font-family="Helvetica,sans-Serif" font-size="10.00" fill="#000000">+lastRDHoffset</text>
<text text-anchor="middle" x="1252.7151" y="-288" font-family="Helvetica,sans-Serif" font-size="10.00" fill="#000000">+fileName</text>
</g>
<!-- Node15 -->
<g id="node15" class="node">
<title>Node15</title>
<polygon fill="none" stroke="#bfbfbf" points="1307.7151,-540 1307.7151,-597 1351.7151,-597 1351.7151,-540 1307.7151,-540"/>
<text text-anchor="middle" x="1329.7151" y="-585" font-family="Helvetica,sans-Serif" font-size="10.00" fill="#000000">static</text>
<polyline fill="none" stroke="#bfbfbf" points="1307.7151,-578 1351.7151,-578 "/>
<text text-anchor="middle" x="1329.7151" y="-566" font-family="Helvetica,sans-Serif" font-size="10.00" fill="#000000"> </text>
<polyline fill="none" stroke="#bfbfbf" points="1307.7151,-559 1351.7151,-559 "/>
<text text-anchor="middle" x="1329.7151" y="-547" font-family="Helvetica,sans-Serif" font-size="10.00" fill="#000000"> </text>
</g>
<!-- Node15&#45;&gt;Node1 -->
<g id="edge18" class="edge">
<title>Node15&#45;&gt;Node1</title>
<path fill="none" stroke="#404040" d="M1335.3508,-539.7056C1344.5441,-483.6951 1356.0916,-359.0888 1294.7151,-285 1246.0043,-226.2002 1038.3142,-176.2492 914.9236,-151.0451"/>
<polygon fill="none" stroke="#404040" points="914.6482,-150.9894 907.9742,-153.7204 902.8864,-148.6101 909.5604,-145.8792 914.6482,-150.9894"/>
<text text-anchor="middle" x="1356.2151" y="-299" font-family="Helvetica,sans-Serif" font-size="10.00" fill="#000000"> +MarginToFlush</text>
</g>
<!-- Node16 -->
<g id="node16" class="node">
<title>Node16</title>
<g id="a_node16"><a xlink:href="../../d3/d22/structo2_1_1header_1_1RDHAny.html" target="_top" xlink:title="{o2::header::RDHAny\n||+ RDHAny()\l+ RDHAny()\l+ operator=()\l+ GPUhdi()\l+ GPUhdi()\l+ GPUhdi()\l+ GPUhdi()\l+ GPUhdi()\l+ GPUhdi()\l+ GPUhdi()\l+ GPUhdi()\l# copyFrom()\l}">
<polygon fill="none" stroke="#000000" points="1376.2151,-479.5 1376.2151,-657.5 1491.2151,-657.5 1491.2151,-479.5 1376.2151,-479.5"/>
<text text-anchor="middle" x="1433.7151" y="-645.5" font-family="Helvetica,sans-Serif" font-size="10.00" fill="#000000">o2::header::RDHAny</text>
<polyline fill="none" stroke="#000000" points="1376.2151,-638.5 1491.2151,-638.5 "/>
<text text-anchor="middle" x="1433.7151" y="-626.5" font-family="Helvetica,sans-Serif" font-size="10.00" fill="#000000"> </text>
<polyline fill="none" stroke="#000000" points="1376.2151,-619.5 1491.2151,-619.5 "/>
<text text-anchor="start" x="1384.2151" y="-607.5" font-family="Helvetica,sans-Serif" font-size="10.00" fill="#000000">+ RDHAny()</text>
<text text-anchor="start" x="1384.2151" y="-596.5" font-family="Helvetica,sans-Serif" font-size="10.00" fill="#000000">+ RDHAny()</text>
<text text-anchor="start" x="1384.2151" y="-585.5" font-family="Helvetica,sans-Serif" font-size="10.00" fill="#000000">+ operator=()</text>
<text text-anchor="start" x="1384.2151" y="-574.5" font-family="Helvetica,sans-Serif" font-size="10.00" fill="#000000">+ GPUhdi()</text>
<text text-anchor="start" x="1384.2151" y="-563.5" font-family="Helvetica,sans-Serif" font-size="10.00" fill="#000000">+ GPUhdi()</text>
<text text-anchor="start" x="1384.2151" y="-552.5" font-family="Helvetica,sans-Serif" font-size="10.00" fill="#000000">+ GPUhdi()</text>
<text text-anchor="start" x="1384.2151" y="-541.5" font-family="Helvetica,sans-Serif" font-size="10.00" fill="#000000">+ GPUhdi()</text>
<text text-anchor="start" x="1384.2151" y="-530.5" font-family="Helvetica,sans-Serif" font-size="10.00" fill="#000000">+ GPUhdi()</text>
<text text-anchor="start" x="1384.2151" y="-519.5" font-family="Helvetica,sans-Serif" font-size="10.00" fill="#000000">+ GPUhdi()</text>
<text text-anchor="start" x="1384.2151" y="-508.5" font-family="Helvetica,sans-Serif" font-size="10.00" fill="#000000">+ GPUhdi()</text>
<text text-anchor="start" x="1384.2151" y="-497.5" font-family="Helvetica,sans-Serif" font-size="10.00" fill="#000000">+ GPUhdi()</text>
<text text-anchor="start" x="1384.2151" y="-486.5" font-family="Helvetica,sans-Serif" font-size="10.00" fill="#000000"># copyFrom()</text>
</a>
</g>
</g>
<!-- Node16&#45;&gt;Node1 -->
<g id="edge19" class="edge">
<title>Node16&#45;&gt;Node1</title>
<path fill="none" stroke="#404040" d="M1447.5328,-479.2102C1451.8396,-417.5279 1446.2973,-337.4583 1400.7151,-285 1337.4929,-212.2408 1061.7893,-165.3693 914.8007,-145.0786"/>
<polygon fill="none" stroke="#404040" points="914.6068,-145.0522 908.1212,-148.2046 902.7168,-143.4304 909.2024,-140.278 914.6068,-145.0522"/>
<text text-anchor="middle" x="1448.7151" y="-299" font-family="Helvetica,sans-Serif" font-size="10.00" fill="#000000"> +rdhCopy</text>
</g>
<!-- Node17 -->
<g id="node17" class="node">
<title>Node17</title>
<g id="a_node17"><a xlink:href="../../d6/d30/classuint64__t.html" target="_top" xlink:title="{uint64_t\n||}">
<polygon fill="none" stroke="#000000" points="1405.7151,-925.5 1405.7151,-982.5 1461.7151,-982.5 1461.7151,-925.5 1405.7151,-925.5"/>
<text text-anchor="middle" x="1433.7151" y="-970.5" font-family="Helvetica,sans-Serif" font-size="10.00" fill="#000000">uint64_t</text>
<polyline fill="none" stroke="#000000" points="1405.7151,-963.5 1461.7151,-963.5 "/>
<text text-anchor="middle" x="1433.7151" y="-951.5" font-family="Helvetica,sans-Serif" font-size="10.00" fill="#000000"> </text>
<polyline fill="none" stroke="#000000" points="1405.7151,-944.5 1461.7151,-944.5 "/>
<text text-anchor="middle" x="1433.7151" y="-932.5" font-family="Helvetica,sans-Serif" font-size="10.00" fill="#000000"> </text>
</a>
</g>
</g>
<!-- Node17&#45;&gt;Node16 -->
<g id="edge20" class="edge">
<title>Node17&#45;&gt;Node16</title>
<path fill="none" stroke="#404040" d="M1433.7151,-925.3398C1433.7151,-872.0648 1433.7151,-755.4384 1433.7151,-669.9593"/>
<polygon fill="none" stroke="#404040" points="1433.7152,-669.8497 1429.7152,-663.8498 1433.7151,-657.8497 1437.7152,-663.8497 1433.7152,-669.8497"/>
<text text-anchor="middle" x="1454.7151" y="-899" font-family="Helvetica,sans-Serif" font-size="10.00" fill="#000000"> +word7</text>
<text text-anchor="middle" x="1454.7151" y="-888" font-family="Helvetica,sans-Serif" font-size="10.00" fill="#000000">+word0</text>
<text text-anchor="middle" x="1454.7151" y="-877" font-family="Helvetica,sans-Serif" font-size="10.00" fill="#000000">+word1</text>
<text text-anchor="middle" x="1454.7151" y="-866" font-family="Helvetica,sans-Serif" font-size="10.00" fill="#000000">+word2</text>
<text text-anchor="middle" x="1454.7151" y="-855" font-family="Helvetica,sans-Serif" font-size="10.00" fill="#000000">+word3</text>
<text text-anchor="middle" x="1454.7151" y="-844" font-family="Helvetica,sans-Serif" font-size="10.00" fill="#000000">+word4</text>
<text text-anchor="middle" x="1454.7151" y="-833" font-family="Helvetica,sans-Serif" font-size="10.00" fill="#000000">+word5</text>
<text text-anchor="middle" x="1454.7151" y="-822" font-family="Helvetica,sans-Serif" font-size="10.00" fill="#000000">+word6</text>
</g>
</g>
</svg>
        <g id="navigator" transform="translate(0 0)" fill="#404254">
                <rect fill="#f2f5e9" fill-opacity="0.5" stroke="#606060" stroke-width=".5" x="0" y="0" width="60" height="60"/>
                <use id="zoomplus" xlink:href="#zoomPlus" x="17" y="9" onmousedown="handleZoom(evt,'in')"/>
                <use id="zoomminus" xlink:href="#zoomMin" x="42" y="9" onmousedown="handleZoom(evt,'out')"/>
                <use id="reset" xlink:href="#resetDef" x="30" y="36" onmousedown="handleReset()"/>
                <g id="arrowUp" xlink:href="#dirArrow" transform="translate(30 24)" onmousedown="handlePan(0,-1)">
                  <use xlink:href="#rim" fill="#404040">
                        <set attributeName="fill" to="#808080" begin="arrowUp.mouseover" end="arrowUp.mouseout"/>
                  </use>
                  <path fill="none" stroke="white" stroke-width="1.5" d="M0,-3.0v7 M-2.5,-0.5L0,-3.0L2.5,-0.5"/>
                </g>
                <g id="arrowRight" xlink:href="#dirArrow" transform="rotate(90) translate(36 -43)" onmousedown="handlePan(1,0)">
                  <use xlink:href="#rim" fill="#404040">
                        <set attributeName="fill" to="#808080" begin="arrowRight.mouseover" end="arrowRight.mouseout"/>
                  </use>
                  <path fill="none" stroke="white" stroke-width="1.5" d="M0,-3.0v7 M-2.5,-0.5L0,-3.0L2.5,-0.5"/>
                </g>
                <g id="arrowDown" xlink:href="#dirArrow" transform="rotate(180) translate(-30 -48)" onmousedown="handlePan(0,1)">
                  <use xlink:href="#rim" fill="#404040">
                        <set attributeName="fill" to="#808080" begin="arrowDown.mouseover" end="arrowDown.mouseout"/>
                  </use>
                  <path fill="none" stroke="white" stroke-width="1.5" d="M0,-3.0v7 M-2.5,-0.5L0,-3.0L2.5,-0.5"/>
                </g>
                <g id="arrowLeft" xlink:href="#dirArrow" transform="rotate(270) translate(-36 17)" onmousedown="handlePan(-1,0)">
                  <use xlink:href="#rim" fill="#404040">
                        <set attributeName="fill" to="#808080" begin="arrowLeft.mouseover" end="arrowLeft.mouseout"/>
                  </use>
                  <path fill="none" stroke="white" stroke-width="1.5" d="M0,-3.0v7 M-2.5,-0.5L0,-3.0L2.5,-0.5"/>
                </g>
        </g>
        <svg viewBox="0 0 15 15" width="100%" height="30px" preserveAspectRatio="xMaxYMin meet">
         <g id="arrow_out" transform="scale(0.3 0.3)">
          <a xlink:href="structo2_1_1raw_1_1RawFileWriter_1_1LinkData__coll__graph_org.svg" target="_base">
           <rect id="button" ry="5" rx="5" y="6" x="6" height="38" width="38"
                fill="#f2f5e9" fill-opacity="0.5" stroke="#606060" stroke-width="1.0"/>
           <path id="arrow"
             d="M 11.500037,31.436501 C 11.940474,20.09759 22.043105,11.32322 32.158766,21.979434 L 37.068811,17.246167 C 37.068811,17.246167 37.088388,32 37.088388,32 L 22.160133,31.978069 C 22.160133,31.978069 26.997745,27.140456 26.997745,27.140456 C 18.528582,18.264221 13.291696,25.230495 11.500037,31.436501 z"
             style="fill:#404040;"/>
          </a>
         </g>
        </svg>
</svg>
